<svg xmlns="http://www.w3.org/2000/svg" fill="currentColor" id="Capa_2" data-name="Capa 2" viewBox="0 0 225.12 199.78"><path id="Capa_1-2" d="M118.1 199.78c-23.03 0-46.54-1.62-67.97-4.69l-1.07-.17c-7.22-1.17-22.24-3.59-33.48-9.88-5.56-4.01-8.3-6.82-9.83-10.07-1.49-3.16-1.94-6.81-2.4-13.83l.16-1.95c.59-6.88.62-7.29 2.43-13.33.72-2.39.03-4.03-.63-5.61l-.15-.37c-.82-2-1.85-4.5-1.39-8.83.11-.98.26-1.69.4-2.3.28-1.22.29-1.96-.68-3.57-.33-.54-.63-1.03-.9-1.48-2.48-4.03-2.69-4.36-2.56-9.8 0-.09.02-.17.06-.25 1.26-2.77 1.61-3.26 2.78-4.9.35-.49.76-1.07 1.28-1.83.29-.42.59-.93.65-1.52.08-.73-.25-1.26-.5-1.65-.22-.36-.46-.7-.73-1.06l-.28-.38c-.94-1.32-1.97-2.93-2.37-5.46-.77-4.96 3.27-9.89 4.09-10.83l.13-.15c.5-.57.91-1.04 1.22-1.45l.11-.14c.2-.25.54-.66.49-1.28-.06-.73-.49-1.32-1.04-2.06-.05-.06-.15-.2-.21-.25-1.39-1.22-5.59-6.16-3.53-20.41 2.73-18.92 15.01-34.59 35.51-45.32C56.4 5.17 81.63 0 110.66 0c4.67 0 9.51.13 14.38.39l4.27.3c35.71 3.56 42.29 6.87 52.26 11.88 2.35 1.18 5.01 2.52 8.25 3.95 2.25.99 7.64 4.62 11.93 7.69.01 0 .11.08.12.08l.9.74c5.1 4.26 13.62 11.4 19.03 26.66 3.24 9.16 5.76 21.77-.63 29.86-.56.71-1 1.26-1.32 1.78-.19.3-.39.62-.43 1.06-.05.53.18.94.34 1.24.29.54.64 1.06.98 1.54 1.38 1.95 1.53 2.31 2.18 3.8.17.4.38.87.64 1.45.04.09.06.18.06.28-.02 3.61-.29 5.07-.64 6.92-.26 1.41-.56 3-.81 5.82-.21 2.38-.47 2.85-1.27 4.25-.32.57-.72 1.27-1.21 2.26-.03.06-.07.11-.11.16-.81.85-1.62 1.55-2.32 2.16l-.53.46c-.43.38-.89.88-1.02 1.03-.38.44-.37 1.09.04 1.51.27.28.7.69 1.16 1.02l.25.17q2.34 1.66 4.46 3.8s.08.09.1.13l.55.94c1.4 2.41 2.17 3.74 2.49 5.36.35 1.82.16 4.14-.74 8.86 0 .04-.03.1-.05.15l-1.02 2.31c-.72 1.63-1.24 2.8-1.58 3.74-.64 1.8-.46 2.71.12 4.37 2.58 7.42 2.35 16.9-.62 24.75-2.14 5.66-5.49 9.97-9.71 12.46-9.29 5.5-26.74 9.85-49.13 12.25-13.49 1.45-28.27 2.18-43.92 2.18ZM12.49 149.01a1.09 1.09 0 0 0-1.07.81c-.9 3.25-1.82 8.94-1.49 14.28.32 5.13 1.71 9.03 4.12 11.59 2.94 3.13 7.37 5.71 13.57 7.9 8.1 2.85 17.4 4.33 24.6 5.3 12.23 2.1 36.9 4.56 66.27 4.56 25.04 0 59.88-1.85 83.68-10.64.05-.02.1-.04.15-.07.47-.24.99-.45 1.54-.67 2.54-1.03 5.7-2.31 9.45-7.85 1.98-3.22 3.09-7.62 3.35-13.17.07-1.39.17-4.92-.3-7.78-.15-.89-.33-1.59-.55-2.15-.04-.1-.1-.21-.15-.32a1.08 1.08 0 0 0-.67-.55c-.1-.03-.21-.05-.31-.05-.19 0-.38.05-.55.14-7.12 4.04-30.46 13.44-93.35 13.52h-.98c-50.99 0-86.49-4.75-105.5-14.12-.46-.23-.94-.45-1.33-.63-.15-.07-.31-.1-.47-.1Zm56.92-.52c.57 0 1.92.17 2.69 1.52.26.46.4 1.04.43 1.82v.39l.03.58c.01.32.03.69.25 1.08.08.15.11.33.06.5l-.13.46c-.09.32-.04.67.15.94s.49.45.83.48c1.47.11 5.93.46 23.53 1.02 8.89.27 15.22.39 20.51.39 6.79 0 11.88-.2 18.91-.48 4.18-.16 9.12-.36 15.62-.56.37-.01.72-.21.91-.53.2-.32.22-.71.06-1.05-.29-.62-.46-1.11-.53-1.52-.08-.44-.07-.84.02-1.19l.18-.45.29-.42c.56-.6 1.67-.93 3.13-.93.3 0 .63.01.97.04 1.37.11 2.33.31 3.03.62.81.36 1.34.85 1.96 1.8.18.28.36.6.57.95.19.33.4.69.64 1.08.2.33.56.53.95.53h.12c28.08-2.95 32.67-4.86 41.82-8.67l2.12-.88c2.29-1.01 4.1-1.96 5.54-3.34 2.14-2.04 3.28-4.86 4.63-9.34.03-.11.05-.23.05-.35-.01-.5 0-.97 0-1.42v-.89c0-1.01-.06-1.92-.57-2.9-.9-1.74-2.87-3.29-7.28-5.74-.16-.09-.35-.14-.54-.14-.09 0-.18 0-.27-.01l-.15-.02c-.18-.02-.36-.04-.58-.04-.75 0-1.59.23-2.83.77-2.18.95-3.72 1.65-5 2.24-2.93 1.33-4.4 2-9.05 3.63-.4.14-.69.5-.74.92l-.65 5.75c-.03.28-.24.51-.52.57-.92.19-1.63.46-2.15.66-.27.1-.49.19-.69.24l-.47.05-.33-.03-.28-.08-.35-.18c-.12-.08-.25-.2-.4-.37.07 0 .13-.02.19-.03.58-.11.97-.65.89-1.24-.07-.56-.55-.96-1.1-.96-.03 0-.47.03-.47.03-.21.02-.41.09-.57.21l-.06-.64.1-.43.17-.24.26-.16h.08c.23-.04.45-.14.62-.3.12-.11.39-.38.63-.68.28-.36.33-.87.1-1.26-.2-.35-.56-.57-.96-.57-.05 0-.11 0-.16.01-3.49.54-4.87.63-8.99.92l-2.37.17q-3.34-.24-6.34-1.11l-.46-.13a1.12 1.12 0 0 0-1.19.41c-.27.37-.29.87-.04 1.26.13.2.33.37.55.46.23.09.9.35 1.25.52.24.12.44.24.6.38l.39.5.14.42v.23l-.06.32c-.02.05-.16.43-.57.89-.66.72-1.9 1.44-3.18 1.44-.75 0-1.42-.26-1.97-.77s-.89-.99-1.02-1.45l-.03-.59.18-.54c.14-.24.29-.43.47-.59l.31-.23.39-.2c.06-.02.22-.06.42-.1l.27-.04c.33-.05.62-.26.79-.55.28-.36.34-.89.11-1.28-.2-.35-.56-.59-.95-.59-.05 0-.1 0-.14.01l-.77.12c-.2.03-.37.11-.52.22-5.61 1.63-17.59 5.38-26.15 9.91-.21.11-.38.29-.48.5-.07.14-.17.32-.27.47-.28.44-.22 1.01.15 1.38l.49.48c.48.49.75.96.83 1.43.14.83-.48 2.01-1.36 2.58-.46.29-1.09.47-1.7.47-.5 0-.93-.12-1.22-.33-.65-.49-.87-.91-.99-1.27-.06-.18-.1-.36-.13-.54 0-.1 0-.37-.14-.67a1.11 1.11 0 0 0-1.4-.58c-.13.05-.29.11-.41.13l-.32.02-.49-.07c-.05 0-.11-.01-.16-.01-.17 0-.33.04-.48.11l-2.44 1.18c-2.47 1.19-3.44 1.65-7.38 3.6-3.5 1.72-5.94 2.46-8.17 2.46-1.67 0-3.4-.41-5.61-1.34-2.01-.84-4.43-2.15-7.48-3.8-3.81-2.06-8.56-4.62-15.09-7.72-.14-.07-.28-.1-.43-.11h-.28l-.21-.07-.54-.32a1.07 1.07 0 0 0-.57-.16c-.27 0-.54.1-.75.29-.48.44-1.07 1.08-1.8 1.97-.32.38-.45.81-.56 1.16-.03.11-.07.22-.11.32-.23.55-.52.95-.87 1.22-.31.24-.99.51-1.87.51-.21 0-.43-.02-.64-.05-.89-.15-2.94-.77-2.74-3.36.12-1.54.61-1.99.76-2.13.12-.11.5-.3 1.05-.45.17-.05.33-.14.46-.26.25-.24.44-.49.59-.68.21-.28.27-.64.17-.97s-.35-.6-.68-.72c-1.5-.56-2.84-.91-4.87-.91-.43 0-.88.02-1.38.05-.85.06-1.56.09-2.17.09-2.33 0-3.21-.39-5.15-1.24-.74-.33-1.61-.71-2.72-1.14-.13-.05-.27-.07-.4-.07s-.28.03-.42.08c-.13.05-.27.1-.42.14-.05.01-.09.02-.14.02-.24.04-.65.1-1.02.4-.51.42-.87.92-1.2 1.36-.57.77-1 1.33-1.5 1.78-.17.15-.78.66-1.5.91-.35.12-.69.18-1 .18-.69 0-1.29-.31-1.83-.94l-.15-.23-.07-.2-.02-.2.04-.33s.04-.09.08-.22c.14-.42.38-1.15.74-2.46.06-.23.05-.48-.04-.7l-.7-1.79c-.15-.38-.5-.65-.9-.7-2.6-.31-8.13-.88-15.93-1.23-.05 0-.21-.01-.42-.01-.4 0-1 .03-1.61.17-.28.06-.55.13-.83.27-.34.17-.56.51-.6.89-.01.13-.03.29-.05.4l-.15.37-.18.25c-1.32 1.5-2.07 1.7-2.52 1.72-.71 0-1.6-.44-2.79-1.35-.37-.28-.68-.68-.92-1-.03-.04-.06-.09-.09-.14-.08-.14-.2-.33-.37-.51-.21-.22-.5-.35-.8-.35-.08 0-.16 0-.25.03-.28.06-.82.19-1.19.32-.98.34-1.94.79-2.21.92-1.27.6-2.47.8-3.52.96-.27.04-.53.09-.77.14-.15.03-.35.1-.47.14-.37.12-.68.44-.76.83-.02.07-.03.17-.04.24-.39 3.51.19 6.43 1.74 8.67 1.69 2.46 4.08 3.53 5.23 4.05.2.09.36.16.46.22 7.59 4.39 11.48 5.12 19.98 6.72 2.3.43 4.96.93 8.15 1.59 7.26 1.26 8.38 1.37 13.76 1.9l2.35.23h.11c.32 0 .62-.13.83-.37l3.9-4.39c.1-.11.23-.18.37-.21.28-.05.53-.2.7-.43.19-.25.33-.41.41-.48l.54-.26.63-.09ZM21.5 109.77c-.4 0-.77.21-.97.58l-.15.27a1.114 1.114 0 0 0 .57 1.57c3.53 1.4 12.45 4.34 16.39 5.53 4.87 1.23 7.88 1.84 10.52 2.39 4.41.9 7.32 1.5 15.16 4.19 21.48 7.37 27.32 10.72 32.96 13.96 2.48 1.42 4.82 2.76 8.38 4.39 3.14 1.44 5.4 2.08 7.35 2.08.27 0 .54-.01.8-.04 2.08-.2 3.65-1.16 5.47-2.27l.45-.27c1.7-1.04 3.62-2.22 6.23-3.34 3.71-1.6 6.55-3.05 9.3-4.46 4.11-2.1 7.99-4.09 14.29-6.31.36-.13.63-.22 1.07-.36 1.4-.47 4.66-1.56 18.27-6.33 1.06-.35 1.94-.64 2.69-.9.56-.19.88-.79.72-1.36a1.11 1.11 0 0 0-1.07-.81c-.08 0-.17 0-.25.03-5.91 1.38-19.76 4.6-42.46 5.27-5.74.17-11.24.25-16.33.25-29.29 0-43.33-2.7-58.19-5.57-3-.58-6.01-1.16-9.16-1.71-3.39-.6-6.33-1.62-10.4-3.03-2.94-1.02-6.6-2.29-11.33-3.69-.1-.03-.21-.05-.31-.05Zm-12.12 1.44c-.64.07-1 .52-1.22.78l-.09.11c-.34.4-.71.92-1.18 1.7-.68 1.13-.76 2.94-.22 4.84.81 2.81 2.8 4.49 5.35 4.49.46 0 .94-.06 1.43-.17 1.53-.35 2.65-.64 3.61-.89 2.38-.63 3.69-.97 8.19-1.18.3-.01.59-.15.79-.38s.3-.53.27-.83c-.04-.46-.27-.73-.46-.88-.36-.3-.77-.39-1.13-.47l-.81-.19c-.65-.15-1.39-.32-2.24-.6-.85-.27-1.57-.49-2.19-.68-3.01-.92-3.56-1.08-6.81-3.8-.67-.56-1.38-1.13-2.05-1.49-.33-.18-.65-.36-1.09-.36h-.16Zm37.02-1.34c-.58 0-1.05.45-1.1 1.02-.05.58.35 1.09.92 1.19 6.5 1.1 17.54 2.33 39.54 4.78l5.05.56c8.03.47 15.61.71 22.6.71 16.76 0 25.71-1.34 28.65-1.79 19.02-1.77 25.51-3.03 42.85-6.38 2.53-.49 5.29-1.02 8.35-1.61.04 0 .38-.1.38-.1 5.63-1.5 9.72-2.88 12.13-4.11 3.49-1.78 6.5-3.31 8.59-4.97 1.05-.83 2.3-1.98 2.67-3.57.32-1.34-.01-2.8-1.04-4.61-.75-1.33-1.46-2.28-2.18-2.91-.55-.48-1.05-.72-1.54-.72-.24 0-.47.06-.66.17-.09.05-.19.12-.28.17-.33.21-.52.58-.5.97l.02.59c0 .23 0 .61-.04 1.08-.65 6.14-5.19 10.38-13.49 12.61-4.59 1.23-10.51 1.85-17.58 1.85-10.99 0-22.34-1.46-29.86-2.43-2.36-.3-4.23-.55-5.62-.68-4.8-.47-6.76-.92-8.84-1.4-1.59-.36-3.23-.74-6.15-1.11-5.47-.7-9.64-1.02-13.12-1.02-6.4 0-10.03 1.12-15.05 2.66-2.77.85-5.9 1.82-10.22 2.83-1.97.47-22.72 4.34-23.59 4.46-11.78 1.62-15.81 1.75-18.93 1.75H46.4ZM17.07 89.08c-.16.13-.28.3-.35.5l-.07.2c-.69 2-1.86 5.36 1.49 9.06 1.7 1.88 4.64 3.28 8.98 4.28 4.79 1.11 9.72 1.34 12.23 1.38 11.25-.21 27.1-2.17 47.15-5.83 1.7-.31 2.77-.53 3.7-.75.54-.13.91-.64.85-1.2s-.52-.98-1.08-.99c-13.44-.26-39-1.27-59.24-5.09-.05-.01-.25-.06-.57-.14-1.6-.39-5.87-1.44-9.06-1.99-1.02-.17-2.21-.27-2.67-.3h-.08c-.34 0-.66.16-.87.43-.08.1-.18.22-.26.31l-.15.12Zm-8.24 2.13c-.36 0-.7.17-.91.48-.52.75-.74 1.5-.84 2.85-.18 2.29.49 3.53.78 3.95.45.64.95 1.15 1.51 1.52a1.12 1.12 0 0 0 1.35-.08c.38-.33.49-.87.27-1.32-.32-.66-1.33-3.04-1.05-6.2a1.12 1.12 0 0 0-1.11-1.21Zm193.76-1.83c-.13 0-.26 0-.39.02-.41.05-.7.15-1.07.27-1.02.35-3.39 1.17-13.98 2.63-8.07 1.11-19.25 1.63-29.11 2.09-2.15.1-4.24.2-6.24.3-.58.03-1.04.51-1.06 1.09s.43 1.08 1.01 1.13l4.36.39c8.22.74 16.72 1.5 24.27 1.5 1.74 0 3.4-.04 4.94-.12 8.5-.45 14.09-2.11 17.59-5.22.57-.51.92-1.66 1.01-2 .06-.22.1-.52.12-.89.03-.59-.41-1.1-1-1.16-.12-.01-.29-.02-.46-.02ZM109.64 6.27c-25.87 0-48.64 4.32-65.85 12.48-18.4 8.73-29.86 21.33-34.07 37.45-3.12 11.94-1.13 16.62-.28 18.61l.13.32c.03.08.08.16.13.24 2.83 3.91 4.59 5.21 8.2 6.07.97.23 2.06.44 3.34.68 1.95.38 4.39.84 7.46 1.6 4.36 1.07 15.94 3.92 53.52 5.98 18.27.83 23.53 1.17 25.78 1.31.92.06 1.39.09 2.02.11 5.17-.06 7.38-.07 8.63-.07h2.07c27.44-1.19 57.08-4.08 68.55-5.27 4.02-.42 21.81-4.54 23.06-5.11.67-.3 2.69-1.22 4.24-3.8 2-3.34 2.45-8.09 1.32-14.12-2.46-13.17-6.57-18.88-9.02-22.29-.28-.39-.55-.76-.78-1.1-12.12-15.02-26.18-20.28-37.48-24.5-.99-.37-1.97-.74-2.92-1.1-7.67-2.93-9.19-3.13-14.84-3.91-1.2-.16-2.6-.36-4.3-.61-13.33-1.97-26.43-2.97-38.92-2.97Zm31.68 147.01c-1.01 0-1.9-.33-2.43-.92-.44-.48-.63-1.12-.58-1.92l.2-.77c.1-.21.24-.42.42-.61.38-.42.87-.73 1.01-.82l.38-.18s.44-.1.45-.1c.2 0 .36.02.47.03h.14c.16 0 .31-.03.46-.1a.7.7 0 0 1 .27-.06c.17 0 .33.06.45.18.07.07.15.13.24.17.46.25.85.51.95.61.74.79 1.04 1.58.9 2.35-.17.92-1.11 1.73-2.33 2-.33.07-.67.11-1 .11Zm44.24-2.73c-.17 0-.33-.06-.45-.18-.26-.25-.51-.48-.74-.69-.45-.41-.83-.76-1.08-1.05-.19-.22-.33-.43-.43-.63l-.19-.72c-.02-.33.03-1.1 1.31-2.32.6-.58 1.24-.88 1.93-.92h.14c1.34 0 2.58 1.15 3.07 2.24.19.43.3.87.29 1.25l-.08.49-.22.47-.15.18-.29.21s-.1.05-.25.13c-.41.22-1.14.62-2.53 1.45-.1.06-.22.09-.33.09m-138.44-.32-.4-.11c-.19-.07-.48-.24-.75-.47-.55-.45-1.2-1.26-1.82-2.28-2.01-3.27-3.98-8.77-4.53-10.38-.05-.15-.14-.29-.25-.4-.45-.47-.71-.86-.76-.99-.01-.05-.06-.3-.07-.69-.03-1.08.06-3.18.13-3.75l.08-.31.15-.23.11-.09.15-.07.22-.05h.22l.24.04.36.16c.12.09.41.35.81.79.16.18.38.3.62.34.05 0 .09.02.14.04l2 .92c.2.09.34.28.37.5l.26 1.82c.02.13.06.25.12.37.8 1.5 3.86 6.72 5.14 8.89.71 1.21.82 1.76.87 2.23.01.09.01.18.02.27.01.3.03.7.19 1.26.05.2.01.4-.11.57-.11.14-.27.24-.45.25-.22.02-.43.11-.6.25-.13.11-.66.53-.95.72-.19.13-.39.23-.58.3l-.64.1-.31-.03Zm119.42-1.38c-.38 0-.73-.08-1-.23l-.45-.36c-.11-.12-.22-.27-.32-.44-.14-.24-.37-.72-.44-.85-.08-.16-.2-.31-.35-.42a.65.65 0 0 1-.26-.52c0-.19.08-.37.22-.5.15-.14.26-.32.32-.52.05-.16.16-.58.25-.83l.36-.64.44-.4c.62-.39 1.22-.59 1.78-.59.27 0 .53.04.81.13.98.32 1.56 1.26 1.67 1.44 1.15 2.01-.29 3.6-1.33 4.23-.53.32-1.13.5-1.7.5m-82.29-.05c-.97 0-1.93-.37-2.5-.96-.96-1-1-2.41-.11-4.18.15-.3.32-.55.5-.75l.35-.3.33-.17.56-.09.49.09c.14.06.4.22.75.49.11.09.24.16.38.19.13.04.46.13.67.21l.43.25.23.22.21.32.22.58c.02.1.09.47.11.59.03.16.09.3.18.43.17.25.15.58-.04.81-.1.11-.17.24-.22.38-.03.1-.14.39-.2.55-.06.14-.12.27-.19.39l-.3.36c-.29.26-.85.54-1.6.59zm-51.54-2.2c-.64-.05-1.17-.06-1.62-.06-.3 0-.56 0-.8-.03-.56-.06-.95-.2-1.34-.5-.39-.29-.8-.79-1.24-1.52-1.08-1.78-1.25-2.88-1.25-3.39 0-.16 0-.31.03-.45l.11-.4.19-.38.29-.36c.37-.34 1-.54 1.73-.54.57 0 1.18.12 1.77.35 1.89.73 3.84 2.6 3.78 4.63l-.08.47-.25.55c-.12.2-.33.5-.41.61-.1.14-.16.3-.19.46-.02.15-.1.29-.21.39-.12.11-.28.16-.44.16h-.05Zm27.89-1.57c-1.54-.16-2.37-1.65-2.39-3.05-.02-1.43.75-2.94 2.51-3.06h.22c1.47 0 3.25.48 3.4 2.73l-.05.51-.24.6c-.11.18-.28.44-.37.58-.1.15-.19.37-.21.55-.02.15-.09.3-.2.4-.13.12-.28.19-.45.19s-.35.03-.5.1c-.11.05-.53.24-.77.32-.15.05-.31.1-.46.12h-.51Zm142.06-.67c-.24 0-.47-.03-.68-.08l-.33-.12-.43-.25c-.52-.38-.85-1.1-.93-2.14-.11-1.43 1.19-2.46 1.44-2.64l.52-.27.54-.11c.16 0 .39.05.62.1a1.13 1.13 0 0 0 .77-.09c.09-.05.2-.07.3-.07.05 0 .09 0 .14.01a.7.7 0 0 1 .43.3l1.51 2.45a.66.66 0 0 1-.28.94c-.4.2-.63.49-.79.69-.03.04-.06.09-.1.12-.34.35-.64.59-.94.73-.49.23-1.03.39-1.48.44-.1 0-.21.02-.31.02Zm-47.81-.32c-.58 0-1.18-.07-1.81-.14-.67-.08-1.36-.16-2.08-.16h-.16c-.21 0-.39-.09-.52-.24-.19-.23-.45-.37-.74-.4-.15-.02-.38-.04-.52-.08l-.27-.11-.25-.15-.57-.62c-.3-.48-.81-1.6-.06-2.88.37-.62 1.25-1.1 2.35-1.27.44-.07.95-.11 1.52-.11 1.84 0 3.67.36 3.93.43 1.84.6 2.35 2.11 2.23 3.22-.13 1.19-.98 2.47-2.94 2.5h-.12Zm21.64-1.79a.6.6 0 0 1-.41-.15 1 1 0 0 0-.46-.22c-.12-.03-.31-.06-.43-.12l-.28-.16-.35-.28s-.71-.69-.82-1.61c-.33-2.81 2.42-3.41 2.97-3.5.23-.04.45-.05.67-.05 1 0 1.72.36 1.95.58 1.41 1.43 1.34 2.47 1.15 3.13-.3 1.1-1.52 1.85-1.77 2l-.41.16-.54.08h-.59c-.15 0-.29.03-.43.09-.08.03-.17.05-.25.05m-158.06-2.42c-.82 0-1.7-.47-2.4-1.28-.52-.61-.91-1.41-1.01-2.08q-.03-.195-.03-.39l.07-.52.1-.27.23-.38c.61-.8 1.31-1.29 2.1-1.4.1-.02.21-.02.31-.02.49 0 .97.16 1.44.46.39.25.79.64 1.12 1.09l.22.42.12.57v.7c0 .18.03.36.11.53.12.25.07.56-.14.75-.09.09-.17.19-.22.3-.26.5-.58.97-.71 1.07-.41.29-.85.44-1.31.44Zm184.8-4.25c-.43-.02-1.21-.06-2.7-.06-.3 0-.55-.2-.63-.48a1 1 0 0 0-.23-.43c-.09-.1-.25-.29-.35-.43l-.25-.48-.09-.43c-.08-1.54 1.07-2.57 2.09-2.99.45-.19.94-.29 1.42-.29.85 0 1.61.31 2.08.85.58.67.87 1.33.9 2.03.04 1.27-1 2.23-1.27 2.46l-.36.19-.36.06c-.06 0-.14 0-.25-.01Zm9.59-1.78-.63-.2-.57-.38c-.25-.24-.45-.54-.59-.91-.35-.91-.3-2.26.14-3.37.44-1.13 1.23-1.76 1.81-1.89.13-.03.25-.04.38-.04 1 0 1.73.95 2.16 1.75.6 1.09.66 2.16.66 2.57l-.04.38-.12.39c-.03.06-.1.16-.21.32-.11.15-.18.33-.21.52a.655.655 0 0 1-.65.57h-.16c-.12 0-.26.01-.36.04-.12.03-.55.16-.78.21-.15.03-.3.06-.45.07l-.41-.03ZM197.9 65.75c-2.36 0-4.53-1.08-5.52-2.74-.9-1.51-.9-3.31 0-5.35.45-1.02.83-1.43 1.08-1.64.37-.32.78-.5 1.46-.67.16-.04.33-.08.53-.12.55-.12 1.31-.28 2.27-.6q.105-.03.21-.03c.08 0 .17.02.25.05.83.34 1.56.58 2.19.79s1.13.38 1.52.57c.76.37 1.2.8 1.52 1.46s.46 1.63.45 2.96c-.04 3.55-2.75 5.07-5.28 5.31-.23.02-.45.03-.68.03Zm-79.66-.65c-1.83 0-3.76-.93-5.57-2.7-.1-.1-.17-.23-.19-.37-.13-.82-.29-1.41-.43-1.88-.04-.16-.08-.3-.12-.43-.22-.91-.37-1.51.68-3.29.67-1.14 1.29-1.89 1.9-2.29.54-.36 1.08-.52 1.8-.52h.24c.39.02.87.1 1.42.18.67.11 1.5.24 2.49.32.14.01.26.06.37.15.17.14.35.27.53.39.12.08.24.16.35.25 1.52 1.26 2.26 3 2.09 4.89-.18 1.94-1.3 3.72-2.94 4.62-.81.45-1.7.68-2.62.68m-86.91-4.45c-.95 0-1.83-.23-2.63-.69-2.1-1.19-3.27-3.92-2.78-6.49.26-1.38 1.24-3.76 4.82-4.26.72-.1 1.31-.15 1.8-.15s.87.05 1.21.15c.8.24 1.44.85 2.85 2.18l.4.38c.11.1.18.24.2.39.13.96.33 1.73.49 2.34.08.32.16.6.2.86.12.65.11 1.15-.04 1.61-.16.47-.54 1.21-2.11 2.21-1.54.97-3.01 1.46-4.4 1.46Zm135.24-.47c-2.06 0-3.95-.78-5.06-2.07-.97-1.13-1.35-2.57-1.1-4.3.04-.29.15-.59.35-.96.15-.21.35-.49.4-.88.02-.16.1-.3.23-.41.04-.03.11-.1.19-.19 1.5-1.5 3.22-2.27 5.11-2.27q.63 0 1.29.12c2.58.46 4.6 3.11 4.81 4.67.23 1.71-.15 3.14-1.12 4.25-1.12 1.27-3 2.04-5.05 2.04h-.04Zm-93.73-5.67c-.19 0-.38 0-.59-.02l-.52-.04c-.57-.05-1.28-.1-2.29-.11-.13 0-.26-.04-.37-.11-.61-.42-1.13-.71-1.54-.94-.26-.15-.49-.27-.69-.41-.48-.34-.78-.66-1-1.13-.24-.48-.39-1.16-.49-2.09-.05-.47.13-1.68.79-2.93.67-1.27 1.64-2.24 2.66-2.65.98-.4 1.95-.6 2.87-.6 3.57 0 6.02 3.09 6.08 5.98.03 1.74-.76 3.19-2.22 4.09-1.32.81-1.94.95-2.68.95Zm23.3-9.82c-.26 0-.53-.02-.79-.06-1.43-.24-2.69-1.05-3.86-2.49-.95-1.18-2.22-3.58-.05-6.37 1.32-1.7 2.84-2.56 4.52-2.56 2.12.03 4.24 1.51 5.34 3.68.77 1.52.88 3.14.3 4.34-.16.33-.4.66-.79 1.07l-.19.19c-.25.24-.55.53-.76.96a.66.66 0 0 1-.43.35c-.05.01-.1.03-.15.05l-.18.08c-.64.28-1.71.76-2.97.76Zm43.36-1.05c-.57 0-1.14-.1-1.7-.29-.34-.12-.71-.31-1.16-.61l-.23-.16c-.28-.21-.64-.47-1.09-.62a.64.64 0 0 1-.43-.51c-.09-.5-.37-.84-.55-1.07l-.12-.15c-.31-.47-.48-.86-.55-1.24-.07-.41 0-1.72.66-3.13.63-1.34 2.14-3.58 5.23-3.58.16 0 .32 0 .49.02 2.49.18 2.99.72 3.67 1.66.13.18.26.39.41.63.29.46.65 1.04 1.18 1.72.1.13.15.3.13.46v.24c.07.58.12 1.79-.2 2.65-.36.97-1.05 1.84-2.1 2.67-.39.31-1.8 1.3-3.64 1.3Zm45.28-4.68q-.345 0-.69-.03c-2.18-.21-4.7-1.44-5.2-4.29-.3-1.73-.04-2.48.22-2.94.22-.39.55-.73 1.08-1.1.15-.1.31-.21.48-.32.55-.35 1.23-.79 2-1.5.11-.1.25-.16.4-.17.12-.02.49-.07 1.06-.07.91 0 2.27.13 3.61.77.35.16 2.11 1.08 2.63 2.89.51 1.78.31 3.31-.61 4.55-1.01 1.37-2.92 2.22-4.99 2.22ZM48.45 35.69c-.35 0-.69-.02-1.02-.07-2.34-.35-4.79-1.91-4.64-5.26.01-.29.09-.61.24-.99.14-.27.29-.56.31-.94 0-.17.07-.32.18-.43.02-.02.1-.12.12-.14.88-1.09 2.73-2.91 5.35-2.91.45 0 .9.06 1.36.16.73.17 1.67.81 2.47 1.66.75.8 1.17 1.59 1.22 1.71.6 1.91.41 3.58-.57 4.93-1.02 1.41-2.94 2.28-5.01 2.28Zm68.61-10.52c-1.68 0-3.2-.52-4.16-1.42-1.07-1.01-1.53-2.39-1.35-4.12.03-.27.12-.57.28-.91.13-.21.29-.47.33-.83.02-.16.08-.3.19-.41l.7-.7c1.28-1.28 1.82-1.81 2.54-2.06.43-.15.94-.22 1.6-.22.44 0 .94.03 1.53.09.75.08 3.29.52 4.54 2.79.83 1.51.95 2.94.34 4.27-.73 1.6-2.64 2.92-4.88 3.36-.54.11-1.1.16-1.65.16Zm38.6-.9c-1.24 0-3.51-.32-4.89-2.47-1.12-1.75-1.18-2.63-1.12-3.14.05-.49.24-.96.61-1.5.22-.33.51-.67.85-1.09.32-.38.67-.82 1.06-1.33.1-.14.26-.23.43-.25.46-.07.83-.26 1.12-.42.07-.04.15-.08.23-.12.48-.24.87-.37 1.23-.42h.12c.55 0 1.7.2 2.82.57 1.44.47 2.59 1.15 2.95 1.54 1.06 1.17 1.54 2.39 1.43 3.66-.14 1.59-1.3 3.12-3.12 4.07-1.13.59-2.45.92-3.71.92Zm-78.53-1.78c-.34 0-.69-.02-1.03-.06-2.14-.27-3.86-1.34-4.62-2.85-.6-1.2-.6-2.6 0-4.16.42-1.1 1.73-2.14 3.42-2.7a9.3 9.3 0 0 1 2.94-.47c1.69 0 3.17.47 4.04 1.28.17.16.34.38.51.67.07.16.18.43.43.66.15.14.22.33.21.53-.03.42.1.76.18.99.02.05.04.1.05.15.13.46.17.82.15 1.14-.25 3.31-3.43 4.82-6.28 4.82" data-name="Capa 1" style="fill-rule:evenodd"/></svg>