<svg xmlns="http://www.w3.org/2000/svg" id="Capa_2" data-name="Capa 2" viewBox="0 0 243.65 226.6"><path id="Capa_1-2" d="M202.73 226.6c-13.38 0-22.53-8.71-25.65-17.34-.56-1.54-.7-2.26-.86-3.1-.15-.77-.32-1.65-.86-3.24-.04-.11-.09-.24-.14-.36a1.02 1.02 0 0 0-.92-.61c-.14 0-.28.03-.41.09-.17.08-.37.17-.53.25-.57.28-1.26.61-2.1.82-13.87 3.47-26.81 5.61-30.15 5.84-5.87.4-8.9.77-11.84 1.14-3.19.4-6.21.77-12.62 1.12-5.02.28-10.1.42-15.1.42-35.82 0-61.21-7.03-72.05-10.04l-1.3-.36c-18.68-6-21.86-8.43-26.84-14.4l-.13-.21c-.72-1.26-2.76-5.76.93-10.9 1.01-1.41 3.05-3.07 5.91-4.8 3.26-1.98 6.81-3.61 8.19-4.22 1.89-.67 3.14-1.12 4.18-1.5 2.17-.8 3.37-1.23 7.29-2.41 4.86-1.46 7.97-2.14 9.39-2.41a1.008 1.008 0 0 0 .68-1.48l-.45-.77c-.44-.75-1.07-1.84-1.99-3.46-9.53-16.82-13.6-45.51-10.25-57.21L25.9 96s.04-.07.07-.1c.45-.45.54-.52 1.6-1.37l1.59-1.29c5.25-3.01 6.26-3.17 10.5-3.85.97-.16 2.09-.34 3.46-.58 15.06-3.51 24.5-4.24 29.78-4.24.94 0 1.64.02 2.13.04h.04c.06 0 .11 0 .17-.01 8.02-1.37 9.99-1.39 17.33-1.44 2.34-.02 5.22-.04 9-.11 2.3-.04 4.45-.06 6.44-.06 12.48 0 19.2.75 22.81 1.15 1.24.14 2.13.24 2.85.27 11.25.47 14.05 1.08 20.83 2.55 2.37.51 5.31 1.15 9.25 1.92l1.36.31c5.38 1.2 5.7 1.27 10.93 3.78l.94.44c1.53.72 2.64 1.23 3.48 2.08 1.24 1.25 2.42 3.56 2.67 11.9.03.92-.05 1.74-.12 2.47l-.02.26c-.02.28-.03.61-.04.85a.99.99 0 0 0 1 1.01h.01c.23 0 .53-.02.8-.06 1.04-.16 1.69-.28 2.23-.38.91-.16 1.52-.27 3.24-.47h.35c.24 0 .48 0 .72-.01.22 0 .44-.01.66-.01h.2c5.87.15 11.15 2.74 14.87 7.29 4.13 5.06 5.8 11.95 4.57 18.9-1.11 6.27-4.51 12.32-9.84 17.52-5.04 4.9-9.78 6.87-12.61 8.04l-.45.19c-.53.22-1.04.44-1.45.66-.08.04-.2.12-.28.17-.32.21-.49.58-.45.96a1 1 0 0 0 .67.82c2.83.95 8.72 2.92 12.54 5.99 1.33 1.07 2.33 1.58 3.32 1.7.17.02.33.03.5.03.79 0 1.54-.22 2.33-.46l.39-.12c1.6-.48 3.59-1.08 6.66-1.25 1.78-.1 3.43-.15 4.93-.15 9.71 0 13.56 2 17.64 5.95 1.33 1.78 2.46 3.2 3.45 4.45 1.03 1.3 1.93 2.42 2.61 3.43 1.01 1.46 1.59 2.67 1.89 3.92.52 2.17.24 4.81-.98 9.12l-1.27 3.53c-7.63 14.6-14.33 17.55-22.8 21.29l-1.22.54c-4.95 2.04-9.79 3.07-14.41 3.07Zm-6.12-8.64c.32.49.52.88.71 1.23l.06.11c.43.83.87 1.17 1.96 1.52 1.5.48 2.88.72 4.22.72 1.07 0 1.95-.15 2.75-.3.27-.05.51-.22.66-.46s.19-.53.11-.79c-.04-.16-.08-.31-.11-.42-.04-.18-.05-.37-.04-.53l.15-.5.13-.18.28-.22s.39-.23 1.33-.59c.56-.22 1.26-.47 2.07-.76 4.36-1.58 11.67-4.22 17.93-8.69 6.44-4.6 9.75-12.11 9.6-16.83-.06-1.95-.63-3.21-1.72-3.85-.46-.27-.99-.4-1.6-.4-.41 0-.86.06-1.35.19-1.3.33-2.68 1.15-4.23 2.5-1.45 1.27-2.65 2.65-3.36 3.48-.25.29-.43.5-.53.6-6.26 5.89-11.34 6.75-16.41 7.17l-1.22.09c-3.94.29-8.01.59-12.11 4.48-1.58 1.5-4.44 4.28-6.31 6.48-.3.35-.8.94-.67 1.72.11.67.61 1.06.94 1.31.83.65 1.95 1.1 2.83 1.42.73.27 1.46.5 2.08.69.56.18 1.04.33 1.31.44l.36.21.19.21Zm-12.24-9.24c-.15 0-.31.04-.45.11-.18.09-.41.21-.71.37-.33.18-.53.52-.53.89s.22.71.55.88c.17.08.34.16.49.22a1.004 1.004 0 0 0 1.24-.44c.1-.18.18-.32.25-.47l.05-.1c.2-.39.13-.86-.18-1.16-.19-.19-.45-.3-.71-.3m34.24-32.45c-5.65 0-13.27 1.37-15.46 2.26-9.57 3.89-15.62 8.02-17.98 12.26-.79 1.42-1.5 2.56-2.11 3.56-.51.82-.95 1.53-1.32 2.21-1.25 2.28-1.45 4-.8 7.06.08.36.17.66.28.9.06.12.14.25.19.33.19.28.5.43.82.43.11 0 .22-.02.32-.05.13-.04.43-.16.62-.27.41-.24.83-.57 1.3-1.02.36-.34.72-.73 1.03-1.13l1.21-1.51c2.62-3.28 4.21-5.26 6.49-6.61 2.55-1.51 6.2-2.36 13.93-3.28 6.03-.71 7.9-2.39 10.48-4.7 1.85-1.65 4.12-3.69 8.3-6.04l1.84-.9c.34-.16.55-.5.56-.88 0-.37-.19-.72-.52-.9-1.15-.63-2.83-1.08-5.6-1.5-1.02-.15-2.23-.23-3.59-.23ZM40.67 164.82c-.19.02-1.03.13-1.77.29-2.48.51-6.17 1.51-6.89 1.7-18.48 5.01-22.98 9.32-24.46 10.74-1.38 1.33-2.11 2.61-2.22 3.91-.2 2.33 1.57 4.13 2.92 5.28 6.73 5.73 22.35 9.75 28.76 11.21l.36.08c12.69 3.2 16.5 3.5 21.33 3.87 2.02.16 4.1.32 7.09.71 10.35 1.35 22.21 2.03 35.25 2.03 27.67 0 52.01-3 60.86-4.9l.17-.04c4.04-.87 11.06-2.4 12.63-2.99.81-.3 1.38-.94 1.88-1.59.65-.84 1.25-1.87 1.91-3.03l.22-.38c2.06-3.61 4.61-8.1 9.41-11.11 1.82-1.14 3.36-1.91 4.6-2.52.57-.28 1.08-.53 1.51-.77.31-.17.67-.38.97-.62.29-.23.49-.48.6-.78.17-.44.01-.93-.38-1.19-.45-.3-1.34-.87-2.2-1.29-3.08-1.5-7.7-3.19-9.67-3.92-.44-.16-.74-.27-.83-.31-5.93-2.65-7.27-2.71-11.72-2.89-.97-.04-2.1-.09-3.47-.17-.24-.01-.46-.02-.67-.02-1.26 0-2.18.24-2.9.75-.73.51-1.11 1.19-1.41 1.74l-.28.5c-.15.27-.17.59-.06.87l.13.35c.12.34.42.59.77.65.54.09 1.42.28 2.5.66 8.26 2.87 10.66 6.52 11.22 9.07.41 1.87 0 3.86-1.2 5.75-1.59 2.52-4.56 4.8-7.95 6.11-18.68 7.2-44.6 8.71-63.05 8.71-9.83 0-19.77-.4-29.54-1.19-4.74-.39-14.06-1.33-23.16-3.31-8.25-1.8-14.51-4.11-18.11-6.7-3.85-2.77-5.64-5.59-5.33-8.4.31-2.79 2.74-5.09 4.73-6.53 3.75-2.72 8.9-4.64 10.84-5.37.26-.1.47-.3.58-.56s.1-.55-.02-.8c-.18-.37-.35-.69-.53-.94-.67-.98-1.73-2.23-3-2.63-.1-.03-.2-.05-.31-.05h-.13Zm8.37 8.87c-.29 0-.6.07-.92.14-1.48.34-3.95 1.32-8.79 3.49-1.71.77-2.98 1.52-3.9 2.3-.83.71-1.29 1.36-1.46 2.06-.14.6-.02 1.23.35 1.86.38.64.97 1.25 1.85 1.91 4.65 3.49 14.37 6.05 19.03 7.28.56.15 1.04.28 1.42.38 4.61 1.27 28.64 3.39 33.56 3.58 4.38.17 8.74.25 12.95.25 33.73 0 52.42-5.38 58.9-7.69 2.95-1.06 5.28-2.12 6.92-3.16 1.02-.65 1.6-1.15 1.94-1.67q.795-1.23.6-2.37c-.23-1.35-1.34-2.32-2.28-3.01-2.6-1.9-6.6-3.25-9.25-4.13-.42-.14-.81-.27-1.16-.39a.96.96 0 0 0-.88.11l-.29.19c-1.28.84-1.58 1.04-3.15 2.51-10.63 9.95-24.71 15.89-39.64 16.73h-.15c-3.92.23-7.67.35-11.15.35-26.55 0-35.82-6.55-44.01-12.33l-.17-.12c-3.65-2.57-6.98-5.73-8.4-7.08-.41-.39-.68-.64-.76-.69-.2-.16-.42-.34-.75-.42-.14-.04-.28-.05-.43-.05Zm12.01 1.28c-.34 0-.67.18-.86.49-.26.44-.15 1.01.27 1.32 1.48 1.09 2.65 1.84 3.28 2.25.37.22.78.49 1.25.8 4.6 2.98 15.36 9.97 38.73 9.97 2.91 0 5.97-.11 9.08-.33 5.56-.39 10.95-1.37 15.2-2.76 8.76-2.86 10.78-4.18 14.79-6.82l.53-.35.33-.2c2.29-1.39 2.65-1.6 10.15-8.36 2.98-2.68 9.04-10.85 9.26-11.29 1.25-2.58 2.12-4.03 2.89-5.3 1.13-1.89 2.03-3.38 3.53-7.36l.64-1.71c2.89-7.67 3.13-8.3 5.74-17.39.12-.42.15-.71.21-1.3.12-1.14.4-3.81 1.78-11.88.4-2.33.3-3.1.13-4.4-.07-.52-.15-1.14-.21-2.02 0-.12-.04-.24-.09-.35l-.3-.64a1.01 1.01 0 0 0-1.31-.5c-4.35 1.92-8.38 3.4-10.39 4.11-18.39 4.35-38.83 6.54-60.77 6.54-17.98 0-36.03-1.43-53.64-4.25l-.68-.11c-2.31-.56-13.92-3.48-18.76-6.17-.55-.31-1.1-.55-1.6-.72a.9.9 0 0 0-.32-.05 1 1 0 0 0-.99 1.15c.08.53.13 1.17.14 1.92.1 5.9 1.44 14.36 1.84 16.82 4.19 25.46 16.94 40.5 26.9 48.63.19.15.41.23.63.23.28 0 .57-.12.76-.35.35-.42.31-1.04-.1-1.4-4.1-3.6-9.9-9.58-12.75-14.6-.28-.5-.61-1.04-.98-1.64-1.97-3.21-5.28-8.59-8.81-21.07-1.49-5.25-1.97-10.28-1.67-12.36.06-.39.14-.64.19-.77l.17-.29.19-.19c.54-.4 1.04-.6 1.51-.6.2 0 .39.04.59.11.45.17.87.56 1.18 1.12.34.61.51 1.32.55 1.52.37 1.73.58 3 .79 4.23.59 3.52 1.06 6.3 4.62 16.54l.09.22c1.58 3.71 1.62 3.78 3.54 7.48.8 1.71 5.33 10.59 16.44 19.65.13.1.18.27.13.43-.04.15-.17.27-.33.29s-.32.08-.45.18c-.04.03-.25.19-.35.28-.13.12-.25.25-.37.38l-.22.23c-.46.46-.89.71-1.31.78h-.19l-.11-.03-.06-.02a1 1 0 0 0-.43-.1Zm113.89-20.24c-.63 0-1.17.03-1.69.09-1.35.16-2.5 1.11-3.55 2.92-.47.81-.84 1.71-1.04 2.52-.07.28-.03.6.13.83.16.24.4.42.69.46.58.08 1.29.1 2.16.11h.56c3.06 0 6.85-.34 8.33-.48.1 0 .2-.04.29-.07 10.19-4.32 12.18-5.84 13.14-6.57 6.15-4.66 10.29-10.2 11.97-16.01 1.72-5.94.79-11.89-2.54-16.34-2.83-3.77-7.12-5.93-11.76-5.93-.48 0-.97.02-1.45.07-.75.07-1.45.12-2.09.17-.99.07-1.84.14-2.6.24-.99.14-1.86.31-2.54.97-1.01 1-1.12 2.6-1.17 4.59 0 .33.15.67.43.86.18.12.39.2.61.2q.165 0 .33-.06c.4-.16.92-.36 1.37-.52.67-.25 1.29-.42 1.88-.52 1.18-.2 2.31-.3 3.37-.3 3.53 0 6.26 1.1 8.09 3.27 1.94 2.29 2.69 5.65 2.13 9.46-.86 5.81-4.5 11.4-9.51 14.6-7.88 5.04-11.19 5.47-13.68 5.47-.32 0-.63 0-.93-.01-.31 0-.62-.01-.94-.01Zm14.61-27.68c-1.84 0-4.1.49-6.74 1.45-1.92.7-2.22 1.79-2.76 3.77l-.29 1.08c-.73 2.73-1.83 6.86-4.58 13.72-.24.59-.39 1.05-.47 1.46-.07.32.03.65.25.89.19.2.45.31.73.31.05 0 .1 0 .15-.01 5.06-.76 14.13-3.35 18-12.22.72-1.64 1.13-3.28 1.21-4.75.08-1.59-.24-2.88-.94-3.84-.78-1.07-2.04-1.68-3.72-1.82-.26-.02-.54-.03-.83-.03Zm-86-29.25c-30.95 0-50.03 4.21-57.22 5.8l-1.36.3c-.5.11-.94.3-1.32.59-.3.23-.44.6-.38.97.07.37.33.67.69.78 14.75 4.53 44.36 6.14 65.24 6.14 6.58 0 12.38-.15 16.79-.45l.98-.12h.13c.15 0 .33-.02.44-.06l.81-.11c1.1-.14 1.16-.14 1.36-.16.96-.1 1.43-.12 1.89-.14.48-.02.97-.04 1.94-.14 2.84-.27 9.42-.9 11.16-1.2 13.84-2.38 17.8-3.24 19.71-3.85.47-.15.76-.63.68-1.12-.08-.48-.5-.84-.99-.84h-.46c-1.36-.04-3.57-.52-6.63-1.19-6.42-1.4-17.17-3.74-32.86-4.62-6.99-.39-13.93-.59-20.61-.59Zm-4.23-4.55c4.02 0 6.95.06 7.91.08 34 .73 49.36 4.39 54.38 5.92.21.06.35.11.42.12 1.77.43 2.38.66 3.29 1.01.58.22 1.26.48 2.39.85.16.05.27.19.28.35-.06.33.05.7.29.93.2.19.46.32.73.32.05 0 .11 0 .16-.02l.6-.12c.75-.15 1.21-.24 1.73-.45.3-.12.52-.37.6-.69s0-.64-.2-.89c-2.52-2.99-3.83-3.41-10.14-5.4l-1.9-.6c-11.94-3.8-38.31-5.15-57.26-5.15-5.29 0-10.21.1-14.21.3-33.97 1.67-40.72 4.22-46.14 6.27l-.94.35c-3.08 1.14-4.77 2.24-5.46 3.56-.28.54-.32 1.01-.33 1.31 0 .31.13.61.37.81.18.14.4.22.63.22.08 0 .16 0 .24-.03q.165-.045.39-.12c.44-.14.84-.35 1.19-.54.28-.15.55-.3.8-.38.66-.22 1.3-.47 1.99-.74 3.64-1.42 9.13-3.56 30.25-6 9.33-1.08 20.33-1.31 27.93-1.31Zm-22.5 12.81c-2.06 0-2.86-.13-3.13-.2l-.35-.14-.28-.23c-.45-.56-.62-1.08-.51-1.58.12-.56.57-.93.92-1.15 1.01-.62 2.95-.92 3.61-.99 11.03-1.07 21.49-1.61 31.11-1.61 11.97 0 19.28.85 21.69 1.14.19.02.33.15.37.32a.41.41 0 0 1-.19.44c-.73.44-.96.92-1.12 1.24-.02.05-.05.09-.07.14-.2.34-.45.7-1.14 1.14l-.49.2h-.18l-.18-.01a3.3 3.3 0 0 0-1.01-.25c-2-.16-4.5-.25-7.43-.25-7.9 0-17.73.58-26.41 1.09-5.74.34-10.7.63-14.09.69-.39 0-.76.01-1.11.01Zm-1.6-24.9-.33-.1c-.29-.13-.58-.36-.91-.7-.06-.06-.11-.12-.16-.18-.21-.24-.49-.56-.93-.75a.415.415 0 0 1-.22-.52l.04-.05c2.32-4.16 2.19-7.23 1.67-9.08-1.68-5.97-5.49-9.77-7.77-12.05-.44-.44-.82-.82-1.1-1.13-1.74-2.23-1.93-2.6-2.85-4.37-.2-.39-.44-.85-.73-1.4-.16-.54-.29-.97-.41-1.39-.94-3.19-1.63-5.49 1.61-14.05.17-.42 1.84-3.76 3.58-5.06.58-.44 1.14-.66 1.65-.66.39 0 .77.13 1.14.4.45.33 1 .95.61 2.63-.12.51-.33 1.13-.55 1.78-.23.69-.5 1.46-.71 2.27-.31 1.22-.59 2.82.06 4.43 1.57 3.93 4.11 6.82 6.57 9.61.73.83 1.45 1.65 2.14 2.49 3.42 4.17 5.61 8.24 5.19 14.52-.32 4.82-2.84 9.82-5.06 12.08-.79.81-1.4 1.1-1.69 1.21-.09.03-.19.06-.28.08l-.27.03-.29-.02Zm-6.95-31.28c-.21 0-.42.06-.6.2a.99.99 0 0 0-.21 1.38c.82 1.14 1.91 2.43 3.18 3.92 1.34 1.57 2.85 3.35 4.31 5.28.2.26.5.4.8.4.19 0 .38-.05.54-.16.44-.29.58-.87.33-1.33-.14-.26-.31-.54-.5-.83-1.69-2.66-2.13-3.12-3.6-4.62-.35-.37-.77-.8-1.29-1.34-.81-.86-1.54-1.7-2.17-2.5-.2-.25-.49-.38-.79-.38Zm64.98 29.69c-.57 0-1.32-.15-1.71-.85-.18-.33-.5-1.31.39-3.4.92-2.15 1.42-3.34 1.3-4.66-.1-1.14-.64-2.17-1.45-3.74l-.39-.76a1 1 0 0 0-.12-.18c-.23-.31-.48-.64-.75-1-1.22-1.62-2.75-3.63-3.97-5.97-3.12-5.99-2.82-11.31.92-16.27 1.07-1.42 2.08-1.63 2.6-1.63.28 0 .54.06.76.18.8.43 1.35 1.8.8 3.88-.94 3.53-.2 5.42 1.4 7.49.38.49.8 1 1.26 1.55.94 1.12 2 2.4 3.13 4.06 3.87 5.69 2.47 12.05 1.68 14.53-1.01 3.2-2.59 5.32-3.63 6.17-.15.09-1.2.56-2.15.58h-.07Zm-32.73-1.35c-.55 0-.99-.21-1.37-.63-.31-.35-.65-.97.02-2.29.35-.7 1.03-1.61 1.82-2.66 1.07-1.44 2.41-3.23 3.51-5.29 1.29-2.41 1.76-5.47 1.41-9.1-.38-4-1.65-7.58-2.36-9.36-.02-.05-.05-.11-.08-.16-2.7-4.31-3.74-5.53-5.63-7.75-.81-.96-1.83-2.15-3.22-3.89l-.68-1.01c-3.35-5.01-3.55-5.31-5.26-11.8-.25-2.75-.25-2.8-.29-5.32v-.26c.53-2.72 2.62-11.72 7.7-16.69.33-.33.62-.63.88-.91.3-.32.55-.59.76-.75.11-.09.23-.17.34-.22l.33-.12.25-.03.31.03c.37.09.81.39 1.28.88.06.07.13.12.21.17.31.18.54.35.63.43l.08.15.05.23c.02.32-.09 1.01-.84 2.38-.13.24-.28.49-.43.75-1.13 1.95-2.67 4.62-2.44 7.96.5 7.27 3.85 10.97 7.4 14.88l.56.61c4.58 5.07 8.54 10.11 10.66 20.45.01.17.04.35.08.59 1.23 7.77-3.4 16.05-7.5 21.63-.36.49-3.58 4.81-6.18 6.41-.72.44-1.4.67-1.98.67Zm-6.13-55.9c-.12 0-.24.02-.35.06-.46.17-.73.66-.63 1.14.23 1.1.53 2.12.69 2.63 1.35 4.33 4.16 7.61 6.86 10.79.36.43.73.85 1.09 1.29 3.07 3.66 6.19 7.71 7.53 13.56.11.46.51.78.97.78.05 0 .1 0 .15-.01.52-.08.89-.54.85-1.06-.58-7.71-3.8-12.14-7.33-16.38-.45-.54-.9-1.07-1.36-1.62-2.36-2.78-4.8-5.66-6.89-9.38l-.72-1.29a.98.98 0 0 0-.87-.51Z" data-name="Capa 1" style="fill-rule:evenodd"/></svg>