<svg xmlns="http://www.w3.org/2000/svg" id="Capa_2" data-name="Capa 2" viewBox="0 0 112.31 228.72"><path id="Capa_1-2" d="M58.51 228.72c-1.71 0-2.93-1-3.26-1.3l-.06-.06-.84-1.08s-.04-.06-.05-.09c-1.72-3.72-1.84-4.27-2.49-7.27-.11-.52-.24-1.12-.4-1.81-1.1-4.06-1.19-4.34-2.33-7.72l-.28-.83c-.81-2.41-1.07-3.72-1.32-4.98-.3-1.48-.57-2.88-1.67-5.71-1.14-2.96-1.59-5.4-2.03-7.75-.4-2.15-.77-4.19-1.65-6.29-2.67-6.45-4.9-14.43-6.43-23.11a1 1 0 0 0-.05-.17c-.68-1.72-2.5-6.3-7.08-22.83-.25-1.43-.39-2.21-.48-2.68-.1-.55-.11-.61-.12-.75-.51-5.12-1.46-7.52-2.38-9.85l-.09-.23c-.98-2.48-2.09-5.29-3.05-10.95q-.56-2.28-.75-4.49c0-.1-.04-.22-.08-.31-.25-.55-1.01-2.21-1.29-2.81a.88.88 0 0 0-.78-.52l-.55-.02c-.23 0-.45.09-.62.25-.17.17-.27.39-.27.64v.81c-.01 1.59-.02 3.77-.13 5.5-.09 1.44-.27 2.31-.4 2.64-.11.29-.29.57-.48.88-.22.36-.45.72-.62 1.16-.03.07-.08.14-.14.19-1.63 1.23-3.1 1.86-4.36 1.86-.56 0-1.08-.13-1.55-.38-1.19-.64-2.15-2.22-2.7-4.45-.67-2.75-.71-6.17-.74-8.22-.01-.8-.02-1.33-.06-1.65-.3-2.48-1.79-4.38-3.23-6.23-.26-.33-.52-.66-.77-1C1.61 95.36.35 93.43.07 91.15c-.32-2.56.59-5.32 2.78-8.43.73-1.04 1.16-1.75 1.31-2.51.15-.78.03-1.47-.13-2.34-.09-.47-.19-1.03-.27-1.74-.2-10.48 1.11-12.96 5.02-20.33l.33-.62c.91-1.36 3.33-4.74 6.6-7.48.87-.72 1.64-1.17 2.32-1.57.13-.08.23-.13.32-.18.41-.22.87-.47 1.15-.99.36-.68.18-1.42-.02-2.29-2.19-9.11.05-26.29 15.18-36.27C41.06 2.15 47.95 0 55.09 0s13.49 2.28 17.14 3.64l.12.05c6.95 3.78 7.93 4.82 10.55 7.6.43.46.9.96 1.45 1.53l.36.46c6.96 9.01 9.64 18.88 7.98 29.34-.23 1.44-.15 2.38.27 3.14.42.78 1.09 1.23 1.8 1.71l.45.3c1.18.79 2.53 1.68 3.93 3.28 6.98 7.93 7.62 15.2 7.97 19.11l.09 1.06c.09 1.14.18 2.22.35 3.16.17.95.42 1.93 1.11 2.68 2.34 2.52 3.57 4.95 3.65 7.25.06 1.81-.55 3.56-1.89 5.33-1.3 1.72-3.11 3.24-4.86 4.7-.48.4-.95.8-1.4 1.18l-.09.09c-1.71 1.96-2.25 2.96-2.88 4.12-.44.81-.93 1.73-1.95 3.19-.47.68-.95 1.11-1.45 1.57l-.08.07c-1.18 1.07-2.15 2.26-3.03 6.95-2.77 11.82-4.2 16.05-4.98 18.32-.4 1.19-.65 1.91-.81 2.9-1.22 7.62-1.64 8.85-3.39 14.06-.37 1.1-.8 2.38-1.31 3.94-.02.06-.03.12-.04.18-.08.67-.28 2.46-2.76 9.82a1 1 0 0 0-.04.16c-.3 2.08-.42 2.5-.81 3.89-.11.38-.23.84-.39 1.41-.95 4.08-3.69 13.39-4.44 15.79-1.46 3.83-1.82 5.7-2.2 7.69-.33 1.71-.66 3.47-1.74 6.71-2.35 7.08-2.75 8.95-2.92 9.76-.05.22-.07.35-.13.51-1.87 5.01-2.43 7.26-3.08 9.85-.48 1.91-1.02 4.07-2.18 7.76-.01.04-.03.07-.05.11-.6.94-.97 1.62-1.25 2.13-.14.27-.26.48-.38.66-.37.59-.62.87-1.61 1.25-.56.22-1.13.32-1.69.32Zm-.34-12.56c-.31 0-.62.07-.9.2-.16.07-.29.19-.38.34-.04.06-.1.15-.17.25-.11.15-.16.33-.16.51 0 .93.15 1.94.45 3.09.13.5.32.96.55 1.37.15.27.44.44.75.45h.03c.3 0 .59-.15.75-.41.25-.39.44-.83.56-1.29.29-1.13.53-1.86.67-2.28.1-.29.05-.61-.14-.85l-.75-.94a.83.83 0 0 0-.35-.26c-.3-.13-.6-.19-.91-.19Zm-1.82-16.7c-.3.2-1.59 1.04-3.54 2.3-.29.19-.45.53-.4.87.15 1.03.56 2.79 1.25 4.34.53 1.19 1.32 2.63 2.71 3.22.62.26 1.23.39 1.82.39 1 0 1.91-.37 2.8-1.12.24-.21.45-.41.64-.58l.24-.22c.05-.05.1-.1.14-.16.08-.12.15-.2.22-.29.31-.37.56-.71.99-1.69.52-1.15.9-2.08 1.11-2.87.14-.53.25-1.1.08-1.67-.23-.78-.85-1.27-1.51-1.78-1.77-1.38-3.13-2.02-4.29-2.02-.26 0-.51.03-.74.1-.77.22-1.15.76-1.31.98l-.2.19Zm-5.93-7.15c-.17 0-.34.05-.49.15a.89.89 0 0 0-.39.89v.07c.19 1 .58 2.1 1.03 2.9.07.13.17.27.25.39a.88.88 0 0 0 1.1.28c.28-.13.64-.31.68-.33.39-.23.56-.46.68-.66.09-.11.18-.2.3-.29.2-.15.33-.37.36-.62s-.05-.49-.21-.68c-.06-.07-.16-.18-.26-.25-.23-.18-1.88-1.24-2.58-1.7a.9.9 0 0 0-.48-.14Zm16.75-.57c-.14 0-.27.03-.4.09-.16.08-.32.17-.48.26-.75.44-1.43.98-1.68 1.19-.29.23-.52.5-.63.64-.26.32-.27.77-.02 1.1.05.06.11.14.16.22.1.14.23.25.39.32l1.24.52a.885.885 0 0 0 1.11-.37l.23-.38c.42-.7.73-1.21.96-2.54a.89.89 0 0 0-.34-.87.87.87 0 0 0-.53-.18Zm-8.57-12.08c-.23 0-.46.09-.63.26-.43.43-1.82 1.64-5.25 3.58-1.07.6-1.51.9-2.05 1.3a.89.89 0 0 0-.01 1.44c.82.6 1.48 1.09 2.04 1.51 2.05 1.52 2.82 2.09 5.21 3.62.15.09.31.14.48.14.05 0 .1 0 .15-.01h.06c.61-.08 1.24-.22 2.69-1.34.13-.1.23-.18.39-.31.43-.35 1.35-1.09 4.79-3.77.21-.16.34-.41.34-.68s-.11-.52-.31-.7c-1.06-.91-1.53-1.23-3.33-2.28l-.13-.1c-.51-.38-1.69-1.28-2.85-1.97-.39-.23-.9-.46-1.26-.61a.8.8 0 0 0-.34-.07ZM44.8 168c-.63 0-1 .28-1.2.52-.38.45-.46 1.04-.48 1.45-.04.78.11 1.7.46 2.83.02.05 1.68 5.44 2.44 7.6.13.36.47.6.84.6.06 0 .12 0 .17-.02h.34c.16 0 .32-.04.46-.13 3.24-1.96 4.67-2.85 5.49-3.43l.16-.11c.12-.08.21-.14.27-.19.2-.15.32-.37.35-.62s-.05-.49-.22-.68c-.12-.13-.27-.29-.43-.46-.34-.35-.8-.79-1.4-1.38a373 373 0 0 1-5.09-5.04 3.18 3.18 0 0 0-2.17-.94Zm27.93-.36a.9.9 0 0 0-.6.23c-.11.1-.57.52-.95.92-4.4 4.63-5.82 5.75-6.35 6.17l-.08.06c-.1.07-.25.17-.38.35-.15.19-.3.46-.37.59-.18.32-.14.73.1 1.01.09.11.3.33.48.48.34.28.8.6 1.48 1.02.77.47 1.73 1.03 2.91 1.71l.63.36c.14.08.29.12.44.12.23 0 .45-.09.63-.26l.09-.08c.2-.17.42-.38.62-.8.03-.06.05-.13.07-.2.04-.18.2-.92.71-2.71.36-1.26.72-2.4 1.04-3.41.35-1.1.65-2.05.86-2.85.15-.58.21-1.25.23-1.52a.9.9 0 0 0-.55-.9 7 7 0 0 0-.51-.19 2 2 0 0 0-.5-.1m-13.2-9.1c-.58.05-1.31.2-2.59 1.29-.04.03-.09.08-.17.16-.21.21-.72.71-1.65 1.41-1.38 1.03-1.89 1.31-2.3 1.55-.27.15-.5.28-.84.53-.43.31-.74.57-.99.83-.2.2-.46.46-.5.87-.02.4.17.65.23.73.06.1.16.23.26.36.41.49.97 1 1.62 1.59l.11.1c.81.74 1.5 1.39 2.1 1.95 1.05.98 1.8 1.68 2.42 2.2l.17.14c.52.45.93.8 1.51.86h.14c.23 0 .42-.06.56-.1.11-.04.2-.09.29-.16.04-.04 4.33-3.69 6.83-6.38.44-.47.88-1.05 1.11-1.35.15-.2.21-.45.16-.7a.87.87 0 0 0-.41-.59l-.65-.42c-1.07-.7-3.08-2.01-6.82-4.7a.88.88 0 0 0-.52-.17h-.08Zm-13.95-11.96c-.08 0-.19.01-.26.04-.36.09-.63.32-.86.53l-.46.39c-.42.36-.89.76-1.48 1.18-.92.66-1.75 1.08-2.48 1.46l-.17.09c-.32.17-.61.32-.86.48-.23.15-.52.33-.7.68-.21.43-.16.84-.12 1.12.05.37.16.79.33 1.3.74 2.22 2.07 3.75 2.8 4.47.34.33 3.41 2.46 4.31 3.05.15.1.32.15.49.15.1 0 .19-.02.28-.05.12-.04.27-.1.39-.15.42-.19.9-.48 1.49-.87 2-1.34 4.45-3.45 5.73-4.59.23-.21.34-.52.28-.82-.02-.08-.02-.16-.03-.24 0-.06.01-.32-.15-.61a.9.9 0 0 0-.2-.24c-.12-.1-.62-.54-1.58-1.42-3.7-3.37-4.5-4.28-4.84-4.66a3.4 3.4 0 0 0-.37-.38c-.39-.34-.67-.54-.94-.69-.08-.05-.29-.19-.59-.19Zm27.6.08c-.09 0-.18 0-.28.02-.73.09-1.28.55-1.64.89-3.78 3.59-5.35 4.94-6.1 5.58-.52.45-.72.62-.95.95-.13.18-.25.41-.33.57-.19.36-.1.8.2 1.07.09.08.21.18.32.26l.36.26c.24.17.5.36.79.58 1.29 1 3.63 2.74 5.17 3.52.3.15.59.19.83.23l.18.03.21.04a.9.9 0 0 0 .72-.16l.34-.26c1.02-.77 2.41-1.83 3.23-2.69 2.14-2.24 2.32-3.12 2.54-5.33.04-.4.08-.86.15-1.39a.89.89 0 0 0-.34-.82c-.44-.33-.85-.66-1.24-.98-.66-.53-1.28-1.03-1.89-1.44-.71-.49-1.42-.93-2.26-.93Zm-14.43 4.78c.18.01.46.05.57.07h.12c.17 0 .33-.05.47-.14.31-.19.53-.44.7-.64l.09-.1c.24-.26.49-.53.74-.75.43-.36 4.21-3.93 6.42-6.03.19-.18.29-.44.28-.71a.86.86 0 0 0-.37-.66c-.21-.16-.47-.35-.8-.6-.71-.53-1.75-1.32-3.3-2.53-1.08-.85-1.79-1.57-2.36-2.15-.15-.16-.54-.54-.54-.54-.23-.23-.52-.52-.97-.63a1.5 1.5 0 0 0-.37-.04c-.34 0-.66.11-.96.21-.1.03-.19.08-.26.15-1.16.98-6.02 5.24-7.58 6.66-.35.31-.39.84-.1 1.21.16.2.31.38.51.59.98 1.06 2.87 2.79 6.97 6.42.16.14.37.22.59.22h.16Zm-23.47-14.77c-.27.02-.51.15-.67.37l-.18.26q-.18.24-.39.45c-.23.23-.32.57-.23.88l.33 1.16c.48 1.7.98 3.45 1.54 4.8.18.43.44.89.64 1.2.13.21.34.36.59.41.06.01.11.02.17.02.19 0 .37-.06.53-.17l3.18-2.33c.2-.15.33-.37.36-.62s-.05-.5-.22-.68c-1.12-1.27-3.28-3.64-4.93-5.43a.92.92 0 0 0-.66-.29h-.06Zm47.36-.77c-.25 0-.49.1-.67.3-.04.05-4.25 4.81-4.45 5.17-.11.19-.24.41-.35.59-.24.39-.14.9.23 1.17.45.34 1.34.96 2.22 1.37.15.07.36.15.54.2a.89.89 0 0 0 1.08-.51c.15-.35.42-1.04.63-1.67.56-1.71 1.19-3.94 1.61-5.51.11-.4-.07-.82-.44-1.02a.9.9 0 0 0-.42-.11Zm-36.78-12.63c-.05 0-.1 0-.15.01-.26.04-.49.2-.62.43l-.04.07c-.16.29-.3.49-.44.64-1.46 1.59-2.13 2.06-3.06 2.71-.67.47-1.44 1.01-2.64 2.05l-1.35 1.16c-.34.29-.41.8-.16 1.17s.56.75.96 1.16c1.62 1.68 5.46 5.61 7.06 6.87a.875.875 0 0 0 .99.07c.32-.18.94-.55 1.45-.93 2.24-1.63 5.35-4.39 6.64-5.68.3-.3.35-.76.12-1.12-.27-.42-.69-1.03-1.12-1.54-1.93-2.25-5.3-5.38-7.07-6.89a.87.87 0 0 0-.57-.21Zm26.43.5c-.21 0-.43.08-.59.23l-.21.18c-1.89 1.69-5.05 4.51-6.93 6.52q-.42.45-.93 1.11c-.29.37-.24.9.11 1.21 1.65 1.48 6.03 5.02 7.96 6.15.14.08.3.12.45.12.21 0 .42-.07.58-.22 1.72-1.49 5.98-5.91 7.58-7.74.32-.37.29-.92-.07-1.25-3.07-2.78-4.47-4.04-4.72-4.24-1.09-.86-1.52-1.14-2.12-1.54l-.6-.4a.9.9 0 0 0-.5-.15Zm-14.71-10.2c-.74 0-1.66.06-2.32.55-.26.19-3.82 4.1-4.01 4.4l-.07.11c-.42.65-.74 1.17-.66 1.81.05.34.25.56.33.65.16.18.34.35.56.53.2.17.42.34.66.53.38.3.81.65 1.28 1.06 3.62 3.2 4.69 4.59 4.87 4.83.12.17.3.29.5.34.07.02.22.04.29.04.29 0 .54-.11.69-.17.35-.15.52-.3.91-.67l.12-.11c.26-.24.59-.56 1.03-.98.72-.69 1.73-1.66 3.21-3.05.73-.69 1.44-1.18 2.06-1.61l.1-.07c.24-.16.54-.4.89-.71.29-.25.39-.65.24-1.01-.03-.08-.07-.17-.11-.24-.13-.25-.32-.51-.58-.83-1.78-2.19-3.58-3.8-4.5-4.57-.02-.02-.05-.04-.08-.06a.9.9 0 0 0-.31-.13c-1.08-.24-2.69-.54-4.24-.61-.3-.01-.59-.02-.88-.02Zm-28.3.77a.9.9 0 0 0-.84.61c-.44 1.19-.67 3.52 2.51 9.86.56 1.12 1.18 1.79 1.94 2.13.11.05.24.08.36.08.19 0 .37-.06.53-.17 1.62-1.2 4.63-3.45 6.65-5.1.65-.53 1.33-1.16 1.53-1.34a.9.9 0 0 0 .26-.88c-.09-.35-.24-.83-.44-1.19-.2-.37-.43-.68-.67-.92-.1-.1-.27-.23-.32-.26a.86.86 0 0 0-.41-.16c-.07 0-.14-.01-.21-.01-.17 0-.34.03-.51.06-.05 0-.09.02-.14.03l-.31.03c-.21 0-.4.09-.56.23-1.74 1.55-2.87 1.88-3.51 1.88-.7-.02-1.21-.29-1.73-.86-.09-.1-.17-.21-.25-.31-.16-.22-.34-.46-.6-.65a.3.3 0 0 1-.08-.08c-.18-.24-.31-.35-.43-.46-.06-.06-.1-.09-.2-.21-.84-1.09-1.48-1.75-2.08-2.14a.9.9 0 0 0-.48-.14Zm55.14-2.9c-.37 0-.7.14-.98.26-.5.23-1.02.58-1.6 1.08-1.68 1.42-3.51 3.79-5.15 6.66a.89.89 0 0 0 .2 1.12c3.65 3.11 4.95 4.28 5.58 4.84.39.35.53.47.76.64.33.24.71.51.93.65a.88.88 0 0 0 1.1-.09c.1-.09.23-.22.34-.34a1 1 0 0 0 .17-.28c.02-.04.4-1.03.67-1.95.5-1.71 1.16-4.26 1.91-7.39l.06-.25c.1-.43.18-.78.1-1.16-.07-.32-.24-.53-.35-.67l-.22-.29c-.12-.16-.25-.34-.4-.55a1 1 0 0 0-.1-.12c-.82-.78-1.43-1.32-1.9-1.67-.38-.28-.59-.44-.91-.48-.04 0-.16-.01-.2-.01Zm-10.13.62c-1.46.11-2.71.24-3.69.4-.23.04-.48.09-.72.14a.892.892 0 0 0-.49 1.43c.54.67 1.01 1.2 1.41 1.56.25.22.56.44.77.59.15.1.33.15.5.15.24 0 .48-.1.66-.29l2.29-2.49c.25-.27.3-.66.15-.99a.88.88 0 0 0-.8-.5h-.06Zm-30.54-.09c-.36 0-.68.21-.82.55s-.06.74.21.99c1.68 1.58 2.4 2.3 2.63 2.53.17.17.4.27.64.27h.06c.26-.02.5-.15.65-.35.13-.17.38-.49.63-.76.4-.42.74-.66 1.03-.85l.18-.12c.29-.19.43-.53.38-.87s-.3-.62-.63-.72c-.23-.07-.49-.14-.73-.18-1.36-.27-3.12-.42-4.2-.47h-.04ZM24.7 95.93c1.9 0 4.79.43 7.96 4.16 1.79 2.1 1.77 3.48 1.75 4.69 0 .36-.01.69.03 1.04v.09l-.59 5.32v.23l.2 1.41a.9.9 0 0 0 .88.76c.22 0 .45-.09.61-.25.89-.84 1.14-1.73 1.23-2.02l.03-.15c.23-1.86.24-3.19.26-4.25 0-.26 0-.51.01-.75.05-1.92.21-3.33 2.13-6.69.03-.05.07-.1.12-.13 2.15-1.58 3.14-2.25 4.33-2.57.59-.16 1.25-.23 2.15-.23.82 0 1.86.06 3.59.2.56.04 1.05.07 1.5.07 1.3 0 2.24-.19 2.93-.61.71-.42 1.05-1 1.31-1.47.06-.1.12-.21.18-.31.3-.47.56-.78.87-1.04 1.42-1.18 2.86-1.71 4.67-1.71.72 0 1.41.08 2.17.17.56.07 1.02.13 1.48.13.54 0 1.13-.05 1.67-.45.38-.28.68-.68.96-1.26 1.06-2.24-.04-3.68-1.02-4.95l-.17-.23c-1.37-1.8-2.93-3.84-2.64-7.32 0-.08.03-.24.07-.46 1.22-7.48.1-13.87-3.34-19-.45-.68-.69-1.07-.89-1.42-.29-.49-.54-.92-1.24-1.87-4.9-6.62-10.84-9.71-18.72-9.71-4.51 0-9.29.98-13.8 1.99-1.79.4-2.36.83-3.88 1.97-.78.59-1.86 1.4-3.55 2.54-2.73 1.84-5.22 5.34-7.21 10.11-2.97 7.15-2.09 13.3-1.45 17.79l.16 1.12c.02.14.07.28.16.4.66.92 1.09 1.57 1.42 2.05.74 1.09.99 1.46 1.92 2.26.7.6 1.72 1 2.64 1.32 1.23.43 2.57.76 3.55 1 .35.09.66.17.92.23.33.09.56.16.67.21l.21.13.08.08.11.18.1.32c.02.12.06.52.03 1-.03.46-.12.83-.18 1.02l-.12.25-.17.2c-.26.21-.98.54-2.19.63-.22.01-.45.02-.69.02-2.04 0-5.13-.59-7.15-2.23-1.79-1.46-2.06-1.87-2.89-3.08a.9.9 0 0 0-.73-.39c-.29 0-.57.14-.73.39-.16.23-.3.43-.42.63-.32.49-.58.91-.7 1.45-.17.79-.03 1.63.3 2.91.47 1.86 1.52 2.88 2.52 3.86.26.26.53.51.79.79 1.29 1.4 2.68 3.26 2.8 7.64.04 1.33 0 2.31-.02 3.1-.05 1.59-.08 2.63.44 4.47.11.39.46.65.86.65h.09c.43-.04.77-.39.8-.82v-.15c.1-1.52.11-2.76.11-3.85.01-3.58.01-5.21 3.17-9.03.03-.04.07-.08.12-.1l.82-.47c1.88-1.09 2.08-1.21 4.63-1.97a.4.4 0 0 1 .12-.02h.24c.18 0 .4-.01.65-.02.29-.02.63-.03 1-.03Zm22.27 5.7c-1.45 0-2.16.02-2.58.15-.8.26-1.31 1.01-1.77 1.76-.35.58-.71 1.38-1.05 2.39-.09.26-.05.55.1.78s.41.38.68.39c1.86.12 6.42.44 8.77.84 2.34.4 7.72.98 11.86.98 1.8 0 3.09-.11 3.93-.34 5.14-1.4 7.29-1.41 9.36-1.43 1.35-.01 2.63-.02 4.58-.4 3.3-.65 4.44-.88 4.96-.98l.37-.07c.08-.02.16-.04.23-.08 2.23-.93 3.32-1.36 3.89-1.58.55-.21.69-.27.94-.43 1.71-1.12 2.94-2.11 3.75-3.06.67-.78.96-1.38.98-1.99.03-.93-.73-1.4-1.05-1.6-.46-.28-.93-.46-1.25-.55a.7.7 0 0 0-.25-.04.83.83 0 0 0-.54.19c-.24.18-.83.65-1.25 1.07l-.17.18c-1.38 1.39-3.09 3.11-4.97 3.46-.53.1-1.04.15-1.51.15-1.62 0-2.76-.58-3.97-1.45-.19-.14-.38-.28-.56-.42-.77-.6-1.64-1.28-2.88-1.46-.2-.03-.41-.05-.63-.05-.86 0-1.83.24-2.97.74-3.73 1.64-4.62 2.41-5.55 3.22-.34.3-.66.58-1.15.92-2.07 1.47-3.99 2.21-5.71 2.21-.45 0-.9-.05-1.32-.15-1.83-.44-3.42-2.21-3.87-2.75a.92.92 0 0 0-.62-.32c-1.55-.12-5.6-.3-8.44-.3h-.35Zm14.67-5.15c-.73 0-1.4.24-1.99.71-.19.15-.53.42-.56.91-.03.69.48 1.09.76 1.31a3.87 3.87 0 0 0 2.26.84c.35 0 .66-.07.92-.22.73-.4 1.26-.99 1.54-1.71a.89.89 0 0 0-.45-1.13c-.37-.18-.71-.32-1.03-.43-.54-.19-1-.27-1.46-.27Zm15.13-3.53c2.4 0 4.44 1.32 5.53 2.03q.39.255.63.39c.97.53 1.64.76 2.26.76.1 0 .2 0 .3-.02.66-.09 1.09-.5 1.32-.72q.36-.36.72-.78l.15-.17c.99-1.13 2.03-2.18 4.03-2.57.57-.11 1.11-.17 1.62-.17 1.68 0 2.75.59 3.7 1.11.09.05.17.1.25.14.33.2.74.44 1.26.44h.13c.48-.03.84-.31 1.15-.57 1.04-.88 1.6-1.39 2.1-1.85.63-.57 1.17-1.07 2.5-2.13 1.6-1.27 2.43-2.57 2.53-3.98.15-2.01-1.17-3.64-2.18-4.7-.58-.6-1.11-1.07-1.47-1.38a6 6 0 0 1-.29-.26c-1.27-1.61-1.21-2.8-.99-4.94.28-2.63.69-6.61-3.34-15.13-.02-.03-.03-.07-.05-.1l-.67-1.05a91 91 0 0 0-.84-1.31.85.85 0 0 0-.25-.25.8.8 0 0 0-.14-.33c-1.24-1.84-2.11-2.67-4.9-4.68a.9.9 0 0 0-.52-.17.893.893 0 0 0-.88 1.02l.04.27v.22c0 .36.2.69.53.83.06.02.11.05.16.07l.23.19.11.15.1.23.02.13-.02.23-.14.37c-.14.23-.56.78-1.84 2.05-.33.32-.35.84-.06 1.2.15.18.28.34.39.49.11.14.26.31.35.43.17.2.42.31.68.31q.165 0 .33-.06c.12-.05.28-.12.42-.19.2-.11.45-.19.68-.26l.14-.04c.33-.1.57-.39.61-.73 0-.05.02-.1.02-.15l.14-.35.19-.25c.35-.33.62-.47.77-.53l.36-.05.34.08.21.14.09.11c.06.07.13.13.2.18.01.07.03.13.06.19.14.31.28.79.43 1.46.05.24.06.52.06.83 0 .37 0 .78.1 1.21.03.13 0 .27-.08.37-.62.76-1.05 1.26-1.31 1.56-.17.2-.24.46-.2.71.07.45.08 1.29-.23 2.71q-.375 1.665-1.65 2.34c-.43.22-.94.34-1.47.34-.75 0-1.52-.23-2.16-.64-.79-.51-1.31-1.27-1.43-2.07l.03-.5s.02-.06.03-.1c.11-.34.29-.9.16-1.71-.18-1.18-.94-2.58-2.33-4.29a.4.4 0 0 1-.07-.13c-.88-2.71-1.02-4.38-.44-5.42.56-1 1.97-1.76 4.58-2.48.35-.1.6-.39.65-.75s-.13-.71-.44-.88c-3.82-2.17-8.41-3.32-13.26-3.32-4.51 0-8.94.99-12.46 2.8-.99.5-1.72 1.19-2.17 2.05a.89.89 0 0 0 .02.88c7.43 12.27 7.54 14.93 6.81 24.21-.02.87-.1 1.45-.17 1.97-.14 1.07-.11 1.71.77 3.06.24.37.51.7.77 1.02.25.31.49.6.69.91.72 1.14 2.92 5.17.8 9.24-.23.45-.5.88-.71 1.21s-.18.75.07 1.05c.17.21.43.32.69.32q.165 0 .33-.06c.6-.24 1.17-.53 1.68-.79l.22-.11c.38-.19 1.39-.71 1.85-.78q.54-.09 1.08-.09ZM35.56 40.69c4.09 0 11.86.57 17.89 4.38 2.63 1.66 3.62 1.96 4.26 2.03h.1c.17 0 .34-.05.49-.15 6.31-4.17 11.95-6.2 17.23-6.2 2.62 0 4.76.51 6.34.95.48.14.94.28 1.36.41.9.28 1.68.52 2.39.62.2.03.39.05.57.05.61 0 1.1-.23 1.46-.68.22-.28.27-.59.31-.86l.02-.14c.09-.5.15-1.12.17-1.88.09-2.55-.17-5.94-.33-7.73a.89.89 0 0 0-.89-.81h-.03c-.15 0-.29.01-.44.03-.8.1-1.39.39-1.86.62-.15.07-.3.15-.45.21-.52.21-.94.31-1.38.31h-.16c-.92-.05-2.01-.55-3.32-1.54-.08-.06-.12-.09-.41-.33l-1.33-1.08a.9.9 0 0 0-.36-.17c-2.26-.53-3.33-1.05-3.83-1.38-.43-.29-.74-.64-.87-.99-.32-.84.31-1.89 1.72-2.87l.12-.08c2.36-1.65 3.82-2.71 4.34-3.16l2.64-1.84a.895.895 0 0 0 .16-1.33l-.17-.2c-3.24-3.65-3.82-4.31-8.19-7.07a.9.9 0 0 0-.48-.14c-.24 0-.48.1-.65.28l-.15.16c-.19.2-.44.45-.74.99-.18.32-.18.58-.18.7 0 .04-.01.12-.03.21-.03.16-.09.35-.28.65-1.21 1.89-3.2 2.49-4.65 2.66-.36.04-.73.06-1.12.06-2.39 0-5.14-.83-7.18-2.17-1.9-1.25-3.01-2.92-2.87-4.35.07-.72.4-1.39.99-2l.32-.25c.1-.05.21-.1.34-.15l.12-.03c.38-.11.64-.45.65-.84 0-.39-.24-.74-.61-.86q-.12-.045-.21-.06c-.3-.07-.72-.12-1.23-.12h-.37c-2.76.09-6.68 1.14-9.49 2a.9.9 0 0 0-.59.58c-.09.28-.03.58.15.81q.42.54.45 1.02l-.04.21-.18.3c-.42.48-2.13 2-2.99 2.74-.13.09-.25.14-.4.22-1.15.56-4.22 2.04-7.65 5.89-1.53 1.95-2.62 3.61-3.49 4.94-.46.71-.88 1.34-1.28 1.91-.94 1.31-1.74 2.09-2.67 2.62-.26.15-.57.25-.91.36-.19.06-.38.12-.56.19-.29.11-.51.37-.56.68-.15.86-.29 1.52-.41 2.09-.38 1.88-.58 2.82-.4 6.1.04.74.14 2.14.37 3.35.08.41.23.91.35 1.26.12.36.47.6.84.6h.11c.16-.02.39-.05.62-.09.69-.13 1.73-.36 3.38-.73 1.05-.23 2.35-.52 3.96-.88.41-.03 1.14-.06 2.14-.06ZM62.47 8.26c-.18 0-.39 0-.63.03-.2.02-.43.06-.68.14a.91.91 0 0 0-.63.73c-.05.35.11.69.4.87.3.19.59.33.86.42 1.07.34 1.87.5 2.5.5.27 0 .52-.03.74-.09a.896.896 0 0 0 .16-1.67c-.25-.12-1.11-.54-1.11-.54-.52-.25-.95-.39-1.63-.39Zm24.58 81.53c-.84 0-1.08-.13-1.37-.3l-.08-.04c-.99-.56-1.48-1.21-1.46-1.92.01-.49.31-1.02.83-1.47.63-.55 1.47-.87 1.61-.91 1.22-.17 2.14-.27 2.89-.36 1.8-.2 2.79-.3 5.85-1.29.03 0 .07-.02.11-.02.27-.02.5-.11.67-.18l.13-.05c.29-.1.52-.15.73-.17.09 0 .19-.01.28-.01.92 0 1.46.34 1.76.63.47.46.65 1.1.51 1.79-.23 1.11-1.49 2.59-4.32 3.12-3.78.71-6.17 1.08-7.52 1.17-.23.01-.44.02-.62.02Zm-36.78-.12q-1.23 0-1.68-.39c-.4-.34-.59-1.08-.56-2.18l.05-.31.1-.25.14-.21.21-.23c.25-.23.79-.5 1.43-.69 2.2-.66 6-.7 6.42-.7.06.01.18.02.26.02h.15c.39 0 1.4.12 2.47 1.22.32.32.46.57.53.73l.07.32-.03.31-.09.21-.25.32c-.16.15-.45.34-.79.57l-.39.26c-.06.04-.43.21-1.13.34-1.89.34-5.86.61-6.31.64-.22.01-.42.02-.61.02ZM18.5 75.69c-.09 0-.17 0-.26-.01-.68-.06-1.52-.41-2.58-1.08-2.77-1.73-2.73-4.58-2.58-5.72.23-1.81 1.23-2.48 1.53-2.64.15-.08.27-.2.35-.34.11-.19.18-.35.24-.5.02-.06.05-.12.08-.18.14-.29.35-.64 1.05-1.31.06-.07.18-.2.38-.4.17-.17.26-.4.26-.63h.06c.2 0 .41-.07.57-.21l.33-.27a.88.88 0 0 0 .34-.66c.12.06.25.09.38.09.12 0 .24-.02.35-.07.43-.19.85-.28 1.25-.28.35 0 .69.08 1 .23.28.14.56.37.87.72.05.06.1.12.14.18.18.23.42.53.81.73.08.04.15.11.19.19.23.46.47.67.69.84.27.23.48.45.75.98.21.41.33 1.03.37 1.88.09 1.92-.17 2.48-.65 3.31l-.21.34c-.27.44-.61.99-.99 1.82a.4.4 0 0 1-.14.17c-.78.54-1.4 1.04-1.9 1.45-.43.35-.8.65-1.12.85-.57.36-1.04.52-1.57.52Zm-.48-7.19c-.21.26-.26.63-.11.93.15.32.47.53.82.53.02 0 1.09-.07 1.09-.07.24-.02.46-.13.62-.31s.23-.42.21-.66c-.06-.73-.07-1.15-.04-1.79a.91.91 0 0 0-.3-.71.9.9 0 0 0-.59-.22c-.05 0-.11 0-.16.01l-.45.08a.89.89 0 0 0-.73.92l.02.36c-.02.31-.11.52-.19.68-.03.06-.07.12-.11.18-.02.03-.05.05-.06.07Zm35.91 2.9c-1.18 0-1.63-.23-2.38-.76-.13-.09-.26-.19-.4-.3-.43-.32-.97-.72-1.77-1.2a.45.45 0 0 1-.19-.24l-1-3.41c-.04-.14 0-.3.1-.41.08-.08.14-.18.18-.29.02-.05.14-.37.19-.55.12-.34.26-.6.44-.78.23-.23 1.48-1.4 3.11-1.4q.315 0 .63.06c3.67.68 5.5 3.6 5.36 6-.11 1.9-1.42 3.11-3.51 3.25q-.405.03-.75.03Zm22.34-8.38c-.11 0-.23 0-.34-.01-1.6-.11-3.25-1.01-3.3-2.79-.04-1.2.2-1.7.38-1.96s.42-.47.79-.68c.13-.08.28-.15.45-.23.38-.19.85-.42 1.4-.79.07-.05.15-.07.24-.07a14 14 0 0 0 2.09.04c.17 0 .33-.01.47-.01h.21c.16.01.31.04.44.09l.39.21c.2.15.48.45.72 1.24.41 1.29.29 2.41-.34 3.31-.7 1-2.12 1.65-3.61 1.65Zm-60.91-.95c-.44-.13-.94-.43-1.22-.77l-.17-.25-.14-.33-.04-.21v-.29c.23-1.36 1.35-2.89 3.16-4.33 2.08-1.65 4.6-2.88 5.59-3.34.04-.02.08-.03.12-.04.39-.05.67-.25.88-.39.05-.03.09-.07.14-.09.37-.21.67-.33.95-.37.18-.02.36-.04.53-.04 1.38 0 2.74.71 3.72 1.96 1.47 1.86 1.99 4.86-.31 7.04-.22.21-.51.38-.92.54-.06.03-.13.05-.19.07-.25.08-.6.19-.9.47-.08.07-.19.11-.29.11-.13 0-.24-.06-.32-.14-.24-.27-.51-.41-.73-.53-.05-.03-.11-.06-.16-.09-.33-.2-.56-.38-.73-.57-.73-.82-1.14-1.77-1.28-2.14-.04-.11-.07-.21-.1-.31a.88.88 0 0 0-.87-.67c-.12 0-.24.02-.35.07-2 .84-2.56 1.54-3.06 2.16l-.14.17c-.15.18-.3.35-.5.53-.17.16-.27.38-.28.61a.85.85 0 0 0-.64-.05s-.19.04-.24.06c-.27.08-.48.27-.59.53-.02.06-.05.12-.08.18-.06.12-.08.25-.08.37h-.06c-.09 0-.19.01-.28.05l-.13.04-.3-.02Zm31.13-2.67c-.49 0-1-.04-1.52-.11-3.04-.43-6.25-2.12-7.98-4.21-1.04-1.25-1.49-2.6-1.27-3.8.25-1.36 1.36-2.55 3.19-3.43.51-.25 1.33-.38 2.29-.38.58 0 1.2.05 1.84.14 2.54.37 5.13 1.34 6.07 2.04.09.07.12.09.49.43l1.35 1.22s.07.08.1.13c.29.6.57 1.13.82 1.59.34.64.62 1.15.76 1.57.23.68.22 1.21-.04 1.76s-.87 1.16-1.79 1.81c-1.15.81-2.64 1.23-4.32 1.23Zm-3.75-7.89q-.27 0-.51.03c-.16.02-.32.07-.43.11-.23.08-.42.26-.52.49s-.1.49 0 .71c.04.08.15.33.41.5.7.48 1.58.88 2.46 1.12.7.18 1.28.27 1.78.27q.435 0 .81-.09c.31-.07.55-.3.64-.6s.02-.63-.19-.86c-.8-.88-1.46-1.2-3.2-1.54-.48-.09-.9-.14-1.26-.14ZM58.12 30.6c-.48 0-1.06-.07-1.75-.2-.01 0-1.76-.36-2.43-1.47-1.66-2.78-.59-4.93-.13-5.85l.07-.13s.04-.09.05-.13q.03-.09.09-.15c.48-.54.85-1 1.17-1.4.23-.29.43-.54.63-.76.38-.42.72-.69 1.09-.89.57-.29 1.31-.42 2.41-.42.2 0 .41 0 .63.01 1.49.06 2.58.51 3.25 1.35.67.85.75 1.95.7 2.72-.11 1.8-.99 3.68-1.17 4.04-.03.05-.06.1-.1.14-.63.58-1.11 1.09-1.5 1.5-.29.31-.54.58-.78.79-.5.44-.93.66-1.5.77-.22.04-.46.06-.73.06Z" data-name="Capa 1" style="fill-rule:evenodd"/></svg>