<?xml version="1.0" encoding="UTF-8"?>
<svg id="Capa_2" data-name="Capa 2" xmlns="http://www.w3.org/2000/svg" viewBox="0 0 256.06 197.38">
  <defs>
    <style>
      .cls-1 {
        fill-rule: evenodd;
      }
    </style>
  </defs>
  <g id="Capa_1-2" data-name="Capa 1">
    <path class="cls-1" d="M29.58,87.12c.48-.19,4.73-2.2,10.54-4.12,6.67-2.21,15.06-5.37,19.61-9.16,4.78-3.98,5.5-2.51,9.26-4.86,18.93-11.84,9.41-12.91,40.35-35.02,13.97-9.98,30.36-14.41,33.41-15.21,23.74-6.21,42.21-.98,45.83,1.51,2.48,1.71,4.27,4.45,8.38,7.11,17.76,11.52,14.51,32.7,15.01,38.36,3.06,35.01-9.65,41.24-12.77,50.16-2,5.7-2.3,5.58-6.63,9.79-7.3,7.11-16.3,11.5-18.41,12.7-13.37,7.67-16.31,3.73-43.21,30.91-36.97,37.34-97.52,36.26-120.36,3.69-4.21-6-6.56-9.13-7.21-12.37-1.66-8.24-.65-8.14-3.06-27.55-2.94-23.74,15.44-39.71,16.52-39.53.72.12,1.37-.47,2.08-.65,4-1.05,3.44-2.15,10.66-5.77ZM98.39,52.7c-3.38,2.91-3.26,2.98-6.43,6.06.97-.19,1.89.97,2.86.78.53-.1,3.51-2.53,3.8-2.76.77-.63.76-.71.76-.8-.1-1.74-.89-1.52-.99-3.27ZM24.37,112.44l-.21-2.42,3.27-.62c6.4,2.93,6.26,3.15,12.77,5.82,8.96-13.78,14.47-11.49,22.93-11.69,7.08-.17-.05-3.64-.33-3.77-1.76-.85-6.67-2.49-9.83-5.03-3-2.41-3.56-2.56-12.96.49-8.46,2.75-17.6,9.36-20.32,13.25-.32.45-.37,1.05-.69,1.51-19.44,31.38,39.34,55.25,73.38,39.46,8.44-3.91,14.23-8.64,15.35-9.55,11.97-9.77,17.89-19.85,35.46-29.91,15.06-8.63,42.29-14.27,52.22-44.4,3.99-12.1-.48-34.67-29.1-35.45-8.61-.24-8.77-.79-16.78,2.39-1.86.56-15.97,4.82-22.7,8.55-.25.14-3.11,1.73-.54,3.47.71.48,1.24-1.47,10.44,2.53,20.01,8.71,22.6,12.64,38.47,28.87.32.33,3.53,3.61,3.67,4.51.27,1.72-1.8,3.57-4.02,1.89-4.03-3.07-3.08-4.24-14.1-11.32-8.05-5.18-20.22-15.73-26.62-19.28-9.01-4.99-9.24-4.41-9.96-4.92-1.91-1.36-1.81-2.39-3.92-1.44-2.28,1.02-17.88,10.79-16.42,13.08.08.12,13.74,5.41,26.04,12.45,6.76,3.87,25.94,22.52,26.07,24.24.04.51-.06,4.99-6.39-.09-8.76-7.04-9.18-6.35-16.29-11.29-3.09-2.14-21.09-17-31.81-21.12-4.18-1.6-4.42.49-9.16,4.76-6.47,5.83-8.12,5.01-8.14,8.85,0,.51-.35,1.21.05,1.52.73.58,1.14-.63,11.05,3.87,6.61,3,10.92,4.47,20.99,12.91,4.31,3.61,17.09,16.34,17.12,17.25.13,3.99-2.17,3.32-5.17.71-7.19-6.25-13.25-8.84-28.82-20.1-18.64-13.49-20.31-13.52-24.18-10.78-1.04.73-7.24,5.12-14.15,7.18-.37.11-4.31,1.28-4.42,2.02-.48,2.96,1.31,1.83,4.15,2.86,2.02.73,18.38,8.16,25.02,12.76,7.02,4.86,20.1,19.48,20.41,19.81.82.88,4.53,3.68,2.35,5.8-3.45,3.37-2.44-2.63-23.71-16.72-1.15-.77-6.74-6.75-6.92-1.23-.23,6.79-.12,7.55-8.07,13.06-1.96,1.36-2.03,1.47-2.14,1.65-.52.88.53,1.03.01,1.89,14.23,13.18,16.46,13.56,15.53,16.8-.53,1.85-.7,2.76-2.29,1.65-.5-.35-.46-1.17-.9-1.59-.43-.42-.76.07-6.16-4.31-5.2-4.23-14.28-8.64-15.58-9.27-2.24-1.09-2.16-1.15-4.03-2.82-.28-.34-.9-.29-1.18-.63-.52-.64.03-.88-.57-1.49-.93-.95-1.27-.39-2.19-1.33-11.22-1.47-9.52-5.16-19.26-10.84-3.53-2.05-3.55-1.92-6.73-4.45ZM153.31,36.44c.58-.52-.17-1.79.4-2.31,1.14-1.03,16.05,2.82,26.83,13.19,9.08,8.73,8.36,9.7,7.68,10.48-2,2.28-2.54,1.18-5-.61-8.04-5.85-8.33-5.36-16.36-11.18-12.36-8.96-12.5-8.75-13.55-9.56ZM100.55,50.72c.95-.26,1.59,1.76,2.54,1.51.56-.15,32.26-28.93,67.5-25.9,11.36.98,28.08,9.07,30.08,24.51,5.28,40.72-48.96,59.39-50.34,60.06-26.93,13.13-34.51,36.86-64.01,45.35-35.85,10.32-88.61-11.66-72.69-45.77,2.9-6.22,10.78-11.88,11.91-12.69,12.54-9.01,31.32-8.71,46.48-18.89,7.79-5.23,7.78-5.22,7.79-5.24.76-.82.74-1.35.73-1.48-.07-1.51-.86-1.29-.93-2.79-11.92,8.3-11.79,9.22-35.62,16.82-16.82,5.36-42.74,15.55-36.96,46.8,2.65,4.51,11.5,24.93,49.84,29.23,17.27,1.94,38.72-3.06,52.29-12.72,17.68-12.58,25.77-28.19,46.76-37.29,20.52-8.9,29.9-18.37,32.05-20.54,5.73-5.79,9-9.16,16.24-23.87,2.41-10.75,7.6-31.87-25.63-43.44-4.95-1.72-25.22-3.44-39.36,1.99-15.24,5.84-24.36,10.55-38.68,24.36ZM207.56,76.36c-.24,0-.01-.67-.25-.67-.25,0-1.75-.01-3.02.65-.05.02-2.77,5.12-3,5.56-2.73,5.11-10.37,13.25-14.51,16.8-19.92,17.06-30.72,12.74-52.36,34.03-16.69,16.42-26.15,27.58-56.64,33.09-17.23,3.11-38.5-1.19-48.14-5.76-19.19-9.08-21.13-17.6-23.28-20.67-.32-.46-.91-.69-1.23-1.15-.67,7.97,1.78,20.39,5.83,26.15,15.93,22.67,64.62,33.39,106.35,5.73.54-.36,12.98-10.12,17.47-15.97,12.01-15.63,34.42-22.01,44.57-28.95,24.67-16.86,26.2-31.93,28.24-48.84ZM48.28,120.81c3.97,1.89,3.95,1.87,4.29,2.04,1.01.5,1.93,1.16,2.99,1.56.45.17.99-.04,1.44.13l4.06.91c4.42-.99,4.64-.47,8.29-3.18,7.45-5.53,4.08-15.17-4.12-15.05-2.26.03-2.33.07-2.51.17-1.12.6-.3,1.33-1.41,1.92-.77.1-1.56,0-2.34.09-4.86.62-4.37,1.83-6.28,2.64-.44-.44-.07-1.36-.51-1.8-2.12-2.16-6.56,5.08-6.94,5.7.35.84.2,1.84.55,2.68.1.24.18.16,2.48,2.19ZM58.78,113.47c1.24.17,1.2-.28,2.47-.11.17.02.73.1,1.96.71,1.31.65,1.14,1.06.26,2.23-.99,1.32-.99,1.33-2.57,1.75-.45.12-5.31,1.41-5.57-1.65-.22-2.59,1.07-1.82,3.45-2.93ZM228.59,38.77c.82-7.44,2.51-31.85,13.35-37.53,11.61-6.08,10.21,12.06,10.21,13.85-.05,65.71,1.35,84,.74,91.24-.75,8.88.18,8.85.7,25.47,1.09,35.41,2.79,35.32,2.42,50.75-.32,13.22-11.9,15.55-19.09,10.33-7.63-5.54-3.8-28.35-3.78-39.15.04-20.07,2.08-33.03,1.66-38.77-.42-5.71-6.92-1.4-8.39-8.46-.91-4.39,1.1-54.85,2.18-67.75ZM248.93,87.81c.12-.86,1.31-9.7.34-10.83-.56-.65-1.82-.35-2.38-1-.04-3.41-.11-3.39.41-6.77-.43-.91-1.68-1.24-2.11-2.15-.04-.09.24.05.57-1.07.24-.82,0-.83.23-1.63.66-16.08,3.53-57.21,1.15-59.31-1.88-1.65-3.43,1.08-3.58,1.34-7.04,12.37-9.71,18.88-11.58,45.9-.54,7.74-2.35,48.54-1.72,52.45.71,4.44,3.28,3.23,15.27,3.03,2.78-.04,3.31-.27,3.43-3.04.06-1.35-.46-1.33,0-16.92ZM241.91,189.45c.41.63,1.2.96,1.61,1.59.2.31-.17.91.15,1.11.41.25,3.66-.08,5.21-1.21,3.54-2.59,3.38-6.52,3.41-6.7-.21-2.83-.01-2.82-2.32-35.43-.31-4.33-.9-32.69-1.46-33.64-.62-1.06-5.82-1.92-6.38,1.41-.23,1.38.24,2.8-.57,15.17-.62,9.33-2.61,13.02-2.44,13.47.33.88,1.38,1.35,1.71,2.22-1.3,4.23-1.06,4.26-1.51,6.33-.46.82-1.81.86-2.28,1.69-.16.28-1.07,6.7-1.16,7.28-.23,1.6-.41,19.03.07,21.39.96,4.69,3.92,7.27,4.47,7.04.7-.29.8-1.41,1.5-1.7Z"/>
  </g>
</svg>