<?xml version="1.0" encoding="UTF-8"?>
<svg xmlns="http://www.w3.org/2000/svg" id="Capa_2" data-name="Capa 2" viewBox="0 0 273.76 208.15"><path id="Capa_1-2" d="M137.91 208.15c-14.06 0-26.1-2-36.73-3.76l-1.58-.26c-22.1-5.2-34.39-11.57-39.63-14.29-.74-.38-1.34-.69-1.79-.91-14.39-7.8-27.63-18.38-37.31-29.8l-.36-.42c-6.28-7.89-8.19-11.37-9.46-13.67-.2-.37-.39-.71-.58-1.03 0 0-1.21-2.16-1.26-2.26-.49-.92-.7-1.38-.91-1.84-.22-.47-.43-.94-.92-1.88-1.57-3.93-1.81-4.59-2.85-7.37l-.8-2.13-.02-.06c-7.69-26.28-7.17-64.96 38.95-99.73.6-.45 1.1-.83 1.47-1.12 3.21-2.25 7.87-5.1 13.88-8.5l7.53-3.77c.23-.09.63-.27 1.21-.53C88.04 5.13 111.85 0 135.6 0c5.66 0 11.37.3 16.96.89l.36.04c7.54.8 20.17 2.14 35.36 7.04 4.8 1.55 16.96 5.72 26.53 11.05.01 0 .02.01.03.02 4.02 2.27 12.32 7.29 13.07 7.81 25.79 18.11 41.36 40.9 45.02 65.91 3.38 23.09-3.83 46.61-20.31 66.22-2.72 3.17-5.37 5.85-6.39 6.85-1.39 1.21-1.98 1.83-2.59 2.48-.53.56-1.08 1.14-2.22 2.17-4.02 3.53-8.49 6.95-11.54 9.19-7.55 5.26-17.22 10.62-26.54 14.71-5.15 2.26-10.25 4.17-15.16 5.69-17.65 5.44-34.09 8.08-50.27 8.08M8.87 126.98c4.36 12.14 7.3 20.22 22.58 35.86 28.28 28.93 69.3 36.33 73.88 37.08 12.49 2.04 22.18 2.95 31.4 2.95s18.14-.85 30.77-2.83c6.63-1.04 14.96-3.31 23.46-6.39 14.09-5.1 27.03-11.68 36.43-18.55 5.18-3.79 18.09-13.88 26.32-26.1 20.54-27.8 14.6-56.27 11.1-67.22-5.92-18.5-18.03-31.98-20.17-33.86-.92-.81-1.93-1.82-3.1-3-5.75-5.76-15.38-15.4-38.13-25.67-20.28-9.16-43.39-14-66.83-14-38.33 0-74.6 12.59-99.5 34.54l-1.98 1.74c-2.9 2.73-9.96 9.61-13.54 15.03-24.34 33.21-14.9 64.31-12.77 70.21 0 0 .06.18.08.21m153.86 55.46c-2.84 0-5.88-.58-10.47-2.02-.13-.05-.28-.11-.48-.18-8.31-3.01-13.3-9.23-16.02-13.92-.96-1.65-3.22-6.69-3.66-10.89-.26-2.49 0-5.74 2.8-7.08 2.38-1.13 5.36-1.64 9.68-1.64.65 0 1.32.01 2 .03 1.83.05 3.8.17 5.89.29 3.52.21 7.51.44 11.88.44 3.07 0 5.96-.11 8.84-.35h.07c2.14 0 3.69-.03 4.98-.06.95-.02 1.76-.03 2.56-.03 1.77 0 3.58.07 7.57.41.03 0 .12.02.14.03 2.76.39 4.55 1.69 5.37 3.87.11.29.23 1.05.21 2.21-.03 1.87-.33 4.29-.45 5.25l-.11.37q-1.45 4.52-3.86 8.84c-4.77 6.17-7.39 9.54-18.1 12.96-3.56.92-6.13 1.45-8.84 1.45Zm1-24.01c-.44.02-.81.31-.93.74-.84 3.1-2.73 8.89-3.29 10.59-.07.2-.07.42 0 .63.1.3.29.75.74 1.13.56.47 1.34.69 2.47.69.31 0 .66-.02 1.05-.05 2.4-.22 3.68-1.04 4.23-1.52.22-.19.35-.47.35-.76 0-.25-.01-.61-.07-.92-.13-.76-.41-1.73-.88-3.04-.48-1.33-1.06-2.75-1.58-4-.44-1.08-.86-2.09-1.12-2.82-.14-.4-.52-.67-.94-.67h-.04Zm-5.19-5.23c-.32 0-.63.15-.82.43-.11.16-.21.33-.31.51l-.1.17c-.23.4-.47.82-.74 1.15-.55.67-2.02 2.37-3.88 3.78-1.4 1.06-2.78 1.75-4.01 2.37-.36.18-.7.35-1.01.52-.45.24-.93.59-1.11.73-.38.29-.5.8-.3 1.23.07.14.19.36.31.52.24.33.56.68.97 1.08.37.36.77.63 1.16.88.24.16.47.31.69.49.08.07.18.12.28.16.32.12.63.24.91.36.62.24 1.15.46 1.62.61l.15.05c.28.09.56.19.89.19.19 0 .38-.03.55-.1.48-.18.72-.55.91-.86.23-.37.45-.81.68-1.4 1.02-2.56 1.46-3.94 1.88-5.27.46-1.43.89-2.78 2.05-5.53.03-.07.05-.13.06-.2l.13-.68a1 1 0 0 0-.6-1.11c-.13-.05-.26-.08-.39-.08Zm11.91 3.07a1 1 0 0 0-.55.17l-.31.21c-.42.28-.56.82-.34 1.27 1.31 2.68 2.16 4.69 2.78 6.16.34.8.62 1.45.86 1.97q.225.465.42.78c.06.09.13.19.18.25a1 1 0 0 0 .78.38h.13c.12-.02.37-.05.55-.1 1.95-.5 2.49-1 3.26-1.86.29-.32.63-.7 1.09-1.14.14-.14.24-.32.28-.51l.06-.25c.1-.37-.02-.76-.3-1.01-.3-.26-.81-.7-1.29-1.07-1.14-.86-2.61-1.88-3.91-2.79-1.26-.88-2.45-1.7-2.91-2.09-.05-.05-.13-.11-.21-.16-.17-.12-.38-.18-.58-.18Zm-25.17-4.8c-.65 0-1.29.01-1.89.04-1.12.04-1.97.13-2.59.26-.21.05-.5.14-.58.17-.17.06-.32.16-.43.3-.22.26-.26.54-.28.68-.1.47-.1.99 0 1.55.24 1.48 1.11 3.29 2.8 3.92q.555.21 1.17.21c.88 0 1.83-.32 2.84-.96l1-.63c2.36-1.48 3.25-2.04 4.74-3.65.26-.28.34-.69.19-1.05s-.48-.6-.87-.62c-2.33-.14-4.38-.21-6.1-.21Zm30.6.33a.98.98 0 0 0-.93.65c-.16.41-.03.87.32 1.14 1.2.93 3.12 2.24 6.07 4.1.27.18 1.02.67 1.97.67.28 0 .55-.04.81-.13 1.37-.45 1.98-2.01 2.31-3.14.15-.5.23-.9.27-1.25.02-.16 0-.39 0-.51a1 1 0 0 0-.71-.87c-.24-.07-.69-.2-1.08-.25-.5-.06-1.08-.1-1.74-.14l-.49-.03c-3.24-.06-5.44-.17-6.73-.25h-.06Zm-79.81 30.55c-1.98 0-4.09-.49-8.08-1.57l-.35-.12q-4.09-1.42-7.71-3.63c-4.33-2.59-11.8-8.84-13.34-21.77-.21-1.73-.23-8.24 1.54-12.83 1.33-3.44 3.35-5.19 6.02-5.19.35 0 .72.03 1.09.09 6.67 1.06 16.06 6.45 18.78 8.07.04.02.07.04.11.06l.12.05c3.49 1.52 6 2.65 7.46 3.34.04.02.08.04.13.05 2.75.86 12.15 3.97 17.61 7.75 1.65 1.14 2.87 2.32 3.54 3.4.53.86.75 1.71.68 2.53-.15 1.62-1.18 3.82-2.9 6.18-1.89 2.61-4.19 4.93-5.39 6.08-1.65 1.23-2.08 1.46-4.43 2.75-.92.5-2.11 1.16-3.77 2.09l-3.58 1.23c-3.71.98-5.57 1.45-7.53 1.45Zm3.05-24.66a1 1 0 0 0-.83.71c-.11.36-.21.75-.29 1.12-.46 2.19-.85 5.33-1.19 9.34-.03.41.18.79.55.97.62.32 1.31.47 2.04.47h.16c1.51-.05 2.77-.6 3.39-.92.54-.28.93-.53 1.24-.77.24-.19.64-.51.77-1.06.1-.4.02-.77-.08-1.1-.13-.45-.35-.94-.74-1.64-.47-.86-1.08-1.83-1.85-3.06-.64-1.02-1.38-2.21-2.19-3.58a.99.99 0 0 0-.86-.49h-.12Zm-13.86 8.15c-.1.12-.26.3-.33.37-.13.14-.22.32-.25.51-.05.29-.07.58-.08.73-.02.4.2.78.56.95.35.17 1.1.53 1.77.89 1.1.59 2.08.89 2.92.89q.465 0 .87-.12a1 1 0 0 0 .71-.83c.43-3.46.85-5.9 1.28-7.46l.18-.65c.02-.08.04-.16.04-.24l.02-.49a.97.97 0 0 0-.53-.92 1 1 0 0 0-.47-.12c-.21 0-.42.07-.6.2l-.04.03c-.28.22-.68.57-1.14 1.09-.99 1.12-1.27 1.4-1.89 2-.26.25-.57.56-1.01 1-.55.55-.75.75-1.04 1.02l-.54.51c-.06.06-.11.12-.15.19l-.29.45Zm20.47-10.59a.993.993 0 0 0-.83 1.55c.86 1.28 2.34 3.48 2.56 3.76.78.97 1.27 1.86 1.7 2.64.2.37.37.67.54.93.16.25.36.56.74.75q.3.15.66.15c.13 0 .28-.02.46-.04.34-.05.71-.15 1.18-.32.17-.06.32-.17.44-.3.13-.16 1.29-1.56 2.15-2.62a1.003 1.003 0 0 0-.21-1.47c-2.08-1.39-5.97-3.87-8.7-4.87-.14-.05-.28-.09-.42-.13a.8.8 0 0 0-.27-.04Zm-18.04-2.05c-.08 0-.17.01-.25.03-.95.25-1.73.46-2.41.64-2.71.73-3.73 1.01-8.13 1.56-.5.06-.88.14-1.21.24-.09.03-.21.08-.31.12-.46.21-.69.73-.54 1.21.09.29.34 1.04.69 1.67.4.74 1.19 2.12 2.04 3.24.32.42.78.88 1.03 1.12.19.18.44.28.69.28.09 0 .19-.01.28-.04.33-.1.62-.28.93-.47.62-.38 1.27-.88 2.05-1.55 1.21-1.04 2.46-2.27 3.66-3.46.92-.91 1.79-1.76 2.51-2.4.2-.18.33-.44.34-.71 0-.27-.09-.54-.28-.73a1 1 0 0 1-.1-.11c-.07-.08-.13-.16-.19-.24a1 1 0 0 0-.8-.41Zm-11.22-10.43c-.44 0-.83.29-.96.71-.23.76-.94 3.19-1.15 3.94q-.045.18-.03.36c.06.58.05 1.21.03 1.64-.02.5.34.94.83 1.03l.25.04c.14.02.24.02.34.02.3 0 .58-.05 1.25-.17.96-.17 2.96-.52 7.41-1.14.99-.13 1.79-.3 2.43-.52a.997.997 0 0 0 .15-1.82c-1.48-.8-5.23-2.75-8.22-3.65-.74-.22-1.36-.36-1.89-.41h-.12c-.09-.02-.18-.03-.25-.04h-.06Zm139.14 1.64c-6.15 0-10.74-1.77-12.92-2.82-2.25-1.08-3.27-2.02-3.53-2.28a4 4 0 0 1-.35-.42l-.2-.5c-.14-.86-.02-1.58.34-2.21.75-1.27 2.46-1.6 2.65-1.64 1.24-.22 2.06-.35 2.74-.46 1.32-.21 2.12-.34 4.43-.83.07-.02.15-.04.22-.07 11.33-5.32 14.8-8.75 19.16-13.77 3.97-4.57 6.26-9.85 8.7-15.44.55-1.26 1.11-2.54 1.69-3.83s.92-2.63 1.22-3.82c.23-.91.45-1.76.72-2.38.34-.75.77-1.24 1.31-1.5.3-.14.61-.21.97-.21.15 0 .3.01.46.04.52.07 1.02.14 1.92 1.28.95 1.2 2.16 3.49 3.57 6.81 1.95 4.56 1.67 11.76 1.59 13.16-.07.35-.13.71-.2 1.14-.51 3.04-1.71 10.16-8.48 18.16-.65.77-2.56 3.03-9.72 7.39-5.3 2.79-10.77 4.2-16.28 4.2Zm26.59-39.28c-.32.04-.61.23-.76.51-.21.39-.6 1.16-.89 1.86-.12.29-.25.6-.39.91-.24.54-.47 1.1-.71 1.69-1.87 4.49-4.19 10.07-12.39 17.55-4.17 3.8-7.25 5.17-8.9 5.91l-.4.18c-.44.2-.83.37-1.16.54-.42.22-.62.7-.5 1.15.12.44.52.73.96.73l1.23-.06c.11 0 .21-.03.31-.07.2-.08.44-.17.71-.27 2.75-1.03 8.47-3.18 14.33-8.95 7.01-6.89 9.57-17.53 9.7-20.63.01-.27-.09-.53-.27-.73-.19-.2-.47-.33-.75-.33h-.13Zm-96.09 37.96c-.92 0-1.73-.12-2.49-.38-1.68-.57-3.17-1.81-4.83-3.99-.01-.02-.27-.38-.27-.38-.01-.03-.06-.12-.1-.22-.05-.13-.13-.34-.17-.46a.98.98 0 0 0-.53-.58c-.31-.14-.78-.35-1.18-.49-1.59-.54-3.8-1.03-4.98-1.28-2.96-.62-5.14-1.14-6.9-1.56-2.9-.69-4.65-1.11-6.44-1.11-1.44 0-2.89.26-5.18.94-.34.11-.56.21-.81.32-.63.28-1.42.64-4.93 1.35-2.32.47-4.11.7-5.63.7-3.35 0-5.31-1.13-7.77-3.22-.87-.74-1.82-1.63-2.91-2.66-1.81-1.7-4.07-3.83-7.1-6.31-2.55-2.09-3.32-3.59-3.84-4.84l-.14-.36c-.29-.76-.63-1.63-1.87-2.35-.46-.27-.94-.41-1.36-.53l-.3-.09c-.49-.16-.84-.3-1.14-.46-.04-.02-.08-.04-.11-.05l-.74-.3c-1.84-.75-5.26-2.13-7.03-2.51-.91-.19-1.77-.29-2.54-.29-1.37 0-2.16.3-2.55.45-.07.03-.25.1-.31.14-3.22 2.11-6.85 4.9-10.36 7.61-5.33 4.1-10.84 8.34-14.94 10.22-1.58.72-2.97 1.09-4.15 1.09-.7 0-1.3-.14-1.79-.4-1.51-.83-2.26-2.97-2.16-6.21.32-10.57 5.56-21.11 7.15-24.08.1-.2.15-.31.16-.33.17-.5.08-1.06 0-1.55-.11-.67-.32-1.49-.66-2.56-.44-1.41-1.03-3.01-1.71-4.87-1.58-4.32-3.54-9.7-4.7-15.46-.47-2.32-.56-4.17-.28-5.51.18-.86.52-1.53 1.02-2 .57-.54 1.34-.82 2.29-.82.32 0 .67.03 1.03.09 2.55.45 5.9 2.52 7.91 3.76l.41.26 8.12 5.71c4.74 3.33 5.02 3.53 5.17 3.65 2.14 1.58 3.88 2.85 4.22 3.09l1.14.85c.06.05.13.09.2.12.26.11.53.3.84.59.05.04.09.1.14.15.16.18.37.42.7.59.14.07.3.11.45.11.06 0 .13 0 .19-.02.15-.03.66-.13 1.03-.26.63-.21 1.42-.54 2.22-.92 2.68-1.29 3.53-2.34 4.19-3.81l.17-.38c.39-.91.8-1.86 1.73-3.07 2.72-3.58 3.47-4.36 3.79-4.69.15-.16.24-.25.34-.39.37-.5.71-.99 1.04-1.45 1.79-2.51 2.97-4.16 4.79-5.03 1.06-.5 2.3-.73 3.92-.73 2.02 0 4.66.38 8.06 1.16.07.02.15.03.22.03.06 0 .12 0 .18-.02.26-.05.47-.06.74-.06.71 0 1.35-.07 2.79-.89.68-.38 1-.68 1.35-1.25l.19-.31c.22-.37.5-.85.95-1.5.17-.24.31-.46.45-.68.91-1.44 1.78-2.8 12.15-11.24.91-.77 1.54-1.29 2.07-1.73 1.27-1.05 1.9-1.58 4.01-3.52 4.14-3.82 6.88-6.21 9.88-7.23 1.16-.39 2.35-.59 3.63-.59 1.4 0 2.94.22 4.72.69 3.12.81 7.16 2.38 13.5 5.26 2.76 1.25 4.28 2.35 5.62 3.32 1.84 1.33 3.37 2.44 7.87 3.03 16.16 2.14 29.61 8.92 34.7 12.96 1.03.82 2.2 1.74 3.28 2.36l.08.05c.16.09.34.14.51.14.22 0 .44-.07.62-.22a.99.99 0 0 0 .33-1.09c-.32-.98-.44-1.39-.46-1.47s-.06-.17-.1-.24c-.45-.75-.85-1.4-1.19-1.97-2.16-3.56-2.55-4.2-4.51-9.22a.8.8 0 0 0-.15-.25c-.52-.66-.96-1.22-1.35-1.71-2.1-2.63-2.53-3.17-4.38-7.42a.5.5 0 0 1-.03-.17c0-.54-.24-.86-.35-.99-.06-.09-.12-.18-.17-.29-.1-.21-.19-.48-.19-.99 0-.58.25-1.33.76-2.29.12-.23.48-.62 1.1-1.01 1.35-.86 3.62-1.7 6.05-2.25 2.28-.51 4.65-.77 7.03-.77 8.15 0 19.5 3 27.3 17.29 3.87 8.78 5.84 15.48-1.61 28.37l-.37.51c-1.56 2.13-1.62 2.21-3.58 4.42-.81.92-1.31 1.53-1.41 2.34-.07.55.1 1.01.26 1.46.11.31.23.59.35.9a45 45 0 0 1 .71 1.87c.17.41.67 1.67.71 2.58.02.34-.02.64-.11.88l-.17.32-.27.3c-1.14.96-2.08 1.77-2.59 2.21-.41.35-.46.96-.13 1.38.18.22.4.51.61.82.06.08.13.16.21.22.46.36 1.5 1.37 1.34 2.96-.04.46-.27 1.04-.68 1.76-1.16 2.05-3.67 4.68-7.25 7.59-6.73 5.47-15.74 10.84-19.3 12.9-8.24 4.76-22.24 8.67-26.33 9.75-1.52.3-9.06 1.81-11.15 2.42-.78.23-.99.35-7.32 4.31-4.07 1.42-6.63 2-8.65 2ZM67.66 93.56c.15.06.33.19.41.24.7.51 1.06.85 1.19 1.14.11.24.19.62-.03 1.64-.06.29-.22.6-.38.93-.17.35-.37.75-.49 1.19-.03.1-.04.21-.03.32 0 .01.05 1.02.18 1.86.25 1.6.67 3.64.99 5.12l.21 1.01c.07.33.3.61.61.73l.19.07c.91.36 3.03 1.19 10.09 4.23.53.2.73.32.97.45.27.15.58.32 1.21.56.18.07 4.07 1.46 4.07 1.46 29.84 12.34 30.94 12.54 33.85 13.07 3.48.63 5.26 1.09 6.98 1.52 1.94.49 3.77.96 7.74 1.62 1.28.21 2.2.39 2.96.54 1.99.39 2.99.58 6.52.63 2.41.03 4.23.11 5.7.17 1.26.05 2.36.1 3.41.1 2.71 0 5.18-.31 9.8-1.23.99-.2 1.98-.38 3-.57 4.61-.86 9.84-1.83 17.8-4.54.31-.11.55-.36.64-.67s.02-.65-.18-.91c-.2-.25-.44-.46-.76-.68-.17-.11-.36-.17-.56-.17h-.1c-.07 0-.17.02-.25.02l-.4-.05c-.12-.03-.24-.08-.36-.14-.1-.06-.39-.35-.66-.71-.05-.06-.1-.12-.16-.17-1.12-.94-4.92-4.35-6.9-8.66-7.65-16.67-1.12-33.97 3.41-40.79 1.84-2.77 3.56-4.19 4.56-4.6.33-.13.64-.2.93-.2s.54.07.78.19c1.17.63.8 2.27.59 2.95-.68 2.19-2.86 5.29-3.57 6.31-.16.23-.27.38-.3.44-3.79 6.31-4.79 15.71-4.54 20.49.68 13.03 6.18 18.26 8.52 20.5.21.21.41.39.57.55.03.03.06.06.1.08l3.98 3.11c.18.14.4.21.62.21.13 0 .25-.02.38-.07 6.53-2.65 13-6.42 19.8-11.52 1.63-1.14 5.55-3.95 8.08-6.15.35-.3.7-.64 1.01-.96.26-.26.35-.65.24-1.01a.99.99 0 0 0-.78-.68c-.12-.02-.24-.03-.34-.03s-.22.01-.32.04c-.87.2-1.66.55-2.43.88-.45.2-.89.39-1.35.55-1.01.35-1.9.53-2.65.53s-1.37-.2-1.71-.55c-.36-.38-.51-.94-.43-1.58.1-.83.59-1.64.92-1.96l.24-.18c.05-.03.12-.05.2-.09.7-.27 2.21-.86 6.85-3.92 2.12-1.67 3.17-2.7 3.44-2.97.17-.18.27-.41.28-.66.02-.5-.17-.99-.39-1.57l-.05-.14c-.66-1.72-1.82-3.75-2.29-4.55-.03-.05-.06-.1-.1-.14-1.02-1.19-2.88-3.08-5.52-5.62-6.02-5.78-8.26-7.15-12.32-9.65-1.82-1.12-4.09-2.51-7.26-4.66-4.67-3.17-20.89-11.41-39.64-11.41-2.58 0-5.14.16-7.6.48-2.33.3-7.33 1.41-9.38 1.88-1.78.4-2.74.69-3.58.94-1.03.31-1.92.57-4.02.97-3.24.62-8.96 3.03-12.04 4.32-.71.3-1.25.52-1.51.62-4.01 1.09-4.46 1.32-7.33 2.82l-1.19.62c-4.36 1.68-9.14 4.16-13.51 7-.01 0-.02.01-.03.02-8.49 5.49-9.12 5.81-16.78 9.79l-2.31 1.2c-1.88.97-2.9 1.66-3.81 2.26-1.21.8-2.16 1.44-4.79 2.46-.97.37-2.86 1.2-4.61 2.52-2.25 1.7-3.41 3.5-3.54 5.5-.11 1.71.58 3.53 2.05 5.42.27.34.56.66.86.98.19.21.46.32.73.32.14 0 .27-.03.4-.08l.55-.26a1 1 0 0 0 .55-1.04c-.13-.89-.35-2.57-.4-3.82-.05-1.41.14-2.61.53-3.29 1.09-1.88 2.23-2.96 3.24-3.04l.37.02.36.08Zm23.86 27.78q-.36 0-.63.03c-.39.04-.72.3-.85.67s-.02.78.26 1.05c.69.65 1.32 1.13 1.93 1.46 1.67.9 2.92 2.09 4.13 3.23.42.4.83.78 1.25 1.15 1.3 1.14 2.82 2.2 5.19 2.2h.41c2.05-.1 3.61-.38 4.77-.85a1 1 0 0 0 .62-.94.99.99 0 0 0-.66-.92s-1.31-.48-1.59-.59c-.34-.13-.64-.24-1.33-.49-.48-.17-.94-.35-1.42-.54-.76-.3-1.55-.6-2.36-.86-.3-.09-.58-.11-.81-.13-.08 0-.16-.01-.24-.02-.32-.04-.57-.11-.79-.21l-.45-.33c-.46-.42-1.34-1.17-5.58-3.34-.57-.29-.96-.45-1.06-.49s-.21-.06-.31-.07c-.18 0-.34-.01-.48-.01M34.9 73.9c-.19 0-.38.05-.54.16-.31.2-.49.56-.45.93.05.53.11 1.01.19 1.43.97 5.06 4.05 14.04 6.33 19.46 1.45 3.44 1.05 5.37-.21 7.73-.28.52-.6 1.05-.94 1.61-1 1.65-2.25 3.71-3.16 6.7-.54 1.75-2.03 7.76-2.36 11.54q-.045.57-.03 1.38c0 .36.21.68.52.85a1 1 0 0 0 1-.03c.14-.08.28-.17.43-.27l.42-.27c.93-.61 2.35-1.53 4.47-2.8 2.7-1.62 2.94-1.8 3.2-1.99.38-.28.53-.54.65-.76.11-.15.24-.3.51-.51l.06-.04c.55-.35 1.06-.67 1.51-.95 3.04-1.89 3.68-2.38 5.85-6.29.02-.04.05-.08.08-.1l2.05-1.88 1.58-1.47c.31-.29.41-.75.23-1.14 0-.02-.97-2.16-1.16-2.49-1.47-2.68-1.53-2.88-2.2-5.37l-.25-.92a.45.45 0 0 1 0-.23c.78-2.4.84-2.56 1.75-4.43.16-.33.13-.73-.09-1.03l-1.72-2.35c-3.31-7.54-4.6-8.35-8.89-11.04-.72-.45-1.53-.96-2.46-1.56l-.09-.06c-2.48-1.67-4.47-2.94-5.78-3.67a.95.95 0 0 0-.49-.13Zm175.7-6.5c-.31 0-.61.14-.8.4-.27.36-.26.85 0 1.21 1.48 1.93 4.41 5.52 7.38 7.94q.435.36.78.57c.13.08.31.17.41.21.13.06.27.08.4.08.22 0 .43-.07.61-.21.08-.07.24-.2.36-.31.3-.29.6-.65.96-1.07l.11-.13c.44-.52.72-.96.9-1.39.15-.36.07-.76-.18-1.05-.23-.26-.45-.53-.68-.8-.44-.54-.9-1.09-1.45-1.59-.47-.42-1.35-.86-2.7-1.47-1.83-.83-4.14-1.73-5.75-2.35a1.1 1.1 0 0 0-.35-.06ZM85.78 70.36c-.69 0-1.25.09-1.75.29-.77.31-1.29.87-1.76 1.42-.34.41-.71.88-1.13 1.43-.35.46-.74.97-1.2 1.54-.35.44-.56.8-.69 1.03-.17.32-.16.71.04 1.01.18.29.5.46.84.46h.06c.14 0 .3-.02.44-.04.39-.06.65-.22 1.1-.54.83-.58 2.16-1.67 4.29-3.51.03-.03.07-.05.12-.07.21-.09.47-.15.83-.2l.18-.02c.24-.02.53-.05.84-.19.28-.12.57-.29.9-.53.31-.23.47-.61.4-.99a.99.99 0 0 0-.73-.78c-.13-.04-.27-.06-.4-.08-1.1-.16-1.79-.22-2.39-.22Zm138.47-11.5c-.43 0-.95.04-1.58.13-3.34.49-7.92 2.08-8.8 2.39a1 1 0 0 0-.66.83c-.04.38.14.75.46.96.21.13.45.28.66.38.62.32 1.4.65 2.25.97 2.32.87 4.31 1.83 5.92 2.89.05.03.17.1.22.12.48.21.91.31 1.32.31h.11c.49-.02.89-.39.95-.87.3-2.39.65-5.58.57-7.13-.02-.48-.39-.87-.86-.94-.14-.02-.31-.03-.44-.04h-.1Zm-92.88-16.01c-.26 0-.51.04-.82.13-.77.22-1.67.85-2.79 1.74-1.38 1.08-2.71 2.34-3.39 2.99l-.06.06-2.01 1.66a186 186 0 0 1-5.07 4.33c-3.15 2.58-4.17 3.7-4.67 4.33-.28.35-.29.85-.03 1.21l.14.2a1 1 0 0 0 .81.41c.09 0 .17-.01.26-.04.3-.08 1.05-.29 1.59-.55.96-.45 2.11-1.11 3.33-1.91 1.41-.93 2.17-1.08 2.98-1.25.71-.14 1.48-.29 2.71-1.05.02-.01.06-.03.1-.04l3.37-1.13s.09-.02.13-.02c.5 0 .88.01 1.19.02.25 0 .47.01.67.01.73 0 1.3-.07 2.46-.32.04 0 .09-.02.13-.04.49-.18.79-.27 1.05-.36.46-.14.82-.26 1.7-.65 1.45-.63 1.81-.64 2.6-.65.38 0 .82-.01 1.44-.08.49-.05.92-.2 1.31-.33.27-.09.52-.18.75-.21.05 0 .1-.02.14-.03 2.13-.68 2.94-.86 3.96-.86.55 0 1.19.05 2.08.13.4.03.84.07 1.35.11.23.02.46.03.68.03h.03c.45 0 .84-.29.96-.73s-.06-.91-.46-1.14c-.84-.49-1.59-.85-1.6-.85-5-2.41-10.35-3.88-12.42-4.39-1.39-.22-2.31-.39-2.98-.51l-.6-.11c-.45-.08-.74-.13-1.03-.13Zm86.89 3.53c-.07 0-.23.02-.29.03-.44.1-.73.37-.88.51-.37.34-.69.76-.95 1.14-.33.46-.66.99-1.03 1.56-.68 1.06-1.45 2.26-2.43 3.47l-.13.14c-.47.53-1.9 2.14-2.7 3.13-.3.38-.3.91.02 1.28a1.01 1.01 0 0 0 1.26.22c2.98-1.71 4.17-2.06 7.37-3.01.93-.27 2.01-.59 3.34-1.01.74-.23 1.28-.46 1.69-.72.15-.1.33-.25.41-.33.31-.28.4-.73.24-1.12-.08-.2-.21-.48-.37-.7-.3-.44-.73-.92-1.38-1.55-.59-.58-1.28-1.2-2.03-1.88-.44-.4-.83-.69-1.19-.88-.26-.14-.57-.29-.95-.29Zm-11.84-5.63c-.36.02-.75.05-1.1.3-.4.29-.53.66-.6.86-.07.15-.11.23-.15.3-.07.12-.12.26-.13.4-.18 1.69-.34 3.03-.48 4.14-.42 3.42-.6 4.84.07 7.33.1.36.39.64.75.72.07.02.14.02.21.02.29 0 .58-.13.77-.36.46-.56.71-.96 1.01-1.48.2-.33.44-.73.81-1.3 2.38-3.61 3.16-4.85 3.52-5.4.17-.27.24-.37.34-.52.46-.67.76-1.2.94-1.67l.04-.09c.11-.26.33-.8 0-1.36-.27-.46-.71-.66-1.1-.83-.58-.26-1.3-.48-2.36-.73-.95-.22-1.7-.33-2.3-.33h-.22Zm-72.07 83.1c-.44 0-.92-.16-1.41-.46-.99-.61-1.99-1.87-2.61-3.3-.69-1.58-.91-3.27-.6-4.65.13-.55.33-1.11.55-1.69.26-.69.53-1.4.68-2.18.12-.63-.08-1.15-.32-1.63-.3-.61-.73-1.2-1.19-1.83l-.11-.15c-1.46-2.02-2.78-4.07-2.98-6.94-.23-3.39 1.19-7.22 4.33-11.69.24-.34.24-.8 0-1.15l-.18-.43c-.03-.11-.04-.23-.05-.37q-.015-.42.03-.75a.99.99 0 0 0-.52-1.02l-.06-.03-.26-.21c-.15-.17-.29-.42-.43-.69-.1-.19-.2-.39-.32-.57-5.53-8.81.2-17.23 5.4-20.75 1.27-.86 2.56-1.42 3.52-1.53.13-.02.26-.02.39-.02.57 0 1.04.17 1.35.5.63.66.73 1.23.35 2.06-.23.51-.77 1.18-1.6 2-.27.26-.56.54-.87.83-.98.92-2.09 1.96-3.07 3.21-1.47 1.88-2.23 3.75-2.3 5.73-.09 2.17.61 4.45 2.14 6.95 1.43 2.35 1.47 2.58 1.88 4.75l.21 1.09c.02.08 0 .16-.03.24-.11.25-.11.47-.12.61-.06.4-.18 1.1-1.26 2.66-.22.31-.45.62-.67.92-.44.59-.9 1.2-1.29 1.88-.35.61-.67 1.99-.84 2.99-.31 1.75-.31 3.01-.02 3.95.56 1.81 1.6 2.92 2.51 3.9.31.34.62.66.88 1 1.05 1.35 1.94 2.98.42 6.72-1.29 3.17-.53 5.31-.03 6.73.09.26.18.49.24.71.29 1.1.06 1.6-.4 2.05-.4.39-.84.58-1.33.58Zm14.3-1.68c-.88 0-1.66-.21-2.39-.66-1-.6-1.88-1.65-2.63-3.12-1.15-2.26-2.09-5.77-2.79-10.42-.25-1.66-.47-3.37-.38-4.58.06-.85.27-1.52.63-2.04.56-.81 1.51-1.32 2.99-1.62 1.38-.27 3.38-.39 6.71-.39 1.07 0 2.24.01 3.52.03.77.01 1.49.01 2.16.01 1.56 0 2.8 0 3.77.14 1.11.15 1.91.47 2.52.99 1.04.89 1.66 2.62 1.96 5.44.05.51.18.98.29 1.44.07.28.15.57.2.87.2 1.1.14 1.96-.22 2.88-.61 1.55-2.13 3.15-4.65 4.88l-1.3.9c-2.99 2.08-5.58 3.87-7.81 4.71-.95.35-1.82.53-2.61.53Zm-2.12-11.66c.21.89.59 2.56 1.1 3.99.18.5.45 1.05.65 1.42.18.33.52.52.88.52.15 0 .3-.03.44-.1.58-.28 1.53-.71 2.78-1.14 1.68-.58 4.82-3.25 4.85-3.28a.99.99 0 0 0 .3-1.06c-.03-.1-.07-.21-.09-.31-.06-.25-.22-.46-.43-.6-.47-.3-.67-.64-.82-.97-.09-.2-.15-.4-.22-.6-.09-.33-.21-.75-.62-1.11-.46-.4-1.11-.66-2.25-.88a.41.41 0 0 1-.28-.2c-.46-.81-.95-1.31-1.55-1.6-.42-.2-.89-.3-1.48-.3-.17 0-.34 0-.52.02-.68.04-1.43.17-2.22.31l-.14.02c-.78.13-1.18.7-1.19 1.71v.11c-.04 1.44.49 3.02.67 3.54.01.04.02.08.04.12.02.1.05.24.09.39Zm-29.45 8.63c-.28 0-.58-.06-.88-.17-1.44-.53-3.19-2.42-3.64-5.34-.36-2.35.06-4.12.42-5.67l.09-.36c.25-1.02.53-2.18-.14-3.39-.56-1.01-.97-1.56-1.34-2.06-.5-.66-.96-1.29-1.79-3.08-1.91-4.12-.69-7.86.39-10.31.54-1.23 1.21-2.64 1.33-2.89.11-.22.13-.47.06-.71-.07-.25-.2-.47-.32-.68l-.12-.21c-.13-.24-.28-.5-.44-.77-.41-.71-.87-1.5-1.27-2.38-.92-2-1.26-3.81-1.05-5.53.29-2.33 1.54-4.43 3.83-6.42 1.34-1.17 1.91-1.18 2.57-1.2h.55c.28 0 .67 0 1.15-.08h.02c.17 0 .29.06.36.15.09.11.11.26.07.39s-.06.27-.05.42c0 .09.05.51.06.72 0 .12 0 .25-.02.37l-.1.38c-.35.89-.93 1.63-1.54 2.42l-.22.28c-.47.61-1.05 1.36-1.25 2.4-.33 1.68.37 3.61 2.33 6.46 1.88 2.74 1.13 4.77-.05 7.14l-.3.6c-.82 1.6-1.76 3.42-1.5 5.8.21 1.89 1.17 3.9 2.94 6.12.21.27.45.47.66.65.14.12.28.24.4.38.87 1.09 1.05 2.27.61 4.07-.1.4-.22.81-.35 1.24-.48 1.57-1.08 3.51-.51 5.79.09.37.22.7.35 1.01.1.25.2.49.27.75.4 1.57.2 2.83-.53 3.38-.29.21-.63.32-1.02.32Zm-16.91-4.93c-.22 0-.46-.03-.7-.09-1.09-.27-2.37-1.23-3.34-2.49A9.9 9.9 0 0 1 94.1 106c-.29-9.14.27-12.82.38-13.47.05-.31-.04-.62-.25-.85a9.5 9.5 0 0 1-1.75-2.83c-1.12-2.76-.26-5.21.66-6.77 1.23-2.09 3.05-3.43 4.24-3.95.47-.21.92-.31 1.34-.31.48 0 .89.15 1.12.41l.17.25.13.33c.02.08.04.26.04.46 0 .33-.08 1.06-.63 2.23-.06.12-.23.37-.4.62-.14.21-.3.44-.47.7-.46.71-1.85 2.87-.31 5.9 1.27 2.5 1.68 3.64 1.71 4.69.03 1.04-.34 2.22-1.13 4.31-.09.23-.09.49 0 .72.91 2.35.9 2.46.66 5.21l-.04.42c-.23 2.63.59 4.43 1.43 5.84l.22.37c.27.46.51.86.65 1.19.18.41.24.77.21 1.1-.05.4-.22.73-.56 1.08-.36.37-.82.55-1.36.55Zm-17.76-5.58c-.43-.03-1.17-.27-1.57-.43-.04-.01-.07-.03-.11-.04a.46.46 0 0 1-.24-.17c-1.4-2.04-1.61-3.19-1.75-4.48l-.03-.34c-.09-.99-.21-2.21-1.07-4.08a8 8 0 0 0-.14-.27c-.25-.45-.76-1.4-.95-2.81-.31-2.25.3-4.68 1.82-7.23.32-.53 1.07-1.56 1.89-2.08.46-.29.9-.43 1.32-.43.44 0 .87.16 1.3.48.52.38.69 1.29.45 2.44-.13.62-.36 1.36-.6 2.14-.17.54-.34 1.1-.49 1.66-.28 1.02-.59 2.17-.31 3.19q.045.15.12.27l.08.12c.55.83 2.21 3.37 2.31 9.45.02.98-.2 1.7-.64 2.14-.32.31-.74.47-1.25.47h-.16Zm69.29-11.67c-.08-.03-.29-.1-.73-.32a.94.94 0 0 0-.43-.1h-.12c-.11.01-.38.05-.57.05l-.41-.08-.26-.13s-.08-.08-.1-.13l-1.39-2.94s-.04-.1-.04-.16c-.05-1.12-.15-1.99-.22-2.69-.22-2.03-.29-2.64 1.21-5.23.18-.31.35-.58.5-.82.43-.69.77-1.24.88-1.93.14-.91-.23-1.67-.89-3.05-3.23-6.72-.33-12.22 1.69-14.91 1.76-2.34 3.91-3.97 5.15-4.48 1.15-.47 2.19-.72 3.09-.72.76 0 1.25.18 1.53.32.98.51 1.07 1.33 1.04 1.77-.05.71-.49 1.35-1.18 1.73-3.88 2.12-4.51 3.1-5.25 4.24-.17.26-.35.54-.59.85-.06.08-.12.17-.15.27-.33.88-.64 1.54-.91 2.12l-.13.28c-.71 1.54-.82 2.43-.1 4.72.15.47.36.88.57 1.27.16.31.31.6.41.88.31.68.56 1.19.78 1.63.25.51.46.94.62 1.32.24.59.34 1.07.32 1.56-.02.83-.38 1.79-1.23 3.23-.17.3-.38.58-.58.86-.28.39-.57.79-.81 1.24-.48.89-.58 2-.62 3.07-.04 1.08.01 2.17.06 3.13.03.72.06 1.34.05 1.79-.01.39-.07.68-.13.84l-.14.24-.13.13-.13.08-.15.05-.18.02-.3-.03Zm48.04-4.93s-.06 0-.09-.01c-.44-.11-.87-.11-1.25-.12-.3 0-.58 0-.81-.06-1.63-.39-3.02-1.58-3.82-3.26-.98-2.06-1.17-5.33 1.49-7.78 1.3-1.2 2.73-1.8 4.25-1.8 2.03 0 4.09 1.16 5.36 3.04 1.48 2.18 1.57 4.74.23 6.84-1.16 1.82-1.79 2.09-2.72 2.38-.17.05-.35.1-.55.15-.5.13-1.12.3-1.93.61q-.075.03-.15.03Z" data-name="Capa 1" style="fill-rule:evenodd"/></svg>