<?xml version="1.0" encoding="UTF-8" standalone="no"?><!DOCTYPE svg PUBLIC "-//W3C//DTD SVG 1.1//EN" "http://www.w3.org/Graphics/SVG/1.1/DTD/svg11.dtd"><svg width="100%" height="100%" viewBox="0 0 217 202" version="1.1" xmlns="http://www.w3.org/2000/svg" xmlns:xlink="http://www.w3.org/1999/xlink" xml:space="preserve" xmlns:serif="http://www.serif.com/" style="fill-rule:evenodd;clip-rule:evenodd;stroke-linejoin:round;stroke-miterlimit:2;"><g><path d="M148.286,76.639l0.515,3.683l-0.915,1.817c-4.862,-2.335 -5.386,-1.975 -5.544,-3.323c-0.028,-0.241 1.109,-1.733 1.881,-2.007c2.502,-0.882 3.74,-0.155 4.063,-0.17Z" style="fill:#fff;"/><path d="M140.455,130.218c0.367,-0.331 0.327,-0.98 0.694,-1.311c2.28,-2.058 5.934,2.6 4.574,4.213c-0.562,0.668 -3.295,0.602 -3.586,0.596c-1.279,-0.03 -1.695,-1.628 -1.745,-1.824c-0.141,-0.541 0.204,-1.134 0.063,-1.674Z" style="fill:#fff;"/><path d="M125.499,109.329c-2.571,4.58 -3.254,4.603 -2.525,5.798c1.16,1.895 2.871,-0.696 7.928,4.202c0.466,0.45 0.85,0.98 1.316,1.431l1.909,2.453c0.937,1.229 1.07,1.046 2.202,2.152c-0.093,0.517 0.453,1.019 0.36,1.536l-1.555,3.983c-0.354,0.413 -0.969,0.546 -1.326,0.959c-1.099,1.275 -0.417,1.434 0.052,3.782c0.193,0.975 0.071,1.995 0.265,2.97c-0.683,-0.299 -1.419,-0.471 -2.103,-0.769c-1.805,-0.786 -13.903,-6.061 -13.628,-20.469c0.124,-6.39 2.421,-8.617 3.455,-10.409c2.489,-3.002 2.44,-3.015 3.108,-3.651c7.493,-7.136 19.053,-7.556 24.93,-3.471c16.137,11.215 11.037,23.24 8.489,28.827c-2.422,3.36 -2.267,3.431 -5.278,6.301c-2.119,-4.468 -2.003,-4.506 -2.287,-4.824c-1.171,-1.308 -1.286,-1.145 -2.382,-2.532c-2.189,-2.774 1.317,-3.185 1.634,-3.522c3.79,2.597 3.717,2.676 4.092,2.804c0.647,0.224 1.398,-0.363 2.043,-0.141c0.06,-0.82 -0.553,-2.445 0.515,-7.113c0.381,-1.659 0.399,-1.676 -0.219,-3.28c-0.149,-0.386 -1.634,-4.241 -3.646,-3.698c-0.264,0.072 -0.023,0.484 -3.133,1.389c-0.424,0.125 -3.058,0.892 -4.334,3.399c-0.34,0.67 -0.044,1.553 -0.386,2.222l-3.871,2.82c-0.664,-0.468 -1.421,-0.791 -2.088,-1.257c-0.789,-0.556 -1,-0.866 -1.064,-0.961c-0.598,-0.874 -0.252,-0.97 -0.809,-1.783c-2.039,-2.292 -1.981,-2.329 -2.202,-2.475c-0.47,-0.307 -1.156,0.047 -1.679,-0.157c-0.588,-0.23 -1.01,-0.755 -1.541,-1.099c-4.032,-2.606 -4.559,-2.041 -4.493,-2.444c0.184,-1.1 1.643,-1.655 2.721,-1.942c0.786,-0.21 1.656,0.973 2.37,0.582c0.66,-0.36 0.329,-1.47 0.565,-2.186c0.51,-1.539 0.747,-1.822 5.129,-4.088c-1.66,-1.475 -2.974,-4.584 -9.089,1.474c-0.267,0.265 -2.119,2.099 -3.445,3.187Zm14.096,6.11c1.708,-1.41 1.744,-1.25 3.389,-2.793c4.92,-4.62 7.405,-2.788 9.042,-3.673c2.394,-1.29 0.759,-1.975 -1.257,-3.748c-0.845,-0.743 -6.882,-4.176 -7.549,-3.565c-0.822,0.756 0.614,6.207 0.251,6.63c-0.526,0.609 -1.816,0.206 -1.968,0.158c-1.199,-0.375 -0.768,-1.013 -1.995,-1.395c-0.677,1.54 -1.546,0.833 -2.219,2.36c-0.07,0.165 -0.192,0.439 0.203,2.219c0.546,2.447 2.066,3.738 2.103,3.807Zm-11.929,7.959c-0.864,-0.591 -0.772,-2.087 -1.634,-2.677c-0.23,-0.156 -2.163,-1.479 -2.805,2.033c-0.094,0.521 -0.276,1.168 0.045,1.59c0.447,0.581 1.524,0.418 1.952,1.011c0.319,0.442 -0.617,1.662 1.934,4.167c1.38,1.355 1.723,1.74 3.137,0.379c1.422,-1.369 0.334,-1.712 -0.135,-2.196c-2.434,-2.514 -1.705,-2.942 -2.494,-4.307Z" style="fill:#fff;"/><path d="M186.896,143.907c-0.142,1.081 1.571,1.861 1.427,2.943c-0.005,0.043 -52.959,9.401 -61.921,10.107c0.182,-0.687 -0.827,-1.342 -0.648,-2.028c0.06,-0.221 9.641,-3.49 10.485,-3.778c7.621,-2.599 11.798,0.729 22.836,-2.589c13.573,-4.079 13.791,-2.81 27.821,-4.655Z" style="fill:#fff;"/><path d="M110.83,64.886c-0.448,-0.929 -1.479,-1.492 -1.927,-2.42c-1.075,-2.22 -0.948,-8.838 -0.961,-8.854c-0.214,-0.23 -3.942,-0.46 -4.543,0.986c-0.298,0.717 0.198,1.611 -0.103,2.33l-3.901,3.953c-0.355,-0.753 0.153,-1.735 -0.205,-2.486c-0.82,-1.734 -2.001,-2.516 -2.234,-2.668c-1.399,-0.926 -1.737,0.043 -3.148,-0.889c4.887,-3.888 13.432,-11.904 28.385,-0.056l3.16,3.592c-4.144,2.796 -3.943,3.297 -8.821,4.133l0.328,-5.617c-0.649,-0.768 0.043,-1.04 -0.628,-1.835c-0.076,-0.091 -0.288,-0.342 -1.389,-0.554c-1.789,-0.342 -1.945,0.022 -2.454,1.764c-1.405,4.807 0.962,6.884 0.978,6.942l2.248,-0.124l-0.884,4.632c-4.462,4.657 -4.095,6.577 -7.402,5.306c-0.502,-0.194 -0.742,-0.834 -1.245,-1.027c0.083,-0.735 -0.515,-0.581 -0.432,-1.316c0.016,-0.149 0.101,-0.911 0.768,-1.699c1.953,-2.301 2.292,-1.903 4.41,-4.093Z" style="fill:#fff;"/><path d="M90.947,58.876c5.448,2.614 5.526,2.38 6.971,3.54c0.462,0.372 0.604,1.055 1.065,1.425l3.052,1.978l-2.629,1.844l-2.257,0.047l-4.055,-2.097c-0.199,-0.034 -0.084,0.447 -2.495,0.42c-1.31,-0.015 -1.204,-0.463 -2.559,-0.476c1.27,-3.481 1.318,-3.395 2.907,-6.681Z" style="fill:#fff;"/><path d="M98.396,72.343l2.276,-0.091l0.297,1.842c-0.536,0.659 -0.386,1.721 -0.925,2.379c-0.247,0.304 -0.319,0.165 -4.339,2.246l-3.924,4.023c-1.799,-2.845 -1.8,-2.8 -3.221,-5.874c1.201,-1.301 1.381,-1.032 2.565,-2.313c0.21,-0.23 0.052,-0.843 0.363,-0.86c0.749,-0.042 1.38,0.742 2.13,0.72c0.851,-0.022 1.558,-0.822 2.408,-0.844l2.37,-1.228Z" style="fill:#fff;"/><path d="M73.803,100.866c-0.75,0.097 -1.517,-0.194 -2.266,-0.099l-2.516,1.154c-2.522,-0.71 -4.287,0.316 -6.461,-4.669c-0.222,-0.51 -1.536,-3.523 1.645,-6.738c2.632,-2.662 3.086,-1.741 6.859,-1.38l-3.205,3.963c-0.211,0.726 -1.026,1.176 -1.237,1.901c-0.473,1.63 2.911,2.476 3.229,2.556c0.332,0.084 3.84,0.96 4.072,1.333c0.349,0.56 -0.47,1.419 -0.12,1.979Z" style="fill:#fff;"/><path d="M31.455,151.75c0.899,0.238 1.754,-1.092 2.653,-0.854c0.446,0.119 1.423,2.703 1.073,3.494c-0.414,0.936 -3.923,2.775 -4.259,2.442c-0.428,-0.426 -0.207,-2.544 -0.183,-2.763c0.128,-1.216 0.583,-1.057 0.716,-2.319Z" style="fill:#fff;"/><path d="M96.012,162.245c-6.536,1.42 -6.564,0.985 -13.058,2.415c-0.548,0.122 -5.007,1.102 -6.892,1.399c-29.863,4.688 12.042,-5.911 13.171,-6.197l5.532,0.451c0.713,0.278 0.534,1.652 1.247,1.932Z" style="fill:#fff;"/><path d="M46.818,127.716c0.801,0.499 1.025,1.663 1.826,2.162c0.28,0.174 0.298,0.068 4.038,0.918l1.136,-1.813l7.012,-3.075c0.625,0.049 1.08,-0.842 1.704,-0.793c0.365,0.03 3.525,0.276 3.418,3.051c-0.016,0.414 -1.899,-0.492 -2.307,4.631c-0.26,3.252 0.286,3.161 0.368,4.069c0.371,0.1 4.259,1.157 4.721,0.778c0.481,-0.392 0.39,-1.25 0.871,-1.642c-0.224,-0.929 -1.16,-1.581 -1.383,-2.507c-0.336,-1.412 0.189,-1.874 0.31,-1.981c0.909,-0.797 1.287,0.577 2.194,-0.221l2.878,-1.548c0.207,1.185 2.112,5.42 -0.482,11.106c-1.993,4.369 -2.725,3.731 -6.884,6.248c-1.123,0.313 -8.18,5.023 -17.58,-3.529c-0.534,-0.885 -1.411,-1.531 -1.947,-2.414c-1.877,-3.108 -1.195,-3.31 -1.55,-6.936c0.627,-3.314 0.572,-3.28 1.657,-6.504Zm6.761,11.281c0.362,0.141 0.679,0.299 0.369,0.71c0.45,0.33 0.837,0.738 1.288,1.065c0.998,0.732 1.819,2.124 3.057,2.109c0.719,-0.009 -0.333,-1.436 -0.218,-2.145c0.19,-1.174 0.707,-0.947 0.912,-2.143c0.197,-1.139 -0.354,-1.094 -0.16,-2.227c-0.602,0.191 -0.992,-1.22 -1.595,-1.029c-2.663,0.85 -3.937,2.547 -4.18,2.869c-0.052,0.07 -0.087,0.129 -0.107,0.185c-0.129,0.344 0.274,0.468 0.634,0.606Z" style="fill:#fff;"/><path d="M120.713,86.823c-11.805,7.333 -19.314,2.258 -22.824,0.83c0.815,-1.323 1.04,-1.099 1.869,-2.442c0.178,-0.289 0.085,-0.302 1.156,-4.088l3.276,-3.228l4.907,0.804l4.104,-2.278c0.474,-0.422 0.102,-1.394 0.578,-1.816c0.767,-0.68 1.942,-0.59 2.116,-0.577c1.222,0.094 0.943,0.812 2.193,0.907c3.481,3.896 3.399,3.911 6.316,8.22l-3.691,3.668Zm-8.25,-3.712c0.295,0.591 -0.414,1.388 -0.118,1.979c0.866,1.734 3.315,0.754 3.585,0.646c0.786,-0.314 1.287,-1.151 2.073,-1.465l-0.849,-2.942c-0.49,0.132 -0.98,-1.278 -4.691,1.782Z" style="fill:#fff;"/><path d="M209.726,138.972c-1.396,-0.372 -2.648,-1.186 -4.041,-1.555c-1.907,-0.51 -6.214,-0.093 -6.751,-0.04c-3.598,0.349 -4.326,2.086 -6.443,-0.886c-1.168,-1.645 -2.278,-14.526 -2.388,-15.799c-1.187,-13.784 -3.541,-13.127 -8.992,-25.882c-1.738,-4.165 -1.784,-4.075 -1.927,-4.435c-8.201,-13.451 -10.633,-14.405 -15.073,-23.338c-7.041,-14.156 -29.608,-22.243 -39.589,-32.782c-9.862,-10.415 -24.961,-11.179 -28.811,-13.754c-1.507,-1.008 -2.035,-6.078 1.964,-11.455c11.465,-15.409 57.797,16.908 78.191,41.926c13.485,16.539 13.881,16.302 23.447,35.001c1.116,2.182 7.321,14.312 10.213,28.872c4.752,23.932 0.207,24.108 0.2,24.127Z" style="fill:#fff;"/><path d="M87.399,43.478c1.893,2.111 1.552,3.389 4.312,2.624l4.88,-3.638c-0.028,-0.707 0.334,-1.393 0.306,-2.099c-0.11,-2.644 -1.072,-2.133 -3.802,-4.329c-0.347,-0.586 -1.269,-0.66 -1.614,-1.246c-1.415,-2.395 2.832,-8.08 3.475,-8.282c0.884,-0.277 18.643,3.357 25.357,10.5c11.976,12.74 29.598,17.559 38.004,30.371c6.403,9.759 5.884,10.011 12.694,19.542c6.334,8.869 4.664,9.737 9.982,19.307c6.068,10.911 2.72,17.335 6.041,29.712c0.737,2.744 1.113,3.719 -1.686,4.101c-12.637,1.729 -16.021,-0.597 -27.415,4.514c-5.268,2.359 -9.965,1.964 -16.184,1.916c-7.335,-0.057 -7.267,0.482 -14.08,3.192c-0.415,-0.768 -1.26,-1.244 -1.673,-2.01c-0.329,-0.608 -0.291,-1.353 -0.495,-2.011c-0.947,-3.043 -8.131,-7.203 -10.781,-2.376c-2.085,3.794 -0.851,4.121 2.353,6.967c1.726,1.529 0.894,1.931 1.422,3.072c-13.917,0.138 -13.676,2.076 -27.499,3.282l-2.269,0.387l-2.167,0.073c-0.53,-0.485 -1.623,0.586 -2.155,0.103c-5.607,-5.113 0.124,-4.819 0.503,-4.77c2.845,0.356 2.395,1.312 2.629,1.312l3.345,-0.674c-0.017,-0.023 -0.13,-2.935 -3.013,-4.566c-4.439,-2.516 -10.377,1.804 -9.218,6.844c0.225,0.973 0.988,1.766 1.211,2.737c-6.425,1.936 -21.578,3.818 -24.494,18.144c-1.783,8.762 -1.016,9.585 -2.896,9.963c-5.312,1.067 2.613,-10.895 -5.799,-18.129c-3.909,-3.363 -12.289,-1.093 -13.354,-0.948c-7.3,1.56 -7.104,2.174 -12.51,7.309c-9.675,9.187 -3.494,19.13 -7.669,21.205c-2.169,1.079 -2.169,-2.124 -2.17,-2.381c0,-1.625 1.816,-8.733 -2.242,-11.52c-5.112,-3.511 -2.798,-4.884 0.387,-13.317c0.224,-0.589 0.027,-1.743 0.656,-1.773c0.168,-0.005 -0.58,0.64 1.228,1.688c1.079,0.626 1.259,-0.246 2.374,0.402c0.047,0.012 1.543,1.841 4.231,1.271c0.134,-0.029 0.536,-0.115 1.492,-0.817c0.447,-0.329 0.746,-0.832 1.193,-1.16c0.015,-0.024 3.385,-2.591 2.155,-5.995c-0.088,-0.247 -1.263,-2.066 -1.365,-2.137c-0.261,-0.182 -2.174,-1.51 -3.541,-1.826c-0.879,-0.203 -1.828,0.215 -2.705,0.01c7.201,-10.583 5.592,-11.687 16.871,-24.335c9.139,-10.247 7.888,-15.28 18.783,-29.991c2.285,-3.085 3.107,-5.622 3.279,-6.153c1.729,-5.342 1.528,-5.345 3.692,-10.525c6.67,-12.364 8.673,-11.268 11.391,-19.65c0.122,-0.381 0.146,-0.339 1.989,-4.592c1.87,-4.786 1.946,-4.734 5.372,-8.577c3.926,-4.408 3.7,-4.512 6.829,-9.562c1.342,-2.165 1.846,-1.396 4.36,-1.159Zm45.529,49.855c-1.668,0.66 -10.436,2.915 -16.175,12.433c-8.424,13.971 0.24,31.759 14.441,36.602c0.945,0.323 14.044,2.871 22.114,-1.894c13.756,-8.125 16.487,-26.28 6.697,-38.025c-4.775,-5.726 -10.677,-8.108 -11.756,-8.543c-5.708,-2.303 -14.114,-0.79 -15.321,-0.573Zm-106.743,62.411c1.923,5.326 1.788,5.357 2.076,5.75c2.308,3.173 17.799,-4.529 9.334,-13.905c-7.804,-8.648 -14.297,1.154 -11.999,7.028c0.155,0.396 0.435,0.733 0.589,1.127Zm121.394,-84.047l-3.414,-1.161l1.076,-4.277c-0.913,-3.226 0.072,-4.196 -2.609,-4.846c-1.802,-0.433 -1.883,-0.231 -3.129,1.129c-1.097,1.196 0.297,5.896 0.442,6.389l1.45,3.492c-0.606,0.661 -4.617,5.046 -5.822,9.571c-0.735,2.763 4.533,7.052 14.183,5.797c0.504,-0.364 1.205,-0.384 1.709,-0.748c5.087,-3.669 5.898,-12.696 -1.729,-15.049c-0.693,-0.214 -1.464,-0.083 -2.157,-0.297Zm-74.272,-8.387c-1.772,4.666 -2.184,4.508 -2.295,7.084c-0.142,3.268 6.441,4.271 6.779,1.936c0.292,-2.008 -1.403,-2.258 1.217,-7.98c1.913,-4.179 -2.881,-2.556 -3.186,-2.453c-0.912,0.309 -1.605,1.104 -2.515,1.413Zm24.738,-16.621c-1.73,1.105 -16.193,6.174 -15.247,26.831c0.488,10.649 12.065,21.005 22.954,21.823c10.622,0.8 21.575,-4.933 25.128,-13.393c0.066,-0.152 10.009,-17.011 -6.112,-31.134c-3.168,-2.773 -8.181,-4.926 -8.306,-5.219c-0.523,-1.202 -0.173,-2.626 -0.45,-3.909c-0.1,-0.467 -4.371,-6.448 -11.541,0.628c-2.826,2.79 -3.049,2.391 -6.426,4.373Zm0.708,65.102c0.025,0.318 1.057,1.911 0.407,5.016c-0.341,1.639 -0.435,1.588 -0.437,1.73c-0.001,0.499 0.427,0.939 0.426,1.438c-2.971,0.901 -5.579,1.953 -7.169,0.646c-1.975,-1.622 -1.187,-3.251 -1.261,-3.452l5.318,-3.776l-4.273,-0.716c-0.745,-0.125 -1.411,-0.582 -2.159,-0.708c-8.56,-1.43 -6.124,13.731 4.198,14.141c5.09,0.203 4.944,-0.682 8.481,-4.257c0.571,-1.355 0.866,-1.147 1.423,-2.476c0.066,-0.158 0.285,-0.679 0.498,-2.099c1.877,-12.456 -11.09,-16.89 -11.403,-10.829c-0.096,1.834 0.26,1.892 1.99,2.353c3.869,1.037 3.554,2.533 3.961,2.989Zm70.813,10.368c0.511,3.333 0.626,3.272 1.721,6.471c1.719,2.205 1.418,3.067 4.197,2.897l2.735,-1.703c0.405,-0.833 1.129,-1.48 1.533,-2.311c1.269,-2.609 0.486,-2.727 0.239,-6.758l-1.615,-2.811c-2.2,-1.7 -1.939,-2.34 -4.689,-2.487c-1.752,-0.093 -1.755,0.031 -3.107,1.157c-1.937,1.61 -0.836,2.192 -0.857,2.901c-0.013,0.411 -0.366,0.761 -0.39,1.174c-0.03,0.495 0.262,0.976 0.233,1.47Zm-98.416,-16.384c3.174,-1.315 3.141,-1.334 5.539,-3.725c1.761,-3.579 2.471,-3.954 0.151,-7.176c-0.372,-0.517 -1.153,-0.637 -1.525,-1.154c-0.058,-0.228 -0.716,-0.075 -1.204,-6.153c-0.94,-1.385 -3.476,-8.967 -13.553,0.951c-3.441,9.172 -2.756,10.034 -0.12,14.588c2.917,1.347 2.771,1.47 5.544,3.183c2.613,-0.044 2.559,0.054 5.168,-0.514Zm-18.748,10.948c-14.04,6.045 -16.442,25.479 -2.558,33.545c2.305,1.339 3.594,0.683 3.222,3.275c-0.091,0.638 -0.304,1.253 -0.408,1.887c-0.66,3.965 0.925,7.889 6.476,5.685c4.675,-1.857 3.161,-6.847 4.01,-7.781c0.448,-0.491 17.39,-3.723 16.193,-20.16c-0.592,-8.168 -8.255,-17.592 -17.02,-17.334c-5.035,0.148 -4.97,0.277 -9.915,0.883Zm45.802,20.282c-0.875,-0.365 -0.505,-0.816 -1.381,-1.186c-0.18,-0.074 -1.175,-0.491 -2.388,-0.395c-3.289,0.262 -1.637,4.606 -1.489,4.997c0.869,2.287 0.32,3.702 0.34,3.928c0.252,3.031 3.86,3.26 5.606,0.583c2.135,-3.27 -0.358,-7.381 -0.688,-7.927Z" style="fill:#fff;"/><path d="M98.204,137.005c0.33,0.546 2.823,4.657 0.688,7.927c-1.746,2.677 -5.354,2.448 -5.606,-0.583c-0.02,-0.226 0.529,-1.641 -0.34,-3.928c-0.148,-0.391 -1.8,-4.735 1.489,-4.997c1.213,-0.096 2.208,0.321 2.388,0.395c0.876,0.37 0.506,0.821 1.381,1.186m-24.401,-36.139c-0.35,-0.56 0.469,-1.419 0.12,-1.979c-0.232,-0.373 -3.74,-1.249 -4.072,-1.333c-0.318,-0.08 -3.702,-0.926 -3.229,-2.556c0.211,-0.725 1.026,-1.175 1.237,-1.901l3.205,-3.963c-3.773,-0.361 -4.227,-1.282 -6.859,1.38c-3.181,3.215 -1.867,6.228 -1.645,6.738c2.174,4.985 3.939,3.959 6.461,4.669l2.516,-1.154c0.749,-0.095 1.516,0.196 2.266,0.099m-2.653,4.909c-2.609,0.568 -2.555,0.47 -5.168,0.514c-2.773,-1.713 -2.627,-1.836 -5.544,-3.183c-2.636,-4.554 -3.321,-5.416 0.12,-14.588c10.077,-9.918 12.613,-2.336 13.553,-0.951c0.488,6.078 1.146,5.925 1.204,6.153c0.372,0.517 1.153,0.637 1.525,1.154c2.32,3.222 1.61,3.597 -0.151,7.176c-2.398,2.391 -2.365,2.41 -5.539,3.725m-17.571,33.222c-0.36,-0.138 -0.763,-0.262 -0.634,-0.606c0.02,-0.056 0.055,-0.115 0.107,-0.185c0.243,-0.322 1.517,-2.019 4.18,-2.869c0.603,-0.191 0.993,1.22 1.595,1.029c-0.194,1.133 0.357,1.088 0.16,2.227c-0.205,1.196 -0.722,0.969 -0.912,2.143c-0.115,0.709 0.937,2.136 0.218,2.145c-1.238,0.015 -2.059,-1.377 -3.057,-2.109c-0.451,-0.327 -0.838,-0.735 -1.288,-1.065c0.31,-0.411 -0.007,-0.569 -0.369,-0.71m-6.761,-11.281c-1.085,3.224 -1.03,3.19 -1.657,6.504c0.355,3.626 -0.327,3.828 1.55,6.936c0.536,0.883 1.413,1.529 1.947,2.414c9.4,8.552 16.457,3.842 17.58,3.529c4.159,-2.517 4.891,-1.879 6.884,-6.248c2.594,-5.686 0.689,-9.921 0.482,-11.106l-2.878,1.548c-0.907,0.798 -1.285,-0.576 -2.194,0.221c-0.121,0.107 -0.646,0.569 -0.31,1.981c0.223,0.926 1.159,1.578 1.383,2.507c-0.481,0.392 -0.39,1.25 -0.871,1.642c-0.462,0.379 -4.35,-0.678 -4.721,-0.778c-0.082,-0.908 -0.628,-0.817 -0.368,-4.069c0.408,-5.123 2.291,-4.217 2.307,-4.631c0.107,-2.775 -3.053,-3.021 -3.418,-3.051c-0.624,-0.049 -1.079,0.842 -1.704,0.793l-7.012,3.075l-1.136,1.813c-3.74,-0.85 -3.758,-0.744 -4.038,-0.918c-0.801,-0.499 -1.025,-1.663 -1.826,-2.162m5.584,-10.993c4.945,-0.606 4.88,-0.735 9.915,-0.883c8.765,-0.258 16.428,9.166 17.02,17.334c1.197,16.437 -15.745,19.669 -16.193,20.16c-0.849,0.934 0.665,5.924 -4.01,7.781c-5.551,2.204 -7.136,-1.72 -6.476,-5.685c0.104,-0.634 0.317,-1.249 0.408,-1.887c0.372,-2.592 -0.917,-1.936 -3.222,-3.275c-13.884,-8.066 -11.482,-27.5 2.558,-33.545m117.164,5.436c0.029,-0.494 -0.263,-0.975 -0.233,-1.47c0.024,-0.413 0.377,-0.763 0.39,-1.174c0.021,-0.709 -1.08,-1.291 0.857,-2.901c1.352,-1.126 1.355,-1.25 3.107,-1.157c2.75,0.147 2.489,0.787 4.689,2.487l1.615,2.811c0.247,4.031 1.03,4.149 -0.239,6.758c-0.404,0.831 -1.128,1.478 -1.533,2.311l-2.735,1.703c-2.779,0.17 -2.478,-0.692 -4.197,-2.897c-1.095,-3.199 -1.21,-3.138 -1.721,-6.471m-58.736,-57.273c-2.118,2.19 -2.457,1.792 -4.41,4.093c-0.667,0.788 -0.752,1.55 -0.768,1.699c-0.083,0.735 0.515,0.581 0.432,1.316c0.503,0.193 0.743,0.833 1.245,1.027c3.307,1.271 2.94,-0.649 7.402,-5.306l0.884,-4.632l-2.248,0.124c-0.016,-0.058 -2.383,-2.135 -0.978,-6.942c0.509,-1.742 0.665,-2.106 2.454,-1.764c1.101,0.212 1.313,0.463 1.389,0.554c0.671,0.795 -0.021,1.067 0.628,1.835l-0.328,5.617c4.878,-0.836 4.677,-1.337 8.821,-4.133l-3.16,-3.592c-14.953,-11.848 -23.498,-3.832 -28.385,0.056c1.411,0.932 1.749,-0.037 3.148,0.889c0.233,0.152 1.414,0.934 2.234,2.668c0.358,0.751 -0.15,1.733 0.205,2.486l3.901,-3.953c0.301,-0.719 -0.195,-1.613 0.103,-2.33c0.601,-1.446 4.329,-1.216 4.543,-0.986c0.013,0.016 -0.114,6.634 0.961,8.854c0.448,0.928 1.479,1.491 1.927,2.42m-19.883,-6.01c-1.589,3.286 -1.637,3.2 -2.907,6.681c1.355,0.013 1.249,0.461 2.559,0.476c2.411,0.027 2.296,-0.454 2.495,-0.42l4.055,2.097l2.257,-0.047l2.629,-1.844l-3.052,-1.978c-0.461,-0.37 -0.603,-1.053 -1.065,-1.425c-1.445,-1.16 -1.523,-0.926 -6.971,-3.54m21.516,24.235c3.711,-3.06 4.201,-1.65 4.691,-1.782l0.849,2.942c-0.786,0.314 -1.287,1.151 -2.073,1.465c-0.27,0.108 -2.719,1.088 -3.585,-0.646c-0.296,-0.591 0.413,-1.388 0.118,-1.979m8.25,3.712l3.691,-3.668c-2.917,-4.309 -2.835,-4.324 -6.316,-8.22c-1.25,-0.095 -0.971,-0.813 -2.193,-0.907c-0.174,-0.013 -1.349,-0.103 -2.116,0.577c-0.476,0.422 -0.104,1.394 -0.578,1.816l-4.104,2.278l-4.907,-0.804l-3.276,3.228c-1.071,3.786 -0.978,3.799 -1.156,4.088c-0.829,1.343 -1.054,1.119 -1.869,2.442c3.51,1.428 11.019,6.503 22.824,-0.83m-22.317,-14.48l-2.37,1.228c-0.85,0.022 -1.557,0.822 -2.408,0.844c-0.75,0.022 -1.381,-0.762 -2.13,-0.72c-0.311,0.017 -0.153,0.63 -0.363,0.86c-1.184,1.281 -1.364,1.012 -2.565,2.313c1.421,3.074 1.422,3.029 3.221,5.874l3.924,-4.023c4.02,-2.081 4.092,-1.942 4.339,-2.246c0.539,-0.658 0.389,-1.72 0.925,-2.379l-0.297,-1.842l-2.276,0.091Zm-0.351,-25.654c3.377,-1.982 3.6,-1.583 6.426,-4.373c7.17,-7.076 11.441,-1.095 11.541,-0.628c0.277,1.283 -0.073,2.707 0.45,3.909c0.125,0.293 5.138,2.446 8.306,5.219c16.121,14.123 6.178,30.982 6.112,31.134c-3.553,8.46 -14.506,14.193 -25.128,13.393c-10.889,-0.818 -22.466,-11.174 -22.954,-21.823c-0.946,-20.657 13.517,-25.726 15.247,-26.831m-24.738,16.621c0.91,-0.309 1.603,-1.104 2.515,-1.413c0.305,-0.103 5.099,-1.726 3.186,2.453c-2.62,5.722 -0.925,5.972 -1.217,7.98c-0.338,2.335 -6.921,1.332 -6.779,-1.936c0.111,-2.576 0.523,-2.418 2.295,-7.084m74.979,13.329c-0.323,0.015 -1.561,-0.712 -4.063,0.17c-0.772,0.274 -1.909,1.766 -1.881,2.007c0.158,1.348 0.682,0.988 5.544,3.323l0.915,-1.817l-0.515,-3.683Zm-0.707,-4.942c0.693,0.214 1.464,0.083 2.157,0.297c7.627,2.353 6.816,11.38 1.729,15.049c-0.504,0.364 -1.205,0.384 -1.709,0.748c-9.65,1.255 -14.918,-3.034 -14.183,-5.797c1.205,-4.525 5.216,-8.91 5.822,-9.571l-1.45,-3.492c-0.145,-0.493 -1.539,-5.193 -0.442,-6.389c1.246,-1.36 1.327,-1.562 3.129,-1.129c2.681,0.65 1.696,1.62 2.609,4.846l-1.076,4.277l3.414,1.161Zm-48.826,40.094c-0.407,-0.456 -0.092,-1.952 -3.961,-2.989c-1.73,-0.461 -2.086,-0.519 -1.99,-2.353c0.313,-6.061 13.28,-1.627 11.403,10.829c-0.213,1.42 -0.432,1.941 -0.498,2.099c-0.557,1.329 -0.852,1.121 -1.423,2.476c-3.537,3.575 -3.391,4.46 -8.481,4.257c-10.322,-0.41 -12.758,-15.571 -4.198,-14.141c0.748,0.126 1.414,0.583 2.159,0.708l4.273,0.716l-5.318,3.776c0.074,0.201 -0.714,1.83 1.261,3.452c1.59,1.307 4.198,0.255 7.169,-0.646c0.001,-0.499 -0.427,-0.939 -0.426,-1.438c0.002,-0.142 0.096,-0.091 0.437,-1.73c0.65,-3.105 -0.382,-4.698 -0.407,-5.016m41.702,18.427c0.141,0.54 -0.204,1.133 -0.063,1.674c0.05,0.196 0.466,1.794 1.745,1.824c0.291,0.006 3.024,0.072 3.586,-0.596c1.36,-1.613 -2.294,-6.271 -4.574,-4.213c-0.367,0.331 -0.327,0.98 -0.694,1.311m-0.86,-14.779c-0.037,-0.069 -1.557,-1.36 -2.103,-3.807c-0.395,-1.78 -0.273,-2.054 -0.203,-2.219c0.673,-1.527 1.542,-0.82 2.219,-2.36c1.227,0.382 0.796,1.02 1.995,1.395c0.152,0.048 1.442,0.451 1.968,-0.158c0.363,-0.423 -1.073,-5.874 -0.251,-6.63c0.667,-0.611 6.704,2.822 7.549,3.565c2.016,1.773 3.651,2.458 1.257,3.748c-1.637,0.885 -4.122,-0.947 -9.042,3.673c-1.645,1.543 -1.681,1.383 -3.389,2.793m-11.929,7.959c0.789,1.365 0.06,1.793 2.494,4.307c0.469,0.484 1.557,0.827 0.135,2.196c-1.414,1.361 -1.757,0.976 -3.137,-0.379c-2.551,-2.505 -1.615,-3.725 -1.934,-4.167c-0.428,-0.593 -1.505,-0.43 -1.952,-1.011c-0.321,-0.422 -0.139,-1.069 -0.045,-1.59c0.642,-3.512 2.575,-2.189 2.805,-2.033c0.862,0.59 0.77,2.086 1.634,2.677m-2.167,-14.069c1.326,-1.088 3.178,-2.922 3.445,-3.187c6.115,-6.058 7.429,-2.949 9.089,-1.474c-4.382,2.266 -4.619,2.549 -5.129,4.088c-0.236,0.716 0.095,1.826 -0.565,2.186c-0.714,0.391 -1.584,-0.792 -2.37,-0.582c-1.078,0.287 -2.537,0.842 -2.721,1.942c-0.066,0.403 0.461,-0.162 4.493,2.444c0.531,0.344 0.953,0.869 1.541,1.099c0.523,0.204 1.209,-0.15 1.679,0.157c0.221,0.146 0.163,0.183 2.202,2.475c0.557,0.813 0.211,0.909 0.809,1.783c0.064,0.095 0.275,0.405 1.064,0.961c0.667,0.466 1.424,0.789 2.088,1.257l3.871,-2.82c0.342,-0.669 0.046,-1.552 0.386,-2.222c1.276,-2.507 3.91,-3.274 4.334,-3.399c3.11,-0.905 2.869,-1.317 3.133,-1.389c2.012,-0.543 3.497,3.312 3.646,3.698c0.618,1.604 0.6,1.621 0.219,3.28c-1.068,4.668 -0.455,6.293 -0.515,7.113c-0.645,-0.222 -1.396,0.365 -2.043,0.141c-0.375,-0.128 -0.302,-0.207 -4.092,-2.804c-0.317,0.337 -3.823,0.748 -1.634,3.522c1.096,1.387 1.211,1.224 2.382,2.532c0.284,0.318 0.168,0.356 2.287,4.824c3.011,-2.87 2.856,-2.941 5.278,-6.301c2.548,-5.587 7.648,-17.612 -8.489,-28.827c-5.877,-4.085 -17.437,-3.665 -24.93,3.471c-0.668,0.636 -0.619,0.649 -3.108,3.651c-1.034,1.792 -3.331,4.019 -3.455,10.409c-0.275,14.408 11.823,19.683 13.628,20.469c0.684,0.298 1.42,0.47 2.103,0.769c-0.194,-0.975 -0.072,-1.995 -0.265,-2.97c-0.469,-2.348 -1.151,-2.507 -0.052,-3.782c0.357,-0.413 0.972,-0.546 1.326,-0.959l1.555,-3.983c0.093,-0.517 -0.453,-1.019 -0.36,-1.536c-1.132,-1.106 -1.265,-0.923 -2.202,-2.152l-1.909,-2.453c-0.466,-0.451 -0.85,-0.981 -1.316,-1.431c-5.057,-4.898 -6.768,-2.307 -7.928,-4.202c-0.729,-1.195 -0.046,-1.218 2.525,-5.798m7.429,-15.996c1.207,-0.217 9.613,-1.73 15.321,0.573c1.079,0.435 6.981,2.817 11.756,8.543c9.79,11.745 7.059,29.9 -6.697,38.025c-8.07,4.765 -21.169,2.217 -22.114,1.894c-14.201,-4.843 -22.865,-22.631 -14.441,-36.602c5.739,-9.518 14.507,-11.773 16.175,-12.433m-101.473,58.417c-0.133,1.262 -0.588,1.103 -0.716,2.319c-0.024,0.219 -0.245,2.337 0.183,2.763c0.336,0.333 3.845,-1.506 4.259,-2.442c0.35,-0.791 -0.627,-3.375 -1.073,-3.494c-0.899,-0.238 -1.754,1.092 -2.653,0.854m-5.27,3.994c-0.154,-0.394 -0.434,-0.731 -0.589,-1.127c-2.298,-5.874 4.195,-15.676 11.999,-7.028c8.465,9.376 -7.026,17.078 -9.334,13.905c-0.288,-0.393 -0.153,-0.424 -2.076,-5.75m61.214,-112.266c-2.514,-0.237 -3.018,-1.006 -4.36,1.159c-3.129,5.05 -2.903,5.154 -6.829,9.562c-3.426,3.843 -3.502,3.791 -5.372,8.577c-1.843,4.253 -1.867,4.211 -1.989,4.592c-2.718,8.382 -4.721,7.286 -11.391,19.65c-2.164,5.18 -1.963,5.183 -3.692,10.525c-0.172,0.531 -0.994,3.068 -3.279,6.153c-10.895,14.711 -9.644,19.744 -18.783,29.991c-11.279,12.648 -9.67,13.752 -16.871,24.335c0.877,0.205 1.826,-0.213 2.705,-0.01c1.367,0.316 3.28,1.644 3.541,1.826c0.102,0.071 1.277,1.89 1.365,2.137c1.23,3.404 -2.14,5.971 -2.155,5.995c-0.447,0.328 -0.746,0.831 -1.193,1.16c-0.956,0.702 -1.358,0.788 -1.492,0.817c-2.688,0.57 -4.184,-1.259 -4.231,-1.271c-1.115,-0.648 -1.295,0.224 -2.374,-0.402c-1.808,-1.048 -1.06,-1.693 -1.228,-1.688c-0.629,0.03 -0.432,1.184 -0.656,1.773c-3.185,8.433 -5.499,9.806 -0.387,13.317c4.058,2.787 2.242,9.895 2.242,11.52c0.001,0.257 0.001,3.46 2.17,2.381c4.175,-2.075 -2.006,-12.018 7.669,-21.205c5.406,-5.135 5.21,-5.749 12.51,-7.309c1.065,-0.145 9.445,-2.415 13.354,0.948c8.412,7.234 0.487,19.196 5.799,18.129c1.88,-0.378 1.113,-1.201 2.896,-9.963c2.916,-14.326 18.069,-16.208 24.494,-18.144c-0.223,-0.971 -0.986,-1.764 -1.211,-2.737c-1.159,-5.04 4.779,-9.36 9.218,-6.844c2.883,1.631 2.996,4.543 3.013,4.566l-3.345,0.674c-0.234,0 0.216,-0.956 -2.629,-1.312c-0.379,-0.049 -6.11,-0.343 -0.503,4.77c0.532,0.483 1.625,-0.588 2.155,-0.103l2.167,-0.073l2.269,-0.387c13.823,-1.206 13.582,-3.144 27.499,-3.282c-0.528,-1.141 0.304,-1.543 -1.422,-3.072c-3.204,-2.846 -4.438,-3.173 -2.353,-6.967c2.65,-4.827 9.834,-0.667 10.781,2.376c0.204,0.658 0.166,1.403 0.495,2.011c0.413,0.766 1.258,1.242 1.673,2.01c6.813,-2.71 6.745,-3.249 14.08,-3.192c6.219,0.048 10.916,0.443 16.184,-1.916c11.394,-5.111 14.778,-2.785 27.415,-4.514c2.799,-0.382 2.423,-1.357 1.686,-4.101c-3.321,-12.377 0.027,-18.801 -6.041,-29.712c-5.318,-9.57 -3.648,-10.438 -9.982,-19.307c-6.81,-9.531 -6.291,-9.783 -12.694,-19.542c-8.406,-12.812 -26.028,-17.631 -38.004,-30.371c-6.714,-7.143 -24.473,-10.777 -25.357,-10.5c-0.643,0.202 -4.89,5.887 -3.475,8.282c0.345,0.586 1.267,0.66 1.614,1.246c2.73,2.196 3.692,1.685 3.802,4.329c0.028,0.706 -0.334,1.392 -0.306,2.099l-4.88,3.638c-2.76,0.765 -2.419,-0.513 -4.312,-2.624m122.327,95.494c0.007,-0.019 4.552,-0.195 -0.2,-24.127c-2.892,-14.56 -9.097,-26.69 -10.213,-28.872c-9.566,-18.699 -9.962,-18.462 -23.447,-35.001c-20.394,-25.018 -66.726,-57.335 -78.191,-41.926c-3.999,5.377 -3.471,10.447 -1.964,11.455c3.85,2.575 18.949,3.339 28.811,13.754c9.981,10.539 32.548,18.626 39.589,32.782c4.44,8.933 6.872,9.887 15.073,23.338c0.143,0.36 0.189,0.27 1.927,4.435c5.451,12.755 7.805,12.098 8.992,25.882c0.11,1.273 1.22,14.154 2.388,15.799c2.117,2.972 2.845,1.235 6.443,0.886c0.537,-0.053 4.844,-0.47 6.751,0.04c1.393,0.369 2.645,1.183 4.041,1.555m-113.714,23.273c-0.713,-0.28 -0.534,-1.654 -1.247,-1.932l-5.532,-0.451c-1.129,0.286 -43.034,10.885 -13.171,6.197c1.885,-0.297 6.344,-1.277 6.892,-1.399c6.494,-1.43 6.522,-0.995 13.058,-2.415m90.884,-18.338c-14.03,1.845 -14.248,0.576 -27.821,4.655c-11.038,3.318 -15.215,-0.01 -22.836,2.589c-0.844,0.288 -10.425,3.557 -10.485,3.778c-0.179,0.686 0.83,1.341 0.648,2.028c8.962,-0.706 61.916,-10.064 61.921,-10.107c0.144,-1.082 -1.569,-1.862 -1.427,-2.943m-154.794,33.516l-2.794,0.274c-8.754,1.259 -8.623,3.36 -10.028,14.398c-0.82,6.449 -2.348,6.538 -3.217,7.757c-2.983,1.031 -2.965,2.197 -5.805,1.021c-0.838,-0.348 -1.345,-1.275 -2.182,-1.623c-0.345,-0.936 -1.058,-1.708 -1.402,-2.644c-0.449,-1.223 -0.08,-5.935 -0.038,-6.45c0.345,-4.424 -1.943,-4.338 -2.822,-5.093c-1.824,-1.4 -1.874,-1.275 -3.342,-3.101c-0.091,-1.043 -1.736,-2.277 1.709,-10.301c4.507,-10.509 4.796,-10.333 14.765,-26.751c0.287,-0.474 0.284,-0.428 3.827,-5.758l2.901,-3.967c13.749,-15.829 12.068,-16.96 15.73,-24.02c0.356,-0.685 2.376,-4.574 5.361,-8.021c2.347,-2.711 2.002,-2.876 3.761,-6.042c4.446,-10.609 3.507,-11.002 9.451,-20.856c9.3,-13.927 6.785,-15.24 10.371,-20.436c5.026,-7.284 5.993,-6.54 10.582,-14.14c1.207,-2.002 7.371,-10.363 9.982,-16.059c2.512,-5.477 -2.829,-13.785 6.851,-21.858c16.059,-13.389 49.306,13.046 55.726,17.058l4.564,3.805c10.677,8.528 10.15,9.043 19.938,18.79c14.98,16.821 34.756,41.249 40.533,81.605c0.008,0.057 0.537,6.434 0.43,8.988c-0.19,4.577 -1.265,7.223 -2.165,8.806c0.032,0.405 -0.188,0.588 -0.451,0.738c-0.328,0.503 -0.598,0.854 -0.737,1.111l-2.415,2.281c-9.74,6.447 -13.302,1.466 -28.319,5.205c-5.98,1.489 -6.035,1.092 -25.205,4.706c-3.066,0.578 -3.108,0.085 -38.528,6.092c-15.618,3.047 -15.809,1.716 -41.74,7.212c-10.898,2.309 -15.62,-0.822 -17.526,8.767c-1.095,5.507 -0.809,5.571 -3.468,10.503c-9.202,6.497 -10.8,-3.346 -10.691,-6.096c0.237,-6.056 0.794,-6.264 -0.18,-7.127c-1.585,-1.407 -1.811,0.419 -13.427,1.226"/></g></svg>