<?xml version="1.0" encoding="UTF-8"?>
<svg id="Capa_2" data-name="Capa 2" xmlns="http://www.w3.org/2000/svg" viewBox="0 0 216.97 201.37">
  <defs>
    <style>
      .cls-1 {
        fill-rule: evenodd;
      }
    </style>
  </defs>
  <g id="Capa_1-2" data-name="Capa 1">
    <path class="cls-1" d="M32.1,177.42l-2.79.27c-8.75,1.26-8.62,3.36-10.03,14.4-.82,6.45-2.35,6.54-3.22,7.76-2.98,1.03-2.96,2.2-5.81,1.02-.84-.35-1.34-1.28-2.18-1.62-.34-.94-1.06-1.71-1.4-2.64-.45-1.22-.08-5.94-.04-6.45.34-4.42-1.94-4.34-2.82-5.09-1.82-1.4-1.87-1.27-3.34-3.1-.09-1.04-1.74-2.28,1.71-10.3,4.51-10.51,4.8-10.33,14.77-26.75.29-.47.28-.43,3.83-5.76l2.9-3.97c13.75-15.83,12.07-16.96,15.73-24.02.36-.68,2.38-4.57,5.36-8.02,2.35-2.71,2-2.88,3.76-6.04,4.45-10.61,3.51-11,9.45-20.86,9.3-13.93,6.79-15.24,10.37-20.44,5.03-7.28,5.99-6.54,10.58-14.14,1.21-2,7.37-10.36,9.98-16.06,2.51-5.48-2.83-13.78,6.85-21.86,16.06-13.39,49.31,13.05,55.73,17.06l4.56,3.81c10.68,8.53,10.15,9.04,19.94,18.79,14.98,16.82,34.76,41.25,40.53,81.61,0,.06.54,6.43.43,8.99-.19,4.58-1.26,7.22-2.16,8.81.03.4-.19.59-.45.74-.33.5-.6.85-.74,1.11l-2.42,2.28c-9.74,6.45-13.3,1.47-28.32,5.2-5.98,1.49-6.04,1.09-25.21,4.71-3.07.58-3.11.09-38.53,6.09-15.62,3.05-15.81,1.72-41.74,7.21-10.9,2.31-15.62-.82-17.53,8.77-1.09,5.51-.81,5.57-3.47,10.5-9.2,6.5-10.8-3.35-10.69-6.1.24-6.06.79-6.26-.18-7.13-1.59-1.41-1.81.42-13.43,1.23ZM186.9,143.91c-14.03,1.85-14.25.58-27.82,4.66-11.04,3.32-15.21,0-22.84,2.59-.84.29-10.43,3.56-10.48,3.78-.18.69.83,1.34.65,2.03,8.96-.71,61.92-10.06,61.92-10.11.14-1.08-1.57-1.86-1.43-2.94ZM96.01,162.24c-.71-.28-.53-1.65-1.25-1.93l-5.53-.45c-1.13.29-43.03,10.88-13.17,6.2,1.88-.3,6.34-1.28,6.89-1.4,6.49-1.43,6.52-1,13.06-2.42ZM209.73,138.97s4.55-.2-.2-24.13c-2.89-14.56-9.1-26.69-10.21-28.87-9.57-18.7-9.96-18.46-23.45-35C155.47,25.95,109.14-6.36,97.68,9.05c-4,5.38-3.47,10.45-1.96,11.45,3.85,2.58,18.95,3.34,28.81,13.75,9.98,10.54,32.55,18.63,39.59,32.78,4.44,8.93,6.87,9.89,15.07,23.34.14.36.19.27,1.93,4.44,5.45,12.76,7.81,12.1,8.99,25.88.11,1.27,1.22,14.15,2.39,15.8,2.12,2.97,2.84,1.23,6.44.89.54-.05,4.84-.47,6.75.04,1.39.37,2.65,1.18,4.04,1.56ZM87.4,43.48c-2.51-.24-3.02-1.01-4.36,1.16-3.13,5.05-2.9,5.15-6.83,9.56-3.43,3.84-3.5,3.79-5.37,8.58-1.84,4.25-1.87,4.21-1.99,4.59-2.72,8.38-4.72,7.29-11.39,19.65-2.16,5.18-1.96,5.18-3.69,10.53-.17.53-.99,3.07-3.28,6.15-10.9,14.71-9.64,19.74-18.78,29.99-11.28,12.65-9.67,13.75-16.87,24.33.88.21,1.83-.21,2.71-.01,1.37.32,3.28,1.64,3.54,1.83.1.07,1.28,1.89,1.36,2.14,1.23,3.4-2.14,5.97-2.16,6-.45.33-.75.83-1.19,1.16-.96.7-1.36.79-1.49.82-2.69.57-4.18-1.26-4.23-1.27-1.11-.65-1.29.22-2.37-.4-1.81-1.05-1.06-1.69-1.23-1.69-.63.03-.43,1.18-.66,1.77-3.19,8.43-5.5,9.81-.39,13.32,4.06,2.79,2.24,9.9,2.24,11.52,0,.26,0,3.46,2.17,2.38,4.17-2.08-2.01-12.02,7.67-21.21,5.41-5.13,5.21-5.75,12.51-7.31,1.07-.14,9.44-2.42,13.35.95,8.41,7.23.49,19.2,5.8,18.13,1.88-.38,1.11-1.2,2.9-9.96,2.92-14.33,18.07-16.21,24.49-18.14-.22-.97-.99-1.76-1.21-2.74-1.16-5.04,4.78-9.36,9.22-6.84,2.88,1.63,3,4.54,3.01,4.57l-3.34.67c-.23,0,.22-.96-2.63-1.31-.38-.05-6.11-.34-.5,4.77.53.48,1.63-.59,2.15-.1l2.17-.07,2.27-.39c13.82-1.21,13.58-3.14,27.5-3.28-.53-1.14.3-1.54-1.42-3.07-3.2-2.85-4.44-3.17-2.35-6.97,2.65-4.83,9.83-.67,10.78,2.38.2.66.17,1.4.49,2.01.41.77,1.26,1.24,1.67,2.01,6.81-2.71,6.75-3.25,14.08-3.19,6.22.05,10.92.44,16.18-1.92,11.39-5.11,14.78-2.79,27.42-4.51,2.8-.38,2.42-1.36,1.69-4.1-3.32-12.38.03-18.8-6.04-29.71-5.32-9.57-3.65-10.44-9.98-19.31-6.81-9.53-6.29-9.78-12.69-19.54-8.41-12.81-26.03-17.63-38-30.37-6.71-7.14-24.47-10.78-25.36-10.5-.64.2-4.89,5.89-3.47,8.28.35.59,1.27.66,1.61,1.25,2.73,2.2,3.69,1.68,3.8,4.33.03.71-.33,1.39-.31,2.1l-4.88,3.64c-2.76.77-2.42-.51-4.31-2.62ZM26.18,155.74c-.15-.39-.43-.73-.59-1.13-2.3-5.87,4.19-15.68,12-7.03,8.46,9.38-7.03,17.08-9.33,13.91-.29-.39-.15-.42-2.08-5.75ZM31.45,151.75c-.13,1.26-.59,1.1-.72,2.32-.02.22-.24,2.34.18,2.76.34.33,3.85-1.51,4.26-2.44.35-.79-.63-3.37-1.07-3.49-.9-.24-1.75,1.09-2.65.85ZM132.93,93.33c1.21-.22,9.61-1.73,15.32.57,1.08.43,6.98,2.82,11.76,8.54,9.79,11.74,7.06,29.9-6.7,38.02-8.07,4.77-21.17,2.22-22.11,1.89-14.2-4.84-22.87-22.63-14.44-36.6,5.74-9.52,14.51-11.77,16.17-12.43ZM125.5,109.33c1.33-1.09,3.18-2.92,3.45-3.19,6.12-6.06,7.43-2.95,9.09-1.47-4.38,2.27-4.62,2.55-5.13,4.09-.24.72.1,1.83-.56,2.19-.71.39-1.58-.79-2.37-.58-1.08.29-2.54.84-2.72,1.94-.07.4.46-.16,4.49,2.44.53.34.95.87,1.54,1.1.52.2,1.21-.15,1.68.16.22.15.16.18,2.2,2.48.56.81.21.91.81,1.78.06.1.28.41,1.06.96.67.47,1.42.79,2.09,1.26l3.87-2.82c.34-.67.05-1.55.39-2.22,1.28-2.51,3.91-3.27,4.33-3.4,3.11-.91,2.87-1.32,3.13-1.39,2.01-.54,3.5,3.31,3.65,3.7.62,1.6.6,1.62.22,3.28-1.07,4.67-.46,6.29-.51,7.11-.64-.22-1.4.37-2.04.14-.38-.13-.3-.21-4.09-2.8-.32.34-3.82.75-1.63,3.52,1.1,1.39,1.21,1.22,2.38,2.53.28.32.17.36,2.29,4.82,3.01-2.87,2.86-2.94,5.28-6.3,2.55-5.59,7.65-17.61-8.49-28.83-5.88-4.09-17.44-3.67-24.93,3.47-.67.64-.62.65-3.11,3.65-1.03,1.79-3.33,4.02-3.45,10.41-.28,14.41,11.82,19.68,13.63,20.47.68.3,1.42.47,2.1.77-.19-.98-.07-2-.26-2.97-.47-2.35-1.15-2.51-.05-3.78.36-.41.97-.55,1.33-.96l1.55-3.98c.09-.52-.45-1.02-.36-1.54-1.13-1.11-1.27-.92-2.2-2.15l-1.91-2.45c-.47-.45-.85-.98-1.32-1.43-5.06-4.9-6.77-2.31-7.93-4.2-.73-1.19-.05-1.22,2.53-5.8ZM127.67,123.4c.79,1.36.06,1.79,2.49,4.31.47.48,1.56.83.14,2.2-1.41,1.36-1.76.98-3.14-.38-2.55-2.5-1.62-3.73-1.93-4.17-.43-.59-1.51-.43-1.95-1.01-.32-.42-.14-1.07-.05-1.59.64-3.51,2.58-2.19,2.81-2.03.86.59.77,2.09,1.63,2.68ZM139.6,115.44c-.04-.07-1.56-1.36-2.1-3.81-.39-1.78-.27-2.05-.2-2.22.67-1.53,1.54-.82,2.22-2.36,1.23.38.8,1.02,1.99,1.4.15.05,1.44.45,1.97-.16.36-.42-1.07-5.87-.25-6.63.67-.61,6.7,2.82,7.55,3.57,2.02,1.77,3.65,2.46,1.26,3.75-1.64.88-4.12-.95-9.04,3.67-1.65,1.54-1.68,1.38-3.39,2.79ZM140.45,130.22c.14.54-.2,1.13-.06,1.67.05.2.47,1.79,1.74,1.82.29,0,3.02.07,3.59-.6,1.36-1.61-2.29-6.27-4.57-4.21-.37.33-.33.98-.69,1.31ZM98.75,111.79c-.41-.46-.09-1.95-3.96-2.99-1.73-.46-2.09-.52-1.99-2.35.31-6.06,13.28-1.63,11.4,10.83-.21,1.42-.43,1.94-.5,2.1-.56,1.33-.85,1.12-1.42,2.48-3.54,3.58-3.39,4.46-8.48,4.26-10.32-.41-12.76-15.57-4.2-14.14.75.13,1.41.58,2.16.71l4.27.72-5.32,3.78c.07.2-.71,1.83,1.26,3.45,1.59,1.31,4.2.26,7.17-.65,0-.5-.43-.94-.43-1.44,0-.14.1-.09.44-1.73.65-3.11-.38-4.7-.41-5.02ZM147.58,71.7c.69.21,1.46.08,2.16.3,7.63,2.35,6.82,11.38,1.73,15.05-.5.36-1.21.38-1.71.75-9.65,1.26-14.92-3.03-14.18-5.8,1.2-4.53,5.22-8.91,5.82-9.57l-1.45-3.49c-.14-.49-1.54-5.19-.44-6.39,1.25-1.36,1.33-1.56,3.13-1.13,2.68.65,1.7,1.62,2.61,4.85l-1.08,4.28,3.41,1.16ZM148.29,76.64c-.32.01-1.56-.71-4.06.17-.77.27-1.91,1.77-1.88,2.01.16,1.35.68.99,5.54,3.32l.92-1.82-.51-3.68ZM73.31,63.31c.91-.31,1.6-1.1,2.51-1.41.3-.1,5.1-1.73,3.19,2.45-2.62,5.72-.93,5.97-1.22,7.98-.34,2.33-6.92,1.33-6.78-1.94.11-2.58.52-2.42,2.3-7.08ZM98.04,46.69c3.38-1.98,3.6-1.58,6.43-4.37,7.17-7.08,11.44-1.1,11.54-.63.28,1.28-.07,2.71.45,3.91.12.29,5.14,2.45,8.31,5.22,16.12,14.12,6.18,30.98,6.11,31.13-3.55,8.46-14.51,14.19-25.13,13.39-10.89-.82-22.47-11.17-22.95-21.82-.95-20.66,13.52-25.73,15.25-26.83ZM98.4,72.34l-2.37,1.23c-.85.02-1.56.82-2.41.84-.75.02-1.38-.76-2.13-.72-.31.02-.15.63-.36.86-1.18,1.28-1.36,1.01-2.57,2.31,1.42,3.07,1.42,3.03,3.22,5.87l3.92-4.02c4.02-2.08,4.09-1.94,4.34-2.25.54-.66.39-1.72.92-2.38l-.3-1.84-2.28.09ZM120.71,86.82l3.69-3.67c-2.92-4.31-2.83-4.32-6.32-8.22-1.25-.1-.97-.81-2.19-.91-.17-.01-1.35-.1-2.12.58-.48.42-.1,1.39-.58,1.82l-4.1,2.28-4.91-.8-3.28,3.23c-1.07,3.79-.98,3.8-1.16,4.09-.83,1.34-1.05,1.12-1.87,2.44,3.51,1.43,11.02,6.5,22.82-.83ZM112.46,83.11c3.71-3.06,4.2-1.65,4.69-1.78l.85,2.94c-.79.31-1.29,1.15-2.07,1.46-.27.11-2.72,1.09-3.58-.65-.3-.59.41-1.39.12-1.98ZM90.95,58.88c-1.59,3.29-1.64,3.2-2.91,6.68,1.36.01,1.25.46,2.56.48,2.41.03,2.3-.45,2.5-.42l4.05,2.1,2.26-.05,2.63-1.84-3.05-1.98c-.46-.37-.6-1.05-1.07-1.42-1.45-1.16-1.52-.93-6.97-3.54ZM110.83,64.89c-2.12,2.19-2.46,1.79-4.41,4.09-.67.79-.75,1.55-.77,1.7-.08.73.52.58.43,1.32.5.19.74.83,1.25,1.03,3.31,1.27,2.94-.65,7.4-5.31l.88-4.63-2.25.12c-.02-.06-2.38-2.14-.98-6.94.51-1.74.67-2.11,2.45-1.76,1.1.21,1.31.46,1.39.55.67.79-.02,1.07.63,1.83l-.33,5.62c4.88-.84,4.68-1.34,8.82-4.13l-3.16-3.59c-14.95-11.85-23.5-3.83-28.38.06,1.41.93,1.75-.04,3.15.89.23.15,1.41.93,2.23,2.67.36.75-.15,1.73.21,2.49l3.9-3.95c.3-.72-.2-1.61.1-2.33.6-1.45,4.33-1.22,4.54-.99.01.02-.11,6.63.96,8.85.45.93,1.48,1.49,1.93,2.42ZM169.57,122.16c.03-.49-.26-.98-.23-1.47.02-.41.38-.76.39-1.17.02-.71-1.08-1.29.86-2.9,1.35-1.13,1.36-1.25,3.11-1.16,2.75.15,2.49.79,4.69,2.49l1.61,2.81c.25,4.03,1.03,4.15-.24,6.76-.4.83-1.13,1.48-1.53,2.31l-2.74,1.7c-2.78.17-2.48-.69-4.2-2.9-1.1-3.2-1.21-3.14-1.72-6.47ZM52.4,116.72c4.94-.61,4.88-.74,9.91-.88,8.76-.26,16.43,9.17,17.02,17.33,1.2,16.44-15.75,19.67-16.19,20.16-.85.93.67,5.92-4.01,7.78-5.55,2.2-7.14-1.72-6.48-5.69.1-.63.32-1.25.41-1.89.37-2.59-.92-1.94-3.22-3.27-13.88-8.07-11.48-27.5,2.56-33.55ZM46.82,127.71c-1.08,3.22-1.03,3.19-1.66,6.5.36,3.63-.33,3.83,1.55,6.94.54.88,1.41,1.53,1.95,2.41,9.4,8.55,16.46,3.84,17.58,3.53,4.16-2.52,4.89-1.88,6.88-6.25,2.59-5.69.69-9.92.48-11.11l-2.88,1.55c-.91.8-1.29-.58-2.19.22-.12.11-.65.57-.31,1.98.22.93,1.16,1.58,1.38,2.51-.48.39-.39,1.25-.87,1.64-.46.38-4.35-.68-4.72-.78-.08-.91-.63-.82-.37-4.07.41-5.12,2.29-4.22,2.31-4.63.11-2.77-3.05-3.02-3.42-3.05-.62-.05-1.08.84-1.7.79l-7.01,3.07-1.14,1.81c-3.74-.85-3.76-.74-4.04-.92-.8-.5-1.03-1.66-1.83-2.16ZM53.58,139c-.36-.14-.76-.26-.63-.61.02-.06.06-.12.11-.18.24-.32,1.52-2.02,4.18-2.87.6-.19.99,1.22,1.59,1.03-.19,1.13.36,1.09.16,2.23-.2,1.2-.72.97-.91,2.14-.11.71.94,2.14.22,2.14-1.24.02-2.06-1.38-3.06-2.11-.45-.33-.84-.74-1.29-1.07.31-.41,0-.57-.37-.71ZM71.15,105.77c-2.61.57-2.55.47-5.17.51-2.77-1.71-2.63-1.84-5.54-3.18-2.64-4.55-3.32-5.42.12-14.59,10.08-9.92,12.61-2.34,13.55-.95.49,6.08,1.15,5.92,1.2,6.15.37.52,1.15.64,1.53,1.15,2.32,3.22,1.61,3.6-.15,7.18-2.4,2.39-2.37,2.41-5.54,3.73ZM73.8,100.87c-.35-.56.47-1.42.12-1.98-.23-.37-3.74-1.25-4.07-1.33-.32-.08-3.7-.93-3.23-2.56.21-.72,1.03-1.17,1.24-1.9l3.21-3.96c-3.77-.36-4.23-1.28-6.86,1.38-3.18,3.22-1.87,6.23-1.64,6.74,2.17,4.98,3.94,3.96,6.46,4.67l2.52-1.15c.75-.1,1.52.2,2.27.1ZM98.2,137c.33.55,2.82,4.66.69,7.93-1.75,2.68-5.35,2.45-5.61-.58-.02-.23.53-1.64-.34-3.93-.15-.39-1.8-4.74,1.49-5,1.21-.1,2.21.32,2.39.4.88.37.51.82,1.38,1.19Z"/>
  </g>
</svg>