<svg xmlns="http://www.w3.org/2000/svg" xml:space="preserve" style="fill-rule:evenodd;clip-rule:evenodd;stroke-linejoin:round;stroke-miterlimit:2" viewBox="0 0 217 202"><path d="m148.286 76.639.515 3.683-.915 1.817c-4.862-2.335-5.386-1.975-5.544-3.323-.028-.241 1.109-1.733 1.881-2.007 2.502-.882 3.74-.155 4.063-.17m-7.831 53.579c.367-.331.327-.98.694-1.311 2.28-2.058 5.934 2.6 4.574 4.213-.562.668-3.295.602-3.586.596-1.279-.03-1.695-1.628-1.745-1.824-.141-.541.204-1.134.063-1.674" style="fill:#fff"/><path d="M125.499 109.329c-2.571 4.58-3.254 4.603-2.525 5.798 1.16 1.895 2.871-.696 7.928 4.202.466.45.85.98 1.316 1.431l1.909 2.453c.937 1.229 1.07 1.046 2.202 2.152-.093.517.453 1.019.36 1.536l-1.555 3.983c-.354.413-.969.546-1.326.959-1.099 1.275-.417 1.434.052 3.782.193.975.071 1.995.265 2.97-.683-.299-1.419-.471-2.103-.769-1.805-.786-13.903-6.061-13.628-20.469.124-6.39 2.421-8.617 3.455-10.409 2.489-3.002 2.44-3.015 3.108-3.651 7.493-7.136 19.053-7.556 24.93-3.471 16.137 11.215 11.037 23.24 8.489 28.827-2.422 3.36-2.267 3.431-5.278 6.301-2.119-4.468-2.003-4.506-2.287-4.824-1.171-1.308-1.286-1.145-2.382-2.532-2.189-2.774 1.317-3.185 1.634-3.522 3.79 2.597 3.717 2.676 4.092 2.804.647.224 1.398-.363 2.043-.141.06-.82-.553-2.445.515-7.113.381-1.659.399-1.676-.219-3.28-.149-.386-1.634-4.241-3.646-3.698-.264.072-.023.484-3.133 1.389-.424.125-3.058.892-4.334 3.399-.34.67-.044 1.553-.386 2.222l-3.871 2.82c-.664-.468-1.421-.791-2.088-1.257-.789-.556-1-.866-1.064-.961-.598-.874-.252-.97-.809-1.783-2.039-2.292-1.981-2.329-2.202-2.475-.47-.307-1.156.047-1.679-.157-.588-.23-1.01-.755-1.541-1.099-4.032-2.606-4.559-2.041-4.493-2.444.184-1.1 1.643-1.655 2.721-1.942.786-.21 1.656.973 2.37.582.66-.36.329-1.47.565-2.186.51-1.539.747-1.822 5.129-4.088-1.66-1.475-2.974-4.584-9.089 1.474-.267.265-2.119 2.099-3.445 3.187m14.096 6.11c1.708-1.41 1.744-1.25 3.389-2.793 4.92-4.62 7.405-2.788 9.042-3.673 2.394-1.29.759-1.975-1.257-3.748-.845-.743-6.882-4.176-7.549-3.565-.822.756.614 6.207.251 6.63-.526.609-1.816.206-1.968.158-1.199-.375-.768-1.013-1.995-1.395-.677 1.54-1.546.833-2.219 2.36-.07.165-.192.439.203 2.219.546 2.447 2.066 3.738 2.103 3.807m-11.929 7.959c-.864-.591-.772-2.087-1.634-2.677-.23-.156-2.163-1.479-2.805 2.033-.094.521-.276 1.168.045 1.59.447.581 1.524.418 1.952 1.011.319.442-.617 1.662 1.934 4.167 1.38 1.355 1.723 1.74 3.137.379 1.422-1.369.334-1.712-.135-2.196-2.434-2.514-1.705-2.942-2.494-4.307m59.23 20.509c-.142 1.081 1.571 1.861 1.427 2.943-.005.043-52.959 9.401-61.921 10.107.182-.687-.827-1.342-.648-2.028.06-.221 9.641-3.49 10.485-3.778 7.621-2.599 11.798.729 22.836-2.589 13.573-4.079 13.791-2.81 27.821-4.655M110.83 64.886c-.448-.929-1.479-1.492-1.927-2.42-1.075-2.22-.948-8.838-.961-8.854-.214-.23-3.942-.46-4.543.986-.298.717.198 1.611-.103 2.33l-3.901 3.953c-.355-.753.153-1.735-.205-2.486-.82-1.734-2.001-2.516-2.234-2.668-1.399-.926-1.737.043-3.148-.889 4.887-3.888 13.432-11.904 28.385-.056l3.16 3.592c-4.144 2.796-3.943 3.297-8.821 4.133l.328-5.617c-.649-.768.043-1.04-.628-1.835-.076-.091-.288-.342-1.389-.554-1.789-.342-1.945.022-2.454 1.764-1.405 4.807.962 6.884.978 6.942l2.248-.124-.884 4.632c-4.462 4.657-4.095 6.577-7.402 5.306-.502-.194-.742-.834-1.245-1.027.083-.735-.515-.581-.432-1.316.016-.149.101-.911.768-1.699 1.953-2.301 2.292-1.903 4.41-4.093" style="fill:#fff"/><path d="M90.947 58.876c5.448 2.614 5.526 2.38 6.971 3.54.462.372.604 1.055 1.065 1.425l3.052 1.978-2.629 1.844-2.257.047-4.055-2.097c-.199-.034-.084.447-2.495.42-1.31-.015-1.204-.463-2.559-.476 1.27-3.481 1.318-3.395 2.907-6.681m7.449 13.467 2.276-.091.297 1.842c-.536.659-.386 1.721-.925 2.379-.247.304-.319.165-4.339 2.246l-3.924 4.023c-1.799-2.845-1.8-2.8-3.221-5.874 1.201-1.301 1.381-1.032 2.565-2.313.21-.23.052-.843.363-.86.749-.042 1.38.742 2.13.72.851-.022 1.558-.822 2.408-.844zm-24.593 28.523c-.75.097-1.517-.194-2.266-.099l-2.516 1.154c-2.522-.71-4.287.316-6.461-4.669-.222-.51-1.536-3.523 1.645-6.738 2.632-2.662 3.086-1.741 6.859-1.38l-3.205 3.963c-.211.726-1.026 1.176-1.237 1.901-.473 1.63 2.911 2.476 3.229 2.556.332.084 3.84.96 4.072 1.333.349.56-.47 1.419-.12 1.979M31.455 151.75c.899.238 1.754-1.092 2.653-.854.446.119 1.423 2.703 1.073 3.494-.414.936-3.923 2.775-4.259 2.442-.428-.426-.207-2.544-.183-2.763.128-1.216.583-1.057.716-2.319m64.557 10.495c-6.536 1.42-6.564.985-13.058 2.415-.548.122-5.007 1.102-6.892 1.399-29.863 4.688 12.042-5.911 13.171-6.197l5.532.451c.713.278.534 1.652 1.247 1.932m-49.194-34.529c.801.499 1.025 1.663 1.826 2.162.28.174.298.068 4.038.918l1.136-1.813 7.012-3.075c.625.049 1.08-.842 1.704-.793.365.03 3.525.276 3.418 3.051-.016.414-1.899-.492-2.307 4.631-.26 3.252.286 3.161.368 4.069.371.1 4.259 1.157 4.721.778.481-.392.39-1.25.871-1.642-.224-.929-1.16-1.581-1.383-2.507-.336-1.412.189-1.874.31-1.981.909-.797 1.287.577 2.194-.221l2.878-1.548c.207 1.185 2.112 5.42-.482 11.106-1.993 4.369-2.725 3.731-6.884 6.248-1.123.313-8.18 5.023-17.58-3.529-.534-.885-1.411-1.531-1.947-2.414-1.877-3.108-1.195-3.31-1.55-6.936.627-3.314.572-3.28 1.657-6.504m6.761 11.281c.362.141.679.299.369.71.45.33.837.738 1.288 1.065.998.732 1.819 2.124 3.057 2.109.719-.009-.333-1.436-.218-2.145.19-1.174.707-.947.912-2.143.197-1.139-.354-1.094-.16-2.227-.602.191-.992-1.22-1.595-1.029-2.663.85-3.937 2.547-4.18 2.869a.7.7 0 0 0-.107.185c-.129.344.274.468.634.606m67.134-52.174c-11.805 7.333-19.314 2.258-22.824.83.815-1.323 1.04-1.099 1.869-2.442.178-.289.085-.302 1.156-4.088l3.276-3.228 4.907.804 4.104-2.278c.474-.422.102-1.394.578-1.816.767-.68 1.942-.59 2.116-.577 1.222.094.943.812 2.193.907 3.481 3.896 3.399 3.911 6.316 8.22zm-8.25-3.712c.295.591-.414 1.388-.118 1.979.866 1.734 3.315.754 3.585.646.786-.314 1.287-1.151 2.073-1.465l-.849-2.942c-.49.132-.98-1.278-4.691 1.782m97.263 55.861c-1.396-.372-2.648-1.186-4.041-1.555-1.907-.51-6.214-.093-6.751-.04-3.598.349-4.326 2.086-6.443-.886-1.168-1.645-2.278-14.526-2.388-15.799-1.187-13.784-3.541-13.127-8.992-25.882-1.738-4.165-1.784-4.075-1.927-4.435-8.201-13.451-10.633-14.405-15.073-23.338-7.041-14.156-29.608-22.243-39.589-32.782-9.862-10.415-24.961-11.179-28.811-13.754-1.507-1.008-2.035-6.078 1.964-11.455 11.465-15.409 57.797 16.908 78.191 41.926 13.485 16.539 13.881 16.302 23.447 35.001 1.116 2.182 7.321 14.312 10.213 28.872 4.752 23.932.207 24.108.2 24.127" style="fill:#fff"/><path d="M87.399 43.478c1.893 2.111 1.552 3.389 4.312 2.624l4.88-3.638c-.028-.707.334-1.393.306-2.099-.11-2.644-1.072-2.133-3.802-4.329-.347-.586-1.269-.66-1.614-1.246-1.415-2.395 2.832-8.08 3.475-8.282.884-.277 18.643 3.357 25.357 10.5 11.976 12.74 29.598 17.559 38.004 30.371 6.403 9.759 5.884 10.011 12.694 19.542 6.334 8.869 4.664 9.737 9.982 19.307 6.068 10.911 2.72 17.335 6.041 29.712.737 2.744 1.113 3.719-1.686 4.101-12.637 1.729-16.021-.597-27.415 4.514-5.268 2.359-9.965 1.964-16.184 1.916-7.335-.057-7.267.482-14.08 3.192-.415-.768-1.26-1.244-1.673-2.01-.329-.608-.291-1.353-.495-2.011-.947-3.043-8.131-7.203-10.781-2.376-2.085 3.794-.851 4.121 2.353 6.967 1.726 1.529.894 1.931 1.422 3.072-13.917.138-13.676 2.076-27.499 3.282l-2.269.387-2.167.073c-.53-.485-1.623.586-2.155.103-5.607-5.113.124-4.819.503-4.77 2.845.356 2.395 1.312 2.629 1.312l3.345-.674c-.017-.023-.13-2.935-3.013-4.566-4.439-2.516-10.377 1.804-9.218 6.844.225.973.988 1.766 1.211 2.737-6.425 1.936-21.578 3.818-24.494 18.144-1.783 8.762-1.016 9.585-2.896 9.963-5.312 1.067 2.613-10.895-5.799-18.129-3.909-3.363-12.289-1.093-13.354-.948-7.3 1.56-7.104 2.174-12.51 7.309-9.675 9.187-3.494 19.13-7.669 21.205-2.169 1.079-2.169-2.124-2.17-2.381 0-1.625 1.816-8.733-2.242-11.52-5.112-3.511-2.798-4.884.387-13.317.224-.589.027-1.743.656-1.773.168-.005-.58.64 1.228 1.688 1.079.626 1.259-.246 2.374.402.047.012 1.543 1.841 4.231 1.271.134-.029.536-.115 1.492-.817.447-.329.746-.832 1.193-1.16.015-.024 3.385-2.591 2.155-5.995-.088-.247-1.263-2.066-1.365-2.137-.261-.182-2.174-1.51-3.541-1.826-.879-.203-1.828.215-2.705.01 7.201-10.583 5.592-11.687 16.871-24.335 9.139-10.247 7.888-15.28 18.783-29.991 2.285-3.085 3.107-5.622 3.279-6.153 1.729-5.342 1.528-5.345 3.692-10.525 6.67-12.364 8.673-11.268 11.391-19.65.122-.381.146-.339 1.989-4.592 1.87-4.786 1.946-4.734 5.372-8.577 3.926-4.408 3.7-4.512 6.829-9.562 1.342-2.165 1.846-1.396 4.36-1.159m45.529 49.855c-1.668.66-10.436 2.915-16.175 12.433-8.424 13.971.24 31.759 14.441 36.602.945.323 14.044 2.871 22.114-1.894 13.756-8.125 16.487-26.28 6.697-38.025-4.775-5.726-10.677-8.108-11.756-8.543-5.708-2.303-14.114-.79-15.321-.573M26.185 155.744c1.923 5.326 1.788 5.357 2.076 5.75 2.308 3.173 17.799-4.529 9.334-13.905-7.804-8.648-14.297 1.154-11.999 7.028.155.396.435.733.589 1.127m121.394-84.047-3.414-1.161 1.076-4.277c-.913-3.226.072-4.196-2.609-4.846-1.802-.433-1.883-.231-3.129 1.129-1.097 1.196.297 5.896.442 6.389l1.45 3.492c-.606.661-4.617 5.046-5.822 9.571-.735 2.763 4.533 7.052 14.183 5.797.504-.364 1.205-.384 1.709-.748 5.087-3.669 5.898-12.696-1.729-15.049-.693-.214-1.464-.083-2.157-.297M73.307 63.31c-1.772 4.666-2.184 4.508-2.295 7.084-.142 3.268 6.441 4.271 6.779 1.936.292-2.008-1.403-2.258 1.217-7.98 1.913-4.179-2.881-2.556-3.186-2.453-.912.309-1.605 1.104-2.515 1.413m24.738-16.621c-1.73 1.105-16.193 6.174-15.247 26.831.488 10.649 12.065 21.005 22.954 21.823 10.622.8 21.575-4.933 25.128-13.393.066-.152 10.009-17.011-6.112-31.134-3.168-2.773-8.181-4.926-8.306-5.219-.523-1.202-.173-2.626-.45-3.909-.1-.467-4.371-6.448-11.541.628-2.826 2.79-3.049 2.391-6.426 4.373m.708 65.102c.025.318 1.057 1.911.407 5.016-.341 1.639-.435 1.588-.437 1.73-.001.499.427.939.426 1.438-2.971.901-5.579 1.953-7.169.646-1.975-1.622-1.187-3.251-1.261-3.452l5.318-3.776-4.273-.716c-.745-.125-1.411-.582-2.159-.708-8.56-1.43-6.124 13.731 4.198 14.141 5.09.203 4.944-.682 8.481-4.257.571-1.355.866-1.147 1.423-2.476.066-.158.285-.679.498-2.099 1.877-12.456-11.09-16.89-11.403-10.829-.096 1.834.26 1.892 1.99 2.353 3.869 1.037 3.554 2.533 3.961 2.989m70.813 10.368c.511 3.333.626 3.272 1.721 6.471 1.719 2.205 1.418 3.067 4.197 2.897l2.735-1.703c.405-.833 1.129-1.48 1.533-2.311 1.269-2.609.486-2.727.239-6.758l-1.615-2.811c-2.2-1.7-1.939-2.34-4.689-2.487-1.752-.093-1.755.031-3.107 1.157-1.937 1.61-.836 2.192-.857 2.901-.013.411-.366.761-.39 1.174-.03.495.262.976.233 1.47M71.15 105.775c3.174-1.315 3.141-1.334 5.539-3.725 1.761-3.579 2.471-3.954.151-7.176-.372-.517-1.153-.637-1.525-1.154-.058-.228-.716-.075-1.204-6.153-.94-1.385-3.476-8.967-13.553.951-3.441 9.172-2.756 10.034-.12 14.588 2.917 1.347 2.771 1.47 5.544 3.183 2.613-.044 2.559.054 5.168-.514m-18.748 10.948c-14.04 6.045-16.442 25.479-2.558 33.545 2.305 1.339 3.594.683 3.222 3.275-.091.638-.304 1.253-.408 1.887-.66 3.965.925 7.889 6.476 5.685 4.675-1.857 3.161-6.847 4.01-7.781.448-.491 17.39-3.723 16.193-20.16-.592-8.168-8.255-17.592-17.02-17.334-5.035.148-4.97.277-9.915.883m45.802 20.282c-.875-.365-.505-.816-1.381-1.186-.18-.074-1.175-.491-2.388-.395-3.289.262-1.637 4.606-1.489 4.997.869 2.287.32 3.702.34 3.928.252 3.031 3.86 3.26 5.606.583 2.135-3.27-.358-7.381-.688-7.927" style="fill:#fff"/><path d="M98.204 137.005c.33.546 2.823 4.657.688 7.927-1.746 2.677-5.354 2.448-5.606-.583-.02-.226.529-1.641-.34-3.928-.148-.391-1.8-4.735 1.489-4.997 1.213-.096 2.208.321 2.388.395.876.37.506.821 1.381 1.186m-24.401-36.139c-.35-.56.469-1.419.12-1.979-.232-.373-3.74-1.249-4.072-1.333-.318-.08-3.702-.926-3.229-2.556.211-.725 1.026-1.175 1.237-1.901l3.205-3.963c-3.773-.361-4.227-1.282-6.859 1.38-3.181 3.215-1.867 6.228-1.645 6.738 2.174 4.985 3.939 3.959 6.461 4.669l2.516-1.154c.749-.095 1.516.196 2.266.099m-2.653 4.909c-2.609.568-2.555.47-5.168.514-2.773-1.713-2.627-1.836-5.544-3.183-2.636-4.554-3.321-5.416.12-14.588 10.077-9.918 12.613-2.336 13.553-.951.488 6.078 1.146 5.925 1.204 6.153.372.517 1.153.637 1.525 1.154 2.32 3.222 1.61 3.597-.151 7.176-2.398 2.391-2.365 2.41-5.539 3.725m-17.571 33.222c-.36-.138-.763-.262-.634-.606a.7.7 0 0 1 .107-.185c.243-.322 1.517-2.019 4.18-2.869.603-.191.993 1.22 1.595 1.029-.194 1.133.357 1.088.16 2.227-.205 1.196-.722.969-.912 2.143-.115.709.937 2.136.218 2.145-1.238.015-2.059-1.377-3.057-2.109-.451-.327-.838-.735-1.288-1.065.31-.411-.007-.569-.369-.71m-6.761-11.281c-1.085 3.224-1.03 3.19-1.657 6.504.355 3.626-.327 3.828 1.55 6.936.536.883 1.413 1.529 1.947 2.414 9.4 8.552 16.457 3.842 17.58 3.529 4.159-2.517 4.891-1.879 6.884-6.248 2.594-5.686.689-9.921.482-11.106l-2.878 1.548c-.907.798-1.285-.576-2.194.221-.121.107-.646.569-.31 1.981.223.926 1.159 1.578 1.383 2.507-.481.392-.39 1.25-.871 1.642-.462.379-4.35-.678-4.721-.778-.082-.908-.628-.817-.368-4.069.408-5.123 2.291-4.217 2.307-4.631.107-2.775-3.053-3.021-3.418-3.051-.624-.049-1.079.842-1.704.793l-7.012 3.075-1.136 1.813c-3.74-.85-3.758-.744-4.038-.918-.801-.499-1.025-1.663-1.826-2.162m5.584-10.993c4.945-.606 4.88-.735 9.915-.883 8.765-.258 16.428 9.166 17.02 17.334 1.197 16.437-15.745 19.669-16.193 20.16-.849.934.665 5.924-4.01 7.781-5.551 2.204-7.136-1.72-6.476-5.685.104-.634.317-1.249.408-1.887.372-2.592-.917-1.936-3.222-3.275-13.884-8.066-11.482-27.5 2.558-33.545m117.164 5.436c.029-.494-.263-.975-.233-1.47.024-.413.377-.763.39-1.174.021-.709-1.08-1.291.857-2.901 1.352-1.126 1.355-1.25 3.107-1.157 2.75.147 2.489.787 4.689 2.487l1.615 2.811c.247 4.031 1.03 4.149-.239 6.758-.404.831-1.128 1.478-1.533 2.311l-2.735 1.703c-2.779.17-2.478-.692-4.197-2.897-1.095-3.199-1.21-3.138-1.721-6.471M110.83 64.886c-2.118 2.19-2.457 1.792-4.41 4.093-.667.788-.752 1.55-.768 1.699-.083.735.515.581.432 1.316.503.193.743.833 1.245 1.027 3.307 1.271 2.94-.649 7.402-5.306l.884-4.632-2.248.124c-.016-.058-2.383-2.135-.978-6.942.509-1.742.665-2.106 2.454-1.764 1.101.212 1.313.463 1.389.554.671.795-.021 1.067.628 1.835l-.328 5.617c4.878-.836 4.677-1.337 8.821-4.133l-3.16-3.592c-14.953-11.848-23.498-3.832-28.385.056 1.411.932 1.749-.037 3.148.889.233.152 1.414.934 2.234 2.668.358.751-.15 1.733.205 2.486l3.901-3.953c.301-.719-.195-1.613.103-2.33.601-1.446 4.329-1.216 4.543-.986.013.016-.114 6.634.961 8.854.448.928 1.479 1.491 1.927 2.42m-19.883-6.01c-1.589 3.286-1.637 3.2-2.907 6.681 1.355.013 1.249.461 2.559.476 2.411.027 2.296-.454 2.495-.42l4.055 2.097 2.257-.047 2.629-1.844-3.052-1.978c-.461-.37-.603-1.053-1.065-1.425-1.445-1.16-1.523-.926-6.971-3.54m21.516 24.235c3.711-3.06 4.201-1.65 4.691-1.782l.849 2.942c-.786.314-1.287 1.151-2.073 1.465-.27.108-2.719 1.088-3.585-.646-.296-.591.413-1.388.118-1.979m8.25 3.712 3.691-3.668c-2.917-4.309-2.835-4.324-6.316-8.22-1.25-.095-.971-.813-2.193-.907-.174-.013-1.349-.103-2.116.577-.476.422-.104 1.394-.578 1.816l-4.104 2.278-4.907-.804-3.276 3.228c-1.071 3.786-.978 3.799-1.156 4.088-.829 1.343-1.054 1.119-1.869 2.442 3.51 1.428 11.019 6.503 22.824-.83m-22.317-14.48-2.37 1.228c-.85.022-1.557.822-2.408.844-.75.022-1.381-.762-2.13-.72-.311.017-.153.63-.363.86-1.184 1.281-1.364 1.012-2.565 2.313 1.421 3.074 1.422 3.029 3.221 5.874l3.924-4.023c4.02-2.081 4.092-1.942 4.339-2.246.539-.658.389-1.72.925-2.379l-.297-1.842zm-.351-25.654c3.377-1.982 3.6-1.583 6.426-4.373 7.17-7.076 11.441-1.095 11.541-.628.277 1.283-.073 2.707.45 3.909.125.293 5.138 2.446 8.306 5.219 16.121 14.123 6.178 30.982 6.112 31.134-3.553 8.46-14.506 14.193-25.128 13.393-10.889-.818-22.466-11.174-22.954-21.823-.946-20.657 13.517-25.726 15.247-26.831M73.307 63.31c.91-.309 1.603-1.104 2.515-1.413.305-.103 5.099-1.726 3.186 2.453-2.62 5.722-.925 5.972-1.217 7.98-.338 2.335-6.921 1.332-6.779-1.936.111-2.576.523-2.418 2.295-7.084m74.979 13.329c-.323.015-1.561-.712-4.063.17-.772.274-1.909 1.766-1.881 2.007.158 1.348.682.988 5.544 3.323l.915-1.817zm-.707-4.942c.693.214 1.464.083 2.157.297 7.627 2.353 6.816 11.38 1.729 15.049-.504.364-1.205.384-1.709.748-9.65 1.255-14.918-3.034-14.183-5.797 1.205-4.525 5.216-8.91 5.822-9.571l-1.45-3.492c-.145-.493-1.539-5.193-.442-6.389 1.246-1.36 1.327-1.562 3.129-1.129 2.681.65 1.696 1.62 2.609 4.846l-1.076 4.277zm-48.826 40.094c-.407-.456-.092-1.952-3.961-2.989-1.73-.461-2.086-.519-1.99-2.353.313-6.061 13.28-1.627 11.403 10.829-.213 1.42-.432 1.941-.498 2.099-.557 1.329-.852 1.121-1.423 2.476-3.537 3.575-3.391 4.46-8.481 4.257-10.322-.41-12.758-15.571-4.198-14.141.748.126 1.414.583 2.159.708l4.273.716-5.318 3.776c.074.201-.714 1.83 1.261 3.452 1.59 1.307 4.198.255 7.169-.646.001-.499-.427-.939-.426-1.438.002-.142.096-.091.437-1.73.65-3.105-.382-4.698-.407-5.016m41.702 18.427c.141.54-.204 1.133-.063 1.674.05.196.466 1.794 1.745 1.824.291.006 3.024.072 3.586-.596 1.36-1.613-2.294-6.271-4.574-4.213-.367.331-.327.98-.694 1.311m-.86-14.779c-.037-.069-1.557-1.36-2.103-3.807-.395-1.78-.273-2.054-.203-2.219.673-1.527 1.542-.82 2.219-2.36 1.227.382.796 1.02 1.995 1.395.152.048 1.442.451 1.968-.158.363-.423-1.073-5.874-.251-6.63.667-.611 6.704 2.822 7.549 3.565 2.016 1.773 3.651 2.458 1.257 3.748-1.637.885-4.122-.947-9.042 3.673-1.645 1.543-1.681 1.383-3.389 2.793m-11.929 7.959c.789 1.365.06 1.793 2.494 4.307.469.484 1.557.827.135 2.196-1.414 1.361-1.757.976-3.137-.379-2.551-2.505-1.615-3.725-1.934-4.167-.428-.593-1.505-.43-1.952-1.011-.321-.422-.139-1.069-.045-1.59.642-3.512 2.575-2.189 2.805-2.033.862.59.77 2.086 1.634 2.677m-2.167-14.069c1.326-1.088 3.178-2.922 3.445-3.187 6.115-6.058 7.429-2.949 9.089-1.474-4.382 2.266-4.619 2.549-5.129 4.088-.236.716.095 1.826-.565 2.186-.714.391-1.584-.792-2.37-.582-1.078.287-2.537.842-2.721 1.942-.066.403.461-.162 4.493 2.444.531.344.953.869 1.541 1.099.523.204 1.209-.15 1.679.157.221.146.163.183 2.202 2.475.557.813.211.909.809 1.783.064.095.275.405 1.064.961.667.466 1.424.789 2.088 1.257l3.871-2.82c.342-.669.046-1.552.386-2.222 1.276-2.507 3.91-3.274 4.334-3.399 3.11-.905 2.869-1.317 3.133-1.389 2.012-.543 3.497 3.312 3.646 3.698.618 1.604.6 1.621.219 3.28-1.068 4.668-.455 6.293-.515 7.113-.645-.222-1.396.365-2.043.141-.375-.128-.302-.207-4.092-2.804-.317.337-3.823.748-1.634 3.522 1.096 1.387 1.211 1.224 2.382 2.532.284.318.168.356 2.287 4.824 3.011-2.87 2.856-2.941 5.278-6.301 2.548-5.587 7.648-17.612-8.489-28.827-5.877-4.085-17.437-3.665-24.93 3.471-.668.636-.619.649-3.108 3.651-1.034 1.792-3.331 4.019-3.455 10.409-.275 14.408 11.823 19.683 13.628 20.469.684.298 1.42.47 2.103.769-.194-.975-.072-1.995-.265-2.97-.469-2.348-1.151-2.507-.052-3.782.357-.413.972-.546 1.326-.959l1.555-3.983c.093-.517-.453-1.019-.36-1.536-1.132-1.106-1.265-.923-2.202-2.152l-1.909-2.453c-.466-.451-.85-.981-1.316-1.431-5.057-4.898-6.768-2.307-7.928-4.202-.729-1.195-.046-1.218 2.525-5.798m7.429-15.996c1.207-.217 9.613-1.73 15.321.573 1.079.435 6.981 2.817 11.756 8.543 9.79 11.745 7.059 29.9-6.697 38.025-8.07 4.765-21.169 2.217-22.114 1.894-14.201-4.843-22.865-22.631-14.441-36.602 5.739-9.518 14.507-11.773 16.175-12.433M31.455 151.75c-.133 1.262-.588 1.103-.716 2.319-.024.219-.245 2.337.183 2.763.336.333 3.845-1.506 4.259-2.442.35-.791-.627-3.375-1.073-3.494-.899-.238-1.754 1.092-2.653.854m-5.27 3.994c-.154-.394-.434-.731-.589-1.127-2.298-5.874 4.195-15.676 11.999-7.028 8.465 9.376-7.026 17.078-9.334 13.905-.288-.393-.153-.424-2.076-5.75M87.399 43.478c-2.514-.237-3.018-1.006-4.36 1.159-3.129 5.05-2.903 5.154-6.829 9.562-3.426 3.843-3.502 3.791-5.372 8.577-1.843 4.253-1.867 4.211-1.989 4.592-2.718 8.382-4.721 7.286-11.391 19.65-2.164 5.18-1.963 5.183-3.692 10.525-.172.531-.994 3.068-3.279 6.153-10.895 14.711-9.644 19.744-18.783 29.991-11.279 12.648-9.67 13.752-16.871 24.335.877.205 1.826-.213 2.705-.01 1.367.316 3.28 1.644 3.541 1.826.102.071 1.277 1.89 1.365 2.137 1.23 3.404-2.14 5.971-2.155 5.995-.447.328-.746.831-1.193 1.16-.956.702-1.358.788-1.492.817-2.688.57-4.184-1.259-4.231-1.271-1.115-.648-1.295.224-2.374-.402-1.808-1.048-1.06-1.693-1.228-1.688-.629.03-.432 1.184-.656 1.773-3.185 8.433-5.499 9.806-.387 13.317 4.058 2.787 2.242 9.895 2.242 11.52.001.257.001 3.46 2.17 2.381 4.175-2.075-2.006-12.018 7.669-21.205 5.406-5.135 5.21-5.749 12.51-7.309 1.065-.145 9.445-2.415 13.354.948 8.412 7.234.487 19.196 5.799 18.129 1.88-.378 1.113-1.201 2.896-9.963 2.916-14.326 18.069-16.208 24.494-18.144-.223-.971-.986-1.764-1.211-2.737-1.159-5.04 4.779-9.36 9.218-6.844 2.883 1.631 2.996 4.543 3.013 4.566l-3.345.674c-.234 0 .216-.956-2.629-1.312-.379-.049-6.11-.343-.503 4.77.532.483 1.625-.588 2.155-.103l2.167-.073 2.269-.387c13.823-1.206 13.582-3.144 27.499-3.282-.528-1.141.304-1.543-1.422-3.072-3.204-2.846-4.438-3.173-2.353-6.967 2.65-4.827 9.834-.667 10.781 2.376.204.658.166 1.403.495 2.011.413.766 1.258 1.242 1.673 2.01 6.813-2.71 6.745-3.249 14.08-3.192 6.219.048 10.916.443 16.184-1.916 11.394-5.111 14.778-2.785 27.415-4.514 2.799-.382 2.423-1.357 1.686-4.101-3.321-12.377.027-18.801-6.041-29.712-5.318-9.57-3.648-10.438-9.982-19.307-6.81-9.531-6.291-9.783-12.694-19.542-8.406-12.812-26.028-17.631-38.004-30.371-6.714-7.143-24.473-10.777-25.357-10.5-.643.202-4.89 5.887-3.475 8.282.345.586 1.267.66 1.614 1.246 2.73 2.196 3.692 1.685 3.802 4.329.028.706-.334 1.392-.306 2.099l-4.88 3.638c-2.76.765-2.419-.513-4.312-2.624m122.327 95.494c.007-.019 4.552-.195-.2-24.127-2.892-14.56-9.097-26.69-10.213-28.872-9.566-18.699-9.962-18.462-23.447-35.001C155.472 25.954 109.14-6.363 97.675 9.046c-3.999 5.377-3.471 10.447-1.964 11.455 3.85 2.575 18.949 3.339 28.811 13.754 9.981 10.539 32.548 18.626 39.589 32.782 4.44 8.933 6.872 9.887 15.073 23.338.143.36.189.27 1.927 4.435 5.451 12.755 7.805 12.098 8.992 25.882.11 1.273 1.22 14.154 2.388 15.799 2.117 2.972 2.845 1.235 6.443.886.537-.053 4.844-.47 6.751.04 1.393.369 2.645 1.183 4.041 1.555M96.012 162.245c-.713-.28-.534-1.654-1.247-1.932l-5.532-.451c-1.129.286-43.034 10.885-13.171 6.197 1.885-.297 6.344-1.277 6.892-1.399 6.494-1.43 6.522-.995 13.058-2.415m90.884-18.338c-14.03 1.845-14.248.576-27.821 4.655-11.038 3.318-15.215-.01-22.836 2.589-.844.288-10.425 3.557-10.485 3.778-.179.686.83 1.341.648 2.028 8.962-.706 61.916-10.064 61.921-10.107.144-1.082-1.569-1.862-1.427-2.943M32.102 177.423l-2.794.274c-8.754 1.259-8.623 3.36-10.028 14.398-.82 6.449-2.348 6.538-3.217 7.757-2.983 1.031-2.965 2.197-5.805 1.021-.838-.348-1.345-1.275-2.182-1.623-.345-.936-1.058-1.708-1.402-2.644-.449-1.223-.08-5.935-.038-6.45.345-4.424-1.943-4.338-2.822-5.093-1.824-1.4-1.874-1.275-3.342-3.101-.091-1.043-1.736-2.277 1.709-10.301 4.507-10.509 4.796-10.333 14.765-26.751.287-.474.284-.428 3.827-5.758l2.901-3.967c13.749-15.829 12.068-16.96 15.73-24.02.356-.685 2.376-4.574 5.361-8.021 2.347-2.711 2.002-2.876 3.761-6.042 4.446-10.609 3.507-11.002 9.451-20.856 9.3-13.927 6.785-15.24 10.371-20.436 5.026-7.284 5.993-6.54 10.582-14.14 1.207-2.002 7.371-10.363 9.982-16.059 2.512-5.477-2.829-13.785 6.851-21.858 16.059-13.389 49.306 13.046 55.726 17.058l4.564 3.805c10.677 8.528 10.15 9.043 19.938 18.79 14.98 16.821 34.756 41.249 40.533 81.605.008.057.537 6.434.43 8.988-.19 4.577-1.265 7.223-2.165 8.806.032.405-.188.588-.451.738-.328.503-.598.854-.737 1.111l-2.415 2.281c-9.74 6.447-13.302 1.466-28.319 5.205-5.98 1.489-6.035 1.092-25.205 4.706-3.066.578-3.108.085-38.528 6.092-15.618 3.047-15.809 1.716-41.74 7.212-10.898 2.309-15.62-.822-17.526 8.767-1.095 5.507-.809 5.571-3.468 10.503-9.202 6.497-10.8-3.346-10.691-6.096.237-6.056.794-6.264-.18-7.127-1.585-1.407-1.811.419-13.427 1.226"/></svg>