<svg xmlns="http://www.w3.org/2000/svg" id="Capa_2" data-name="Capa 2" viewBox="0 0 288.78 198.17"><path id="Capa_1-2" d="M143.41 198.17c-36.28 0-72.59-5.92-99.61-16.25l-4.55-1.88c-5.4-2.32-18.95-8.72-28.5-18.11C3.39 154.71-.22 147.17.01 139.52c.19-6.2 2.93-12.49 8.16-18.7C18.42 108.65 46.73 99 52.3 97.19c.71-.23 1.24-.45 1.67-.68.38-.21.79-.42 1.03-.91.27-.56.17-1.08.09-1.45l-.04-.19c-.08-.43-.19-.91-.32-1.44-.12-.5-.25-1.05-.37-1.66-2.36-11.83-1.28-15.53-.49-18.24l.05-.19c.31-1.07.6-2.04.53-3.43-.07-1.47-.38-1.99-1.01-2.74-.33-.39-.71-.84-1.16-1.54-1.15-1.75-1.24-2.22-1.55-3.78-.13-.66-.3-1.48-.58-2.61a.7.7 0 0 1-.01-.29c.22-1.2.71-3.55 1.58-5.86.79-2.1 1.81-3.8 2.85-4.79.24-.22.82-.58 1.43-.97.5-.31 1.06-.66 1.61-1.04.93-.64 2.09-1.43 2.44-2.73.05-.17.06-.25.18-.79.1-.49.29-1.4.68-3.21.02-.08.05-.16.1-.24.15-.24.31-.56.48-.92.41-.86.92-1.93 2.14-2.98 1.43-1.22 3.39-2.09 6.01-2.67.68-.15 1.22-.22 1.7-.29l.42-.05c.23-.02.61-.05.98-.32.43-.31.67-.75.97-1.32 1.83-3.45 3.56-5.68 5.34-6.88 1.91-1.29 3.78-1.36 6.15-1.45.56-.02 1.13-.04 1.73-.08h.11l3.58.36h.11c.27 0 .53-.1.73-.27.59-.51 1.48-1.24 2.36-1.84 2.34-1.59 4.73-2.4 7.09-2.4 1.3 0 2.62.25 3.91.74.34.13.66.29.98.45.39.19.77.38 1.17.54.22.08.46.16.68.21q.135.03.27.03c.29 0 .57-.11.78-.32.28-.27.4-.66.32-1.04a9 9 0 0 0-.2-.77c-.32-.92-.75-1.74-.92-2.05-.86-1.58-1.68-3.03-2.43-4.35-1.59-2.82-2.85-5.04-3.37-6.54-.41-1.19-.41-2.18 0-2.78.5-.73 1.06-1.17 1.72-1.34.2-.05.4-.08.61-.08.66 0 1.38.28 2.08.8 1.44 1.08 2.92 3.42 3.5 4.51 2.76 5.14 2.92 5.4 5.65 9.78l.46.73c.05.08.11.16.18.22.39.36 1.56 1.47 3.71 2.12.75.23 2.86.86 7.96 5.61 1.95 1.82 3.05 3.25 3.94 4.4l.22.29c1.21 1.57 2.16 2.56 5.06 3.18 6.55 1.4 9.08 2.43 12.29 3.72 2.29.93 4.89 1.98 9.44 3.4 6.95 2.16 10.18 3.42 15.54 5.51 5.09 1.98 12.05 4.69 25.85 9.57 15.48 5.87 18.37 7.11 19.93 7.78 3.1 1.43 5.87 2.52 8.32 3.47 2.73 1.07 5.08 1.99 6.89 3.01 1.99 1.12 3.31 2.31 4.14 3.76.91 1.59 1.25 3.56 1.03 5.99-.19 2.1-.73 3.15-1.22 3.97-.1.16-.2.32-.3.47-.58.9-1.24 1.91-1.36 4.16-.29 5.23-.31 8.33-.06 10.06.04.3.12.62.17.8.09.32.32.59.62.73.36.16 1.1.41 2.34.83 6.36 2.13 25.72 8.61 37.61 19.59 5.3 4.9 8.6 10.16 9.81 15.64 1.42 6.47-.05 13.32-4.38 20.37-5.99 9.75-19.94 19.94-35.52 25.96-3.99 1.37-8.22 3.09-8.39 3.16-.3.11-.54.21-.83.34-1.23.54-3.3 1.44-14.35 4.1l-2.14.59c-7.78 2.15-8.42 2.33-17.7 3.97-20.12 3.7-40.82 5.57-61.54 5.57ZM53.5 103.45c-.48 0-.95.14-1.44.28l-.15.04c-1.24.36-2.66.96-4.29 1.66-1.11.47-2.37 1.01-3.7 1.52q-.105.045-.42.15c-11.36 3.99-21.15 9.38-27.58 15.17-8.44 7.6-11.05 15.78-7.75 24.29.68 1.76 5.75 9.6 18.14 15.79 8.37 4.18 10.44 4.98 15.97 7.13 1.69.66 3.71 1.44 6.34 2.49 12.01 3.61 14.77 4.32 16.1 4.67.34.09.57.15.84.23 14.47 3.23 15 3.3 28.61 5.13l1.68.23c18.56 2.5 33.43 3.61 48.21 3.61 18.71 0 38.07-1.79 62.77-5.79 9.13-1.48 19.86-4.08 30.22-7.32 7.31-2.28 25.37-8.54 36.23-17.69 6.88-5.79 8.43-11.44 8.74-14.29.78-7.22-3.04-12.54-5.39-15.07l-.07-.07c-5.95-6.04-7.04-6.93-19.47-13.36-4.74-2.45-15.12-6.43-18.58-7.28q-.135-.03-.27-.03c-.45 0-.87.27-1.04.7-.04.1-.08.2-.1.3-.21.68-.36 1.58-.43 2.64-.12 1.87.02 3.96.37 5.61.21.96.4 1.62.76 2.13.12.17.28.3.46.38l.74.33c.81.37 3.29 1.48 9.74 5.7 1.74 1.14 8.44 7.46 9.11 13.74.43 4.06-1 8.1-4.25 12.02-3.09 3.72-7.77 7.27-13.91 10.55-18.76 10.01-49.74 16.6-82.87 17.61h-.39c-3.66.12-8.66.28-14.74.28-19.48 0-37.88-1.64-54.69-4.88-15.7-3.03-28.6-8.25-34.88-11.1-2.2-1-9.74-4.68-15.15-10.61-3.47-3.8-5.3-7.7-5.46-11.61-.21-5.11 2.46-10.13 7.93-14.91.05-.04 7.99-6.14 12.56-7.64 1.68-.56 2.75-.96 3.36-1.9.43-.66.45-1.37.46-2.07.01-.55 0-1.15-.02-1.83-.02-.62-.04-1.32-.04-2.1 0-1.53-.13-2.58-.41-3.38-.13-.37-.32-.95-.93-1.23a2.1 2.1 0 0 0-.91-.19Zm1.23 18.6c-.14 0-.34.03-.49.06-.4.09-.86.26-1.43.54-9.21 4.49-13.95 9.21-14.49 14.41-.5 4.78 2.77 9.56 9.7 14.21 17.59 11.82 54.42 19.45 93.82 19.45 11.4 0 23.01-.61 34.5-1.82 20.4-2.14 20.76-2.24 39.71-7.44l1.28-.35c10.16-2.79 23.75-7.82 30.84-15.96 2.2-2.52 3.22-5.09 3.04-7.64-.16-2.15-1.13-4.26-2.96-6.45-2.84-3.39-6.93-5.94-9.75-7.57a1.12 1.12 0 0 0-1.06-.03c-.19.09-.43.21-.59.28-.37.17-.62.53-.65.94-.03.38-.07 1.1-.06 1.77.02 1.16.09 2.61.17 4.22.15 3.11.33 6.64.21 9.95-.12 3.36-.53 5.96-1.22 7.72-.59 1.5-1.46 2.54-2.52 3-1.71.75-3.38 1.14-7.76 1.16h-.34c-3.2 0-7.91-.17-15.05-.44-14.38-.53-38.45-1.42-81.15-2.08-13.48-.21-26.4-.74-36.78-1.17-8.88-.37-15.89-.66-20.67-.66-1.4 0-2.53.02-3.46.08-.59.03-1.15.05-1.69.05-3.99 0-6.82-.87-8.41-2.6-1.46-1.58-2.04-3.98-1.84-7.55.07-1.19.21-2.46.37-3.8.33-2.82.67-5.74.36-8.64l-.02-.22c-.06-.59-.12-1.2-.23-1.77-.04-.24-.14-.55-.28-.93-.17-.44-.59-.73-1.05-.73h-.05Zm146.82 23.16c.18.14.4.22.64.24h.25c6.59.07 11.69.26 15.42.39 2.65.1 4.74.18 6.4.18.48 0 .92 0 1.34-.02.93-.03 1.6-.1 2.16-.22.5-.11 1.06-.22 1.46-.75.43-.56.47-1.21.5-1.85V143c.43-6.75.47-10.94.11-13.17-.08-.47-.23-.93-.29-1.11-.12-.34-.39-.61-.73-.71-.84-.27-2.88-.42-8.43-.64-6.23-.24-15.11-.43-24.52-.63-18.25-.38-38.93-.82-45.78-1.8-3.78-.54-5.91-.92-7.79-1.26-2.47-.44-4.6-.83-9.55-1.42-2.19-.26-3.48-.35-5.12-.35-.99 0-2.11.03-3.65.08-1.95.06-4.59.14-8.53.19-4.92-.34-7.22-.91-9.64-1.51-2.39-.59-4.87-1.2-9.84-1.56h-.15c-4.78.28-8.36.42-11.24.54-2.68.11-4.62.18-6.01.32l-.19.02c-.96.1-1.65.17-2.22.58-.24.17-.45.54-.5.83-.03.08-.08.28-.12.49-.91 4.7-1.28 11.99-.85 16.6.08.88.29 1.85.41 2.34.11.47.5.81.97.86.93.1 2.83.29 5 .4 6.44.32 17.54.59 30.41.9 16.04.39 36.01.86 53.97 1.63.41-.01 1.63-.06 4.3-.06 4.9 0 14.29.14 31.16.83h.05c.22 0 .44-.07.61-.18ZM84.88 28.08c-.77 0-1.59.07-2.35.58-1.09.73-1.84 2.03-2.86 3.92-2.57 4.79-4.43 4.95-5.93 5.07-.24.02-.47.02-.72.03-.76.02-1.71.04-2.78.45-1.05.4-1.78.86-2.29 1.43-.7.78-.84 1.67-.93 2.43-.04.35-.06.71-.08 1.07-.02.34-.04.69-.08 1.04-.18 1.72-.61 3.7-3.45 5.54-1.09.7-1.98 1.17-2.76 1.58l-.56.29c-.67.35-1.3.68-1.8 1.36-.57.77-.86 1.8-1.12 3.21-.68 3.6.74 5.39 1.89 6.83l.13.17c1.59 2 2.97 3.73 1.67 8.03-2.16 7.14-1.42 10.81-.57 15.06.59 2.96 1.26 6.32 1.18 11.21-.04 2.3.2 3.87.43 5.39.4 2.58.81 5.24-.04 12.07-.32 2.6.1 4.77.55 7.07q.12.615.24 1.26c.52 2.85 1.01 6.29.19 11.11-.07.41-.17.87-.28 1.34-.18.8-.39 1.71-.48 2.6-.08.85-.2 2.08.8 2.91.68.56 1.6.81 3 .81q.6 0 1.35-.06c.57-.05 1.02-.52 1.04-1.09 0-.33.01-.81 0-1.25l-.04-.8c-.13-2.45-.35-6.55.3-13.19.18-1.8.34-3.08.48-4.14.35-2.72.53-4.09.17-8.76-.28-3.67.14-5.6.55-7.47l.09-.42c.41-1.88.69-3.72.03-7.36-2.42-13.34-.34-19.46 1.83-22.25 1.62-2.08 3.41-2.64 4.26-2.9 4.75-1.47 8.93-2.19 12.79-2.19 5 0 8.51 1.22 11.67 2.48.35.14.68.28 1.01.41 1.64.67 3.19 1.31 4.85 1.31.74 0 1.45-.12 2.16-.37.19-.07.46-.18.8-.31 1.86-.75 5.73-2.32 10.33-2.32 5.88 0 10.86 2.59 14.82 7.7.49.64.97 1.4 1.48 2.2.45.72.92 1.46 1.42 2.13.29.39.67.88 1.13 1.27.29.25.69.6 1.31.6.06 0 .17 0 .23-.02.58-.09 1.03-.44 1.43-.79.62-.55 1.27-1.37 1.97-2.48 2.44-3.87 4.99-5.98 7.79-6.46.4-.07.82-.1 1.24-.1 1.82 0 3.83.64 6.32 2.02.88.49 1.76 1.03 2.66 1.58 1.5.92 3.04 1.88 4.66 2.63 1.95.91 3.61 1.34 5.23 1.34.81 0 1.61-.11 2.39-.33.67-.19 1.9-.77 3.77-1.64 3.31-1.55 8.32-3.89 13.54-5.58 2.83-.91 5.46-1.55 7.83-1.88.58-.08 1-.59.97-1.18s-.51-1.05-1.09-1.06l-1.2-.04c-21.86-.66-67.34-2.02-93.06-5.03-3.71-.43-7.63-.58-11.42-.73-5.13-.19-9.98-.38-13.75-1.23-3.82-.86-6.34-2.42-7.5-4.63-1.33-2.55-.97-6.15 1.08-10.71.05-.11 5.17-11.16 20.26-16.3 2.42-.83 4.61-1.87 6.37-3.01 1.27-.83 3.05-2.14 3.86-3.96.13-.29.13-.62 0-.91a1.1 1.1 0 0 0-.68-.61c-.37-.12-.67-.19-.93-.22-.25-.03-.52-.04-.79-.04-1.41 0-2.76.37-3.6.99-.43.31-.75.68-1.07 1.04l-.27.31c-1.21 1.31-2.44 2.39-5.31 2.39-.43 0-.9-.03-1.39-.08l-.91-.1c-1.36-.15-2.43-.26-3.36-.26h-.07Zm43.52 87.57c3.83 0 7.23.35 11.04 1.13 11.95 2.46 13.65 2.5 57.14 3.68 6.72.18 14.44.39 23.35.64.17 0 .45.02.82.04 1.02.05 2.73.13 4.41.13 1.09 0 2.03-.04 2.81-.1.49-.04 1.05-.15 1.43-.24.4-.09.73-.39.84-.79.05-.17.1-.38.13-.55.09-.57.13-1.27.13-2.12-.01-1.96-.28-4.17-.52-5.41-.1-.53-.57-.91-1.11-.91h-.61c-1.95 0-7.93-.02-21.39-.21-5.98-.08-10.54-.12-14.35-.15-12.16-.09-16.71-.13-35.79-1.57-7.94-.6-12.54-.68-16.33-.68-1.15 0-2.24 0-3.33.02-1.09 0-2.18.02-3.32.02-3.56 0-8.27-.08-16.13-.67-3.32-.25-5.7-.35-7.61-.43-4.56-.2-6.85-.3-14.54-2.05-4.98-1.13-10.41-1.71-14.77-2.17-.81-.09-1.6-.17-2.34-.25h-.13c-.51 0-.96.35-1.09.85-.46 1.83-1.05 4.44-1.24 6.52-.07.78 0 1.79.02 1.99.02.27.14.52.33.71.56.56 1.3.62 1.75.66.22.02.46.03.71.03.9 0 1.92-.12 3.26-.28l.69-.09c2.5-.31 5.62-.69 9.45-.69 4.8 0 9.61.6 14.7 1.83 4.03.98 7.64 1.41 11.7 1.41 1.5 0 2.94-.06 4.4-.12l.4-.02c1.65-.07 3.35-.14 5.11-.14Zm-27.87-15.47c6.42 1.54 26.6 1.82 39.95 2.01 5.76.08 10.31.15 12.07.28 24.5 1.88 32.99 2.19 46.06 2.19 3.15 0 6.55-.02 10.48-.04 5.24-.03 11.42-.06 19.2-.07h.86c.41 0 .78-.22.98-.57.06-.1.12-.21.17-.31 1.23-2.52 1.17-3.52.94-5.23-.1-.74-.24-1.76-.29-3.18-.22-7.07.2-9.54.25-9.79.05-.26 0-.53-.13-.77-.24-.42-.62-.61-.85-.73l-.1-.05c-.65-.35-1.48-.63-2.62-.86-2.16-.44-4.63-.53-6.31-.53-.61 0-1.05.01-1.24.02-.37 0-.72.01-1.05.01-4.83 0-7.89-.98-10.62-1.98l-.58-.21c-2.01-.75-3.91-1.45-6.42-1.45-2.11 0-4.4.49-7.2 1.54l-4.4 2.05-.61.21c-1.74.59-1.93.65-3.95 1.62-7.4 3.56-11.38 4.89-14.67 4.89-.33 0-.66-.01-.98-.04-3.44-.29-6.61-2.07-12.37-5.32l-.97-.55c-1.37-.77-2.41-1.12-3.35-1.12-.32 0-.64.04-.94.13-.89.26-1.51.85-2 1.4-.59.67-1.12 1.47-1.62 2.23l-.22.34c-1.53 2.3-3.27 4.61-6.26 5.28-.79.18-1.55.27-2.25.27-3.39 0-5.46-2.04-7.71-5.32-.29-.42-.57-.85-.86-1.29-.78-1.18-1.58-2.41-2.53-3.52-.89-1.05-2.32-2.53-4.49-3.24-1.89-.62-3.42-.9-4.81-.9-1.79 0-3.18.47-4.79 1.01l-.19.06c-2.02.68-4.79 1.61-9.49 2.07h-.03c-.15 0-.24-.02-.32-.06-.34-.15-.65-.22-.98-.22h-.21c-.24-.02-.5-.07-.9-.24l-.27-.16-.12-.11-.16-.24c-.15-.22-.37-.39-.62-.46l-.16-.05c-.37-.11-1.13-.32-2.95-.91l-.27-.11c-1.47-.64-4.22-1.83-8.32-1.85h-.08c-3.16 0-7.32.85-9.84 1.65-.73.23-1.54.59-1.86.73-.11.05-.21.12-.3.2-.74.68-1.04 1.69-1.25 2.67-.26 1.19-.37 2.63-.35 4.41.05 3.69.71 7.7 1.1 9.77.09.5.52.88 1.03.91 10.72.76 13.12 1.29 15.65 1.85.76.17 1.53.34 2.52.52l4.55 1.08s.04.01.06.02Zm106.66-28.69c-.55 0-1.03.41-1.11.96-.09.57.27 1.11.82 1.26 1.49.4 2.22.67 3 .95.81.3 1.65.6 3.36 1.06 2.12.56 4.49.64 6.99.72l1.19.04c2.92.11 6.31.31 9.54 1.35l1.58.51c.11.04.23.05.34.05.41 0 .8-.22 1-.6.08-.15.17-.33.24-.5.16-.38.07-.74.04-.88-.01-.12-.04-.29-.07-.45l-.05-.33c-.02-.12-.03-.24-.04-.36-.03-.43-.31-.8-.7-.96-5.01-2.02-7.85-2.42-11.06-2.42-.53 0-1.06 0-1.61.02l-.75.02c-1 .03-2.07.06-3.29.06-2.5 0-4.92-.13-7.62-.4-.26-.03-.85-.06-1.73-.09h-.04ZM95.53 38.05c-.14 0-.28.03-.41.08-2.7 1.05-6.86 3.23-10.43 6.16-3.8 3.13-6.14 6.43-6.94 9.82-.22.9-.14 1.68.23 2.34.45.79 1.3 1.31 2.61 1.56 1.04.2 45.41 3.76 45.75 3.78 31.09 1.41 42.72 2.07 48.32 2.39 3.37.19 4.39.25 6.06.26 11.23.09 16.92.79 21.08 1.3 2.8.34 5.02.61 7.88.61h.89c.55-.01 1.01-.42 1.09-.96s-.24-1.07-.76-1.24q-1.125-.375-2.58-.84c-5.27-1.72-14.08-4.6-25.59-9.03q-2.86-1.21-20.88-7.76l-3.02-1.1c-1.04-.42-2.2-.88-3.43-1.34a1.136 1.136 0 0 0-1.36.47c-.28.46-.19 1.06.21 1.43.33.3.61.64.81 1l.17.45.09.67c0 .1-.02.5-.03.67 0 .16.02.37.08.52.07.18.07.37 0 .55-.08.19-.25.34-.45.4-.58.17-.83.54-.92.68-.06.07-.16.18-.28.28-.21.18-.51.4-1.12.57-.19.06-.3.1-.48.1-.29 0-.81-.09-1.6-.51l-.47-.33-.37-.41a3 3 0 0 1-.39-.81c-.22-.75-.2-1.79.05-2.72.15-.54.37-1.05.62-1.4l.49-.47.44-.19.42-.02.37.11c.17.09.36.14.55.14.11 0 .21-.01.31-.05.47-.14.81-.56.83-1.04.02-.49-.26-.93-.72-1.1l-.15-.06c-4.72-1.73-11.48-4.04-14.98-4.89q-.135-.03-.27-.03a1.12 1.12 0 0 0-1.13 1.13c0 .75 0 1.69-.01 2.53-.02 2.56-.32 4.48-.88 5.71-2.13 4.69-5.9 7.06-11.19 7.07-1.36 0-2.75-.16-4.13-.49-.09-.02-.19-.03-.29-.03-.08 0-.15 0-.22.02-.69.14-1.2.5-1.69.85-.16.11-.32.23-.5.34-1.33.83-3 1.72-5.96 1.72-.76 0-1.59-.06-2.46-.18-4.25-.57-7.47-2.09-9.57-4.53-2.53-2.93-3.39-7.25-2.58-12.87.06-.4-.1-.79-.41-1.04-.2-.16-.45-.24-.7-.24Zm13.83-9.66c-.33.03-.65.19-.84.46-.29.42-.71 1.03-1.08 1.56-.43.6-.87 1.16-1.3 1.7-.41.51-.81 1.02-1.17 1.53-.59.82-1.22 1.84-1.43 3.16-.6 3.67-.73 6.6-.38 8.69.27 1.68.87 2.77 1.81 3.34 2.32 1.41 4.08 2.07 5.56 2.07.34 0 .68-.04.99-.11 1.22-.28 2.03-1.04 2.46-1.45.21-.2.34-.47.35-.76.1-2.13.18-6.33-.42-10.56-.66-4.59-1.81-7.54-3.61-9.29-.21-.21-.52-.34-.82-.34h-.1Zm14.19.71c-.11 0-.23.02-.34.05-.37.12-.65.41-.75.79-.12.47-.3.86-.54 1.33-.82 1.6-1.82 3.58-1.09 13.69.09 1.28.78 2.94 2.43 3.36.26.07.53.1.81.1 1.14 0 2.41-.54 4.01-1.7 1.29-.94 1.59-2.77 1.71-4.27.27-3.33-.7-7.14-2.48-9.69-.96-1.38-1.98-2.53-3.04-3.41-.21-.17-.46-.26-.72-.26Zm78.08 114.27a.7.7 0 0 0-.24-.14.7.7 0 0 1-.26-.19c-1.2-1.4-1.82-1.85-2.28-2.07l-.3-.29c-.23-.35-.74-1.25-.53-2.27.19-.94.85-1.72 2.01-2.38.1-.05.62-.2 1.3-.2.28 0 .56.03.82.07 1.08.2 1.94.78 2.3 1.54.29.62.65 2.41-2.26 5.61-.08.09-.18.15-.3.19-.09.03-.18.07-.26.12Zm-31.43-8.43c-.6 0-1.44-.15-2.05-.85-.12-.14-.38-.69-.55-1.18-.04-.11-.09-.21-.17-.31a.68.68 0 0 1-.06-.75c.11-.2.15-.42.13-.64a2.4 2.4 0 0 1-.01-.45l.16-.48.26-.39.2-.19.45-.23c.29-.09.7-.16 1.21-.19.46-.03.86-.05 1.22-.05.4 0 .72.02.96.07l.71.26.25.17.32.33c.3.38.47 1.2.45 2.34-.01.58-.54 1.46-1.51 2.01-.6.34-1.31.53-1.98.53Zm-42.22-2.18c-.55 0-1.12-.17-1.68-.51-.83-.5-1.3-1.1-1.38-1.79-.1-.68-.01-1.03.08-1.29.05-.15.11-.27.17-.38.05-.05.31-.42.23-1.01-.03-.21.04-.42.18-.58.13-.14.32-.22.51-.22.15 0 .39-.03.53-.08l.79-.32c.47-.19.87-.29 1.22-.29h.16c.7.06 1.24.31 1.67.77.53.57.78 1.43.68 2.36-.16 1.6-1.33 3.06-2.65 3.3-.17.03-.34.05-.51.05Zm-46.19-1.51c-1 0-1.77-.34-2.29-1.02-.82-1.07-.64-3.15.38-4.36.39-.47 1.05-1.02 1.93-1.02.4 0 .82.12 1.25.35 1.35.73 1.93 2.28 1.99 2.46l.08.33v.34l-.16.51c-.01.02-.03.04-.04.06-.12.18-.19.38-.2.59 0 .11-.03.21-.08.3a.64.64 0 0 1-.27.27c-.12.07-.23.16-.31.27-.24.29-.4.46-.48.53l-.55.24c-.45.1-.87.15-1.25.15m15.69-2.8c-1.61 0-3.29-.95-3.38-2.53l.07-.56.28-.66c.15-.24.4-.6.49-.73.12-.16.19-.35.21-.55.02-.17.1-.33.22-.45.13-.12.3-.19.48-.19.58.05 1.06.07 1.5.07.27 0 1.13-.02 1.3-.02.21 0 .4 0 .56.03l.35.09.35.16.51.44c.32.44.48 1.15.46 2.11-.04 1.91-1.72 2.77-3.37 2.77h-.02Zm84.03-27.66c-1.18 0-2.14-.52-2.57-1.39-.17-.34-.52-1.24-.24-2.24.24-.85.83-1.54 1.8-2.11l.43-.17.57-.06c.18 0 .45.04.59.06h.14q.18 0 .36-.06c.07-.02.15-.04.23-.04.18 0 .34.06.47.18.08.07.17.13.26.18.45.23.88.51.98.61.79.84 1.04 1.69.79 2.59-.29 1-1.4 1.95-2.71 2.29-.36.1-.73.14-1.1.14Zm41.28-3.37c-.71 0-1.41-.26-1.91-.73-.15-.14-.27-.29-.39-.44-.19-.23-.38-.46-.61-.67-.2-.18-.28-.47-.2-.72.05-.16.06-.34.04-.51-.02-.13-.06-.37-.07-.54l.05-.57.17-.43c.86-1.46 2.29-1.68 3.07-1.68.44 0 .88.07 1.26.2.15.05.28.11.41.18l.44.32.27.34.15.35c.53 2.02.04 3.21-.48 3.86-.53.66-1.33 1.04-2.19 1.04Zm-17.69-1.5c-.16 0-.33 0-.5-.03-.13-.02-.6-.24-1.15-.63-.1-.07-.21-.12-.33-.16a.7.7 0 0 1-.49-.53c-.03-.12-.07-.23-.13-.33-.38-.64-.54-1.09-.56-1.21-.02-.32-.12-3.19 2.49-3.5.19-.02.37-.03.55-.03 1.11 0 1.98.43 2.58 1.27.99 1.39.71 3.55-.6 4.55-.53.4-1.16.6-1.87.6Zm-89.69-4.14c-.15 0-.3-.05-.42-.14a1.1 1.1 0 0 0-.37-.18c-.66-.19-1.26-.46-1.4-.59-.84-.81-1.05-2.16-.53-3.44.49-1.2 1.58-2.08 2.65-2.14h.18c1.79 0 2.97 1.46 3.21 2.91.19 1.14-.16 2.21-.95 2.85-.16.13-.82.34-1.59.47-.14.02-.28.08-.41.15-.11.07-.24.1-.37.1Zm-30.15-1.94c-1 0-1.92-.38-2.49-1.02-.53-.61-.74-1.41-.62-2.41.02-.13.24-.57.64-1.14.07-.1.12-.21.16-.32.07-.24.27-.42.51-.48.11-.03.22-.07.32-.13.57-.34 1.01-.51 1.15-.53.05 0 .2-.02.4-.02.33 0 .82.03 1.29.17 1.16.35 1.76 1.07 1.89 2.25.1.89-.07 1.66-.52 2.31-.56.82-1.59 1.3-2.74 1.3Zm91.92-29c-.49 0-.99-.08-1.43-.22-1.31-.42-2.13-1.32-2.21-2.39-.13-1.8 1.26-2.54 1.86-2.78.4-.16.85-.24 1.3-.24.71 0 1.38.21 1.85.57l.37.37c.1.13.19.28.27.43.14.26.37.77.41.86.06.14.16.27.27.37.16.15.25.36.24.57-.01.19-.11.37-.26.49q-.195.165-.3.39c-.06.12-.2.42-.3.6l-.35.45-.34.27c-.24.13-.76.25-1.4.25Z" data-name="Capa 1" style="fill-rule:evenodd"/></svg>