<svg xmlns="http://www.w3.org/2000/svg" width="125" height="115" fill="none" viewBox="0 0 125 115"><mask id="path-1-outside-1_439_4" width="129.417" height="117.226" x="-2.117" y="-2.155" fill="#000" maskUnits="userSpaceOnUse"><path fill="#fff" d="M-2.117-2.155H127.3v117.226H-2.117z"/><path d="M107.99 18.968C93.156 11.255 73.994 6.025 57.301 4.618c-3.725-.314-8.4-.732-12.06-.068-8.034 1.457-11.288 11.787-6.552 18.055-.824 2.61-2.534 5.62-2.714 8.362-.043.652.15 1.35.103 2.023-.151 2.193-1.533 2.52-2.491 4.18-1.148 1.991-1.437 4.161-1.475 6.43l-6.05 16.113c-2.128 1.69-3.684 3.879-3.797 6.7-.061 1.542.383 3.06.38 4.586-1.695 1.356-2.91 3.191-3.813 5.14-1.453 3.136-2.526 6.876-3.838 10.142-2.645 6.582-6.308 13.966-8.44 20.576-.412 1.275-.652 2.094-.006 3.354.814 1.581 2.826 2.393 4.45 1.529 6.984-4.279 14.063-8.431 20.988-12.802.649-.41 4.903-3.05 4.98-3.338.103-.381-.014-2.484-.424-2.494-8.208 4.402-15.871 9.788-23.934 14.45-.488.282-2.389 1.529-2.79 1.273l-.241-.659c4.7-3.457 10.332-5.785 15.217-9.001 3.61-2.378 5.764-6.105 10.124-7.307 4.72-1.3 3.043 1.901 3.627 5.086.715 3.896 5.206 3.548 5.691.615.122-.737.107-2.152.122-2.984.02-.98-.508-2.624.21-3.292l7.627-4.87c1.208 2.332 3.832 3.298 6.114 1.714 2.272-1.576 1.418-3.724 1.756-5.987 14.708-8.983 29.252-18.275 43.546-27.892 6.99-4.704 13.966-8.475 16.001-17.392 2.321-10.167-3.791-13.824-11.623-17.896zM44.629 8.07c4.758-1.879 17.553.039 22.922.951 15.713 2.669 31.795 8.067 45.297 16.478-.9.607-1.954.908-2.851 1.54-2.964 2.085-4.458 5.704-5.25 9.089-1.647-2.656-.192-6.105 1.658-8.292-2.336 1.035-3.709 3.52-3.964 5.971-.357.069-.221-.451-.246-.698-.224-2.17.084-3.782 1.344-5.579.645-.92 1.299-1.373 2.103-2.106-1.545.299-2.918 1.127-3.983 2.243l-1.683 2.807c.208-2.052.549-4.754 2.525-5.888.031-.362-.476-.172-.679-.114-2.528.722-4.238 3.357-4.012 5.93-1.037-1.377-.805-3.85-.198-5.389.337-.856 1.02-1.418 1.276-2.255-1.913 1.361-3.496 3.475-3.347 5.936-.28.009-.434-.936-.456-1.126-.187-1.697.33-3.764 1.317-5.167l1.53-1.838c-2.164.719-3.79 2.153-4.792 4.18-.315-1.425.573-2.747 1.314-3.865l1.352-1.415c-2.352.505-4.005 1.932-4.785 4.185l-.704 3.724c-1.032-2.298-.709-4.886.605-6.997-.237-.21-1.03.803-1.171.994-.97 1.325-1.667 3.254-1.358 4.89-.31-.039-.588-.9-.635-1.135-.617-3.048.533-5.422 2.798-7.39-2.204.432-4.44 2.003-4.679 4.378-.388.041-.412.12-.433-.286-.046-.87.251-2.145.617-2.937-.066-.381 1.246-1.352.97-1.558-.235-.177-1.62.933-1.85 1.169-.213.22-1.213 1.963-1.475 1.693-.124-1.234.08-2.336.826-3.326-1.376.426-1.858 1.854-2.71 2.825-.168-1.293-.223-2.475.82-3.43-.336-.253-1.149.773-1.371 1.11-.289.433-.41.92-.64 1.376-.14.277.066.51-.484.433-.112-1.435.057-2.703 1.218-3.658-.55-.113-1.523.934-1.854 1.458-.155.248-.83 1.824-.82 1.98l.221 3.674c.007.113.55.682.046.712-1.396-2.14-1.924-4.943-.857-7.318-.434-.068-.846.893-.966 1.177-.748 1.764-.78 3.663-.077 5.439-2.446-2.08-2.374-6.018-.6-8.548l1.24-1.32c-3.094.416-4.674 3.353-4.772 6.224l-.53-1.707c-.08-.89.232-1.716.401-2.56.07-.342.161-.67-.246-.217-1.383 1.536-1.322 4.142-.77 5.99-.352-.037-.389-.377-.505-.63-.778-1.696-.68-3.95-.083-5.685-1.65 1.66-1.655 4.289-1.053 6.414-2.43-2.65-1.803-7.03.883-9.27-2.8.592-4.735 3.18-4.58 6.011-1.351-1.362-.852-3.976.296-5.342-1.532.67-2.086 2.273-3.083 3.462-.57-1.256-.11-2.644.597-3.72-.498-.405-2.605 3.086-2.878 3.448-.056-1.192-.382-2.375.408-3.406-.62-.173-1.305 1.128-1.578 1.701-.527 1.112-.493 1.575-.631 2.732-.04.34.153.345-.381.332-1.042-2.345-.595-4.886 1.026-6.82-1.091.237-2.234 1.113-2.868 2.012-.297.423-1.185 2.462-1.162 2.84.068 1.124.065 2.371.21 3.469.018.136.476.518.145.708-1.836-1.841-1.72-4.492-1.344-6.881l-.958 1.762-.295 1.384-.32-1.926.315-1.556c-1.43 1.717-1.397 4.143-.86 6.195-.3-.024-.513-.677-.623-.93-1.21-2.79-.713-5.76 1.753-7.639-.564-.138-1.71.58-2.192.967-1.266 1.017-2.208 2.68-2.224 4.321-.966-.824-.436-2.618-.222-3.674-2.088 1.804-1.8 4.85-1.095 7.226.044.144.328.79-.08.529-2.08-2.33-2.313-5.487-.667-8.126.13-.21 1.193-.941.447-.77-.408.095-1.692 1.025-1.986 1.346-1.19 1.303-1.286 3.517-1.234 5.193l-.745-2.113.125-1.43-.416-.079c-.61 1.682-.798 3.19-.326 4.934-.297.02-.433-.599-.517-.831-.546-1.5-.716-3.013-.214-4.549l-.416-.08c-.385 1.273-1.039 2.507-.989 3.88.059 1.615 1.792 3.41-.598 3.785-2.354-3.921-.521-9.94 3.768-11.633zm14.246 21.48c3.948 3.524 3.529 8.877-.096 12.435-3.734 3.663-9.25 4.445-14.139 2.895l4.227-.04c5.852-.495 13.33-5.54 10.43-12.165-.507-1.16-1.587-2.411-2.802-2.846l.688 1.185c-.723-.23-4.41 1.842-4.392 2.214 1.523.842 3.65.933 4.911-.4.512.807.2 3.542-.898 3.54-.387-.002-.913-.37-1.373-.442-1.056-.168-2.064-.125-3.089.197.023.383 1.453 2.327 1.806 2.55.316.197.704.205 1.037.369.425.21.47 1 1.556-.012.165.723-1.31 1.695-1.972 2.126-4.717 3.057-12.516 2.72-14.872-3.045-3.826-9.355 11.824-14.943 18.978-8.561M31.327 54.31c1.468-1.982 4.062-2.995 6.487-3.075-.385-.918-1.104-1.614-1.544-2.514-1.067-2.192-1.555-5.354-.99-7.736.055-.235.756-2.366 1.178-1.953.999 4.251 4.428 7.567 8.382 9.222-2.097.526-4.242.158-5.943-1.172-.912-.716-1.3-1.57-2.091-2.336 1.744 6.85 8.506 7.937 14.514 5.935 7.738-2.578 16.753-8.668 13.844-18.056-2.883-9.297-16.17-11.509-23.606-6.397-1.273-1.873.795-3.833 2.636-4.24 3.192-.703 7.543-.804 10.738-.106 1.573.343 3.836 1.605 5.04 1.75 1.239.148 2.77-.213 4.055-.195 1.925.027 4.541.631 6.3 1.426 3.525 1.591 6.121 6.424 10.427 6.164l5.026-.305-6.789-2.293c-1.16-.524-1.875-1.291-2.743-2.15-.223-.222-.398-.363.077-.304 2.205.272 7.222 2.21 9.494 3.07 6.473 2.453 12.507 5.6 17.675 10.23l1.33 1.561c-3.035 1.157-3.375 4.586-6.044 6.075-1.108.618-2.332.804-3.373 1.664-1.369 1.13-1.945 3.012-3.164 4.167-1.571 1.49-3.348 1.532-5.12 2.443-2.547 1.305-4.117 4.357-6.164 6.353-5.112 4.986-12.188 6.93-18.992 4.318-.012-.194 2.57-2.956 2.98-1.719l-.812.154c4.253 2.334 9.014-.98 11.032-4.766.141-.592-1.174-.066-1.666-.3-.354-.17-.126-.347.1-.498.774-.518 2.665-1.618 3.502-1.937 2.118-.806 4.53-.905 6.717-1.428.37-.088.923-.1.74-.598-6.577-1.44-13.15-3.217-19.953-3.099l1.523-5.416c-.929.163-1.563.773-2.539.949-2.532.456-4.236-.18-6.733 1.214-4.914 2.743-5.84 8.285-3.699 13.165.79 1.802.742 2.463 1.28 4.23.416 1.372 1.308 2.508 1.892 3.79-2.502 3.94-4.288 6.753-9.495 6.71-2.781-.023-3.917-2.023-6.433-2.696l4.05-2.9c8.245-10.126-5.595-18.97-14.08-11.438-1.927.139.446-4.28.952-4.964zm26.126-1.8.644.469-2.92 2.737c.08-3.887 4.095-6.084 7.702-5.38-.306.93-.255 2.211-1.518 2.138l.335-1.247c-1.548-.023-2.906.639-4.245 1.283zm7.01 2.021c3.37-.302 6.915.148 10.24.622-.029.352-.258.3-.485.357-1.364.335-2.56-.258-3.942-.292-.934-.023-3.732.027-4.269.676-.39.327-.848 2.622-1.297 2.526-.765-.162.056-2.756-.072-2.863-2.45.065-5.138.42-6.753 2.45-.306.386-.307.88-.65 1.069.465-3.242 4.416-4.29 7.228-4.543zM35.66 75.556c.217-.005 1.283.051 1.379.303l-4.144 1.275c-.32-.314.716-1.807.61-1.876-1.99.241-3.986.8-4.866 2.763-.328.728-.243 1.454-.71 2.074-.646-.493-.191-1.387-.221-2.127-.01-.227.076-.576-.243-.501-.336.874-.928 1.566-1.268 2.457-.375.981-.22 2.209-1.295 2.817.338-7.172 7.626-9.839 13.758-7.383.04.368.126.42-.281.426-.718.011-1.416-.434-2.106-.474-.457-.028-1.524-.031-1.7.494.38-.007.712-.24 1.093-.249zm-5.408-10.603c.324-2.95 3.796-5.322 6.576-5.615 4.986-.525 9.048 3.8 6.07 8.453-3.355 5.248-13.419 4.204-12.646-2.838M74.91 69.92c-2.5 1.578-5.03 3.239-7.922 4.03-3.775 1.034-9.695.99-9.911 6.335-.049 1.206 1.05 6.237-1.364 5.677-1.528-.354-.761-3.567-3.09-4.387-3.454-1.215-8.412 2.535-10.05 5.44-.511.907-1.365 3.276-1.305 4.26l.203 3.367c-.232.348-.371.018-.428-.277-.142-.748-.038-1.588-.199-2.397-1.096-5.532-7.595-3.371-10.938-1.24-2.273 1.453-3.86 3.817-6.076 5.272-2.19 1.437-6.274 2.68-8.754 1.582-1.743-.771-.836-2.09-.157-3.446 1.232-2.45 3.286-4.4 6.034-5.023-2.327-6.301-.226-13.606 5.126-17.651-.79-2.859-1.907-7.423 1.722-8.767-.636 2.278-.985 4.476.163 6.682l2.07 3.011c-6.176 1.505-9.174 8.613-7.25 14.38 2.19-.563 4.564.162 6.79 0 1.69-.122 4.33-.839 5.836-1.622 3.539-1.845 5.563-6.818 9.89-7.139 1.877-.14 3.749.402 5.77.073 5.353-.868 6.342-6.418 10.47-8.94l3.952.591c-2.207 1.062-4.034 2.274-5.797 3.972-.17.164-.643.437-.02.37 2.847-1.057 5.873-1.164 8.791-2.107 3.878-1.25 7.429-3.442 11.053-5.23-1.439 1.16-3.046 2.194-4.611 3.18zm32.931-21.792L80.51 66.063c.694-.85 1.672-1.423 2.447-2.188 1.498-1.484 3.491-4.687 4.909-5.721 1.64-1.198 3.983-1.147 5.978-2.847 1.705-1.453 2.252-3.714 4.178-4.818 1.304-.747 2.387-.913 3.645-2.005 1.017-.88 2.848-3.978 3.468-4.284 2.386-1.184 3.301 2.259 2.708 3.931zm5.532-5.557c-.306.393-1.788 2.242-2.241 1.968-2.299-3.896-3.203-7.723-.898-11.883.886-1.598 4.425-5.483 5.873-2.75 1.938 3.658-.369 9.625-2.734 12.665"/></mask><path fill="#fffcfa" d="M107.99 18.968C93.156 11.255 73.994 6.025 57.301 4.618c-3.725-.314-8.4-.732-12.06-.068-8.034 1.457-11.288 11.787-6.552 18.055-.824 2.61-2.534 5.62-2.714 8.362-.043.652.15 1.35.103 2.023-.151 2.193-1.533 2.52-2.491 4.18-1.148 1.991-1.437 4.161-1.475 6.43l-6.05 16.113c-2.128 1.69-3.684 3.879-3.797 6.7-.061 1.542.383 3.06.38 4.586-1.695 1.356-2.91 3.191-3.813 5.14-1.453 3.136-2.526 6.876-3.838 10.142-2.645 6.582-6.308 13.966-8.44 20.576-.412 1.275-.652 2.094-.006 3.354.814 1.581 2.826 2.393 4.45 1.529 6.984-4.279 14.063-8.431 20.988-12.802.649-.41 4.903-3.05 4.98-3.338.103-.381-.014-2.484-.424-2.494-8.208 4.402-15.871 9.788-23.934 14.45-.488.282-2.389 1.529-2.79 1.273l-.241-.659c4.7-3.457 10.332-5.785 15.217-9.001 3.61-2.378 5.764-6.105 10.124-7.307 4.72-1.3 3.043 1.901 3.627 5.086.715 3.896 5.206 3.548 5.691.615.122-.737.107-2.152.122-2.984.02-.98-.508-2.624.21-3.292l7.627-4.87c1.208 2.332 3.832 3.298 6.114 1.714 2.272-1.576 1.418-3.724 1.756-5.987 14.708-8.983 29.252-18.275 43.546-27.892 6.99-4.704 13.966-8.475 16.001-17.392 2.321-10.167-3.791-13.824-11.623-17.896zM44.629 8.07c4.758-1.879 17.553.039 22.922.951 15.713 2.669 31.795 8.067 45.297 16.478-.9.607-1.954.908-2.851 1.54-2.964 2.085-4.458 5.704-5.25 9.089-1.647-2.656-.192-6.105 1.658-8.292-2.336 1.035-3.709 3.52-3.964 5.971-.357.069-.221-.451-.246-.698-.224-2.17.084-3.782 1.344-5.579.645-.92 1.299-1.373 2.103-2.106-1.545.299-2.918 1.127-3.983 2.243l-1.683 2.807c.208-2.052.549-4.754 2.525-5.888.031-.362-.476-.172-.679-.114-2.528.722-4.238 3.357-4.012 5.93-1.037-1.377-.805-3.85-.198-5.389.337-.856 1.02-1.418 1.276-2.255-1.913 1.361-3.496 3.475-3.347 5.936-.28.009-.434-.936-.456-1.126-.187-1.697.33-3.764 1.317-5.167l1.53-1.838c-2.164.719-3.79 2.153-4.792 4.18-.315-1.425.573-2.747 1.314-3.865l1.352-1.415c-2.352.505-4.005 1.932-4.785 4.185l-.704 3.724c-1.032-2.298-.709-4.886.605-6.997-.237-.21-1.03.803-1.171.994-.97 1.325-1.667 3.254-1.358 4.89-.31-.039-.588-.9-.635-1.135-.617-3.048.533-5.422 2.798-7.39-2.204.432-4.44 2.003-4.679 4.378-.388.041-.412.12-.433-.286-.046-.87.251-2.145.617-2.937-.066-.381 1.246-1.352.97-1.558-.235-.177-1.62.933-1.85 1.169-.213.22-1.213 1.963-1.475 1.693-.124-1.234.08-2.336.826-3.326-1.376.426-1.858 1.854-2.71 2.825-.168-1.293-.223-2.475.82-3.43-.336-.253-1.149.773-1.371 1.11-.289.433-.41.92-.64 1.376-.14.277.066.51-.484.433-.112-1.435.057-2.703 1.218-3.658-.55-.113-1.523.934-1.854 1.458-.155.248-.83 1.824-.82 1.98l.221 3.674c.007.113.55.682.046.712-1.396-2.14-1.924-4.943-.857-7.318-.434-.068-.846.893-.966 1.177-.748 1.764-.78 3.663-.077 5.439-2.446-2.08-2.374-6.018-.6-8.548l1.24-1.32c-3.094.416-4.674 3.353-4.772 6.224l-.53-1.707c-.08-.89.232-1.716.401-2.56.07-.342.161-.67-.246-.217-1.383 1.536-1.322 4.142-.77 5.99-.352-.037-.389-.377-.505-.63-.778-1.696-.68-3.95-.083-5.685-1.65 1.66-1.655 4.289-1.053 6.414-2.43-2.65-1.803-7.03.883-9.27-2.8.592-4.735 3.18-4.58 6.011-1.351-1.362-.852-3.976.296-5.342-1.532.67-2.086 2.273-3.083 3.462-.57-1.256-.11-2.644.597-3.72-.498-.405-2.605 3.086-2.878 3.448-.056-1.192-.382-2.375.408-3.406-.62-.173-1.305 1.128-1.578 1.701-.527 1.112-.493 1.575-.631 2.732-.04.34.153.345-.381.332-1.042-2.345-.595-4.886 1.026-6.82-1.091.237-2.234 1.113-2.868 2.012-.297.423-1.185 2.462-1.162 2.84.068 1.124.065 2.371.21 3.469.018.136.476.518.145.708-1.836-1.841-1.72-4.492-1.344-6.881l-.958 1.762-.295 1.384-.32-1.926.315-1.556c-1.43 1.717-1.397 4.143-.86 6.195-.3-.024-.513-.677-.623-.93-1.21-2.79-.713-5.76 1.753-7.639-.564-.138-1.71.58-2.192.967-1.266 1.017-2.208 2.68-2.224 4.321-.966-.824-.436-2.618-.222-3.674-2.088 1.804-1.8 4.85-1.095 7.226.044.144.328.79-.08.529-2.08-2.33-2.313-5.487-.667-8.126.13-.21 1.193-.941.447-.77-.408.095-1.692 1.025-1.986 1.346-1.19 1.303-1.286 3.517-1.234 5.193l-.745-2.113.125-1.43-.416-.079c-.61 1.682-.798 3.19-.326 4.934-.297.02-.433-.599-.517-.831-.546-1.5-.716-3.013-.214-4.549l-.416-.08c-.385 1.273-1.039 2.507-.989 3.88.059 1.615 1.792 3.41-.598 3.785-2.354-3.921-.521-9.94 3.768-11.633zm14.246 21.48c3.948 3.524 3.529 8.877-.096 12.435-3.734 3.663-9.25 4.445-14.139 2.895l4.227-.04c5.852-.495 13.33-5.54 10.43-12.165-.507-1.16-1.587-2.411-2.802-2.846l.688 1.185c-.723-.23-4.41 1.842-4.392 2.214 1.523.842 3.65.933 4.911-.4.512.807.2 3.542-.898 3.54-.387-.002-.913-.37-1.373-.442-1.056-.168-2.064-.125-3.089.197.023.383 1.453 2.327 1.806 2.55.316.197.704.205 1.037.369.425.21.47 1 1.556-.012.165.723-1.31 1.695-1.972 2.126-4.717 3.057-12.516 2.72-14.872-3.045-3.826-9.355 11.824-14.943 18.978-8.561M31.327 54.31c1.468-1.982 4.062-2.995 6.487-3.075-.385-.918-1.104-1.614-1.544-2.514-1.067-2.192-1.555-5.354-.99-7.736.055-.235.756-2.366 1.178-1.953.999 4.251 4.428 7.567 8.382 9.222-2.097.526-4.242.158-5.943-1.172-.912-.716-1.3-1.57-2.091-2.336 1.744 6.85 8.506 7.937 14.514 5.935 7.738-2.578 16.753-8.668 13.844-18.056-2.883-9.297-16.17-11.509-23.606-6.397-1.273-1.873.795-3.833 2.636-4.24 3.192-.703 7.543-.804 10.738-.106 1.573.343 3.836 1.605 5.04 1.75 1.239.148 2.77-.213 4.055-.195 1.925.027 4.541.631 6.3 1.426 3.525 1.591 6.121 6.424 10.427 6.164l5.026-.305-6.789-2.293c-1.16-.524-1.875-1.291-2.743-2.15-.223-.222-.398-.363.077-.304 2.205.272 7.222 2.21 9.494 3.07 6.473 2.453 12.507 5.6 17.675 10.23l1.33 1.561c-3.035 1.157-3.375 4.586-6.044 6.075-1.108.618-2.332.804-3.373 1.664-1.369 1.13-1.945 3.012-3.164 4.167-1.571 1.49-3.348 1.532-5.12 2.443-2.547 1.305-4.117 4.357-6.164 6.353-5.112 4.986-12.188 6.93-18.992 4.318-.012-.194 2.57-2.956 2.98-1.719l-.812.154c4.253 2.334 9.014-.98 11.032-4.766.141-.592-1.174-.066-1.666-.3-.354-.17-.126-.347.1-.498.774-.518 2.665-1.618 3.502-1.937 2.118-.806 4.53-.905 6.717-1.428.37-.088.923-.1.74-.598-6.577-1.44-13.15-3.217-19.953-3.099l1.523-5.416c-.929.163-1.563.773-2.539.949-2.532.456-4.236-.18-6.733 1.214-4.914 2.743-5.84 8.285-3.699 13.165.79 1.802.742 2.463 1.28 4.23.416 1.372 1.308 2.508 1.892 3.79-2.502 3.94-4.288 6.753-9.495 6.71-2.781-.023-3.917-2.023-6.433-2.696l4.05-2.9c8.245-10.126-5.595-18.97-14.08-11.438-1.927.139.446-4.28.952-4.964zm26.126-1.8.644.469-2.92 2.737c.08-3.887 4.095-6.084 7.702-5.38-.306.93-.255 2.211-1.518 2.138l.335-1.247c-1.548-.023-2.906.639-4.245 1.283zm7.01 2.021c3.37-.302 6.915.148 10.24.622-.029.352-.258.3-.485.357-1.364.335-2.56-.258-3.942-.292-.934-.023-3.732.027-4.269.676-.39.327-.848 2.622-1.297 2.526-.765-.162.056-2.756-.072-2.863-2.45.065-5.138.42-6.753 2.45-.306.386-.307.88-.65 1.069.465-3.242 4.416-4.29 7.228-4.543zM35.66 75.556c.217-.005 1.283.051 1.379.303l-4.144 1.275c-.32-.314.716-1.807.61-1.876-1.99.241-3.986.8-4.866 2.763-.328.728-.243 1.454-.71 2.074-.646-.493-.191-1.387-.221-2.127-.01-.227.076-.576-.243-.501-.336.874-.928 1.566-1.268 2.457-.375.981-.22 2.209-1.295 2.817.338-7.172 7.626-9.839 13.758-7.383.04.368.126.42-.281.426-.718.011-1.416-.434-2.106-.474-.457-.028-1.524-.031-1.7.494.38-.007.712-.24 1.093-.249zm-5.408-10.603c.324-2.95 3.796-5.322 6.576-5.615 4.986-.525 9.048 3.8 6.07 8.453-3.355 5.248-13.419 4.204-12.646-2.838M74.91 69.92c-2.5 1.578-5.03 3.239-7.922 4.03-3.775 1.034-9.695.99-9.911 6.335-.049 1.206 1.05 6.237-1.364 5.677-1.528-.354-.761-3.567-3.09-4.387-3.454-1.215-8.412 2.535-10.05 5.44-.511.907-1.365 3.276-1.305 4.26l.203 3.367c-.232.348-.371.018-.428-.277-.142-.748-.038-1.588-.199-2.397-1.096-5.532-7.595-3.371-10.938-1.24-2.273 1.453-3.86 3.817-6.076 5.272-2.19 1.437-6.274 2.68-8.754 1.582-1.743-.771-.836-2.09-.157-3.446 1.232-2.45 3.286-4.4 6.034-5.023-2.327-6.301-.226-13.606 5.126-17.651-.79-2.859-1.907-7.423 1.722-8.767-.636 2.278-.985 4.476.163 6.682l2.07 3.011c-6.176 1.505-9.174 8.613-7.25 14.38 2.19-.563 4.564.162 6.79 0 1.69-.122 4.33-.839 5.836-1.622 3.539-1.845 5.563-6.818 9.89-7.139 1.877-.14 3.749.402 5.77.073 5.353-.868 6.342-6.418 10.47-8.94l3.952.591c-2.207 1.062-4.034 2.274-5.797 3.972-.17.164-.643.437-.02.37 2.847-1.057 5.873-1.164 8.791-2.107 3.878-1.25 7.429-3.442 11.053-5.23-1.439 1.16-3.046 2.194-4.611 3.18zm32.931-21.792L80.51 66.063c.694-.85 1.672-1.423 2.447-2.188 1.498-1.484 3.491-4.687 4.909-5.721 1.64-1.198 3.983-1.147 5.978-2.847 1.705-1.453 2.252-3.714 4.178-4.818 1.304-.747 2.387-.913 3.645-2.005 1.017-.88 2.848-3.978 3.468-4.284 2.386-1.184 3.301 2.259 2.708 3.931zm5.532-5.557c-.306.393-1.788 2.242-2.241 1.968-2.299-3.896-3.203-7.723-.898-11.883.886-1.598 4.425-5.483 5.873-2.75 1.938 3.658-.369 9.625-2.734 12.665"/><path stroke="#000" stroke-width="4" d="M107.99 18.968C93.156 11.255 73.994 6.025 57.301 4.618c-3.725-.314-8.4-.732-12.06-.068-8.034 1.457-11.288 11.787-6.552 18.055-.824 2.61-2.534 5.62-2.714 8.362-.043.652.15 1.35.103 2.023-.151 2.193-1.533 2.52-2.491 4.18-1.148 1.991-1.437 4.161-1.475 6.43l-6.05 16.113c-2.128 1.69-3.684 3.879-3.797 6.7-.061 1.542.383 3.06.38 4.586-1.695 1.356-2.91 3.191-3.813 5.14-1.453 3.136-2.526 6.876-3.838 10.142-2.645 6.582-6.308 13.966-8.44 20.576-.412 1.275-.652 2.094-.006 3.354.814 1.581 2.826 2.393 4.45 1.529 6.984-4.279 14.063-8.431 20.988-12.802.649-.41 4.903-3.05 4.98-3.338.103-.381-.014-2.484-.424-2.494-8.208 4.402-15.871 9.788-23.934 14.45-.488.282-2.389 1.529-2.79 1.273l-.241-.659c4.7-3.457 10.332-5.785 15.217-9.001 3.61-2.378 5.764-6.105 10.124-7.307 4.72-1.3 3.043 1.901 3.627 5.086.715 3.896 5.206 3.548 5.691.615.122-.737.107-2.152.122-2.984.02-.98-.508-2.624.21-3.292l7.627-4.87c1.208 2.332 3.832 3.298 6.114 1.714 2.272-1.576 1.418-3.724 1.756-5.987 14.708-8.983 29.252-18.275 43.546-27.892 6.99-4.704 13.966-8.475 16.001-17.392 2.321-10.167-3.791-13.824-11.623-17.896zM44.629 8.07c4.758-1.879 17.553.039 22.922.951 15.713 2.669 31.795 8.067 45.297 16.478-.9.607-1.954.908-2.851 1.54-2.964 2.085-4.458 5.704-5.25 9.089-1.647-2.656-.192-6.105 1.658-8.292-2.336 1.035-3.709 3.52-3.964 5.971-.357.069-.221-.451-.246-.698-.224-2.17.084-3.782 1.344-5.579.645-.92 1.299-1.373 2.103-2.106-1.545.299-2.918 1.127-3.983 2.243l-1.683 2.807c.208-2.052.549-4.754 2.525-5.888.031-.362-.476-.172-.679-.114-2.528.722-4.238 3.357-4.012 5.93-1.037-1.377-.805-3.85-.198-5.389.337-.856 1.02-1.418 1.276-2.255-1.913 1.361-3.496 3.475-3.347 5.936-.28.009-.434-.936-.456-1.126-.187-1.697.33-3.764 1.317-5.167l1.53-1.838c-2.164.719-3.79 2.153-4.792 4.18-.315-1.425.573-2.747 1.314-3.865l1.352-1.415c-2.352.505-4.005 1.932-4.785 4.185l-.704 3.724c-1.032-2.298-.709-4.886.605-6.997-.237-.21-1.03.803-1.171.994-.97 1.325-1.667 3.254-1.358 4.89-.31-.039-.588-.9-.635-1.135-.617-3.048.533-5.422 2.798-7.39-2.204.432-4.44 2.003-4.679 4.378-.388.041-.412.12-.433-.286-.046-.87.251-2.145.617-2.937-.066-.381 1.246-1.352.97-1.558-.235-.177-1.62.933-1.85 1.169-.213.22-1.213 1.963-1.475 1.693-.124-1.234.08-2.336.826-3.326-1.376.426-1.858 1.854-2.71 2.825-.168-1.293-.223-2.475.82-3.43-.336-.253-1.149.773-1.371 1.11-.289.433-.41.92-.64 1.376-.14.277.066.51-.484.433-.112-1.435.057-2.703 1.218-3.658-.55-.113-1.523.934-1.854 1.458-.155.248-.83 1.824-.82 1.98l.221 3.674c.007.113.55.682.046.712-1.396-2.14-1.924-4.943-.857-7.318-.434-.068-.846.893-.966 1.177-.748 1.764-.78 3.663-.077 5.439-2.446-2.08-2.374-6.018-.6-8.548l1.24-1.32c-3.094.416-4.674 3.353-4.772 6.224l-.53-1.707c-.08-.89.232-1.716.401-2.56.07-.342.161-.67-.246-.217-1.383 1.536-1.322 4.142-.77 5.99-.352-.037-.389-.377-.505-.63-.778-1.696-.68-3.95-.083-5.685-1.65 1.66-1.655 4.289-1.053 6.414-2.43-2.65-1.803-7.03.883-9.27-2.8.592-4.735 3.18-4.58 6.011-1.351-1.362-.852-3.976.296-5.342-1.532.67-2.086 2.273-3.083 3.462-.57-1.256-.11-2.644.597-3.72-.498-.405-2.605 3.086-2.878 3.448-.056-1.192-.382-2.375.408-3.406-.62-.173-1.305 1.128-1.578 1.701-.527 1.112-.493 1.575-.631 2.732-.04.34.153.345-.381.332-1.042-2.345-.595-4.886 1.026-6.82-1.091.237-2.234 1.113-2.868 2.012-.297.423-1.185 2.462-1.162 2.84.068 1.124.065 2.371.21 3.469.018.136.476.518.145.708-1.836-1.841-1.72-4.492-1.344-6.881l-.958 1.762-.295 1.384-.32-1.926.315-1.556c-1.43 1.717-1.397 4.143-.86 6.195-.3-.024-.513-.677-.623-.93-1.21-2.79-.713-5.76 1.753-7.639-.564-.138-1.71.58-2.192.967-1.266 1.017-2.208 2.68-2.224 4.321-.966-.824-.436-2.618-.222-3.674-2.088 1.804-1.8 4.85-1.095 7.226.044.144.328.79-.08.529-2.08-2.33-2.313-5.487-.667-8.126.13-.21 1.193-.941.447-.77-.408.095-1.692 1.025-1.986 1.346-1.19 1.303-1.286 3.517-1.234 5.193l-.745-2.113.125-1.43-.416-.079c-.61 1.682-.798 3.19-.326 4.934-.297.02-.433-.599-.517-.831-.546-1.5-.716-3.013-.214-4.549l-.416-.08c-.385 1.273-1.039 2.507-.989 3.88.059 1.615 1.792 3.41-.598 3.785-2.354-3.921-.521-9.94 3.768-11.633zm14.246 21.48c3.948 3.524 3.529 8.877-.096 12.435-3.734 3.663-9.25 4.445-14.139 2.895l4.227-.04c5.852-.495 13.33-5.54 10.43-12.165-.507-1.16-1.587-2.411-2.802-2.846l.688 1.185c-.723-.23-4.41 1.842-4.392 2.214 1.523.842 3.65.933 4.911-.4.512.807.2 3.542-.898 3.54-.387-.002-.913-.37-1.373-.442-1.056-.168-2.064-.125-3.089.197.023.383 1.453 2.327 1.806 2.55.316.197.704.205 1.037.369.425.21.47 1 1.556-.012.165.723-1.31 1.695-1.972 2.126-4.717 3.057-12.516 2.72-14.872-3.045-3.826-9.355 11.824-14.943 18.978-8.561ZM31.327 54.31c1.468-1.982 4.062-2.995 6.487-3.075-.385-.918-1.104-1.614-1.544-2.514-1.067-2.192-1.555-5.354-.99-7.736.055-.235.756-2.366 1.178-1.953.999 4.251 4.428 7.567 8.382 9.222-2.097.526-4.242.158-5.943-1.172-.912-.716-1.3-1.57-2.091-2.336 1.744 6.85 8.506 7.937 14.514 5.935 7.738-2.578 16.753-8.668 13.844-18.056-2.883-9.297-16.17-11.509-23.606-6.397-1.273-1.873.795-3.833 2.636-4.24 3.192-.703 7.543-.804 10.738-.106 1.573.343 3.836 1.605 5.04 1.75 1.239.148 2.77-.213 4.055-.195 1.925.027 4.541.631 6.3 1.426 3.525 1.591 6.121 6.424 10.427 6.164l5.026-.305-6.789-2.293c-1.16-.524-1.875-1.291-2.743-2.15-.223-.222-.398-.363.077-.304 2.205.272 7.222 2.21 9.494 3.07 6.473 2.453 12.507 5.6 17.675 10.23l1.33 1.561c-3.035 1.157-3.375 4.586-6.044 6.075-1.108.618-2.332.804-3.373 1.664-1.369 1.13-1.945 3.012-3.164 4.167-1.571 1.49-3.348 1.532-5.12 2.443-2.547 1.305-4.117 4.357-6.164 6.353-5.112 4.986-12.188 6.93-18.992 4.318-.012-.194 2.57-2.956 2.98-1.719l-.812.154c4.253 2.334 9.014-.98 11.032-4.766.141-.592-1.174-.066-1.666-.3-.354-.17-.126-.347.1-.498.774-.518 2.665-1.618 3.502-1.937 2.118-.806 4.53-.905 6.717-1.428.37-.088.923-.1.74-.598-6.577-1.44-13.15-3.217-19.953-3.099l1.523-5.416c-.929.163-1.563.773-2.539.949-2.532.456-4.236-.18-6.733 1.214-4.914 2.743-5.84 8.285-3.699 13.165.79 1.802.742 2.463 1.28 4.23.416 1.372 1.308 2.508 1.892 3.79-2.502 3.94-4.288 6.753-9.495 6.71-2.781-.023-3.917-2.023-6.433-2.696l4.05-2.9c8.245-10.126-5.595-18.97-14.08-11.438-1.927.139.446-4.28.952-4.964zm26.126-1.8.644.469-2.92 2.737c.08-3.887 4.095-6.084 7.702-5.38-.306.93-.255 2.211-1.518 2.138l.335-1.247c-1.548-.023-2.906.639-4.245 1.283zm7.01 2.021c3.37-.302 6.915.148 10.24.622-.029.352-.258.3-.485.357-1.364.335-2.56-.258-3.942-.292-.934-.023-3.732.027-4.269.676-.39.327-.848 2.622-1.297 2.526-.765-.162.056-2.756-.072-2.863-2.45.065-5.138.42-6.753 2.45-.306.386-.307.88-.65 1.069.465-3.242 4.416-4.29 7.228-4.543zM35.66 75.556c.217-.005 1.283.051 1.379.303l-4.144 1.275c-.32-.314.716-1.807.61-1.876-1.99.241-3.986.8-4.866 2.763-.328.728-.243 1.454-.71 2.074-.646-.493-.191-1.387-.221-2.127-.01-.227.076-.576-.243-.501-.336.874-.928 1.566-1.268 2.457-.375.981-.22 2.209-1.295 2.817.338-7.172 7.626-9.839 13.758-7.383.04.368.126.42-.281.426-.718.011-1.416-.434-2.106-.474-.457-.028-1.524-.031-1.7.494.38-.007.712-.24 1.093-.249zm-5.408-10.603c.324-2.95 3.796-5.322 6.576-5.615 4.986-.525 9.048 3.8 6.07 8.453-3.355 5.248-13.419 4.204-12.646-2.838ZM74.91 69.92c-2.5 1.578-5.03 3.239-7.922 4.03-3.775 1.034-9.695.99-9.911 6.335-.049 1.206 1.05 6.237-1.364 5.677-1.528-.354-.761-3.567-3.09-4.387-3.454-1.215-8.412 2.535-10.05 5.44-.511.907-1.365 3.276-1.305 4.26l.203 3.367c-.232.348-.371.018-.428-.277-.142-.748-.038-1.588-.199-2.397-1.096-5.532-7.595-3.371-10.938-1.24-2.273 1.453-3.86 3.817-6.076 5.272-2.19 1.437-6.274 2.68-8.754 1.582-1.743-.771-.836-2.09-.157-3.446 1.232-2.45 3.286-4.4 6.034-5.023-2.327-6.301-.226-13.606 5.126-17.651-.79-2.859-1.907-7.423 1.722-8.767-.636 2.278-.985 4.476.163 6.682l2.07 3.011c-6.176 1.505-9.174 8.613-7.25 14.38 2.19-.563 4.564.162 6.79 0 1.69-.122 4.33-.839 5.836-1.622 3.539-1.845 5.563-6.818 9.89-7.139 1.877-.14 3.749.402 5.77.073 5.353-.868 6.342-6.418 10.47-8.94l3.952.591c-2.207 1.062-4.034 2.274-5.797 3.972-.17.164-.643.437-.02.37 2.847-1.057 5.873-1.164 8.791-2.107 3.878-1.25 7.429-3.442 11.053-5.23-1.439 1.16-3.046 2.194-4.611 3.18zm32.931-21.792L80.51 66.063c.694-.85 1.672-1.423 2.447-2.188 1.498-1.484 3.491-4.687 4.909-5.721 1.64-1.198 3.983-1.147 5.978-2.847 1.705-1.453 2.252-3.714 4.178-4.818 1.304-.747 2.387-.913 3.645-2.005 1.017-.88 2.848-3.978 3.468-4.284 2.386-1.184 3.301 2.259 2.708 3.931zm5.532-5.557c-.306.393-1.788 2.242-2.241 1.968-2.299-3.896-3.203-7.723-.898-11.883.886-1.598 4.425-5.483 5.873-2.75 1.938 3.658-.369 9.625-2.734 12.665Z" mask="url(#path-1-outside-1_439_4)"/><path fill="#fffcfa" stroke="#000" stroke-width="2" d="M80.544 30.915c7.88-.964 12.87 3.504 13.797 8.743.459 2.592-.091 5.339-1.76 7.599-1.674 2.268-4.42 3.975-8.225 4.593-8.438 1.37-13.78-3.178-14.72-8.61a9.82 9.82 0 0 1 1.995-7.826c1.833-2.307 4.81-3.997 8.913-4.5Zm4.886 5.351c-1.78-.568-3.857-.597-5.626-.25-1.97.388-3.78 1.703-4.699 3.33-.886 1.571-.94 3.402.49 5.095 2.01 2.382 6.059 2.902 9.442 1.766 1.659-.558 3.01-1.473 3.782-2.596.743-1.081 1.002-2.421.395-4.045-.628-1.675-2.017-2.736-3.784-3.3Z"/><path fill="#fffcfa" stroke="#000" stroke-width="2" d="M91.524 32.342c.653-.121 1.325.046 1.83.215.525.177 1.05.421 1.412.583 1.299.579 3.314 1.637 4.965 2.986.826.674 1.601 1.454 2.142 2.32.545.87.887 1.887.727 2.984v.001c-.297 2.03-1.628 3.372-3 4.351-.69.492-1.427.919-2.1 1.303-.692.395-1.3.736-1.81 1.09-.463.32-.997.796-1.618 1.379-.602.563-1.285 1.226-1.978 1.837-.697.615-1.45 1.22-2.234 1.685-.78.463-1.65.823-2.569.879-.526.031-1.093.094-1.737.149-.613.051-1.273.093-1.863.062h-.011a3 3 0 0 1-.685-.152 2 2 0 0 1-.506-.253c-.12-.089-.53-.434-.49-.992l-.059-.968 1.065.002c4.822.009 8.77-2.74 10.536-6.324 1.743-3.538 1.384-7.922-2.501-11.41l-1.512-1.356zM70.702 28.43c2.357-.327 4.337.632 4.77 2.37.217.866-.026 1.763-.665 2.462-.625.684-1.585 1.141-2.791 1.335-2.404.387-4.444-.581-4.906-2.337-.232-.881.013-1.8.68-2.511.65-.691 1.65-1.143 2.912-1.318ZM47.966 69.55c2.516-.583 4.712.111 5.302 1.86.294.873.071 1.794-.54 2.52-.598.709-1.544 1.218-2.746 1.475-2.26.484-4.172-.355-4.754-1.96a2.62 2.62 0 0 1 .323-2.41c.503-.726 1.343-1.236 2.414-1.484zm-1.683-16.69c.985-.283 1.903-.206 2.61.286.698.484 1.014 1.249 1.044 1.97a2.85 2.85 0 0 1-.749 2.044c-.551.594-1.361.934-2.325.866-1.46-.102-2.326-1.208-2.46-2.339-.136-1.137.457-2.417 1.88-2.827Zm3.497 11.276c.783-.284 1.544-.296 2.204-.048a2.57 2.57 0 0 1 1.42 1.293c.552 1.148.213 2.679-1.233 3.371-.795.381-1.594.44-2.298.168a2.58 2.58 0 0 1-1.42-1.383 2.73 2.73 0 0 1-.124-1.889 2.32 2.32 0 0 1 1.451-1.51zm32.796-7.234c.068.23.091.483.034.743a1.44 1.44 0 0 1-.277.579c-.09.115-.195.216-.229.25l-.043.043h-.001c-1.495 2.042-3.776 4.292-6.315 5.301l-3.24 1.288 2.065-2.81c.786-1.069 1.668-2.437 2.69-3.548 1.054-1.148 2.366-2.153 4.147-2.537l.904-.196zM63.635 24.056c.56.006 1.197.065 1.786.212.56.14 1.224.393 1.683.89.246.267.435.608.498 1.02.062.407-.011.807-.168 1.18h-.001c-.156.37-.394.711-.748.947-.362.24-.76.313-1.123.29-.664-.042-1.282-.405-1.734-.727-.932-.666-1.86-1.7-2.15-1.992l-1.23-1.235 1.687-.438c.404-.105.952-.152 1.5-.147Zm-22.85 27.289c.756-.087 1.435.124 1.934.579.481.439.725 1.04.76 1.625a2.45 2.45 0 0 1-.547 1.712c-.429.517-1.066.838-1.831.886-.721.045-1.354-.2-1.807-.653a2.42 2.42 0 0 1-.688-1.568c-.068-1.126.64-2.402 2.178-2.58zm27.025-3.94c.69-.184 1.359-.129 1.92.197.627.363.972.98 1.067 1.59a2.3 2.3 0 0 1-.48 1.809c-.458.555-1.158.851-1.973.818-1.267-.052-2.03-.95-2.184-1.902-.143-.886.234-2.015 1.354-2.42zM48.284 61.506c-1.614-1.413-.216-4.036 2-3.558.729.158 1.305.611 1.502 1.313.176.624-.009 1.237-.278 1.673-.274.444-.726.859-1.314 1.029-.64.185-1.335.047-1.91-.456Z"/><path fill="#fffcfa" stroke="#000" stroke-width="2" d="M68.779 25.502c.617.056 1.147.413 1.484.992.274.47.366 1.01.186 1.53-.171.492-.537.822-.897 1.015-.668.358-1.694.425-2.44-.208h.001a1.68 1.68 0 0 1-.582-1.655c.109-.524.437-.951.8-1.23.366-.28.879-.495 1.448-.444ZM37.483 53.02c.036.164.07.39.026.626a1.13 1.13 0 0 1-.76.872 1.4 1.4 0 0 1-.28.058l-.016.001c-1.378.767-2.6 1.368-3.666 2.272l-2.804 2.378 1.214-3.47c.834-2.387 3.256-3.282 5.133-3.584l1.09-.175zM67.7 42.484c.51-.115 1.015.02 1.441.318h.001c.457.322.761.796.784 1.358.02.525-.21.97-.489 1.272-.51.553-1.633 1.009-2.554.197h-.001c-.807-.715-.652-1.79-.25-2.392a1.76 1.76 0 0 1 1.068-.753Zm.247-7.519c.73-.294 1.507-.053 1.975.392.249.237.465.581.51 1.011.047.448-.106.869-.382 1.206v.001c-.384.47-.926.71-1.497.652a1.85 1.85 0 0 1-1.204-.65c-.265-.312-.489-.78-.432-1.314.065-.61.47-1.073 1.03-1.297z"/><path fill="#fffcfa" stroke="#000" stroke-width="2" d="M66.833 39.803a1.63 1.63 0 0 1 1.232-.345c.507.071.915.381 1.173.81.252.422.347.931.144 1.426-.183.446-.538.707-.818.847a2.1 2.1 0 0 1-.916.22c-.153 0-.339-.017-.528-.083a1.24 1.24 0 0 1-.632-.475V42.2a1.76 1.76 0 0 1 .345-2.398Z"/><path fill="#fffcfa" stroke="#000" stroke-width="2" d="M67.215 37.635c.456-.306 1.032-.386 1.624-.327l.865.086.035.869.04 1 .028.702-.651.264c-.535.217-1.098.264-1.601.076-.5-.188-.915-.614-1.01-1.189-.098-.6.187-1.157.67-1.481Zm40.879-13.093c.207-.074.588-.188.993-.107l.175.047.155.055.13.1c.529.41.437 1.01.389 1.2a1.9 1.9 0 0 1-.264.573c-.192.295-.47.598-.755.843-.263.225-.655.509-1.091.616a1.38 1.38 0 0 1-.957-.091 1.33 1.33 0 0 1-.68-.868v-.002a1.3 1.3 0 0 1 .063-.817c.078-.193.189-.353.29-.475.201-.247.46-.464.711-.635.253-.174.546-.333.841-.439ZM42.952 80.487c1.694-1.25 3.745-2.032 6.226-1.62l3.427.567-3.205 1.341-2.002.838-.026.01-.027.01c-1.585.56-2.766 1.789-4.212 3.175-1.372 1.316-2.994 2.772-5.3 3.064l-.71-1.804 1.745-1.255c1.132-1.48 2.465-3.131 4.084-4.326Zm-10.381 7.999c-.366.453-.897.75-1.309.948-.204.099-.43.195-.639.28l-.527.216c-1.168.496-2.408.955-3.675 1.28l-3.658.938 2.714-2.626c.867-.838 1.934-1.374 2.984-1.758 1.043-.382 2.148-.64 3.088-.877l2.906-.73zm14.014-60.388 3.377.077-2.875 1.774-.13.08a5 5 0 0 1 .223.16c.478.367.937.86 1.168 1.423.118.289.198.654.125 1.046a1.62 1.62 0 0 1-.646 1.01c-.595.44-1.461.532-2.405.469h-.001c-.582-.04-1.067-.23-1.434-.402-.179-.083-.355-.175-.48-.239l-.169-.083a3 3 0 0 0-.138.334h-.001q-.135.385-.182.81l4.435-.27.236.743c.06.191.098.417.062.663-.037.255-.14.451-.242.592-.084.117-.186.217-.205.237-.026.027-.028.03-.02.02a12.7 12.7 0 0 1-1.764 1.994c-.378.342-.82.687-1.275.912a2.5 2.5 0 0 1-.935.263l-.161.182-.687-.348c-1.34-.68-2.033-1.84-2.221-3.12-.183-1.24.102-2.572.625-3.758.525-1.193 1.327-2.32 2.287-3.157.95-.827 2.143-1.44 3.433-1.412Zm2.543 7.51a1.4 1.4 0 0 1 .435-.007l.125.02.518.106.205.489 1.921 4.584.408.978-.999.352c-2.008.707-4.156.68-6.131.16l.08-.814-.576.505a1.08 1.08 0 0 1-.264-.713c0-.156.03-.287.054-.367.047-.165.12-.324.183-.446a9 9 0 0 1 .494-.82c.361-.543.774-1.1.876-1.24h.001c.157-.214.522-.704.886-1.172.182-.234.369-.469.532-.662a4 4 0 0 1 .469-.492l.016-.018c.016-.016.105-.117.22-.204.142-.107.323-.199.547-.239Z"/><path fill="#fffcfa" stroke="#000" stroke-width="2" d="M49.007 27.029c.382.013.814-.037 1.35-.097.495-.056 1.095-.123 1.662-.081h.002c.166.012.492.084.787.155.334.082.754.196 1.156.33.38.126.824.296 1.157.506.148.094.407.275.572.57.094.167.173.4.15.678a1.2 1.2 0 0 1-.282.667l-.506.595-.7-.347-.005-.002-.099.16a3.8 3.8 0 0 1-.527.689l-.002-.001a37 37 0 0 1-1.297 1.206c-.275.244-.56.488-.797.677a5 5 0 0 1-.348.257c-.055.036-.125.08-.201.118a1.2 1.2 0 0 1-.453.126l-.744.045-.255-.701-.823-2.267-.155-.425.217-.396.057-.104a1.25 1.25 0 0 1-.848-.698 1.4 1.4 0 0 1-.086-.847l.16-.843zM39.16 65.768c.987-.159 2.005.292 2.589 1 .306.373.537.87.527 1.444-.01.587-.27 1.127-.708 1.572-.726.737-1.59 1.065-2.449.925-.818-.134-1.45-.665-1.811-1.271-.358-.601-.527-1.413-.223-2.18.325-.82 1.086-1.333 2.074-1.49Z"/><path fill="#fffcfa" stroke="#000" stroke-width="2" d="M32.223 66.933c.775-.92 2.354-1.55 3.783-.537l.213.167c.467.41.726.95.753 1.533.029.632-.219 1.214-.577 1.654-.715.88-2.073 1.421-3.443.763-.754-.362-1.248-.98-1.335-1.748-.08-.712.212-1.364.606-1.832Zm5.162-6.962c1.4-.5 2.752-.095 3.398.949.311.505.421 1.123.263 1.731-.16.612-.568 1.136-1.154 1.51h-.002c-.709.45-1.47.577-2.17.35-.672-.218-1.15-.714-1.424-1.24-.272-.521-.394-1.164-.256-1.78.147-.653.59-1.25 1.345-1.52Z"/><path fill="#fffcfa" stroke="#000" stroke-width="2" d="M31.631 62.237c.96-1.145 2.462-.997 3.37-.467.479.28.927.727 1.133 1.33.22.644.12 1.344-.305 1.966-.465.678-1.108 1.072-1.816 1.158a2.63 2.63 0 0 1-1.818-.476c-.49-.344-.9-.87-1.054-1.505-.163-.67-.02-1.395.49-2.005Zm9.281.156c1.468-.392 2.666.41 3.047 1.519.185.54.18 1.169-.105 1.737-.256.51-.7.896-1.273 1.118l-.253.085c-.716.204-1.406.14-1.98-.177a2.34 2.34 0 0 1-1.102-1.367 2.3 2.3 0 0 1 .14-1.728c.293-.575.827-1.001 1.526-1.188Zm64.472-17.484c.471-.057 1.068.073 1.463.612h-.001c.285.39.328.842.303 1.166a2.3 2.3 0 0 1-.32 1c-.179.297-.488.64-.961.789-.521.164-1.039.03-1.456-.271l.001-.001c-.48-.346-.805-.857-.789-1.47.015-.56.309-.999.606-1.275a2.1 2.1 0 0 1 1.154-.55Z"/><path fill="#fffcfa" stroke="#000" stroke-width="2" d="M102.796 47.233a1.6 1.6 0 0 1 1.23.08c.371.186.618.493.757.802a1.9 1.9 0 0 1-.269 1.979v.001a1.56 1.56 0 0 1-1.573.538 1.9 1.9 0 0 1-1.111-.78c-.239-.349-.424-.873-.264-1.44.172-.612.664-.998 1.229-1.18zm9.468-15.145c.536-.435 1.35-.796 2.232-.421h.001c1.031.439 1.093 1.532 1.024 2.148-.078.704-.369 1.477-.73 2.147-.361.672-.848 1.344-1.397 1.809-.485.41-1.397.95-2.341.432l-.194-.106-.13-.177c-.463-.628-.48-1.45-.398-2.082a6.7 6.7 0 0 1 .646-2.049c.315-.633.75-1.264 1.287-1.7Z"/><path fill="#fffcfa" stroke="#000" stroke-width="2" d="M115.946 36.301c.07 2.49-1.655 4.94-4.211 5.511l-.514.115-.385-.358c-.443-.412-.389-.946-.309-1.213a2 2 0 0 1 .315-.593c.215-.288.522-.591.79-.845.263-.248.59-.54.785-.72a6 6 0 0 0 .266-.26l.018-.027 1.411-2.133 1.744-2.638zm-37.707 5.598c1.253-.258 2.416-.027 2.992.96.506.867.283 1.898-.106 2.592-.4.712-1.178 1.437-2.24 1.464-1.11.028-2.07-.711-2.795-1.941l-.168-.286.035-.33c.135-1.257 1.142-2.224 2.281-2.46Zm5.501.081c.944-.252 1.817-.12 2.474.384.635.486.939 1.222.951 1.922.012.702-.268 1.454-.907 1.956-.656.516-1.537.65-2.495.415-1.23-.301-1.888-1.316-1.873-2.351.014-1.012.671-2.013 1.85-2.327Z"/><path fill="#fffcfa" stroke="#000" stroke-width="2" d="M85.43 39.537c1.042-.897 2.43-.85 3.376-.357.512.267.996.716 1.215 1.341.233.669.108 1.384-.338 2.006v-.001c-.468.652-1.172.931-1.809 1.001a3.6 3.6 0 0 1-1.84-.301c-.527-.24-1.11-.672-1.36-1.346-.289-.775-.03-1.55.553-2.15zm-6.85-4.195c.967-.28 1.866-.238 2.57.179a2.2 2.2 0 0 1 1.088 1.882 2.4 2.4 0 0 1-.942 1.92c-.59.46-1.375.659-2.262.556l-.179-.024c-2.418-.382-2.68-3.822-.276-4.514z"/><path fill="#fffcfa" stroke="#000" stroke-width="2" d="M75.49 38.806c.903-.262 1.742-.254 2.428.075a2.17 2.17 0 0 1 1.228 1.652c.204 1.388-.876 2.714-2.586 2.818h-.001c-1.376.081-2.422-.73-2.706-1.817a2.2 2.2 0 0 1 .201-1.635c.297-.528.802-.908 1.436-1.093Zm9.666-3.628c.78-.027 1.473.205 1.967.695a2.22 2.22 0 0 1 .645 1.743c-.091 1.272-1.187 2.353-2.809 2.3-1.477-.047-2.418-1.156-2.412-2.366a2.27 2.27 0 0 1 .715-1.645c.478-.454 1.136-.7 1.893-.727Z"/></svg>