<svg width="125" height="115" viewBox="0 0 125 115" fill="none" xmlns="http://www.w3.org/2000/svg">
<mask id="path-1-outside-1_439_4" maskUnits="userSpaceOnUse" x="-2.11711" y="-2.15531" width="129.417" height="117.226" fill="black">
<rect fill="white" x="-2.11711" y="-2.15531" width="129.417" height="117.226"/>
<path d="M107.99 18.9684C93.1557 11.2545 73.9937 6.02484 57.3011 4.61752C53.576 4.30413 48.9016 3.88635 45.2418 4.55017C37.2074 6.00708 33.9531 16.337 38.689 22.6053C37.8648 25.2155 36.1547 28.2256 35.9746 30.9669C35.9317 31.6188 36.1243 32.3179 36.0785 32.9905C35.927 35.1832 34.5446 35.5106 33.5867 37.1703C32.4388 39.1611 32.1501 41.3314 32.1122 43.5991L26.0618 59.7127C23.9341 61.4022 22.3782 63.5918 22.2648 66.4131C22.2036 67.9551 22.6475 69.4727 22.6451 70.9988C20.9502 72.3549 19.7353 74.19 18.8319 76.1393C17.3786 79.2752 16.3056 83.0148 14.994 86.2814C12.3489 92.8629 8.68594 100.247 6.55325 106.857C6.14236 108.132 5.90162 108.951 6.54814 110.211C7.36236 111.792 9.37369 112.604 10.9974 111.74C17.9819 107.461 25.0607 103.309 31.9862 98.9384C32.6347 98.5285 36.8894 95.8889 36.9666 95.5995C37.0692 95.2185 36.9523 93.1157 36.5419 93.1057C28.3336 97.5084 20.6706 102.894 12.6077 107.556C12.1203 107.838 10.2191 109.085 9.8186 108.829L9.57694 108.17C14.2764 104.713 19.9089 102.385 24.7938 99.1687C28.4035 96.7914 30.5582 93.0642 34.9184 91.8623C39.6372 90.5629 37.9612 93.7634 38.5451 96.9481C39.2605 100.844 43.7506 100.496 44.2361 97.5625C44.3583 96.8259 44.3428 95.4114 44.3583 94.5789C44.3773 93.5986 43.8496 91.955 44.5689 91.2867L52.1952 86.4174C53.4028 88.7491 56.0266 89.7149 58.3089 88.1307C60.5814 86.5553 59.7267 84.4071 60.0654 82.1437C74.7728 73.1611 89.3173 63.8688 103.611 54.2516C110.601 49.5478 117.577 45.7768 119.612 36.8602C121.933 26.6932 115.821 23.0359 107.989 18.9643L107.99 18.9684ZM44.629 8.06941C49.3869 6.19006 62.1819 8.10761 67.5513 9.02002C83.264 11.689 99.3456 17.0865 112.848 25.4975C111.948 26.105 110.894 26.4064 109.997 27.0383C107.033 29.1226 105.539 32.7422 104.747 36.1268C103.1 33.4715 104.555 30.0221 106.405 27.8352C104.069 28.8696 102.696 31.3554 102.441 33.8063C102.084 33.875 102.22 33.3547 102.195 33.1084C101.971 30.9384 102.279 29.3261 103.539 27.5293C104.184 26.6095 104.838 26.1562 105.642 25.4234C104.097 25.7217 102.724 26.5503 101.659 27.6655L99.9763 30.4732C100.184 28.4205 100.525 25.7186 102.501 24.5852C102.532 24.2227 102.025 24.4132 101.822 24.4705C99.2945 25.1929 97.5843 27.8281 97.81 30.4015C96.7734 29.0242 97.0047 26.5501 97.6117 25.012C97.949 24.1559 98.6316 23.5943 98.8877 22.7574C96.9749 24.1185 95.3918 26.2319 95.5407 28.6932C95.2612 28.7019 95.1072 27.7567 95.0855 27.5675C94.8984 25.8705 95.4158 23.8032 96.4015 22.3998L97.9314 20.5621C95.7676 21.2808 94.1413 22.7147 93.1397 24.7417C92.825 23.3167 93.7128 21.9951 94.4543 20.8769L95.8058 19.4617C93.4542 19.9665 91.8007 21.3938 91.0207 23.647L90.3174 27.3705C89.2848 25.0732 89.608 22.4851 90.9216 20.3737C90.6845 20.1647 89.8913 21.1775 89.7505 21.3683C88.7805 22.6928 88.0839 24.6215 88.3929 26.2579C88.0838 26.2192 87.8052 25.3573 87.758 25.1226C87.1413 22.0751 88.2907 19.7012 90.5559 17.7329C88.3522 18.1653 86.1165 19.7364 85.8772 22.1106C85.4885 22.1525 85.4645 22.2318 85.444 21.8254C85.3976 20.9556 85.6951 19.68 86.0611 18.8877C85.9948 18.5066 87.3073 17.5362 87.0313 17.3296C86.7962 17.1533 85.4118 18.2633 85.181 18.4985C84.9678 18.7182 83.9677 20.4625 83.7062 20.1915C83.5822 18.9577 83.7853 17.8557 84.5325 16.8662C83.1561 17.2916 82.6742 18.7197 81.8229 19.6909C81.6541 18.3984 81.5991 17.2157 82.6429 16.2616C82.3063 16.0075 81.4933 17.0337 81.2708 17.3708C80.982 17.8041 80.8611 18.2907 80.6313 18.747C80.4916 19.0238 80.6972 19.2572 80.1469 19.1799C80.0354 17.7446 80.2037 16.4767 81.3648 15.5216C80.8145 15.4095 79.8421 16.4556 79.5114 16.9795C79.3556 17.2285 78.6808 18.8036 78.6903 18.9607L78.9125 22.6343C78.9193 22.7465 79.4623 23.3159 78.9577 23.3464C77.5619 21.2063 77.0341 18.4034 78.1011 16.0283C77.6667 15.9604 77.2554 16.9213 77.1346 17.2052C76.3868 18.969 76.3555 20.8676 77.058 22.644C74.6117 20.5634 74.6844 16.6262 76.4586 14.0957L77.6985 12.7753C74.6043 13.1919 73.0236 16.1286 72.9255 19.0001L72.3961 17.2931C72.3155 16.4029 72.6279 15.5769 72.7972 14.733C72.867 14.3908 72.9584 14.0637 72.5514 14.5164C71.168 16.0524 71.2289 18.6583 71.7812 20.5052C71.429 20.4692 71.392 20.1293 71.2758 19.8762C70.4979 18.1802 70.5962 15.9251 71.1934 14.1909C69.5437 15.8516 69.538 18.4799 70.1401 20.6045C67.7108 17.9555 68.3374 13.5751 71.0227 11.3356C68.2233 11.9269 66.2879 14.5143 66.4427 17.346C65.092 15.9836 65.5907 13.3705 66.7394 12.0044C65.2069 12.6747 64.6532 14.2772 63.6565 15.4662C63.0864 14.2102 63.546 12.8223 64.2529 11.7451C63.7549 11.341 61.6477 14.8318 61.3752 15.1945C61.3195 14.0016 60.9927 12.819 61.7827 11.788C61.1628 11.6146 60.4776 12.9157 60.2055 13.4893C59.6777 14.6007 59.7119 15.0636 59.5739 16.2211C59.5348 16.5614 59.7266 16.5662 59.1926 16.5535C58.1509 14.2076 58.5984 11.6673 60.2193 9.73391C59.1279 9.96993 57.9846 10.8461 57.3513 11.7447C57.0537 12.1683 56.166 14.2068 56.1889 14.5844C56.2569 15.7089 56.2541 16.9565 56.3987 18.0539C56.4172 18.19 56.8748 18.572 56.5445 18.762C54.7077 16.921 54.8233 14.2696 55.1997 11.881L54.2418 13.6432L53.9467 15.0273L53.6263 13.1007L53.942 11.5454C52.5119 13.2624 52.5453 15.6876 53.0813 17.7404C52.7813 17.7156 52.5688 17.0627 52.4588 16.8092C51.2483 14.0209 51.7459 11.0494 54.2122 9.17142C53.6479 9.03349 52.5012 9.75013 52.0202 10.1377C50.7537 11.1545 49.8124 12.8173 49.7964 14.459C48.8303 13.6346 49.3601 11.841 49.5742 10.7854C47.4864 12.5893 47.7736 15.6342 48.4794 18.0106C48.5232 18.1554 48.8073 18.8019 48.3982 18.5399C46.3198 16.2096 46.0856 13.053 47.7316 10.4135C47.8611 10.2049 48.9245 9.47283 48.1793 9.64491C47.7711 9.73924 46.487 10.669 46.1934 10.9899C45.0039 12.2929 44.9073 14.5069 44.9593 16.1834L44.2137 14.0695L44.3393 12.6404L43.9227 12.5611C43.3121 14.2429 43.1254 15.7515 43.5973 17.4948C43.3 17.5148 43.1637 16.8962 43.0797 16.6637C42.5339 15.1646 42.3641 13.6509 42.8663 12.115L42.4497 12.0357C42.0655 13.3084 41.4112 14.5422 41.4614 15.9157C41.5199 17.5303 43.2529 19.3243 40.8626 19.7003C38.5088 15.7788 40.3416 9.76054 44.631 8.06724L44.629 8.06941ZM58.875 29.5489C62.8231 33.0729 62.4037 38.426 58.7789 41.984C55.0452 45.647 49.5293 46.4292 44.6402 44.8794L48.8668 44.8388C54.7193 44.3435 62.197 39.2988 59.2967 32.6737C58.7901 31.5143 57.7096 30.2626 56.4953 29.828L57.1826 31.0134C56.4604 30.7826 52.7726 32.8553 52.7909 33.227C54.314 34.0689 56.4402 34.1595 57.7021 32.8275C58.2142 33.6343 57.9019 36.3693 56.8043 36.3661C56.4171 36.3649 55.8905 35.9973 55.431 35.9248C54.375 35.7572 53.3666 35.7997 52.3422 36.1218C52.3654 36.5055 53.7945 38.449 54.1477 38.6714C54.4644 38.8693 54.8519 38.8766 55.1851 39.0408C55.6096 39.2507 55.6553 40.0406 56.7409 39.0286C56.9062 39.7519 55.431 40.724 54.7694 41.1553C50.052 44.212 42.2528 43.8747 39.8966 38.1098C36.0714 28.755 51.7212 23.1668 58.875 29.5489ZM31.327 54.3082C32.7946 52.3268 35.3894 51.3136 37.8142 51.2345C37.4291 50.3156 36.7096 49.6196 36.2702 48.7204C35.2028 46.5277 34.7151 43.3659 35.2793 40.9844C35.3351 40.7495 36.0359 38.6178 36.4583 39.0306C37.4566 43.282 40.8857 46.5977 44.8402 48.2532C42.743 48.7795 40.598 48.4115 38.8971 47.0805C37.985 46.3655 37.5976 45.5102 36.806 44.7449C38.5504 51.5956 45.3119 52.6818 51.3203 50.6797C59.0584 48.1019 68.0727 42.0118 65.1638 32.624C62.281 23.3269 48.9946 21.1154 41.558 26.2273C40.2855 24.3542 42.3535 22.3938 44.1944 21.9875C47.3865 21.2844 51.7371 21.1831 54.9316 21.8808C56.5048 22.224 58.7677 23.4862 59.9727 23.6304C61.2109 23.7788 62.7415 23.4179 64.0274 23.4363C65.9521 23.4633 68.5685 24.067 70.3276 24.8619C73.852 26.4533 76.4483 31.286 80.7543 31.0255L85.7804 30.7215L78.9912 28.4284C77.8312 27.9045 77.1156 27.1367 76.2483 26.2776C76.0249 26.0556 75.8496 25.9146 76.3246 25.9739C78.5298 26.2461 83.5473 28.1835 85.8189 29.0436C92.2924 31.4972 98.326 34.6431 103.494 39.2731L104.824 40.8354C101.789 41.992 101.449 45.421 98.7797 46.9097C97.6723 47.5277 96.4483 47.7144 95.407 48.5742C94.0381 49.7037 93.4623 51.5862 92.2432 52.7414C90.6718 54.2314 88.8954 54.2733 87.1221 55.1835C84.5759 56.4887 83.0063 59.5414 80.9589 61.5374C75.8475 66.523 68.7711 68.4668 61.9668 65.855C61.9551 65.6612 64.5367 62.8995 64.9472 64.1365L64.1349 64.2901C68.3878 66.624 73.1495 63.3105 75.1668 59.524C75.308 58.9317 73.9933 59.4578 73.5014 59.2233C73.1474 59.0542 73.3755 58.8766 73.601 58.7257C74.3748 58.2077 76.2663 57.1081 77.1035 56.7891C79.2208 55.983 81.6321 55.8843 83.8199 55.3607C84.1894 55.2728 84.7426 55.2619 84.56 54.7629C77.9831 53.3234 71.4104 51.5456 64.6066 51.6643L66.13 46.2485C65.201 46.4112 64.5666 47.0211 63.591 47.1968C61.0593 47.6531 59.3551 47.0167 56.8576 48.4112C51.944 51.1541 51.0171 56.6956 53.1592 61.5763C53.9497 63.3781 53.9011 64.0386 54.4384 65.8065C54.8549 67.1783 55.7472 68.3144 56.3313 69.5962C53.8292 73.5369 52.0432 76.3488 46.8356 76.3053C44.0546 76.283 42.9186 74.2829 40.403 73.6096L44.4526 70.71C52.6977 60.5841 38.8578 51.7408 30.3733 59.2716C28.4463 59.4107 30.8186 54.9924 31.3249 54.3083L31.327 54.3082ZM57.4534 52.5087L58.0974 52.9777L55.1766 55.7148C55.2565 51.8284 59.2724 49.6313 62.879 50.3349C62.5729 51.265 62.6236 52.5462 61.3612 52.473L61.6955 51.2258C60.1478 51.2027 58.7898 51.8645 57.4513 52.5088L57.4534 52.5087ZM64.4629 54.5304C67.8336 54.2282 71.3775 54.6775 74.7026 55.1523C74.6745 55.5043 74.4449 55.4526 74.2177 55.5093C72.8543 55.8438 71.6572 55.2505 70.2757 55.2173C69.3416 55.1939 66.5444 55.2443 66.0072 55.8933C65.6172 56.2201 65.159 58.5153 64.7105 58.4195C63.945 58.2569 64.7661 55.6632 64.6382 55.5562C62.1878 55.6205 59.4997 55.9756 57.8848 58.0069C57.5787 58.3921 57.5776 58.8858 57.2349 59.0745C57.6997 55.8326 61.6513 54.7844 64.463 54.5324L64.4629 54.5304ZM35.6595 75.5557C35.8774 75.5507 36.9433 75.6071 37.0388 75.8594L32.8951 77.1342C32.5755 76.8197 33.6114 75.3273 33.5043 75.258C31.5155 75.4991 29.5192 76.0582 28.6393 78.0205C28.3107 78.7491 28.3958 79.4752 27.9289 80.0954C27.2834 79.6019 27.7379 78.708 27.7076 77.9683C27.698 77.7415 27.7839 77.3922 27.4651 77.4668C27.1289 78.3413 26.5366 79.0326 26.1972 79.9236C25.8221 80.905 25.9767 82.1328 24.9016 82.7406C25.2399 75.5694 32.5279 72.902 38.6598 75.3578C38.7006 75.7261 38.7861 75.7783 38.3788 75.7845C37.6609 75.7952 36.9627 75.3499 36.2726 75.3097C35.8159 75.282 34.7492 75.2789 34.573 75.8037C34.9535 75.7971 35.2853 75.564 35.6656 75.5553L35.6595 75.5557ZM30.2517 64.9529C30.5756 62.0021 34.0477 59.6311 36.828 59.338C41.814 58.8131 45.8764 63.1372 42.8985 67.7909C39.5428 73.039 29.4793 71.9947 30.2517 64.9529ZM74.9103 69.9205C72.4095 71.4995 69.8806 73.16 66.9883 73.9515C63.2129 74.9849 57.2929 74.9415 57.0767 80.2864C57.0282 81.4917 58.1273 86.5235 55.7132 85.9629C54.1846 85.6088 54.9518 82.3957 52.623 81.5759C49.1687 80.3612 44.211 84.1105 42.5728 87.0158C42.0615 87.9235 41.2082 90.2917 41.2677 91.2754L41.4714 94.6429C41.2392 94.9908 41.0999 94.6613 41.0429 94.3656C40.9009 93.6184 41.0045 92.7785 40.8443 91.9688C39.7479 86.437 33.2488 88.5979 29.9063 90.7296C27.6326 92.1821 26.046 94.5456 23.8301 96.0008C21.6398 97.4381 17.5559 98.6806 15.0764 97.5832C13.3331 96.8119 14.2396 95.4933 14.9194 94.1371C16.1507 91.6866 18.205 89.7373 20.953 89.1142C18.6262 82.813 20.7271 75.5085 26.0787 71.463C25.2881 68.6042 24.172 64.0404 27.8009 62.6964C27.1645 64.9737 26.8157 67.1722 27.9642 69.3784L30.0344 72.3892C23.8579 73.8935 20.8597 81.0023 22.7836 86.7688C24.9733 86.2062 27.3479 86.9311 29.5741 86.7698C31.2633 86.6471 33.9048 85.9302 35.4099 85.1468C38.9488 83.3022 40.9726 78.3294 45.2996 78.0082C47.1772 77.868 49.0486 78.4103 51.0691 78.0812C56.4234 77.2125 57.4116 71.6631 61.5397 69.1418L65.4916 69.7324C63.2847 70.7937 61.4577 72.0063 59.695 73.7045C59.5257 73.8683 59.0522 74.1407 59.6741 74.0744C62.5215 73.0173 65.5479 72.91 68.466 71.9674C72.3436 70.7169 75.8945 68.5255 79.5192 66.7372C78.0802 67.8976 76.4729 68.9309 74.908 69.9166L74.9103 69.9205ZM107.841 48.1294L80.51 66.0628C81.204 65.2137 82.1823 64.6404 82.9575 63.8746C84.4552 62.3911 86.4481 59.1878 87.8659 58.1537C89.5065 56.9565 91.8486 57.0074 93.8438 55.3074C95.5493 53.8544 96.0961 51.5928 98.0224 50.4889C99.3258 49.7423 100.409 49.5764 101.667 48.4844C102.684 47.6035 104.515 44.5063 105.135 44.2005C107.521 43.0156 108.436 46.4588 107.843 48.1313L107.841 48.1294ZM113.373 42.5715C113.067 42.9648 111.585 44.814 111.132 44.5403C108.833 40.6441 107.929 36.8172 110.234 32.6569C111.12 31.0589 114.659 27.1742 116.107 29.9071C118.045 33.565 115.738 39.5321 113.373 42.5715Z"/>
</mask>
<path d="M107.99 18.9684C93.1557 11.2545 73.9937 6.02484 57.3011 4.61752C53.576 4.30413 48.9016 3.88635 45.2418 4.55017C37.2074 6.00708 33.9531 16.337 38.689 22.6053C37.8648 25.2155 36.1547 28.2256 35.9746 30.9669C35.9317 31.6188 36.1243 32.3179 36.0785 32.9905C35.927 35.1832 34.5446 35.5106 33.5867 37.1703C32.4388 39.1611 32.1501 41.3314 32.1122 43.5991L26.0618 59.7127C23.9341 61.4022 22.3782 63.5918 22.2648 66.4131C22.2036 67.9551 22.6475 69.4727 22.6451 70.9988C20.9502 72.3549 19.7353 74.19 18.8319 76.1393C17.3786 79.2752 16.3056 83.0148 14.994 86.2814C12.3489 92.8629 8.68594 100.247 6.55325 106.857C6.14236 108.132 5.90162 108.951 6.54814 110.211C7.36236 111.792 9.37369 112.604 10.9974 111.74C17.9819 107.461 25.0607 103.309 31.9862 98.9384C32.6347 98.5285 36.8894 95.8889 36.9666 95.5995C37.0692 95.2185 36.9523 93.1157 36.5419 93.1057C28.3336 97.5084 20.6706 102.894 12.6077 107.556C12.1203 107.838 10.2191 109.085 9.8186 108.829L9.57694 108.17C14.2764 104.713 19.9089 102.385 24.7938 99.1687C28.4035 96.7914 30.5582 93.0642 34.9184 91.8623C39.6372 90.5629 37.9612 93.7634 38.5451 96.9481C39.2605 100.844 43.7506 100.496 44.2361 97.5625C44.3583 96.8259 44.3428 95.4114 44.3583 94.5789C44.3773 93.5986 43.8496 91.955 44.5689 91.2867L52.1952 86.4174C53.4028 88.7491 56.0266 89.7149 58.3089 88.1307C60.5814 86.5553 59.7267 84.4071 60.0654 82.1437C74.7728 73.1611 89.3173 63.8688 103.611 54.2516C110.601 49.5478 117.577 45.7768 119.612 36.8602C121.933 26.6932 115.821 23.0359 107.989 18.9643L107.99 18.9684ZM44.629 8.06941C49.3869 6.19006 62.1819 8.10761 67.5513 9.02002C83.264 11.689 99.3456 17.0865 112.848 25.4975C111.948 26.105 110.894 26.4064 109.997 27.0383C107.033 29.1226 105.539 32.7422 104.747 36.1268C103.1 33.4715 104.555 30.0221 106.405 27.8352C104.069 28.8696 102.696 31.3554 102.441 33.8063C102.084 33.875 102.22 33.3547 102.195 33.1084C101.971 30.9384 102.279 29.3261 103.539 27.5293C104.184 26.6095 104.838 26.1562 105.642 25.4234C104.097 25.7217 102.724 26.5503 101.659 27.6655L99.9763 30.4732C100.184 28.4205 100.525 25.7186 102.501 24.5852C102.532 24.2227 102.025 24.4132 101.822 24.4705C99.2945 25.1929 97.5843 27.8281 97.81 30.4015C96.7734 29.0242 97.0047 26.5501 97.6117 25.012C97.949 24.1559 98.6316 23.5943 98.8877 22.7574C96.9749 24.1185 95.3918 26.2319 95.5407 28.6932C95.2612 28.7019 95.1072 27.7567 95.0855 27.5675C94.8984 25.8705 95.4158 23.8032 96.4015 22.3998L97.9314 20.5621C95.7676 21.2808 94.1413 22.7147 93.1397 24.7417C92.825 23.3167 93.7128 21.9951 94.4543 20.8769L95.8058 19.4617C93.4542 19.9665 91.8007 21.3938 91.0207 23.647L90.3174 27.3705C89.2848 25.0732 89.608 22.4851 90.9216 20.3737C90.6845 20.1647 89.8913 21.1775 89.7505 21.3683C88.7805 22.6928 88.0839 24.6215 88.3929 26.2579C88.0838 26.2192 87.8052 25.3573 87.758 25.1226C87.1413 22.0751 88.2907 19.7012 90.5559 17.7329C88.3522 18.1653 86.1165 19.7364 85.8772 22.1106C85.4885 22.1525 85.4645 22.2318 85.444 21.8254C85.3976 20.9556 85.6951 19.68 86.0611 18.8877C85.9948 18.5066 87.3073 17.5362 87.0313 17.3296C86.7962 17.1533 85.4118 18.2633 85.181 18.4985C84.9678 18.7182 83.9677 20.4625 83.7062 20.1915C83.5822 18.9577 83.7853 17.8557 84.5325 16.8662C83.1561 17.2916 82.6742 18.7197 81.8229 19.6909C81.6541 18.3984 81.5991 17.2157 82.6429 16.2616C82.3063 16.0075 81.4933 17.0337 81.2708 17.3708C80.982 17.8041 80.8611 18.2907 80.6313 18.747C80.4916 19.0238 80.6972 19.2572 80.1469 19.1799C80.0354 17.7446 80.2037 16.4767 81.3648 15.5216C80.8145 15.4095 79.8421 16.4556 79.5114 16.9795C79.3556 17.2285 78.6808 18.8036 78.6903 18.9607L78.9125 22.6343C78.9193 22.7465 79.4623 23.3159 78.9577 23.3464C77.5619 21.2063 77.0341 18.4034 78.1011 16.0283C77.6667 15.9604 77.2554 16.9213 77.1346 17.2052C76.3868 18.969 76.3555 20.8676 77.058 22.644C74.6117 20.5634 74.6844 16.6262 76.4586 14.0957L77.6985 12.7753C74.6043 13.1919 73.0236 16.1286 72.9255 19.0001L72.3961 17.2931C72.3155 16.4029 72.6279 15.5769 72.7972 14.733C72.867 14.3908 72.9584 14.0637 72.5514 14.5164C71.168 16.0524 71.2289 18.6583 71.7812 20.5052C71.429 20.4692 71.392 20.1293 71.2758 19.8762C70.4979 18.1802 70.5962 15.9251 71.1934 14.1909C69.5437 15.8516 69.538 18.4799 70.1401 20.6045C67.7108 17.9555 68.3374 13.5751 71.0227 11.3356C68.2233 11.9269 66.2879 14.5143 66.4427 17.346C65.092 15.9836 65.5907 13.3705 66.7394 12.0044C65.2069 12.6747 64.6532 14.2772 63.6565 15.4662C63.0864 14.2102 63.546 12.8223 64.2529 11.7451C63.7549 11.341 61.6477 14.8318 61.3752 15.1945C61.3195 14.0016 60.9927 12.819 61.7827 11.788C61.1628 11.6146 60.4776 12.9157 60.2055 13.4893C59.6777 14.6007 59.7119 15.0636 59.5739 16.2211C59.5348 16.5614 59.7266 16.5662 59.1926 16.5535C58.1509 14.2076 58.5984 11.6673 60.2193 9.73391C59.1279 9.96993 57.9846 10.8461 57.3513 11.7447C57.0537 12.1683 56.166 14.2068 56.1889 14.5844C56.2569 15.7089 56.2541 16.9565 56.3987 18.0539C56.4172 18.19 56.8748 18.572 56.5445 18.762C54.7077 16.921 54.8233 14.2696 55.1997 11.881L54.2418 13.6432L53.9467 15.0273L53.6263 13.1007L53.942 11.5454C52.5119 13.2624 52.5453 15.6876 53.0813 17.7404C52.7813 17.7156 52.5688 17.0627 52.4588 16.8092C51.2483 14.0209 51.7459 11.0494 54.2122 9.17142C53.6479 9.03349 52.5012 9.75013 52.0202 10.1377C50.7537 11.1545 49.8124 12.8173 49.7964 14.459C48.8303 13.6346 49.3601 11.841 49.5742 10.7854C47.4864 12.5893 47.7736 15.6342 48.4794 18.0106C48.5232 18.1554 48.8073 18.8019 48.3982 18.5399C46.3198 16.2096 46.0856 13.053 47.7316 10.4135C47.8611 10.2049 48.9245 9.47283 48.1793 9.64491C47.7711 9.73924 46.487 10.669 46.1934 10.9899C45.0039 12.2929 44.9073 14.5069 44.9593 16.1834L44.2137 14.0695L44.3393 12.6404L43.9227 12.5611C43.3121 14.2429 43.1254 15.7515 43.5973 17.4948C43.3 17.5148 43.1637 16.8962 43.0797 16.6637C42.5339 15.1646 42.3641 13.6509 42.8663 12.115L42.4497 12.0357C42.0655 13.3084 41.4112 14.5422 41.4614 15.9157C41.5199 17.5303 43.2529 19.3243 40.8626 19.7003C38.5088 15.7788 40.3416 9.76054 44.631 8.06724L44.629 8.06941ZM58.875 29.5489C62.8231 33.0729 62.4037 38.426 58.7789 41.984C55.0452 45.647 49.5293 46.4292 44.6402 44.8794L48.8668 44.8388C54.7193 44.3435 62.197 39.2988 59.2967 32.6737C58.7901 31.5143 57.7096 30.2626 56.4953 29.828L57.1826 31.0134C56.4604 30.7826 52.7726 32.8553 52.7909 33.227C54.314 34.0689 56.4402 34.1595 57.7021 32.8275C58.2142 33.6343 57.9019 36.3693 56.8043 36.3661C56.4171 36.3649 55.8905 35.9973 55.431 35.9248C54.375 35.7572 53.3666 35.7997 52.3422 36.1218C52.3654 36.5055 53.7945 38.449 54.1477 38.6714C54.4644 38.8693 54.8519 38.8766 55.1851 39.0408C55.6096 39.2507 55.6553 40.0406 56.7409 39.0286C56.9062 39.7519 55.431 40.724 54.7694 41.1553C50.052 44.212 42.2528 43.8747 39.8966 38.1098C36.0714 28.755 51.7212 23.1668 58.875 29.5489ZM31.327 54.3082C32.7946 52.3268 35.3894 51.3136 37.8142 51.2345C37.4291 50.3156 36.7096 49.6196 36.2702 48.7204C35.2028 46.5277 34.7151 43.3659 35.2793 40.9844C35.3351 40.7495 36.0359 38.6178 36.4583 39.0306C37.4566 43.282 40.8857 46.5977 44.8402 48.2532C42.743 48.7795 40.598 48.4115 38.8971 47.0805C37.985 46.3655 37.5976 45.5102 36.806 44.7449C38.5504 51.5956 45.3119 52.6818 51.3203 50.6797C59.0584 48.1019 68.0727 42.0118 65.1638 32.624C62.281 23.3269 48.9946 21.1154 41.558 26.2273C40.2855 24.3542 42.3535 22.3938 44.1944 21.9875C47.3865 21.2844 51.7371 21.1831 54.9316 21.8808C56.5048 22.224 58.7677 23.4862 59.9727 23.6304C61.2109 23.7788 62.7415 23.4179 64.0274 23.4363C65.9521 23.4633 68.5685 24.067 70.3276 24.8619C73.852 26.4533 76.4483 31.286 80.7543 31.0255L85.7804 30.7215L78.9912 28.4284C77.8312 27.9045 77.1156 27.1367 76.2483 26.2776C76.0249 26.0556 75.8496 25.9146 76.3246 25.9739C78.5298 26.2461 83.5473 28.1835 85.8189 29.0436C92.2924 31.4972 98.326 34.6431 103.494 39.2731L104.824 40.8354C101.789 41.992 101.449 45.421 98.7797 46.9097C97.6723 47.5277 96.4483 47.7144 95.407 48.5742C94.0381 49.7037 93.4623 51.5862 92.2432 52.7414C90.6718 54.2314 88.8954 54.2733 87.1221 55.1835C84.5759 56.4887 83.0063 59.5414 80.9589 61.5374C75.8475 66.523 68.7711 68.4668 61.9668 65.855C61.9551 65.6612 64.5367 62.8995 64.9472 64.1365L64.1349 64.2901C68.3878 66.624 73.1495 63.3105 75.1668 59.524C75.308 58.9317 73.9933 59.4578 73.5014 59.2233C73.1474 59.0542 73.3755 58.8766 73.601 58.7257C74.3748 58.2077 76.2663 57.1081 77.1035 56.7891C79.2208 55.983 81.6321 55.8843 83.8199 55.3607C84.1894 55.2728 84.7426 55.2619 84.56 54.7629C77.9831 53.3234 71.4104 51.5456 64.6066 51.6643L66.13 46.2485C65.201 46.4112 64.5666 47.0211 63.591 47.1968C61.0593 47.6531 59.3551 47.0167 56.8576 48.4112C51.944 51.1541 51.0171 56.6956 53.1592 61.5763C53.9497 63.3781 53.9011 64.0386 54.4384 65.8065C54.8549 67.1783 55.7472 68.3144 56.3313 69.5962C53.8292 73.5369 52.0432 76.3488 46.8356 76.3053C44.0546 76.283 42.9186 74.2829 40.403 73.6096L44.4526 70.71C52.6977 60.5841 38.8578 51.7408 30.3733 59.2716C28.4463 59.4107 30.8186 54.9924 31.3249 54.3083L31.327 54.3082ZM57.4534 52.5087L58.0974 52.9777L55.1766 55.7148C55.2565 51.8284 59.2724 49.6313 62.879 50.3349C62.5729 51.265 62.6236 52.5462 61.3612 52.473L61.6955 51.2258C60.1478 51.2027 58.7898 51.8645 57.4513 52.5088L57.4534 52.5087ZM64.4629 54.5304C67.8336 54.2282 71.3775 54.6775 74.7026 55.1523C74.6745 55.5043 74.4449 55.4526 74.2177 55.5093C72.8543 55.8438 71.6572 55.2505 70.2757 55.2173C69.3416 55.1939 66.5444 55.2443 66.0072 55.8933C65.6172 56.2201 65.159 58.5153 64.7105 58.4195C63.945 58.2569 64.7661 55.6632 64.6382 55.5562C62.1878 55.6205 59.4997 55.9756 57.8848 58.0069C57.5787 58.3921 57.5776 58.8858 57.2349 59.0745C57.6997 55.8326 61.6513 54.7844 64.463 54.5324L64.4629 54.5304ZM35.6595 75.5557C35.8774 75.5507 36.9433 75.6071 37.0388 75.8594L32.8951 77.1342C32.5755 76.8197 33.6114 75.3273 33.5043 75.258C31.5155 75.4991 29.5192 76.0582 28.6393 78.0205C28.3107 78.7491 28.3958 79.4752 27.9289 80.0954C27.2834 79.6019 27.7379 78.708 27.7076 77.9683C27.698 77.7415 27.7839 77.3922 27.4651 77.4668C27.1289 78.3413 26.5366 79.0326 26.1972 79.9236C25.8221 80.905 25.9767 82.1328 24.9016 82.7406C25.2399 75.5694 32.5279 72.902 38.6598 75.3578C38.7006 75.7261 38.7861 75.7783 38.3788 75.7845C37.6609 75.7952 36.9627 75.3499 36.2726 75.3097C35.8159 75.282 34.7492 75.2789 34.573 75.8037C34.9535 75.7971 35.2853 75.564 35.6656 75.5553L35.6595 75.5557ZM30.2517 64.9529C30.5756 62.0021 34.0477 59.6311 36.828 59.338C41.814 58.8131 45.8764 63.1372 42.8985 67.7909C39.5428 73.039 29.4793 71.9947 30.2517 64.9529ZM74.9103 69.9205C72.4095 71.4995 69.8806 73.16 66.9883 73.9515C63.2129 74.9849 57.2929 74.9415 57.0767 80.2864C57.0282 81.4917 58.1273 86.5235 55.7132 85.9629C54.1846 85.6088 54.9518 82.3957 52.623 81.5759C49.1687 80.3612 44.211 84.1105 42.5728 87.0158C42.0615 87.9235 41.2082 90.2917 41.2677 91.2754L41.4714 94.6429C41.2392 94.9908 41.0999 94.6613 41.0429 94.3656C40.9009 93.6184 41.0045 92.7785 40.8443 91.9688C39.7479 86.437 33.2488 88.5979 29.9063 90.7296C27.6326 92.1821 26.046 94.5456 23.8301 96.0008C21.6398 97.4381 17.5559 98.6806 15.0764 97.5832C13.3331 96.8119 14.2396 95.4933 14.9194 94.1371C16.1507 91.6866 18.205 89.7373 20.953 89.1142C18.6262 82.813 20.7271 75.5085 26.0787 71.463C25.2881 68.6042 24.172 64.0404 27.8009 62.6964C27.1645 64.9737 26.8157 67.1722 27.9642 69.3784L30.0344 72.3892C23.8579 73.8935 20.8597 81.0023 22.7836 86.7688C24.9733 86.2062 27.3479 86.9311 29.5741 86.7698C31.2633 86.6471 33.9048 85.9302 35.4099 85.1468C38.9488 83.3022 40.9726 78.3294 45.2996 78.0082C47.1772 77.868 49.0486 78.4103 51.0691 78.0812C56.4234 77.2125 57.4116 71.6631 61.5397 69.1418L65.4916 69.7324C63.2847 70.7937 61.4577 72.0063 59.695 73.7045C59.5257 73.8683 59.0522 74.1407 59.6741 74.0744C62.5215 73.0173 65.5479 72.91 68.466 71.9674C72.3436 70.7169 75.8945 68.5255 79.5192 66.7372C78.0802 67.8976 76.4729 68.9309 74.908 69.9166L74.9103 69.9205ZM107.841 48.1294L80.51 66.0628C81.204 65.2137 82.1823 64.6404 82.9575 63.8746C84.4552 62.3911 86.4481 59.1878 87.8659 58.1537C89.5065 56.9565 91.8486 57.0074 93.8438 55.3074C95.5493 53.8544 96.0961 51.5928 98.0224 50.4889C99.3258 49.7423 100.409 49.5764 101.667 48.4844C102.684 47.6035 104.515 44.5063 105.135 44.2005C107.521 43.0156 108.436 46.4588 107.843 48.1313L107.841 48.1294ZM113.373 42.5715C113.067 42.9648 111.585 44.814 111.132 44.5403C108.833 40.6441 107.929 36.8172 110.234 32.6569C111.12 31.0589 114.659 27.1742 116.107 29.9071C118.045 33.565 115.738 39.5321 113.373 42.5715Z" fill="#FFFCFA"/>
<path d="M107.99 18.9684C93.1557 11.2545 73.9937 6.02484 57.3011 4.61752C53.576 4.30413 48.9016 3.88635 45.2418 4.55017C37.2074 6.00708 33.9531 16.337 38.689 22.6053C37.8648 25.2155 36.1547 28.2256 35.9746 30.9669C35.9317 31.6188 36.1243 32.3179 36.0785 32.9905C35.927 35.1832 34.5446 35.5106 33.5867 37.1703C32.4388 39.1611 32.1501 41.3314 32.1122 43.5991L26.0618 59.7127C23.9341 61.4022 22.3782 63.5918 22.2648 66.4131C22.2036 67.9551 22.6475 69.4727 22.6451 70.9988C20.9502 72.3549 19.7353 74.19 18.8319 76.1393C17.3786 79.2752 16.3056 83.0148 14.994 86.2814C12.3489 92.8629 8.68594 100.247 6.55325 106.857C6.14236 108.132 5.90162 108.951 6.54814 110.211C7.36236 111.792 9.37369 112.604 10.9974 111.74C17.9819 107.461 25.0607 103.309 31.9862 98.9384C32.6347 98.5285 36.8894 95.8889 36.9666 95.5995C37.0692 95.2185 36.9523 93.1157 36.5419 93.1057C28.3336 97.5084 20.6706 102.894 12.6077 107.556C12.1203 107.838 10.2191 109.085 9.8186 108.829L9.57694 108.17C14.2764 104.713 19.9089 102.385 24.7938 99.1687C28.4035 96.7914 30.5582 93.0642 34.9184 91.8623C39.6372 90.5629 37.9612 93.7634 38.5451 96.9481C39.2605 100.844 43.7506 100.496 44.2361 97.5625C44.3583 96.8259 44.3428 95.4114 44.3583 94.5789C44.3773 93.5986 43.8496 91.955 44.5689 91.2867L52.1952 86.4174C53.4028 88.7491 56.0266 89.7149 58.3089 88.1307C60.5814 86.5553 59.7267 84.4071 60.0654 82.1437C74.7728 73.1611 89.3173 63.8688 103.611 54.2516C110.601 49.5478 117.577 45.7768 119.612 36.8602C121.933 26.6932 115.821 23.0359 107.989 18.9643L107.99 18.9684ZM44.629 8.06941C49.3869 6.19006 62.1819 8.10761 67.5513 9.02002C83.264 11.689 99.3456 17.0865 112.848 25.4975C111.948 26.105 110.894 26.4064 109.997 27.0383C107.033 29.1226 105.539 32.7422 104.747 36.1268C103.1 33.4715 104.555 30.0221 106.405 27.8352C104.069 28.8696 102.696 31.3554 102.441 33.8063C102.084 33.875 102.22 33.3547 102.195 33.1084C101.971 30.9384 102.279 29.3261 103.539 27.5293C104.184 26.6095 104.838 26.1562 105.642 25.4234C104.097 25.7217 102.724 26.5503 101.659 27.6655L99.9763 30.4732C100.184 28.4205 100.525 25.7186 102.501 24.5852C102.532 24.2227 102.025 24.4132 101.822 24.4705C99.2945 25.1929 97.5843 27.8281 97.81 30.4015C96.7734 29.0242 97.0047 26.5501 97.6117 25.012C97.949 24.1559 98.6316 23.5943 98.8877 22.7574C96.9749 24.1185 95.3918 26.2319 95.5407 28.6932C95.2612 28.7019 95.1072 27.7567 95.0855 27.5675C94.8984 25.8705 95.4158 23.8032 96.4015 22.3998L97.9314 20.5621C95.7676 21.2808 94.1413 22.7147 93.1397 24.7417C92.825 23.3167 93.7128 21.9951 94.4543 20.8769L95.8058 19.4617C93.4542 19.9665 91.8007 21.3938 91.0207 23.647L90.3174 27.3705C89.2848 25.0732 89.608 22.4851 90.9216 20.3737C90.6845 20.1647 89.8913 21.1775 89.7505 21.3683C88.7805 22.6928 88.0839 24.6215 88.3929 26.2579C88.0838 26.2192 87.8052 25.3573 87.758 25.1226C87.1413 22.0751 88.2907 19.7012 90.5559 17.7329C88.3522 18.1653 86.1165 19.7364 85.8772 22.1106C85.4885 22.1525 85.4645 22.2318 85.444 21.8254C85.3976 20.9556 85.6951 19.68 86.0611 18.8877C85.9948 18.5066 87.3073 17.5362 87.0313 17.3296C86.7962 17.1533 85.4118 18.2633 85.181 18.4985C84.9678 18.7182 83.9677 20.4625 83.7062 20.1915C83.5822 18.9577 83.7853 17.8557 84.5325 16.8662C83.1561 17.2916 82.6742 18.7197 81.8229 19.6909C81.6541 18.3984 81.5991 17.2157 82.6429 16.2616C82.3063 16.0075 81.4933 17.0337 81.2708 17.3708C80.982 17.8041 80.8611 18.2907 80.6313 18.747C80.4916 19.0238 80.6972 19.2572 80.1469 19.1799C80.0354 17.7446 80.2037 16.4767 81.3648 15.5216C80.8145 15.4095 79.8421 16.4556 79.5114 16.9795C79.3556 17.2285 78.6808 18.8036 78.6903 18.9607L78.9125 22.6343C78.9193 22.7465 79.4623 23.3159 78.9577 23.3464C77.5619 21.2063 77.0341 18.4034 78.1011 16.0283C77.6667 15.9604 77.2554 16.9213 77.1346 17.2052C76.3868 18.969 76.3555 20.8676 77.058 22.644C74.6117 20.5634 74.6844 16.6262 76.4586 14.0957L77.6985 12.7753C74.6043 13.1919 73.0236 16.1286 72.9255 19.0001L72.3961 17.2931C72.3155 16.4029 72.6279 15.5769 72.7972 14.733C72.867 14.3908 72.9584 14.0637 72.5514 14.5164C71.168 16.0524 71.2289 18.6583 71.7812 20.5052C71.429 20.4692 71.392 20.1293 71.2758 19.8762C70.4979 18.1802 70.5962 15.9251 71.1934 14.1909C69.5437 15.8516 69.538 18.4799 70.1401 20.6045C67.7108 17.9555 68.3374 13.5751 71.0227 11.3356C68.2233 11.9269 66.2879 14.5143 66.4427 17.346C65.092 15.9836 65.5907 13.3705 66.7394 12.0044C65.2069 12.6747 64.6532 14.2772 63.6565 15.4662C63.0864 14.2102 63.546 12.8223 64.2529 11.7451C63.7549 11.341 61.6477 14.8318 61.3752 15.1945C61.3195 14.0016 60.9927 12.819 61.7827 11.788C61.1628 11.6146 60.4776 12.9157 60.2055 13.4893C59.6777 14.6007 59.7119 15.0636 59.5739 16.2211C59.5348 16.5614 59.7266 16.5662 59.1926 16.5535C58.1509 14.2076 58.5984 11.6673 60.2193 9.73391C59.1279 9.96993 57.9846 10.8461 57.3513 11.7447C57.0537 12.1683 56.166 14.2068 56.1889 14.5844C56.2569 15.7089 56.2541 16.9565 56.3987 18.0539C56.4172 18.19 56.8748 18.572 56.5445 18.762C54.7077 16.921 54.8233 14.2696 55.1997 11.881L54.2418 13.6432L53.9467 15.0273L53.6263 13.1007L53.942 11.5454C52.5119 13.2624 52.5453 15.6876 53.0813 17.7404C52.7813 17.7156 52.5688 17.0627 52.4588 16.8092C51.2483 14.0209 51.7459 11.0494 54.2122 9.17142C53.6479 9.03349 52.5012 9.75013 52.0202 10.1377C50.7537 11.1545 49.8124 12.8173 49.7964 14.459C48.8303 13.6346 49.3601 11.841 49.5742 10.7854C47.4864 12.5893 47.7736 15.6342 48.4794 18.0106C48.5232 18.1554 48.8073 18.8019 48.3982 18.5399C46.3198 16.2096 46.0856 13.053 47.7316 10.4135C47.8611 10.2049 48.9245 9.47283 48.1793 9.64491C47.7711 9.73924 46.487 10.669 46.1934 10.9899C45.0039 12.2929 44.9073 14.5069 44.9593 16.1834L44.2137 14.0695L44.3393 12.6404L43.9227 12.5611C43.3121 14.2429 43.1254 15.7515 43.5973 17.4948C43.3 17.5148 43.1637 16.8962 43.0797 16.6637C42.5339 15.1646 42.3641 13.6509 42.8663 12.115L42.4497 12.0357C42.0655 13.3084 41.4112 14.5422 41.4614 15.9157C41.5199 17.5303 43.2529 19.3243 40.8626 19.7003C38.5088 15.7788 40.3416 9.76054 44.631 8.06724L44.629 8.06941ZM58.875 29.5489C62.8231 33.0729 62.4037 38.426 58.7789 41.984C55.0452 45.647 49.5293 46.4292 44.6402 44.8794L48.8668 44.8388C54.7193 44.3435 62.197 39.2988 59.2967 32.6737C58.7901 31.5143 57.7096 30.2626 56.4953 29.828L57.1826 31.0134C56.4604 30.7826 52.7726 32.8553 52.7909 33.227C54.314 34.0689 56.4402 34.1595 57.7021 32.8275C58.2142 33.6343 57.9019 36.3693 56.8043 36.3661C56.4171 36.3649 55.8905 35.9973 55.431 35.9248C54.375 35.7572 53.3666 35.7997 52.3422 36.1218C52.3654 36.5055 53.7945 38.449 54.1477 38.6714C54.4644 38.8693 54.8519 38.8766 55.1851 39.0408C55.6096 39.2507 55.6553 40.0406 56.7409 39.0286C56.9062 39.7519 55.431 40.724 54.7694 41.1553C50.052 44.212 42.2528 43.8747 39.8966 38.1098C36.0714 28.755 51.7212 23.1668 58.875 29.5489ZM31.327 54.3082C32.7946 52.3268 35.3894 51.3136 37.8142 51.2345C37.4291 50.3156 36.7096 49.6196 36.2702 48.7204C35.2028 46.5277 34.7151 43.3659 35.2793 40.9844C35.3351 40.7495 36.0359 38.6178 36.4583 39.0306C37.4566 43.282 40.8857 46.5977 44.8402 48.2532C42.743 48.7795 40.598 48.4115 38.8971 47.0805C37.985 46.3655 37.5976 45.5102 36.806 44.7449C38.5504 51.5956 45.3119 52.6818 51.3203 50.6797C59.0584 48.1019 68.0727 42.0118 65.1638 32.624C62.281 23.3269 48.9946 21.1154 41.558 26.2273C40.2855 24.3542 42.3535 22.3938 44.1944 21.9875C47.3865 21.2844 51.7371 21.1831 54.9316 21.8808C56.5048 22.224 58.7677 23.4862 59.9727 23.6304C61.2109 23.7788 62.7415 23.4179 64.0274 23.4363C65.9521 23.4633 68.5685 24.067 70.3276 24.8619C73.852 26.4533 76.4483 31.286 80.7543 31.0255L85.7804 30.7215L78.9912 28.4284C77.8312 27.9045 77.1156 27.1367 76.2483 26.2776C76.0249 26.0556 75.8496 25.9146 76.3246 25.9739C78.5298 26.2461 83.5473 28.1835 85.8189 29.0436C92.2924 31.4972 98.326 34.6431 103.494 39.2731L104.824 40.8354C101.789 41.992 101.449 45.421 98.7797 46.9097C97.6723 47.5277 96.4483 47.7144 95.407 48.5742C94.0381 49.7037 93.4623 51.5862 92.2432 52.7414C90.6718 54.2314 88.8954 54.2733 87.1221 55.1835C84.5759 56.4887 83.0063 59.5414 80.9589 61.5374C75.8475 66.523 68.7711 68.4668 61.9668 65.855C61.9551 65.6612 64.5367 62.8995 64.9472 64.1365L64.1349 64.2901C68.3878 66.624 73.1495 63.3105 75.1668 59.524C75.308 58.9317 73.9933 59.4578 73.5014 59.2233C73.1474 59.0542 73.3755 58.8766 73.601 58.7257C74.3748 58.2077 76.2663 57.1081 77.1035 56.7891C79.2208 55.983 81.6321 55.8843 83.8199 55.3607C84.1894 55.2728 84.7426 55.2619 84.56 54.7629C77.9831 53.3234 71.4104 51.5456 64.6066 51.6643L66.13 46.2485C65.201 46.4112 64.5666 47.0211 63.591 47.1968C61.0593 47.6531 59.3551 47.0167 56.8576 48.4112C51.944 51.1541 51.0171 56.6956 53.1592 61.5763C53.9497 63.3781 53.9011 64.0386 54.4384 65.8065C54.8549 67.1783 55.7472 68.3144 56.3313 69.5962C53.8292 73.5369 52.0432 76.3488 46.8356 76.3053C44.0546 76.283 42.9186 74.2829 40.403 73.6096L44.4526 70.71C52.6977 60.5841 38.8578 51.7408 30.3733 59.2716C28.4463 59.4107 30.8186 54.9924 31.3249 54.3083L31.327 54.3082ZM57.4534 52.5087L58.0974 52.9777L55.1766 55.7148C55.2565 51.8284 59.2724 49.6313 62.879 50.3349C62.5729 51.265 62.6236 52.5462 61.3612 52.473L61.6955 51.2258C60.1478 51.2027 58.7898 51.8645 57.4513 52.5088L57.4534 52.5087ZM64.4629 54.5304C67.8336 54.2282 71.3775 54.6775 74.7026 55.1523C74.6745 55.5043 74.4449 55.4526 74.2177 55.5093C72.8543 55.8438 71.6572 55.2505 70.2757 55.2173C69.3416 55.1939 66.5444 55.2443 66.0072 55.8933C65.6172 56.2201 65.159 58.5153 64.7105 58.4195C63.945 58.2569 64.7661 55.6632 64.6382 55.5562C62.1878 55.6205 59.4997 55.9756 57.8848 58.0069C57.5787 58.3921 57.5776 58.8858 57.2349 59.0745C57.6997 55.8326 61.6513 54.7844 64.463 54.5324L64.4629 54.5304ZM35.6595 75.5557C35.8774 75.5507 36.9433 75.6071 37.0388 75.8594L32.8951 77.1342C32.5755 76.8197 33.6114 75.3273 33.5043 75.258C31.5155 75.4991 29.5192 76.0582 28.6393 78.0205C28.3107 78.7491 28.3958 79.4752 27.9289 80.0954C27.2834 79.6019 27.7379 78.708 27.7076 77.9683C27.698 77.7415 27.7839 77.3922 27.4651 77.4668C27.1289 78.3413 26.5366 79.0326 26.1972 79.9236C25.8221 80.905 25.9767 82.1328 24.9016 82.7406C25.2399 75.5694 32.5279 72.902 38.6598 75.3578C38.7006 75.7261 38.7861 75.7783 38.3788 75.7845C37.6609 75.7952 36.9627 75.3499 36.2726 75.3097C35.8159 75.282 34.7492 75.2789 34.573 75.8037C34.9535 75.7971 35.2853 75.564 35.6656 75.5553L35.6595 75.5557ZM30.2517 64.9529C30.5756 62.0021 34.0477 59.6311 36.828 59.338C41.814 58.8131 45.8764 63.1372 42.8985 67.7909C39.5428 73.039 29.4793 71.9947 30.2517 64.9529ZM74.9103 69.9205C72.4095 71.4995 69.8806 73.16 66.9883 73.9515C63.2129 74.9849 57.2929 74.9415 57.0767 80.2864C57.0282 81.4917 58.1273 86.5235 55.7132 85.9629C54.1846 85.6088 54.9518 82.3957 52.623 81.5759C49.1687 80.3612 44.211 84.1105 42.5728 87.0158C42.0615 87.9235 41.2082 90.2917 41.2677 91.2754L41.4714 94.6429C41.2392 94.9908 41.0999 94.6613 41.0429 94.3656C40.9009 93.6184 41.0045 92.7785 40.8443 91.9688C39.7479 86.437 33.2488 88.5979 29.9063 90.7296C27.6326 92.1821 26.046 94.5456 23.8301 96.0008C21.6398 97.4381 17.5559 98.6806 15.0764 97.5832C13.3331 96.8119 14.2396 95.4933 14.9194 94.1371C16.1507 91.6866 18.205 89.7373 20.953 89.1142C18.6262 82.813 20.7271 75.5085 26.0787 71.463C25.2881 68.6042 24.172 64.0404 27.8009 62.6964C27.1645 64.9737 26.8157 67.1722 27.9642 69.3784L30.0344 72.3892C23.8579 73.8935 20.8597 81.0023 22.7836 86.7688C24.9733 86.2062 27.3479 86.9311 29.5741 86.7698C31.2633 86.6471 33.9048 85.9302 35.4099 85.1468C38.9488 83.3022 40.9726 78.3294 45.2996 78.0082C47.1772 77.868 49.0486 78.4103 51.0691 78.0812C56.4234 77.2125 57.4116 71.6631 61.5397 69.1418L65.4916 69.7324C63.2847 70.7937 61.4577 72.0063 59.695 73.7045C59.5257 73.8683 59.0522 74.1407 59.6741 74.0744C62.5215 73.0173 65.5479 72.91 68.466 71.9674C72.3436 70.7169 75.8945 68.5255 79.5192 66.7372C78.0802 67.8976 76.4729 68.9309 74.908 69.9166L74.9103 69.9205ZM107.841 48.1294L80.51 66.0628C81.204 65.2137 82.1823 64.6404 82.9575 63.8746C84.4552 62.3911 86.4481 59.1878 87.8659 58.1537C89.5065 56.9565 91.8486 57.0074 93.8438 55.3074C95.5493 53.8544 96.0961 51.5928 98.0224 50.4889C99.3258 49.7423 100.409 49.5764 101.667 48.4844C102.684 47.6035 104.515 44.5063 105.135 44.2005C107.521 43.0156 108.436 46.4588 107.843 48.1313L107.841 48.1294ZM113.373 42.5715C113.067 42.9648 111.585 44.814 111.132 44.5403C108.833 40.6441 107.929 36.8172 110.234 32.6569C111.12 31.0589 114.659 27.1742 116.107 29.9071C118.045 33.565 115.738 39.5321 113.373 42.5715Z" stroke="black" stroke-width="4" mask="url(#path-1-outside-1_439_4)"/>
<path d="M80.5438 30.9148C88.4233 29.9506 93.4139 34.4192 94.341 39.6583C94.7996 42.2497 94.2495 44.9966 92.5808 47.2569C90.9066 49.5245 88.1611 51.2317 84.3558 51.8498C75.918 53.2191 70.5764 48.6722 69.6362 43.2395C69.1723 40.5591 69.803 37.7157 71.6312 35.4143C73.4639 33.1073 76.4401 31.4171 80.5438 30.9148ZM85.4305 36.2663C83.6507 35.6981 81.5727 35.669 79.8036 36.0167C77.8331 36.4042 76.0235 37.7185 75.1054 39.3455C74.2185 40.9172 74.1652 42.7479 75.5946 44.4405C77.6056 46.823 81.654 47.3427 85.0368 46.2066C86.6957 45.6494 88.0463 44.7344 88.8186 43.6112C89.562 42.5299 89.8213 41.1895 89.2138 39.5663C88.5859 37.8905 87.1972 36.8303 85.4305 36.2663Z" fill="#FFFCFA" stroke="black" stroke-width="2"/>
<path d="M91.524 32.3421C92.1767 32.2208 92.8487 32.3875 93.3538 32.5572C93.879 32.7337 94.4032 32.9784 94.7656 33.14C96.0647 33.7189 98.0801 34.7772 99.7313 36.1259C100.557 36.8003 101.332 37.5803 101.873 38.4461C102.418 39.3169 102.76 40.3334 102.6 41.4302L102.6 41.4312C102.303 43.4602 100.972 44.8029 99.5993 45.7824C98.9106 46.2737 98.1725 46.7008 97.4993 47.0854C96.8084 47.4801 96.2001 47.8213 95.6897 48.1742C95.2274 48.4942 94.6933 48.9712 94.0718 49.5537C93.4702 50.1174 92.7875 50.78 92.0942 51.3913C91.3969 52.0061 90.6436 52.611 89.8598 53.0761C89.0798 53.539 88.2107 53.8989 87.291 53.9545C86.7648 53.9863 86.1976 54.0492 85.5536 54.1036C84.9411 54.1554 84.2806 54.1974 83.6907 54.1664L83.68 54.1661C83.5278 54.1564 83.2374 54.0968 82.9947 54.0138C82.8744 53.9727 82.6729 53.8952 82.4892 53.7607C82.3684 53.6722 81.959 53.3269 81.9988 52.769L81.9402 51.801L83.0048 51.8031C87.8265 51.8118 91.7741 49.0638 93.5406 45.4787C95.2837 41.9409 94.9254 37.5568 91.0396 34.0698L89.5282 32.7133L91.524 32.3421Z" fill="#FFFCFA" stroke="black" stroke-width="2"/>
<path d="M70.7018 28.4309C73.0594 28.1027 75.0392 29.0624 75.4727 30.8005C75.6887 31.6663 75.4461 32.5628 74.8067 33.2622C74.1818 33.9456 73.222 34.4031 72.016 34.5972C69.6118 34.9837 67.572 34.0159 67.1101 32.2602C66.8781 31.3787 67.1226 30.4594 67.7907 29.7487C68.4406 29.0575 69.4407 28.6064 70.7018 28.4309Z" fill="#FFFCFA" stroke="black" stroke-width="2"/>
<path d="M47.9663 69.5506C50.4816 68.9674 52.6776 69.661 53.268 71.4106C53.5622 72.283 53.3393 73.2045 52.7286 73.9292C52.1305 74.6389 51.1842 75.1481 49.9817 75.4054C47.722 75.8894 45.8103 75.0503 45.2277 73.4447C44.9402 72.6523 45.0406 71.7724 45.5515 71.035C46.0544 70.3094 46.8944 69.7994 47.9653 69.5506L47.9663 69.5506Z" fill="#FFFCFA" stroke="black" stroke-width="2"/>
<path d="M46.2829 52.8603C47.2679 52.5765 48.1862 52.6542 48.8937 53.1456C49.5909 53.6298 49.907 54.3949 49.9365 55.1155C49.9657 55.8324 49.7192 56.5893 49.1884 57.1605C48.6369 57.7539 47.827 58.0935 46.8634 58.0261L46.8634 58.0251C45.4035 57.9236 44.5368 56.8179 44.4023 55.687C44.267 54.5495 44.8604 53.2704 46.2829 52.8603Z" fill="#FFFCFA" stroke="black" stroke-width="2"/>
<path d="M49.7803 64.1361C50.5631 63.8522 51.3236 63.84 51.9845 64.0879C52.6402 64.334 53.1294 64.8122 53.4031 65.3806C53.956 66.5294 53.6173 68.0597 52.1708 68.7522C51.3757 69.133 50.577 69.1922 49.873 68.9196C49.1855 68.6532 48.7098 68.1173 48.4539 67.5369C48.2005 66.962 48.1331 66.2806 48.3289 65.6484C48.5332 64.9893 49.0199 64.4133 49.7803 64.1371L49.7803 64.1361Z" fill="#FFFCFA" stroke="black" stroke-width="2"/>
<path d="M82.5755 56.902C82.6442 57.1321 82.6673 57.3848 82.6097 57.6454C82.553 57.9019 82.4341 58.0936 82.3326 58.2238C82.2425 58.3394 82.1376 58.4401 82.1041 58.4734C82.0799 58.4974 82.0668 58.5107 82.0608 58.5171L82.0598 58.5171C80.5653 60.5595 78.2836 62.8095 75.7453 63.8182L72.5046 65.1061L74.5702 62.2965C75.3564 61.2273 76.2376 59.8591 77.2593 58.7478C78.3144 57.6004 79.6256 56.595 81.4066 56.2106L82.3115 56.0149L82.5755 56.902Z" fill="#FFFCFA" stroke="black" stroke-width="2"/>
<path d="M63.6348 24.0564C64.1945 24.0618 64.8317 24.1213 65.4213 24.2682C65.9802 24.4076 66.6453 24.6611 67.1041 25.1585C67.3496 25.4246 67.5394 25.7663 67.6021 26.1781C67.6641 26.5851 67.5905 26.9855 67.4338 27.3574L67.4329 27.3585C67.2768 27.7279 67.0392 28.0692 66.6849 28.3048C66.3227 28.5456 65.9258 28.6178 65.5617 28.5948C64.898 28.5528 64.2795 28.1903 63.8281 27.8681C62.8956 27.2023 61.9673 26.1673 61.6776 25.8761L60.4484 24.6414L62.135 24.2029C62.5387 24.0979 63.0867 24.0511 63.6348 24.0564Z" fill="#FFFCFA" stroke="black" stroke-width="2"/>
<path d="M40.7851 51.3454C41.5407 51.2584 42.2201 51.4693 42.7191 51.924C43.2005 52.3628 43.444 52.9645 43.4798 53.549C43.5155 54.1345 43.3471 54.7595 42.9317 55.261C42.5034 55.7781 41.8664 56.0987 41.101 56.1466C40.3797 56.1919 39.7472 55.9475 39.2936 55.4938C38.8575 55.0574 38.6394 54.4818 38.6059 53.926C38.5383 52.8003 39.2451 51.5239 40.7842 51.3455L40.7851 51.3454Z" fill="#FFFCFA" stroke="black" stroke-width="2"/>
<path d="M67.8106 47.4046C68.5006 47.2213 69.1688 47.2761 69.7303 47.6015C70.357 47.9648 70.702 48.5819 70.7969 49.1914C70.8911 49.7963 70.7522 50.4715 70.3165 51.001C69.8594 51.5563 69.1592 51.8521 68.3437 51.8189C67.0765 51.7672 66.3146 50.8684 66.1604 49.917C66.017 49.0315 66.3943 47.9018 67.5139 47.4978L67.8106 47.4046Z" fill="#FFFCFA" stroke="black" stroke-width="2"/>
<path d="M48.2836 61.5062C46.6703 60.0926 48.0683 57.4696 50.2843 57.9483C51.0129 58.1057 51.5886 58.5594 51.7863 59.2614C51.962 59.8854 51.7771 60.4982 51.5079 60.9345C51.2341 61.3784 50.7822 61.7927 50.1945 61.963C49.5546 62.1483 48.8592 62.0101 48.2837 61.5072L48.2836 61.5062Z" fill="#FFFCFA" stroke="black" stroke-width="2"/>
<path d="M68.7786 25.5022C69.3964 25.5575 69.9264 25.9148 70.2631 26.4945C70.5366 26.9646 70.629 27.5048 70.4486 28.0241C70.2776 28.5163 69.9115 28.8464 69.5522 29.0391C68.8839 29.3974 67.8576 29.4644 67.1123 28.8315L67.1133 28.8305C66.5864 28.3837 66.4096 27.7601 66.5309 27.1761C66.6398 26.6515 66.9682 26.225 67.3312 25.9469C67.697 25.6666 68.2098 25.4513 68.7786 25.5022Z" fill="#FFFCFA" stroke="black" stroke-width="2"/>
<path d="M37.4826 53.0192C37.5193 53.1841 37.5525 53.41 37.5088 53.6457C37.4762 53.8205 37.3971 54.0262 37.2316 54.2074C37.0689 54.3853 36.8833 54.4731 36.7485 54.5174C36.6246 54.5581 36.515 54.5713 36.4693 54.5764C36.4639 54.577 36.458 54.5768 36.4527 54.5774C35.0748 55.3442 33.8532 55.945 32.7873 56.8487L29.9834 59.2265L31.1969 55.7562C32.0313 53.3702 34.4527 52.4755 36.3298 52.1732L37.4208 51.9976L37.4826 53.0192Z" fill="#FFFCFA" stroke="black" stroke-width="2"/>
<path d="M67.7002 42.4841C68.2092 42.369 68.7147 42.5032 69.141 42.802L69.142 42.8029C69.5992 43.124 69.9031 43.5981 69.9256 44.1604C69.9466 44.6852 69.7158 45.1293 69.437 45.4315C68.9263 45.985 67.8036 46.4406 66.8828 45.629L66.8817 45.6281C66.0746 44.9143 66.2303 43.8384 66.6314 43.2365C66.853 42.9042 67.2127 42.5944 67.7002 42.4841Z" fill="#FFFCFA" stroke="black" stroke-width="2"/>
<path d="M67.9468 34.965C68.6772 34.6713 69.4541 34.9118 69.9224 35.3572C70.171 35.5937 70.3874 35.9383 70.4326 36.3683C70.4795 36.8164 70.3265 37.2366 70.0496 37.5742L70.0506 37.5752C69.6657 38.0446 69.1244 38.2849 68.5531 38.2273C68.0355 38.1751 67.6173 37.8923 67.3485 37.5762C67.0842 37.2654 66.8604 36.7966 66.9169 36.263C66.9816 35.6521 67.3879 35.1903 67.9469 34.966L67.9468 34.965Z" fill="#FFFCFA" stroke="black" stroke-width="2"/>
<path d="M66.8332 39.8027C67.1471 39.5553 67.5845 39.3908 68.0647 39.4582C68.5717 39.5294 68.9803 39.839 69.2378 40.2687C69.4904 40.6898 69.5848 41.1995 69.3818 41.6943C69.199 42.1396 68.844 42.4014 68.5642 42.5411C68.2772 42.6843 67.9525 42.7598 67.6481 42.7608C67.4948 42.7613 67.3092 42.7436 67.1197 42.6783C66.9352 42.6147 66.6753 42.4803 66.4883 42.2029L66.4872 42.201C65.888 41.3084 66.1907 40.3092 66.8332 39.8027Z" fill="#FFFCFA" stroke="black" stroke-width="2"/>
<path d="M67.2153 37.6347C67.6705 37.329 68.2474 37.2485 68.8392 37.3076L69.7044 37.3942L69.7393 38.2628L69.7792 39.2622L69.8071 39.9649L69.1558 40.2293C68.6211 40.4461 68.0582 40.4934 67.5549 40.3047C67.055 40.1171 66.6404 39.6915 66.5458 39.1163C66.447 38.5153 66.7323 37.9593 67.2153 37.6347Z" fill="#FFFCFA" stroke="black" stroke-width="2"/>
<path d="M108.094 24.5424C108.301 24.468 108.682 24.3539 109.087 24.4353L109.262 24.4824L109.417 24.5367L109.547 24.6365C110.076 25.0462 109.984 25.6467 109.936 25.8378C109.878 26.071 109.763 26.2718 109.672 26.4104C109.48 26.7054 109.202 27.0081 108.917 27.2525C108.654 27.4779 108.262 27.7615 107.826 27.8693C107.598 27.9256 107.236 27.9623 106.869 27.7775C106.471 27.5773 106.271 27.2231 106.189 26.9097L106.189 26.9078C106.103 26.5742 106.176 26.2805 106.252 26.0909C106.33 25.8985 106.441 25.7382 106.542 25.6156C106.743 25.3694 107.002 25.1517 107.253 24.9807C107.506 24.8075 107.799 24.6483 108.094 24.5424Z" fill="#FFFCFA" stroke="black" stroke-width="2"/>
<path d="M42.9522 80.4873C44.6461 79.2375 46.6973 78.4554 49.1782 78.8662L52.6054 79.4338L49.4003 80.7753L47.3984 81.6135L47.3716 81.6239L47.3448 81.6334C45.7596 82.1925 44.5794 83.422 43.1333 84.8085C41.7607 86.1244 40.1393 87.5799 37.8331 87.8724L37.1232 86.0682L38.868 84.8131C40.0004 83.3322 41.3333 81.6817 42.9522 80.4873Z" fill="#FFFCFA" stroke="black" stroke-width="2"/>
<path d="M32.5714 88.4855C32.2045 88.9392 31.6737 89.2364 31.262 89.4345C31.0577 89.5327 30.8314 89.6294 30.6235 89.7147L30.0964 89.9296C28.928 90.4264 27.6878 90.8847 26.4209 91.2095L22.7629 92.1479L25.4775 89.5222C26.3445 88.6836 27.4106 88.148 28.4607 87.7636C29.5042 87.3816 30.6091 87.1235 31.5492 86.8871L34.4547 86.1566L32.5714 88.4855Z" fill="#FFFCFA" stroke="black" stroke-width="2"/>
<path d="M46.5846 28.0984L49.9625 28.1748L47.0869 29.9494L46.9567 30.0287C47.0332 30.081 47.1079 30.1343 47.1797 30.1893C47.6577 30.5561 48.1172 31.049 48.3477 31.6116C48.4663 31.9009 48.5462 32.2655 48.4727 32.6577C48.3946 33.0737 48.1611 33.4215 47.8274 33.6683C47.232 34.1083 46.3658 34.1996 45.4216 34.1366L45.4206 34.1367C44.8394 34.0973 44.3542 33.9073 43.9866 33.7353C43.8084 33.6519 43.6318 33.5597 43.5064 33.4962C43.4401 33.4627 43.385 33.4355 43.338 33.4135C43.301 33.4881 43.2531 33.5951 43.1997 33.7467L43.1988 33.7477C43.1087 34.0028 43.0497 34.2747 43.0168 34.5561L47.452 34.2878L47.6877 35.0298C47.7487 35.2215 47.786 35.4475 47.7503 35.6932C47.7134 35.9476 47.6098 36.1442 47.5083 36.2851C47.424 36.4019 47.3221 36.5023 47.3034 36.5215C47.2768 36.549 47.2747 36.5519 47.2822 36.5424C46.9617 37.0121 46.2718 37.8562 45.5195 38.5362C45.141 38.8783 44.6993 39.223 44.2441 39.4479C44.0056 39.5657 43.6752 39.6895 43.309 39.7109L43.1478 39.8928L42.4615 39.545C41.1202 38.8659 40.4282 37.705 40.2398 36.4244C40.0575 35.1855 40.3422 33.8528 40.8646 32.6669C41.3902 31.474 42.1922 30.3462 43.1518 29.5104C44.1023 28.6826 45.2952 28.0692 46.5846 28.0984Z" fill="#FFFCFA" stroke="black" stroke-width="2"/>
<path d="M49.1279 35.6084C49.2842 35.5807 49.4315 35.5837 49.5628 35.6007L49.6883 35.6215L50.2064 35.7271L50.411 36.2156L52.332 40.8004L52.7404 41.7775L51.7412 42.1295C49.7332 42.8374 47.5849 42.8099 45.6099 42.29L45.6907 41.4761L45.1137 41.9806C44.8789 41.7118 44.8498 41.4131 44.8495 41.2677C44.8492 41.1123 44.8806 40.981 44.9036 40.9005C44.9506 40.7357 45.0242 40.5774 45.087 40.455C45.2185 40.1985 45.4035 39.9037 45.5814 39.6356C45.9422 39.0915 46.3553 38.5358 46.4573 38.3958L46.4583 38.3948C46.6145 38.1811 46.9799 37.6906 47.3442 37.223C47.5261 36.9894 47.7127 36.7544 47.8755 36.5608C48.0024 36.4098 48.1821 36.203 48.3447 36.0687C48.3417 36.0715 48.3462 36.0672 48.3612 36.051C48.3765 36.0346 48.4663 35.934 48.5817 35.8469C48.723 35.7404 48.9042 35.6482 49.1279 35.6084Z" fill="#FFFCFA" stroke="black" stroke-width="2"/>
<path d="M49.0065 27.0289C49.3892 27.0422 49.8209 26.9919 50.3566 26.9316C50.8522 26.8758 51.4519 26.8091 52.0188 26.8506L52.0208 26.8505C52.1875 26.863 52.5135 26.9346 52.808 27.0064C53.1425 27.0878 53.5622 27.2019 53.9638 27.3356C54.3446 27.4624 54.7876 27.6316 55.1205 27.8419C55.2691 27.9358 55.5278 28.117 55.693 28.4119C55.7866 28.579 55.8657 28.8127 55.8426 29.0896C55.8192 29.3704 55.6985 29.5959 55.5611 29.7573L55.0551 30.3524L54.3552 30.0053C54.3536 30.0045 54.3517 30.0035 54.3501 30.0027C54.3243 30.044 54.2924 30.0964 54.2512 30.1623C54.1375 30.3441 53.9685 30.6064 53.7235 30.8517L53.7224 30.8507C53.5354 31.0391 52.9705 31.5729 52.4248 32.0573C52.1496 32.3015 51.8653 32.5455 51.6282 32.7336C51.5116 32.8261 51.3908 32.9181 51.2799 32.9914C51.2254 33.0273 51.1554 33.0707 51.0786 33.1092C51.034 33.1316 50.8573 33.2214 50.6264 33.2354L49.8817 33.2804L49.6269 32.5787L48.804 30.3118L48.6491 29.8867L48.8659 29.4911L48.9232 29.3869C48.8614 29.3704 48.7987 29.3525 48.7375 29.3267C48.4908 29.2225 48.2273 29.0225 48.0757 28.6887C47.9344 28.3774 47.9462 28.0694 47.9893 27.8418L48.1486 26.9986L49.0065 27.0289Z" fill="#FFFCFA" stroke="black" stroke-width="2"/>
<path d="M39.1591 65.7675C40.1465 65.6094 41.1652 66.0599 41.7486 66.7682C42.0552 67.1407 42.2859 67.6377 42.2762 68.2116C42.2662 68.7993 42.0064 69.3391 41.5681 69.7836C40.8416 70.5206 39.9778 70.8486 39.1194 70.7086C38.3014 70.5749 37.6691 70.0444 37.308 69.4377C36.9502 68.8366 36.7809 68.0246 37.0851 67.2577C37.4102 66.4387 38.1707 65.9251 39.1591 65.7675Z" fill="#FFFCFA" stroke="black" stroke-width="2"/>
<path d="M32.2233 66.9333C32.9984 66.013 34.5768 65.383 36.0064 66.3962L36.219 66.5634C36.6859 66.9737 36.9454 67.5133 36.9721 68.0959C37.001 68.7277 36.7531 69.3099 36.3952 69.75C35.68 70.6291 34.3217 71.1715 32.9515 70.513C32.1983 70.1507 31.7036 69.5337 31.617 68.7652C31.537 68.0533 31.8295 67.4009 32.2233 66.9333Z" fill="#FFFCFA" stroke="black" stroke-width="2"/>
<path d="M37.3852 59.971C38.7846 59.4702 40.1374 59.8756 40.7827 60.9199C41.0945 61.4249 41.2043 62.0434 41.0459 62.6513C40.8864 63.2629 40.4778 63.7869 39.8917 64.1603L39.8898 64.1614C39.1811 64.6115 38.4206 64.7378 37.7195 64.5109C37.0479 64.2934 36.5709 63.7969 36.2963 63.2713C36.024 62.7497 35.9018 62.107 36.04 61.4915C36.1868 60.8377 36.6294 60.2414 37.3852 59.971Z" fill="#FFFCFA" stroke="black" stroke-width="2"/>
<path d="M31.631 62.2372C32.5911 61.0918 34.0929 61.2398 35.0016 61.7702C35.4796 62.0493 35.9278 62.4971 36.1338 63.1007C36.3533 63.7441 36.2541 64.4437 35.829 65.0661L35.8281 65.0661C35.3641 65.7441 34.7206 66.1379 34.0128 66.2238C33.3321 66.3062 32.6874 66.0938 32.1946 65.7477C31.7048 65.4037 31.2954 64.8787 31.1409 64.2431C30.9782 63.573 31.1202 62.8483 31.6301 62.2383L31.631 62.2372Z" fill="#FFFCFA" stroke="black" stroke-width="2"/>
<path d="M40.9123 62.3929C42.3802 62.0012 43.5779 62.803 43.9588 63.9119C44.1441 64.4515 44.1399 65.0806 43.8545 65.6489C43.598 66.1595 43.1533 66.5454 42.5808 66.7669L42.3277 66.8517C41.6122 67.0563 40.9219 66.9911 40.3486 66.6749C39.788 66.3658 39.4141 65.8572 39.2455 65.3084C39.0777 64.7621 39.1012 64.1367 39.3855 63.58C39.6794 63.0048 40.2126 62.5785 40.9123 62.3919L40.9123 62.3929Z" fill="#FFFCFA" stroke="black" stroke-width="2"/>
<path d="M105.384 44.9088C105.855 44.852 106.452 44.9824 106.847 45.5207L106.846 45.5218C107.131 45.9109 107.174 46.3627 107.149 46.6872C107.123 47.0305 107.013 47.3837 106.829 47.6879C106.65 47.9841 106.341 48.3269 105.868 48.4758C105.347 48.6399 104.829 48.5063 104.412 48.2049L104.413 48.2039C103.933 47.8575 103.608 47.347 103.624 46.7341C103.639 46.1748 103.933 45.7354 104.23 45.4589C104.529 45.1801 104.937 44.9626 105.384 44.9088Z" fill="#FFFCFA" stroke="black" stroke-width="2"/>
<path d="M102.796 47.2326C103.205 47.1012 103.639 47.1187 104.026 47.3128C104.397 47.4991 104.644 47.8062 104.783 48.1152C105.05 48.7083 105.011 49.5005 104.514 50.094L104.514 50.095C104.093 50.598 103.493 50.7609 102.941 50.6334C102.454 50.5206 102.068 50.2021 101.83 49.8533C101.591 49.5044 101.406 48.98 101.566 48.4135C101.738 47.8011 102.23 47.4152 102.795 47.2326L102.796 47.2326Z" fill="#FFFCFA" stroke="black" stroke-width="2"/>
<path d="M112.264 32.0884C112.8 31.6527 113.614 31.2917 114.496 31.6667L114.497 31.6666C115.528 32.106 115.59 33.1991 115.521 33.8148C115.443 34.5191 115.152 35.2917 114.791 35.9624C114.43 36.6343 113.943 37.3063 113.394 37.7707C112.909 38.1809 111.997 38.7219 111.053 38.2029L110.859 38.0972L110.729 37.9202C110.266 37.2921 110.249 36.4698 110.331 35.8379C110.42 35.1556 110.657 34.431 110.977 33.7893C111.292 33.1562 111.727 32.5245 112.264 32.0884Z" fill="#FFFCFA" stroke="black" stroke-width="2"/>
<path d="M115.946 36.3011C116.016 38.7901 114.291 41.2403 111.735 41.8125L111.221 41.9267L110.836 41.5685C110.393 41.1568 110.447 40.6229 110.527 40.3564C110.602 40.1065 110.741 39.8981 110.842 39.7631C111.057 39.4752 111.364 39.1715 111.632 38.9179C111.895 38.67 112.222 38.3784 112.417 38.1973C112.527 38.0954 112.608 38.0179 112.662 37.9614C112.671 37.9526 112.678 37.944 112.683 37.9376L112.701 37.9111L114.112 35.7781L115.856 33.1396L115.946 36.3011Z" fill="#FFFCFA" stroke="black" stroke-width="2"/>
<path d="M78.2389 41.8988C79.4924 41.6407 80.6553 41.8717 81.2311 42.8585C81.7371 43.7258 81.5139 44.7571 81.1247 45.4507C80.7247 46.1634 79.9467 46.8878 78.8848 46.9148C77.7742 46.9431 76.8159 46.2039 76.0896 44.9736L75.9217 44.6883L75.9565 44.3584C76.092 43.1012 77.0991 42.1343 78.238 41.8988L78.2389 41.8988Z" fill="#FFFCFA" stroke="black" stroke-width="2"/>
<path d="M83.7402 41.9791C84.684 41.7281 85.5574 41.8608 86.2142 42.3637C86.8491 42.8499 87.1529 43.586 87.165 44.2863C87.1772 44.9879 86.8971 45.7401 86.258 46.2421C85.6018 46.7576 84.7211 46.8918 83.7629 46.6572C82.5321 46.3556 81.8755 45.3408 81.89 44.306C81.9044 43.2937 82.5614 42.2931 83.7402 41.9791Z" fill="#FFFCFA" stroke="black" stroke-width="2"/>
<path d="M85.4306 39.5368C86.4723 38.6403 87.8601 38.6864 88.8059 39.18C89.3181 39.4474 89.8024 39.8958 90.0209 40.5212C90.2544 41.1898 90.1288 41.9053 89.6834 42.5267L89.6824 42.5258C89.2153 43.1779 88.5109 43.4575 87.8743 43.5274C87.2409 43.5969 86.5832 43.4749 86.0344 43.2259C85.5073 42.9866 84.924 42.5541 84.6733 41.8798C84.3855 41.1053 84.6448 40.3302 85.227 39.7292L85.4306 39.5368Z" fill="#FFFCFA" stroke="black" stroke-width="2"/>
<path d="M78.5793 35.342C79.5474 35.0626 80.4459 35.1036 81.1505 35.521C81.867 35.9457 82.2288 36.673 82.2378 37.4031C82.2466 38.1236 81.9158 38.8416 81.2964 39.3238C80.7058 39.7836 79.9206 39.9817 79.0338 39.8794L78.8552 39.855C76.4367 39.4728 76.1757 36.0331 78.5793 35.341L78.5793 35.342Z" fill="#FFFCFA" stroke="black" stroke-width="2"/>
<path d="M75.4897 38.8063C76.3927 38.5437 77.2323 38.5516 77.9176 38.8806C78.6218 39.2187 79.0457 39.8445 79.1465 40.533C79.3496 41.9206 78.2698 43.2471 76.56 43.3506L76.559 43.3506C75.1826 43.4324 74.1374 42.6211 73.8526 41.5342C73.7139 41.0049 73.7628 40.4172 74.054 39.8989C74.3506 39.3712 74.8558 38.991 75.4897 38.8063Z" fill="#FFFCFA" stroke="black" stroke-width="2"/>
<path d="M85.1557 35.1777C85.9352 35.1505 86.6295 35.3833 87.1231 35.8726C87.6105 36.3557 87.8116 37.0016 87.7677 37.6162C87.6767 38.8883 86.5806 39.9689 84.9591 39.9169C83.4824 39.869 82.541 38.7597 82.5471 37.5495C82.5502 36.9553 82.7847 36.3565 83.2616 35.9047C83.7402 35.4513 84.3981 35.2048 85.1547 35.1777L85.1557 35.1777Z" fill="#FFFCFA" stroke="black" stroke-width="2"/>
</svg>
