<svg xmlns="http://www.w3.org/2000/svg" fill="currentColor" id="Capa_2" data-name="Capa 2" viewBox="0 0 648.26 248.03"><g id="Capa_1-2" data-name="Capa 1"><path d="M425.25 134.34c.38-2.22.12-7.88-.28-10.1-4.6-25.49-15.22-37.93-34.54-41.79-32.67-5.83-58.34 14.46-58.02 47.49-1.78 37.02 11.27 67.11 53.03 65.17l.56-.03c8.16-.49 15.82-2.61 23.04-6.18 10.7-5.39 22.47-19.12 12.05-27.65-14.48-13.51-23.53 4.67-36.51 7.71-9.72 2.28-19.78-4.56-22.89-14.49-.15-.53-.19-2.07-.23-3.52-.04-1.43 1.25-2.5 2.67-2.25 16.22 2.92 27.19 1.43 39.98-4.3 1.3-.58 4.32-1.37 5.68-1.77 5.58-1.66 14.22-1.1 15.46-8.28Zm-36.93-4.94c-7.26.74-17.36 2.13-24.46 2.97-2.48.29-4.54-1.91-4.09-4.37.88-4.82 2.62-9.25 5.56-12.74 5.64-6.36 21.87-7.37 29.33-2.8 7.47 3.52 8.33 14.55-1.13 16.2-1.72.3-3.46.56-5.2.74Zm53.26 56.43c-.97 5.66 1.75 8.21 4.6 8.61 4.6.49 11.78.25 16.86.28 1.66 0 3.29-.05 4.8-.16 5.11-.33 4.15-2.22 4.28-7.74v-57.15c0-2.26.61-4.5 1.76-6.45l.03-.04c3.52-7.64 16.51-17.26 24.38-13.81 12.37 5.48 6.9 21.75 5.5 32.82-3.38 26.74-1.37 33.97-1.19 42.08-.3 4.43 2.36 8.35 4.96 9.63l.91.33c5.74 1.71 14.36.64 20.9.79 2.18-.19 4.95-.15 6.04-2.29 1.6-10.76-2.81-15.67-2.34-32.85.03-11.5 3.27-42.2-.31-53.21-6.71-25.4-40.6-37.12-56.12-10.2-.22.32-.56.9-.97 1.63-.97 1.73-3.61 1.05-3.6-.94.03-4.22.05-8.1.02-9.73-.04-1.28-.26-2.47-1.6-2.92l-.22-.08c-1.61-.52-5.04-.51-9.6-.52-5.43.03-11.32-.1-14.16.24-1.61.2-6.55-.64-7.2 1.71-4.04 22.72 6.53 50.35 2.26 100Zm203.48-93.14c.97-5.47-1.75-7.95-4.6-8.33-4.6-.47-11.78-.24-16.86-.27-1.66 0-3.29.05-4.8.15-5.11.32-4.15 2.15-4.28 7.49v56.46c0 2.19-.61 4.36-1.76 6.24l-.03.04c-3.52 7.39-16.51 16.7-24.38 13.36-12.37-5.3-6.9-21.05-5.5-31.75 3.38-25.87 1.37-34.03 1.19-41.88.3-4.28-2.36-8.08-4.96-9.32l-.91-.32c-5.74-1.65-14.36-.62-20.9-.76-2.18.19-4.95.15-6.04 2.22-1.6 10.41 2.81 16.34 2.34 32.96-.03 11.12-3.27 40.83.31 51.48 6.71 24.57 40.6 35.92 56.12 9.87.22-.31.56-.87.97-1.58.97-1.68 3.61-1.01 3.6.91-.03 4.08-.05 7.83-.02 9.42.04 1.24.26 2.39 1.6 2.82l.22.07c1.61.51 5.04.5 9.6.51 5.43-.02 11.32.09 14.16-.24 1.61-.19 6.55.61 7.2-1.65 4.04-21.98-6.53-49.88-2.26-97.92Zm-56.99-25.64c2.99 2.63 6.06 8.99 9.21 10.32l.24.06c1.38.63 4.1-2.11 6.69-4.62 1.22-1.18 5.13-6.46 6.33-7.66 12.42-12.49 17.82-7.93 21.69-12.75.62-1.27.17-2.14-.76-3.36-2.13-2.56-5.56-5.62-8.2-8.24a.5.5 0 0 1-.08-.07c-4.31-3.57-10.42-3.89-14.82-.44-7.84 6.14-7.03 16.17-13.95 19.97-2.88 1.58-8.99 4.12-6.34 6.79ZM320.06 184.82c-.43-26.15-5.99-93.56-8.09-110.86-.48-4.84-2.75-12.61-7.25-15.42-6.57-3.5-14.43-2.3-21.55-1.34-3.96.85-6.12 1.72-9.05 3.94-6.21 5.19-10.4 18.31-13.6 32.13-1.07 4.75-1.98 11.77-2.8 18.37-.86 6.95-2.27 6.95-3.13 0s-1.73-13.62-2.8-18.37c-3.19-13.82-6.38-26.94-12.6-32.13-2.92-2.21-6.09-3.09-10.05-3.94-7.12-.96-14.97-2.16-21.55 1.34-4.5 2.81-6.76 10.58-7.25 15.42-2.1 17.3-7.65 84.71-8.09 110.86-.62 5.08 4.17 9.6 8.71 11.42 6.78 2.77 14.67 3.32 21.56 1.13 4.24-2.41 3.13-8.56 3.33-12.86-.16-22.22-.33-44.79-.59-67.2-.3-4.36 1.78-9.19 5.22-3.58 2.07 4.15 2.61 9.08 3.76 13.62 3.41 15.32 2.05 34.12 6.54 45.44 1.86 6.12 10.53 10.06 16.78 9.83 6.24.23 13.08-3.71 14.95-9.83 4.48-11.32 2.12-30.12 5.54-45.44 1.15-4.54 1.69-9.48 3.76-13.62 3.44-5.6 5.52-.78 5.22 3.58-.26 22.4-.43 44.98-.59 67.2.2 4.29-.91 10.45 3.33 12.86 6.89 2.19 16.61 1.64 23.39-1.13 4.54-1.82 7.51-6.34 6.89-11.42Zm-198.85 11.13c-.73 1.65-2.96 6.69-1 8.85 1.45 1.6 3.96.26 7.12 2.51.96.69 2.07 1.47 2.29 2.92.3 1.95.61 1.11.11 3.69-.38 1.94-.12 4.74 1.47 6.06 2.63 2.18 4.87.45 7.74 2.43 2.03 1.4 1.93 4.57 1.84 7.86-.16 5.4.25 1.35-.25 6.31-.11 1.13-.92 9.98 2.87 11.29 4.14 1.43 9.22-7.93 10.97-9.91 2.51-2.86 7.09-8.09 8.26-15.19 1.16-7.09-3.09-8.72-7.1-15.45-5.09-8.54-5.61-3.07-14.62-14.89-3.89-5.1-5.21-7.71-8.3-7.59-4.81.18-9.5 6.8-11.4 11.1Z"/><path d="M140.05 73.3c-1.3-1.66-2.89-3.69-4.35-5.31-1.44-2.13-4.18-3.24-6.1-1.03-.54.62-.8 1.55-.73 2.41.54 6.51 2.1 12.09 3.36 18.11 2.22 9.04 2.62 18.95 2.44 28.13-.49 10.84-2.65 20.9-8.85 30.17-5.94 10.91-18.9 17.92-31.19 19.05-15.3 1.49-32.48-2.84-42.68-10.88-21.59-16.87-30.82-54.36-17.74-77.89-1.34-5.72-3.54-11.24-3.92-17.58-.16-1.2-.21-2.68-1.22-3.52-1.21-1.16-3.29-1.21-4.52 0C18.2 60.99 13.1 68.13 9.19 75.93-.26 94.86-2.54 117.59 2.9 138c11.25 53.18 80.39 89.32 130.57 54.87 20.57-14.13 29.04-46.6 27.06-70.86-1.35-17-8.55-33.23-20.39-48.58l-.09-.12Z"/><path d="M67.36.08c-1.13-.3-2.32.32-3.4 1.06-12.02 8.31-25.7 36.79-22.49 57.21 1.41 16.96 12.58 31 14.3 47.78.82 7.01.02 14.75-1.12 21.42-.16 2.55-3.25 13.1 1.28 10.44 11.97-8.28 23.91-35.68 22.19-52.8-.58-11.26-4.15-20.29-6.73-30.31-2.3-8.59-3.44-18.57-3.23-27.96-.26-10.74 2.82-24.49-.73-26.81l-.06-.02Zm46.66 22.38c-1-.29-2.06.27-3.02.92-11.04 7.84-21.84 32.54-19.95 49.21.61 15.11 9.21 28.39 10.34 43.31.53 6.18-.17 12.75-1.06 18.59-.14 2.32-2.5 11.12 1.54 8.74 10.17-7.2 20.37-31.5 19.35-45.62-.1-9.92-2.58-18.13-4.42-26.76-1.77-8.01-2.53-17.17-2.16-25.73.15-10.88 2.49-20.26-.56-22.63z"/></g></svg>