<svg width="46" height="17" viewBox="0 0 46 17" fill="none" xmlns="http://www.w3.org/2000/svg">
<path d="M30.1751 9.14892C30.2021 8.99773 30.1836 8.61226 30.1553 8.46107C29.8288 6.72508 29.0753 5.87785 27.7043 5.61497C25.3861 5.21792 23.5646 6.59976 23.5873 8.84926C23.461 11.3705 24.387 13.4198 27.3503 13.2876L27.39 13.2856C27.969 13.2522 28.5126 13.1078 29.0249 12.8647C29.7841 12.4976 30.6193 11.5626 29.8799 10.9816C28.8525 10.0615 28.2103 11.2997 27.2892 11.5067C26.5995 11.662 25.8857 11.1961 25.665 10.5199C25.6544 10.4838 25.6515 10.3789 25.6487 10.2801C25.6458 10.1828 25.7374 10.1099 25.8381 10.1269C26.9891 10.3258 27.7675 10.2243 28.6751 9.83406C28.7673 9.79455 28.9816 9.74075 29.0781 9.71351C29.4741 9.60046 30.0871 9.6386 30.1751 9.1496V9.14892ZM27.5546 8.81249C27.0395 8.86288 26.3228 8.95755 25.819 9.01476C25.643 9.03451 25.4968 8.88468 25.5288 8.71714C25.5912 8.38887 25.7147 8.08717 25.9233 7.84949C26.3235 7.41634 27.4752 7.34755 28.0045 7.65879C28.5346 7.89852 28.5956 8.64972 27.9243 8.76209C27.8023 8.78252 27.6788 8.80023 27.5553 8.81249H27.5546Z" fill="white"/>
<path d="M31.3341 12.6556C31.2653 13.041 31.4583 13.2147 31.6605 13.242C31.987 13.2753 32.4964 13.259 32.8569 13.261C32.9747 13.261 33.0904 13.2576 33.1975 13.2501C33.5601 13.2277 33.492 13.0989 33.5012 12.723C33.5012 11.4331 33.5012 10.1745 33.5012 8.83082C33.5012 8.6769 33.5445 8.52435 33.6261 8.39154L33.6282 8.38882C33.878 7.8685 34.7998 7.21333 35.3582 7.44829C36.236 7.82151 35.8478 8.92957 35.7485 9.68349C35.5086 11.5046 35.6513 11.997 35.664 12.5493C35.6427 12.851 35.8315 13.118 36.016 13.2052L36.0806 13.2277C36.4879 13.3441 37.0995 13.2712 37.5636 13.2815C37.7183 13.2685 37.9148 13.2712 37.9922 13.1255C38.1057 12.3927 37.7928 12.0583 37.8261 10.8883C37.8283 10.1051 38.0582 8.01424 37.8041 7.26441C37.328 5.53455 34.9232 4.73637 33.8219 6.56974C33.8063 6.59154 33.7822 6.63104 33.7531 6.68075C33.6843 6.79857 33.497 6.75226 33.4977 6.61674C33.4998 6.32933 33.5012 6.06509 33.4991 5.95408C33.4962 5.8669 33.4806 5.78586 33.3855 5.75521L33.3699 5.74976C33.2557 5.71435 33.0123 5.71503 32.6887 5.71435C32.3034 5.71639 31.8855 5.70754 31.684 5.73069C31.5697 5.74431 31.2192 5.68711 31.1731 5.84715C30.8864 7.39449 31.6364 9.27622 31.3334 12.6576L31.3341 12.6556Z" fill="white"/>
<path d="M45.7718 6.31227C45.8407 5.93974 45.6477 5.77084 45.4454 5.74496C45.119 5.71295 44.6095 5.72861 44.2491 5.72657C44.1313 5.72657 44.0156 5.72998 43.9085 5.73679C43.5459 5.75858 43.614 5.88321 43.6048 6.24689C43.6048 7.49525 43.6048 8.79264 43.6048 10.0921C43.6048 10.2412 43.5615 10.389 43.4799 10.5171L43.4777 10.5198C43.228 11.0231 42.3062 11.6571 41.7478 11.4297C40.87 11.0687 41.2582 9.99605 41.3575 9.26733C41.5973 7.50547 41.4547 6.94973 41.4419 6.41511C41.4632 6.12362 41.2745 5.86482 41.09 5.78037L41.0254 5.75858C40.6181 5.64621 40.0065 5.71636 39.5424 5.70682C39.3877 5.71976 39.1911 5.71704 39.1138 5.85801C39.0003 6.56698 39.3132 6.97084 39.2798 8.10274C39.2777 8.86007 39.0478 10.8835 39.3018 11.6088C39.778 13.2821 42.1828 14.0551 43.284 12.281C43.2996 12.2599 43.3238 12.2217 43.3529 12.1734C43.4217 12.0589 43.609 12.1046 43.6083 12.2353C43.6062 12.5132 43.6048 12.7686 43.6069 12.8769C43.6097 12.9613 43.6253 13.0397 43.7204 13.0689L43.736 13.0737C43.8503 13.1084 44.0937 13.1078 44.4172 13.1084C44.8025 13.1071 45.2205 13.1146 45.422 13.0921C45.5363 13.0792 45.8868 13.1336 45.9329 12.9797C46.2196 11.4828 45.4696 9.58266 45.7725 6.31091L45.7718 6.31227Z" fill="white"/>
<path d="M41.7281 4.56604C41.9403 4.74516 42.1581 5.17831 42.3816 5.26888L42.3987 5.27297C42.4966 5.31588 42.6896 5.12927 42.8734 4.95833C42.9599 4.87796 43.2374 4.51837 43.3225 4.43665C44.2038 3.58602 44.587 3.89657 44.8616 3.56831C44.9056 3.48182 44.8737 3.42257 44.8077 3.33948C44.6566 3.16513 44.4132 2.95673 44.2258 2.7783C44.2237 2.77693 44.2223 2.77557 44.2202 2.77353C43.9143 2.53039 43.4808 2.5086 43.1686 2.74356C42.6122 3.16173 42.6697 3.84482 42.1787 4.10361C41.9743 4.21122 41.5408 4.3842 41.7288 4.56604H41.7281Z" fill="white"/>
<path d="M22.7108 12.5869C22.6802 10.8059 22.2857 6.21497 22.1367 5.03676C22.1026 4.70714 21.9416 4.17796 21.6223 3.98659C21.1561 3.74822 20.5983 3.82995 20.0931 3.89533C19.8121 3.95322 19.6588 4.01247 19.4509 4.16366C19.0103 4.51713 18.713 5.41066 18.4859 6.35187C18.41 6.67536 18.3454 7.15346 18.2872 7.60295C18.2262 8.07628 18.1261 8.07628 18.0651 7.60295C18.0041 7.12962 17.9423 6.67536 17.8664 6.35187C17.6401 5.41066 17.4137 4.51713 16.9723 4.16366C16.7651 4.01315 16.5402 3.95322 16.2592 3.89533C15.754 3.82995 15.197 3.74822 14.7301 3.98659C14.4107 4.17796 14.2504 4.70714 14.2156 5.03676C14.0666 6.21497 13.6728 10.8059 13.6416 12.5869C13.5976 12.9328 13.9375 13.2407 14.2596 13.3646C14.7407 13.5533 15.3006 13.5907 15.7895 13.4416C16.0903 13.2774 16.0116 12.8586 16.0258 12.5657C16.0144 11.0525 16.0023 9.51533 15.9839 7.9891C15.9626 7.69217 16.1102 7.36322 16.3543 7.74529C16.5012 8.02792 16.5395 8.36368 16.6211 8.67287C16.8631 9.71624 16.7666 10.9966 17.0852 11.7675C17.2172 12.1844 17.8324 12.4527 18.2759 12.437C18.7186 12.4527 19.204 12.1844 19.3367 11.7675C19.6546 10.9966 19.4871 9.71624 19.7298 8.67287C19.8114 8.36368 19.8497 8.02724 19.9966 7.74529C20.2407 7.3639 20.3883 7.69217 20.367 7.9891C20.3486 9.51465 20.3365 11.0525 20.3251 12.5657C20.3393 12.8579 20.2606 13.2774 20.5614 13.4416C21.0503 13.5907 21.74 13.5533 22.2211 13.3646C22.5433 13.2407 22.754 12.9328 22.71 12.5869H22.7108Z" fill="white"/>
<path d="M8.6014 13.3449C8.5496 13.4572 8.39136 13.8005 8.53044 13.9476C8.63333 14.0566 8.81144 13.9653 9.03567 14.1185C9.10379 14.1655 9.18255 14.2186 9.19816 14.3174C9.21945 14.4502 9.24145 14.393 9.20597 14.5687C9.179 14.7008 9.19745 14.8915 9.31028 14.9814C9.4969 15.1299 9.65585 15.0121 9.8595 15.1469C10.0035 15.2423 9.99645 15.4582 9.99006 15.6822C9.97871 16.05 10.0078 15.7742 9.97232 16.112C9.96451 16.1889 9.90704 16.7916 10.176 16.8809C10.4697 16.9782 10.8302 16.3408 10.9544 16.2059C11.1325 16.0112 11.4575 15.655 11.5405 15.1714C11.6228 14.6886 11.3212 14.5776 11.0367 14.1192C10.6755 13.5376 10.6386 13.9101 9.99928 13.1051C9.72326 12.7578 9.62959 12.58 9.41033 12.5882C9.06902 12.6005 8.73622 13.0513 8.6014 13.3442V13.3449Z" fill="white"/>
<path d="M9.9377 4.99183C9.84546 4.87877 9.73263 4.74052 9.62903 4.63019C9.52685 4.48513 9.33243 4.40953 9.19619 4.56004C9.15787 4.60227 9.13942 4.6656 9.14439 4.72417C9.1827 5.16754 9.2934 5.54756 9.38281 5.95755C9.54034 6.57322 9.56872 7.24813 9.55595 7.87333C9.52118 8.61159 9.36791 9.29672 8.92797 9.92805C8.50647 10.6711 7.58685 11.1485 6.71477 11.2254C5.6291 11.3269 4.41004 11.032 3.68626 10.4845C2.15427 9.33554 1.49932 6.7823 2.42746 5.17979C2.33237 4.79024 2.17626 4.4143 2.1493 3.98251C2.13795 3.90079 2.1344 3.79999 2.06273 3.74279C1.97687 3.66378 1.82928 3.66038 1.742 3.74279C1.29141 4.15346 0.929524 4.63972 0.652076 5.17094C-0.0184814 6.46016 -0.180267 8.00818 0.205747 9.3982C1.00403 13.02 5.9101 15.4813 9.4708 13.1351C10.9304 12.1728 11.5314 9.96142 11.3909 8.30921C11.2951 7.15143 10.7842 6.04609 9.94409 5.00068L9.9377 4.99251V4.99183Z" fill="white"/>
<path d="M4.77999 0.00526235C4.69981 -0.0151691 4.61537 0.0270559 4.53873 0.0774533C3.68581 0.643403 2.7151 2.58303 2.94288 3.97372C3.04293 5.12878 3.83553 6.08497 3.95758 7.22777C4.01577 7.70518 3.959 8.23231 3.87811 8.68657C3.86675 8.86024 3.64749 9.57874 3.96893 9.39758C4.81831 8.83368 5.66555 6.96761 5.5435 5.80165C5.50235 5.03479 5.24903 4.41981 5.06595 3.7374C4.90275 3.15238 4.82186 2.4727 4.83676 1.83319C4.81831 1.10175 5.03686 0.165308 4.78496 0.00730549L4.7807 0.0059434L4.77999 0.00526235Z" fill="white"/>
<path d="M8.0906 1.52933C8.01964 1.50958 7.94442 1.54772 7.8763 1.59199C7.09292 2.12593 6.32657 3.80812 6.46068 4.94342C6.50396 5.97248 7.11421 6.87691 7.19439 7.89303C7.232 8.31392 7.18233 8.76137 7.11917 9.1591C7.10924 9.3171 6.94178 9.91642 7.22845 9.75434C7.9501 9.26398 8.67387 7.60904 8.6015 6.6474C8.5944 5.9718 8.41842 5.41266 8.28786 4.82492C8.16226 4.2794 8.10834 3.65556 8.13459 3.07258C8.14523 2.33161 8.31128 1.69278 8.09485 1.53138L8.0906 1.52933Z" fill="white"/>
</svg>
