<svg xmlns="http://www.w3.org/2000/svg" id="Capa_2" data-name="Capa 2" viewBox="0 0 145.39 190.34"><g id="Capa_1-2" data-name="Capa 1"><path d="M114.56 148.47c-.65 1.24-2.63 5.05-1.21 6.83 1.05 1.31 3.06.39 5.41 2.3.72.58 1.54 1.25 1.64 2.38.14 1.53.42.89-.09 2.87-.39 1.49-.33 3.67.85 4.78 1.94 1.83 3.76.59 5.89 2.27 1.51 1.19 1.28 3.65 1.04 6.2-.39 4.19.13 1.06-.51 4.89-.14.87-1.2 7.71 1.68 8.92 3.15 1.32 7.24-.72 8.69-2.18 2.09-2.1 5.91-5.94 7.16-11.4 1.25-5.45-1.97-6.93-4.76-12.36-3.53-6.88-3.89-7.65-10.32-17.28-2.77-4.15-3.67-6.24-6.08-6.31-3.75-.1-7.71 4.82-9.41 8.07ZM63.46 40.54c.23.91.48 1.8.72 2.68 1.32.13 2.64.31 3.94.56 1.49-4.17 3.4-8.21 5.6-11.82-4-1.33-8.09-2.25-12.22-2.73.36 3.93 1.02 7.79 1.96 11.3Zm45.6 17.15-.13-.17c-2.69-3.52-5.7-6.8-8.95-9.81.03 4.97.56 10.04 1.56 14.57.3 1.42.61 2.77.93 4.12.66 2.85 1.32 5.75 1.83 8.82 5.59 15.51 4.51 32.89-3.86 47.72l-.1.18c-9.41 17.41-45.94 17.78-61.1 2.6-18.25-17.46-24.85-44-12.91-64.76.18-.34.38-.68.57-1.01-1.57-4.32-2.87-8.86-3.31-13.83-.3-2.03-.42-4.13-.4-6.26C3.14 55.47-4.2 84.22 2.31 108.23c8.89 35.18 46.31 66.49 84.74 54.55 17.1-5.6 29.39-19.81 34.71-36.18 7.57-22.8 2.24-49.55-12.71-68.91Z"/><path d="M51.45.06c-.88-.24-1.81.25-2.65.82-9.36 6.47-20.01 28.64-17.51 44.55 1.1 13.2 9.8 24.14 11.14 37.21.64 5.46.02 11.48-.87 16.68-.13 1.98-2.53 10.2.99 8.13 9.32-6.45 18.61-27.78 17.28-41.11-.45-8.76-3.23-15.8-5.24-23.6-1.79-6.69-2.68-14.46-2.52-21.77-.2-8.37 2.2-19.07-.57-20.88l-.05-.02Zm40.33 23.66c-.78-.23-1.61.21-2.35.71-8.6 6.1-17.01 25.33-15.53 38.31.48 11.77 7.17 22.11 8.05 33.72.41 4.81-.13 9.93-.83 14.47-.11 1.8-1.95 8.66 1.2 6.81 7.92-5.6 15.86-24.52 15.07-35.52-.08-7.73-2.01-14.12-3.44-20.84-1.38-6.23-1.97-13.37-1.68-20.04.11-8.47 1.94-15.77-.44-17.62l-.05-.02Z"/></g></svg>