<svg width="51" height="67" viewBox="0 0 51 67" fill="none" xmlns="http://www.w3.org/2000/svg">
<path d="M40.1863 52.0813C39.9583 52.5163 39.2637 53.8527 39.7619 54.4771C40.1302 54.9367 40.8352 54.6139 41.6596 55.2839C41.9122 55.4874 42.1998 55.7224 42.2349 56.1188C42.284 56.6555 42.3822 56.431 42.2033 57.1255C42.0665 57.6482 42.0875 58.4129 42.5015 58.8023C43.182 59.4442 43.8204 59.0092 44.5676 59.5986C45.0973 60.016 45.0166 60.8789 44.9324 61.7734C44.7956 63.2432 44.978 62.1452 44.7535 63.4887C44.7044 63.7939 44.3326 66.1933 45.3428 66.6177C46.4478 67.0808 47.8825 66.3652 48.3911 65.853C49.1242 65.1164 50.4642 63.7694 50.9027 61.8541C51.3412 59.9423 50.2117 59.4232 49.233 57.5184C47.9947 55.105 47.8684 54.8349 45.6129 51.4569C44.6412 50.0011 44.3255 49.268 43.4802 49.2434C42.1647 49.2084 40.7756 50.9342 40.1793 52.0743L40.1863 52.0813Z" fill="black"/>
<path d="M22.2618 14.2215C22.3424 14.5407 22.4301 14.8529 22.5143 15.1616C22.9774 15.2072 23.4404 15.2703 23.8964 15.358C24.4191 13.8953 25.0891 12.4781 25.8608 11.2118C24.4577 10.7452 23.023 10.4225 21.5742 10.2542C21.7005 11.6327 21.932 12.9867 22.2618 14.218V14.2215Z" fill="black"/>
<path d="M38.2564 20.2376L38.2108 20.178C37.2672 18.9432 36.2113 17.7927 35.0713 16.7368C35.0818 18.4802 35.2677 20.2587 35.6185 21.8477C35.7237 22.3458 35.8325 22.8194 35.9447 23.2929C36.1762 24.2927 36.4078 25.3099 36.5867 26.3868C38.5475 31.8275 38.1687 37.9241 35.2326 43.1262L35.1976 43.1893C31.8967 49.2965 19.0826 49.4263 13.7647 44.1014C7.36293 37.9767 5.04776 28.6669 9.23611 21.3847C9.29925 21.2654 9.3694 21.1461 9.43605 21.0304C8.88532 19.515 8.4293 17.9224 8.27496 16.1791C8.16973 15.467 8.12763 14.7303 8.13465 13.9832C1.10145 19.4589 -1.4733 29.5439 0.810298 37.9662C3.92876 50.3067 17.0551 61.2898 30.5357 57.1014C36.534 55.137 40.8452 50.1524 42.7113 44.4101C45.3668 36.4122 43.4971 27.0288 38.2529 20.2376H38.2564Z" fill="black"/>
<path d="M18.0482 0.0219024C17.7395 -0.0622856 17.4133 0.109598 17.1187 0.309544C13.8353 2.57911 10.0995 10.356 10.9765 15.9369C11.3623 20.5673 14.4141 24.4048 14.8842 28.9896C15.1087 30.9048 14.8912 33.0166 14.579 34.8406C14.5334 35.5352 13.6915 38.4186 14.9263 37.6925C18.1956 35.4299 21.4543 27.9477 20.9878 23.2718C20.8299 20.1989 19.8548 17.7294 19.1497 14.9933C18.5218 12.6466 18.2096 9.921 18.2657 7.35677C18.1956 4.42072 19.0374 0.667343 18.0658 0.0324259L18.0482 0.0254102V0.0219024Z" fill="black"/>
<path d="M32.1951 8.32132C31.9214 8.24064 31.6303 8.39499 31.3707 8.57038C28.354 10.7102 25.4039 17.4557 25.9231 22.0089C26.0914 26.1376 28.4382 29.7647 28.7469 33.8373C28.8907 35.5245 28.7013 37.3206 28.4557 38.9131C28.4171 39.5445 27.7717 41.9509 28.8767 41.3019C31.6549 39.3376 34.4401 32.7007 34.163 28.8421C34.1349 26.1306 33.4579 23.8891 32.9563 21.5318C32.4722 19.3464 32.2652 16.8418 32.3669 14.5021C32.4055 11.531 33.0475 8.97027 32.2126 8.32132L32.1951 8.31431V8.32132Z" fill="black"/>
</svg>
