<?xml version="1.0" encoding="UTF-8"?>
<svg id="Capa_2" data-name="Capa 2" xmlns="http://www.w3.org/2000/svg" viewBox="0 0 163.47 217.5">
  <defs>
    <style>
      .cls-1 {
        fill-rule: evenodd;
      }
    </style>
  </defs>
  <g id="Capa_1-2" data-name="Capa 1">
    <path class="cls-1" d="M89.18,217.5c-15.3,0-27.61-1.02-36.59-3.02-.28-.11-2.35-.98-3.67-1.84-.75-.49-1.13-.99-1.2-1.19-.26-.77-1.06-3.1,4.03-5.26,2.32-.99,5.48-1.81,8.81-2.69,2.43-.64,4.94-1.3,7.3-2.06,2.97-.96,6.65-2.36,8.72-4.61,3.5-3.8,10.01-10.88,6.42-63.07-1.26-18.34-4.73-23.65-9.49-29.17l-.71-.82c-1.76-2.02-3.58-4.11-5.42-7.04-1.32-2.12-1.8-2.72-2.67-3.81-.38-.48-.84-1.05-1.49-1.91-.41-.62-1.07-1.62-5.06-6.75-1.71-2.6-3.65-5.02-5.54-7.36-2.14-2.65-4.34-5.4-6.13-8.33-.02-.03-.04-.07-.07-.1-2.67-3.35-4.14-5.15-5.28-6.28-.77-.76-1.32-1.21-2.02-1.36-.15-.03-.3-.05-.46-.05-.45,0-.84.13-1.25.27l-.91.3c-3.31,1.12-5.71,1.92-8.68,1.92-2.15,0-4.54-.43-7.54-1.34-.09-.03-.19-.04-.28-.04h-.03l-.36-.06c-.09-.04-.27-.14-.56-.32-.15-.09-.32-.15-.5-.15-.04,0-.08,0-.11-.02-1.08-.49-1.92-.85-2.63-1.15-2.41-1.02-3.13-1.33-6.13-3.83C-.18,46.54-.77,36.91.48,30.55c1.88-9.59,8.81-17.23,14.37-19.55,4.94-2.07,9.59-3.11,13.82-3.11,2.06,0,4.07.25,5.96.74,6.74,1.76,10.77,6.31,12.93,8.75.21.24.41.47.6.67,2.46,3.18,2.76,3.85,3.9,6.33.29.62.62,1.36,1.05,2.26.02.04.05.09.07.13.21.31.37.58.51.81.04.06.07.13.1.18.12.22.28.53.62.76.39.26.79.27,1.22.27,0,0,.47,0,.6,0,.8,0,1.47-.05,2.48-.14,2.92-.24,8.36-.69,26.74-.69,5.69,0,12.25.04,19.51.13,2.37.03,4.02.15,5.35.26,1.06.08,1.97.15,2.94.15,1.94,0,3.9-.29,7-1.02,1.36-.32,2.68-.49,3.9-.49,2.49,0,4.27.65,5.83,1.23l.44.16c.71.27,1.37.52,2.11.52.28,0,.55-.04.8-.11.71-.2,1.35-.68,2.09-1.56.36-.43.64-.72,1.24-1.34,1.49-1.53,4.98-5.12,16.65-18.1,5.86-6.52,7.09-7.52,7.35-7.65,0,0,.03-.01.06-.02l.31-.1.43-.03c.06,0,.34.03.42.05.04,0,.08,0,.12,0,.11,0,.21-.02.31-.05.04,0,.08,0,.11,0,.07,0,.1.01.13.03.06.04.1.08.13.14.03.09.08.17.14.24.26.32.57.84.63,1.23.13.86-.35,1.91-1.41,3.12-2.66,3.01-7.71,8.48-12.16,13.3-3.24,3.51-6.3,6.82-8.13,8.86-.61.67-1.18,1.34-1.45,1.66-.15.18-.23.4-.23.64,0,.48.35.9.83.97l.12.02c.19.02.37.04.57.06.19.02.4.04.63.07l.52.06c1.95.22,7.89.9,11.55,2.32,1.15.45,2.05.96,2.58,1.49.41.4.64.83.7,1.28l-.05.45s-.03.1-.06.17c-.11.32-.3.88-.65,2-.37.75-.56,1.2-.71,1.57-.23.57-.38.92-1.02,1.86-.9,1.31-1.82,2.66-13.1,15.83-1.09,1.31-1.88,2.19-2.72,3.12-1.74,1.93-3.71,4.12-8.82,10.71l-.48.59c-6.33,7.74-17.28,21.28-19.43,25.03-.92,1.61-2.16,3.15-3.48,4.78-4,4.96-8.98,11.13-10.88,25.36-1.49,12.24-3.39,49.92,1.13,62.34,3.09,8.48,7.81,10.34,14.14,12.05.74.2,1.51.4,2.32.61,4.2,1.09,8.96,2.32,14.75,4.9.03.03.14.11.17.13l.07.06c.33.26,1.02.81,1.54,1.5.33.43.74,1.1.79,1.84.13,1.89-2.03,3.13-3.86,3.83-3.15,1.22-9.09,1.87-13.03,2.3-.95.1-1.78.2-2.43.28-9.38.58-17.44.7-22.56.7ZM66.07,212.11c5.75,1.01,7.11,1.25,19.59,1.38h.01c.35,0,.67-.19.85-.49.18-.31.17-.68,0-.99-.1-.17-.21-.32-.35-.45-.19-.19-.43-.29-.69-.29-.05,0-.11,0-.16.01-.19.03-.51.07-.9.08-1.4.02-2.54.03-3.52.03-4.06,0-5.19-.21-10.61-1.25l-.81-.15c-1.4-.27-2.01-.93-2.17-1.13-.13-.17-.31-.29-.52-.34-.11-.03-.27-.07-.38-.12l-.17-.12-.15-.19-.12-.28c-.02-.07-.03-.13-.04-.2-.04-.27-.19-.52-.41-.67-.16-.11-.36-.17-.55-.17-.07,0-.15,0-.22.03-1.93.45-2.5.61-4.63,1.2l-.87.25c-.29.08-.93.2-1.6.32-.59.11-1.25.23-1.88.36-.46.09-.78.5-.78.96s.33.86.79.95c2.92.57,6.99.87,8.61.98h-.05s1.77.3,1.77.3ZM92.93,209.95c-.07.28-.01.58.16.82.17.23.44.38.73.4,4.53.25,12.08.42,18.36.42,3.43,0,6.27-.05,8.22-.15,1.12-.05,2.22-.19,2.64-.25.12-.02.24-.06.34-.11l.16-.09c.34-.19.54-.55.5-.94-.03-.39-.29-.72-.66-.84-.85-.3-2.13-.7-3.33-.98-.53-.12-1.09-.25-1.68-.38-3.88-.87-8.71-1.96-13.07-3.83-3.85-1.65-6.76-3.7-8.62-6.07-3.68-4.68-7.49-9.52-6.01-57.44.21-6.78.7-22.67,6.38-31.96.28-.46.5-.75,1.1-1.52.89-1.16,2.56-3.32,6.34-8.55.31-.43.22-1.02-.19-1.35-.18-.14-.39-.21-.6-.21-.28,0-.56.12-.75.35l-.59.72c-2.75,3.32-5.12,6.18-7.45,8.09-2.09,1.7-4.01,2.53-5.87,2.53-.87,0-1.72-.17-2.61-.52-.23-.09-1.12-.53-3-2.34-2.46-2.37-6.12-6.48-11.19-12.58l-.54-.65c-.19-.23-.47-.35-.75-.35-.21,0-.43.07-.61.22-.42.33-.49.94-.16,1.36l2.21,2.83c5.66,7.23,10.13,12.94,11.78,17.06,1.94,4.84,3.27,15.36,3.76,29.61.65,19.17-.37,39.76-1.69,44.68-1.88,7.03-5.57,12.27-10.97,15.58l-.14.09c-.14.09-.25.21-.34.35l-.2.35c-.16.29-.31.54-.44.78-.09.17-.19.4-.24.55-.15.42,0,.88.36,1.14.21.15.53.35.85.51.43.2.98.27,1.61.33,1.15.11,2.67.12,3.99.12h2.94c2.31,0,6.61,0,8.27.62.58.22.84.5.96.67l.12.33v.3s-.07.33-.07.33ZM82.33,86.7c-.13,0-.26.03-.39.08-.13.06-.31.14-.45.23-.88.52-1.25.99-1.55,1.36l-.08.09c-.38.46-.73.9-1.92,1.43-.18.08-.41.14-.69.2-.05,0-.17.04-.28.07-.34.09-.6.35-.69.69l-.07.26c-.08.3-.01.62.18.87,3.74,4.66,6.56,8.11,8.88,10.06,1.4,1.18,2.52,1.76,3.64,1.86.12.01.25.02.37.02,1.7,0,3.19-1.07,5.05-2.8.44-.4.66-.66,1.62-1.72,1.15-1.28,3.54-3.93,8.9-9.74,1.74-1.89,2.79-3.33,4-4.99,2.06-2.84,4.63-6.37,12.09-14.34,1.23-1.41,1.89-2.22,2.47-2.94.78-.97,1.39-1.73,3.02-3.48,1.03-1.11,1.71-2.01,2.07-2.74.06-.11.12-.26.16-.4.1-.28.06-.59-.1-.84s-.43-.41-.72-.44c-.25-.02-.67-.06-1.06-.06-.2,0-.39,0-.55.03-1.3.15-2.55.52-2.69.56-3.28.74-4.41,1-6.17,1-.98,0-2.19-.08-4.02-.2-.11,0-.2-.01-.32-.01-1.42,0-4.26.73-7.38,5.65-.67,1.05-.48,2.04-.28,2.69.19.6.46,1.19.76,1.81l.12.26c1.29,2.77,3.05,6.55-1.12,13.58-2.34,3.94-7.01,6.48-11.91,6.48-3.08,0-6.12-1.02-8.78-2.96-.51-.37-.86-.74-1.15-1.05-.09-.09-.21-.21-.3-.3-.19-.18-.43-.28-.68-.28ZM52.02,58.89c-.32,0-.64.03-.97.1-.33.07-.61.31-.72.63-.12.32-.06.68.16.94.81,1.01,1.92,2.38,2.8,3.46.69.85,1.23,1.51,1.36,1.68,7.01,8.85,8.62,10.75,13.39,16.4,1.17,1.38,2.52,2.99,4.2,4.98.19.23.47.35.75.35.15,0,.3-.04.45-.11.26-.13.48-.21.67-.27.07-.02.15-.04.22-.06.42-.11.95-.25,1.7-.84.63-.49,1.86-1.58,3.04-3.32.1-.15.16-.32.17-.49,0-.11.02-.41,0-.63-.03-.42-.11-.93-.19-1.5l-.07-.45c-.42-2.79-.62-5.76.73-8.58,2.32-4.85,4.89-6.48,7.54-7.84.41-.21.62-.68.5-1.12-.12-.43-.5-.72-.94-.72-.02,0-.52.02-.52.02-4.67.26-7.36.37-9.61.37-2.82,0-4.99-.16-8.92-.45-1.44-.11-3.11-.23-5.12-.36-4-.27-6.25-1.02-7.88-1.57l-.59-.19c-.79-.26-1.43-.42-2.14-.42ZM93.02,66.2c-.63,0-1.23.11-1.78.33-.4.16-.65.57-.61,1,.03.29.06.54.1.77.02.13.04.25.05.36.08.78.13,1.25-1.11,2.43-.42.4-.43.41-2.69,1.44l-2.1.96c-.71.33-1.21.99-1.46,1.96-.26.96-.25,2.11.03,3.35.86,3.9,4.18,7.86,9.64,7.89h0c3.05,0,5.53-.89,7.26-2.58,2.31-2.26,3.22-5.81,2.43-9.49-.43-2.01-.74-3.13-1.31-4.03-.73-1.15-1.8-1.72-3.41-2.58-.4-.21-.85-.45-1.35-.72-1.3-.72-2.54-1.09-3.68-1.09ZM97.99,61.2c-.45,0-.85.31-.95.76-.1.45.13.92.55,1.11.28.13.61.29,1.04.52.91.47,1.62.7,2.23.7.28,0,.55-.05.8-.14.71-.27,1.02-.86,1.17-1.14l.07-.13c.09-.17.14-.36.13-.55v-.13c-.04-.51-.47-.91-.98-.92-1.67,0-2.86-.04-3.73-.06,0,0-.32,0-.33,0ZM28.42,37.3c-.37,0-.73.21-.89.54-.17.34-.15.75.08,1.05l.04.06c.43.54,1,1.08,1.77,1.79l.87.78c2.8,2.52,6.63,5.97,8.86,10.91.26.58.7,1.55,4.07,5.55.19.22.46.35.75.35h0c.29,0,.57-.13.75-.36.15-.19.29-.39.42-.6.04-.08.08-.16.1-.24l.09-.36c.15-.57.37-1.36,2.19-2.2.42-.19.88-.32,1.37-.46.54-.15,1.11-.31,1.66-.57,3.35-.9,12.07-3.25,34.75-3.25,5.02,0,10.49.12,16.25.35,5.73.23,6.31.3,8.86,1.11.1.03.2.04.29.04.27,0,.52-.11.71-.31.26-.27.34-.67.2-1.02-.36-.95-.74-1.44-1.08-1.88-.49-.64-.91-1.19-1.35-2.65-.54-1.79-.55-3.11-.53-3.59.01-.26-.09-.52-.27-.71l-.16-.18c-.17-.2-.42-.32-.68-.33-2.74-.17-6.02-.25-10.31-.25-2.63,0-5.39.03-8.26.06-3.08.03-6.28.06-9.55.06-7.51,0-17.38-.15-27.05-1.33-2.08-.26-3.56-.27-5.13-.28-2.41-.02-4.9-.04-10.07-.93-2.53-.43-3.56-.59-4.84-.77-.82-.12-1.73-.25-3.21-.49-.05,0-.1-.01-.15-.01-.08,0-.15,0-.22.03,0,0-.34.08-.34.08ZM116.18,54.63c-.12,0-.31.03-.42.07-.38.14-.6.42-.75.62-.22.29-.42.6-.66,1.02-.09.16-.26.45-.19.85.02.1.06.23.1.32.12.25.34.43.61.5.09.02.18.04.27.04.18,0,.36-.05.51-.15.61-.38.92-.51,1.04-.56l.26-.06c.09-.01.17-.02.26-.02h.03c.5,0,1.01-.37,1.07-.86l.02-.19c.05-.41-.16-.8-.53-.99-.35-.18-.65-.32-.93-.42-.22-.09-.43-.18-.7-.18ZM101.76,57.62c.87,0,1.41,0,1.57.01.83.09,1.53.13,2.12.13,1.09,0,1.89-.14,2.52-.44.43-.21.78-.5,1.09-.93.21-.3.25-.69.08-1.02-.17-.33-.5-.53-.87-.53,0,0-1.13,0-1.13,0-6.17,0-11.53-.1-16.27-.19-3.89-.07-7.57-.14-11.04-.14-6.28,0-11.33.24-16.37.78-.51.05-.89.49-.87,1,.02.51.42.92.94.95,6.55.28,15.29.41,26.72.41,3.07,0,5.82,0,8.01-.02,1.44,0,2.63,0,3.51,0ZM132.62,54.53l-.07.07c-.22.23-.31.55-.25.86s.27.57.55.7l.36.16c.69.44,1.4.82,2.16.82h0c.13,0,.26-.01.39-.04.83-.15,1.37-.77,1.77-1.23.37-.43.73-.91,1.12-1.43.51-.68,1.03-1.38,1.67-2.09,3.1-3.45,4.31-4.88,5.85-6.69,1.07-1.26,2.29-2.69,4.41-5.12.41-.47.75-.84,1-1.11.29-.31.35-.76.15-1.13-.17-.32-.51-.52-.86-.52-.05,0-.11,0-.16.01-6,.99-9.82,1.5-11.97,1.76-.48.06-.85.46-.86.94-.27,9.36-2.47,10.99-3.92,12.07l-.15.11c-.2.14-.41.29-.6.49-.16.17-.26.38-.27.61,0,.11-.02.19-.03.23l-.1.23-.19.26ZM27.05,45.21c-.32.03-.61.21-.77.5-.23.42-.49.99-.77,1.74-.59,1.57-1.13,2.45-1.61,3.22-.56.91-.94,1.61-1.16,2.93-.05.29.04.59.23.81.19.21.45.33.73.33.02,0,.03,0,.04,0,1.55-.07,3.72-.15,4.66-.19l.41-.02c1.85-.07,2.8-.31,3.4-.87.27-.26.39-.53.47-.74.11-.3.07-.63-.11-.89l-.62-.91c-1.64-2.42-2.13-3.14-4.07-5.55-.19-.23-.47-.37-.76-.37-.03,0-.06,0-.08,0ZM131.77,39.83c-.06,0-.12,0-.18.02-3.28.6-4.32.63-9.29.8-1.98.06-4.56.15-8.14.3-.35.01-.66.21-.82.52l-.46.87c-.16.3-.15.66.02.95.22.38.56,1.08.94,2.3.15.47,1.53,4.63,5.18,5.95,2.34.85,4.36,1.29,5.99,1.29h0c.78,0,1.32-.1,1.67-.17.12-.03.24-.08.34-.14l.57-.38c2.13-1.43,3.42-2.29,4.25-3.56.92-1.4,1.13-3.08,1.44-6.19.05-.51.14-1,.21-1.32.06-.3-.02-.62-.22-.85-.19-.21-.45-.33-.73-.33-.03,0-.17,0-.17,0l-.5-.05s-.06,0-.09,0ZM21.65,39.32s-.09,0-.13,0c-3.3.46-3.86.6-6.55,1.28l-1.35.34c-.33.08-.71.17-.92.22-.39.09-.69.41-.75.81-.02.11-.03.24-.04.35-.02.37.12.65.22.83l.05.09c.18.37.43.79.77,1.27.59.84,1.39,1.83,2.32,2.85.7.76,1.26,1.27,1.79,1.62.36.24.79.49,1.3.53.02,0,.1,0,.1,0,.67,0,1.1-.45,1.28-.64.29-.3.57-.7.89-1.25.55-.96,1.07-2.16,1.67-3.56.2-.45.4-.93.62-1.42.07-.17.1-.35.07-.53-.05-.33-.09-.63-.12-.88.16-.13.28-.3.33-.51.14-.51-.14-1.03-.64-1.19l-.19-.06c-.05-.02-.11-.03-.16-.04-.05-.02-.1-.04-.15-.06l-.13-.04c-.09-.03-.19-.04-.29-.04ZM12.76,27.68c-.11,0-.23.01-.34.03-.69.13-1.05.68-1.18.89-.32.49-.56,1.12-.73,1.93-.4,1.81-.15,4.4-.02,5.43.03.27.17.51.39.67.17.12.37.19.58.19.06,0,.12,0,.17-.02l.14-.03c.27-.04.6-.11,1.03-.21l.28-.06c1.33-.3,3.56-.8,7.37-1.36.4-.06.73-.36.81-.76.09-.4-.08-.81-.42-1.03-1.34-.88-3.2-2.34-5.7-4.47-.85-.73-1.59-1.21-2.39-1.21ZM96.84,32.18c-6.46,0-15.72.09-29.13.3-6.08.09-9.15.22-10.95.47-.56.08-.98.16-1.31.27-.11.03-.25.09-.35.14-.33.15-.55.47-.57.84,0,.11-.01.22-.01.29,0,.39.23.74.59.9.2.09.9.37,1.71.51,3.67.62,11.82.66,31.51.75h1.51c1.76.02,12.99.07,17.81.07.7,0,1.92,0,1.92,0,.13,0,.26-.03.38-.08.38-.17.69-.34.93-.61.25-.27.33-.57.38-.76l.09-.31c.08-.27.17-.59.31-.98.1-.28.07-.58-.08-.84-.15-.25-.41-.43-.7-.47-2.03-.29-5.08-.47-14.04-.47ZM116.66,33.77s-.09.05-.33.15c-.49.19-.75.74-.57,1.24.04.1.07.2.09.28,0,.02,0,.08,0,.14,0,.27.1.53.29.72.18.18.43.28.68.28.01,0,.03,0,.04,0,1.13-.04,3.57-.14,8.3-.31l1.17-.04c.28,0,.32-.01.4-.02,1.4-.16,2.23-.44,2.77-.95.18-.16.33-.36.44-.58.24-.48.05-1.06-.42-1.3-1.42-.74-3.67-1.62-6.31-1.62-2.33,0-4.53.68-6.56,2.03h0ZM137.51,33.04c-.06,0-.12,0-.18.02-.3.06-.55.25-.69.52-.03.06-.06.12-.09.17l-.07.11c-.17.25-.22.57-.12.86l.1.31c.13.4.51.67.93.67,0,0,.02,0,.03,0,.61-.02,1.12-.03,1.56-.04.48,0,.89-.37.95-.85.06-.48-.24-.93-.7-1.07-.2-.06-.39-.11-.59-.18l-.34-.17s-.08-.06-.12-.1c-.18-.16-.41-.25-.65-.25ZM43.17,24.96c-.23,0-.45.08-.63.23-.6.5-1.48,1.35-2.78,2.66-1.33,1.34-2.01,2.27-2.28,3.12-.11.34-.02.72.23.98.19.19.44.3.7.3.09,0,.18-.01.27-.04,2.26-.66,2.78-.79,6.01-1.07.16-.01.31-.06.44-.15.26-.17.46-.41.56-.69.3-.79-.01-1.68-.61-2.87,0,0-.55-1.11-1.07-1.99-.15-.25-.39-.42-.68-.47-.05,0-.11-.01-.16-.01ZM31.73,18.61c-.22,0-.9,0-1.42.5-.46.45-.44,1.07-.43,1.33.04,1.01.08,1.89.11,2.67.19,4.5.23,5.44-.46,7.87-.09.3-.02.62.17.87.19.24.47.38.77.38,0,0,.71-.02.71-.02.48-.01.88-.37.94-.85l.02-.13c.05-.35.11-.62.2-.83.39-1.03,1.78-2.66,3-4.1.38-.45.77-.9,1.12-1.34.38-.47.87-1.08,1.21-1.65.13-.22.26-.55.31-.66.07-.18.09-.39.05-.58-.16-.74-.8-1.23-1.31-1.63-1.19-.92-2.86-1.62-4.25-1.78-.25-.03-.5-.05-.73-.05ZM23.89,18.43c-.06,0-.12,0-.17.02l-4.58.83c-.13.02-.25.07-.36.15-.88.58-1.57,1.04-2.05,1.44-.47.38-.78.75-.89,1.35-.08.48-.16.94.04,1.44.21.51.59.83,1.03,1.21.41.35.93.74,1.58,1.23,1.09.82,2.57,1.95,4.53,3.6.18.15.41.23.63.23.16,0,.32-.04.46-.11.09-.05.18-.09.28-.13l.59-.25c.37-.15.65-.54.64-.94-.02-1.54-.18-5.89-.2-6.46-.02-.59,0-1.11.03-1.58l.02-.45c0-.19,0-.44-.01-.6-.03-.45-.36-.82-.81-.9-.16-.03-.44-.07-.72-.08-.02,0-.03,0-.04,0Z"/>
  </g>
</svg>