<?xml version="1.0" encoding="UTF-8"?>
<svg id="Capa_2" data-name="Capa 2" xmlns="http://www.w3.org/2000/svg" viewBox="0 0 365.95 166.05">
  <defs>
    <style>
      .cls-1 {
        fill-rule: evenodd;
      }
    </style>
  </defs>
  <g id="Capa_1-2" data-name="Capa 1">
    <path class="cls-1" d="M261.56,16.34c26.4,16.58,29.67,9.09,56.87,22.45.93.46,16.95,6.19,31.91,19.36,42.69,37.57-10.54,78.23-58.96,92.28-15.72,4.56-15.48,5.64-34.89,7.83-26.5,2.99-55.65,11.17-109.49,6.27-10.7-.97-41.07-6.22-55.94-10.4-21.34-6-22.23-6.63-23.86-7.79-3-2.13-2.34-3.07-8.11-5.46-3.95-1.64-73.63-24.82-56.33-66.1,7.19-17.15,32.94-31.24,42.52-35.14,21.63-8.82,21.45-9.43,53.85-17.26,8.92-2.16,10.33,1.2,18.9-5.65,5.64-4.5,11.28-6.63,12.34-7.03,10.58-3.09,10.9-.56,21.75-2.51,27.79-4.99,27.89,2.72,34.69,2.24,1.04-.07,1.92-.94,2.95-1.01,15.43-12.62,37.01-9.78,50.14.34.82.63.46,1.25,6.49,3.38,6.57-.33,7.29-.04,12.95,3.01h.02c.7-.29.92.17,1.13.62l1.09.58ZM45.91,93.32c-.46-1.11-4.3-7.01-1.44-13.86,2.88-6.92,3.32-6.72,3.47-7.35,2.14-8.93-10.66,4.58-9.12,15.78.6,4.31,5.54,13.82,8.67,12.28.66-.32.84-1.3,1.5-1.63l-3.08-5.22ZM128.2,77.41c-7.27,7.7-6.72,8.21-9.14,10.23-.39.33-1.03.26-1.42.58,1.2.53,1.28,2.53,2.49,3.06,2.39,1.06,13.99-9.21,10.22-12.78-.59-.56-1.57-.55-2.15-1.1ZM72.55,64.27c-1.34-.33-1.68-2.49-3.02-2.82-1.58-.39-12.39,7.16-13.41,7.88-1.38,1.48-3.11,2.6-4.49,4.08-.41.43-.18.51-3.29,6.65.99-.11,1.89.93,2.88.81,2.15-.25-.31-3.89,21.33-16.6ZM128.15,37.81c1.47-2.82,1.14-2.91,2.88-5.52.41-.62,4.83-7.24,4.72-7.96-.15-1.09-1.9-1.5-2.06-2.6-4.92,4.79-4.94,4.7-5.31,5.17-1.56,1.96-1.22,2.08-2.31,5.05-.33.9-1.28,1.58-1.37,2.53-.1.95.94,1.79.85,2.75l-5.32-.37c-12.05,1-12.62-.13-22.77,6.49,1.53.02,2.56,2.1,4.09,2.12,1.55.02.98-2.92,18.97-3.85,1.65-.09,18.91.92,23.85,11.75,2.88,6.32,8.24,6.15,12.51,26.87,1.68,8.13-1.87,14.5-2.48,15.6-4.54,8.14-8.1,14.83-26.29,18.4-10.68,2.09-29.24-3.36-34.34-6-4.95-2.56-5.05-2.28-5.38-2.63-.2-.21,0-.26.06-3.62-1.89-2.22-3.26-1.27-7.5-11.25-1.43-3.37-1.75-3.13-3.54-6.32l-2.92,3.51c.23.34.91-.13,5.3,8.52,1.83,3.61-.18,5.2-.2,5.66-5.47-5.91-4.7-6.39-7.39-13.91-1.15.84-5.95.57-.8,11.01,2.25,4.54,5.82,6.48,6.48,6.84.73.39,1.58.5,2.3.89,5.63,2.25,5.56,2.19,11.07,4.74,6.27,2.9,28.9,9.54,36.98,8.41,14.62-2.04,22.06-9.66,23.51-11.15,1.92-2.5,1.92-2.48,2.07-2.7,1.7-2.42,1.53-2.43,3.28-4.93l2.85-5.33c2.08-6.23,4.41-9.93,2.15-18.46-5.98-22.6-14.03-36.21-33.95-39.72ZM318.29,68.89c-1.35-1.33-1.27-1.34-2.67-2.65-4.03-3.74-5.2-4.04-5.93-4.65-.9-.75-1.36-2.04-2.41-2.55-.79-.39-1.85.47-2.64.09.26.71-.29,1.56-.03,2.27,1.15,3.16,5.03,4.01,12.12,10.61,3.45,6.88,4.1,6.64,4.58,10.81,1.14,9.99-6.32,15.58-6.53,15.82-16.13,13.27-33.77,17.45-47.62,21.72-4.26,1.62-19.52,5.1-21.23,5.49,1.1.54,1.24,2.28,2.33,2.82.3.15,69.93-10.87,76.93-37.98,3.11-12.04-4.68-19.19-6.89-21.8ZM202.68,53.58l-2.59,2.36c-1.09-2.69-1.44-2.5-2.17-5.34-2.46-9.52-4.22-8.53-11.09-15.64.04.22-.55,2.19.93,4.84,4.44,7.95,6.16,7.41,6.77,16.53.2,2.99,0,2.98.05,3.23.06.31.58.39.64.71l5.23-1.23c7.12.14,7.74,1.73,13.34-2.71,5-.91,5.83.02,16.03-10.75,10.31-9.39,11.65-9.03,15.64-11.13,6.47-3.12,6.39-3.52,13.59-4.1,24.61-1.96,33.24,25.21,34.32,28.61,5.07,15.97-4.42,31.06-4.57,31.72-.19.8,0,1.67-.18,2.47.59-.03,3.34,3.74,6.59-3.63,1.58-3.58,5.81-18.53,4.76-25.64l-.38-5.37c-10.29-17.6-9.52-23.49-29.95-31.23-1.39-.53-6.7-2.54-18.54-.25-.66.13-.59.21-7.99,2.75-12.18,7.84-12.7,7.2-22.54,17.74-1.63,1.75-1.07,2.13-2.18,2.97-.13.1-.17-.35-2.01.44-1.89.81-1.65,1.13-3.57,1.96.73-4.43.78-4.4.78-4.78,0-3.07-.56-2.88-1.87-5.57-.77-1.57-2.94-14.79-19.3-24.09-17.51-9.95-37.14-6.11-40.34-5.49,1.29.73,1.56,2.7,2.86,3.42.04.02,18.19-3.79,35.38,6.62,3.88,2.35,14.68,8.56,18.07,22.44.59,2.43.59,2.44.5,2.63-.85,1.86-2.04.76-2.88,2.62-.48-1.54-.65-3.17-1.13-4.72-6.18-19.87-28.14-24.8-31.29-25.5-27.41-6.15-37.31,10.23-38.14,12.45-.82,2.18,1.16.42,3.3,1.21,10.14-8.73,16.06-12.54,34.51-9.15,2.87.53,4.26,1.47,9.02,3.14,15.88,7.31,17.12,13.42,20.4,25.47ZM62.11,89.12c10.39-7.92,10.07-8.52,22.32-12.95,8.42-2.07,8.47-1.59,17.14-1.48,5.36.87,5.33.72,10.58,2.22,21.56,6.14-1.98-4.94-2.41-5.08-9.63-3.06-30.44-3.06-44.72,9.12-7.31,6.23-6.56,6.84-6.8,7.14l-5.29,5.49c3.27,5.37,7.29,12.66,11.29,13.03,5.32.49,1.08-2.64-.06-7.79-.18-.83-.21-1.69-.44-2.51-.18-.65-.73-1.21-.78-1.88-.15-1.81.62-1.71.33-3.57-.17-1.08-.99-.61-1.16-1.74ZM205.62,72.35c-1.3.02-10.15.14-15.88,3.72-16.44,10.27-11.38,36.23-5.15,30.91,1.8-1.54-5.72-13.12,4.61-24.5,9.38-10.33,35.51-8.81,36.69,19.03.42,9.98-8.03,17.82-9.27,18.97-3.67,3.4-2.48,4.36-3.1,5.45,7.19-1.48,7.63-1.49,11.64-7.67,9.49-14.62,5.52-25.81,2.17-33.04-.81-1.21-.81-2.68-6.15-7.17,1.94-1.17,1.68-1.43,3.64-2.61,1.55-.94,1.67-.51,1.73-.64.21-.45.57-1.2-3.07-5.33-1.07-.29-1.34.73-4.62-1.23q-3.82-2.29-8.25-3.08c-15.38-2.8-28.97,6.09-31.11,7.49-.84.92-8.06,8.84-9.25,12.56-3.88,12.18-.14,14.45,2.72,18.36.08-.7.76-1.25.84-1.95.44-4.02-.28-3.99.15-8.04,1.12-10.37,10.1-23.97,26.88-24.83,2.87-.15,2.9-.12,3.1.03,1.67,1.27,0,2.32,1.65,3.58ZM214.67,35.22l1.37,5.15c1.47,5.75,3.14.12,8.09-3.11,3.38-2.21,3.05-2.55,6.4-4.76,1.53-1.01,3.75-1.24,4.76-2.78.71-1.09-1.11-2.8-.39-3.89-6.76,3.5-6.65,3.57-13.16,7.53-.56-1.04-.65-2.28-1.21-3.32-.82-1.53-5.05-1.12-6.11,2.49-.25.86.5,1.83.25,2.7ZM278.98,73.81c.55-5.02.36-4.96-.29-10.02l-2.86,2.94-.68,2.7-.07,2.7c-.14.65-.98,4.58-2.27,7.91.32.4.07,1.1.39,1.5.93,1.16,4.11,1.53,4.48,1.16.31-.31-.52-.52.84-5.4.49-1.77.23-1.75.46-3.5ZM122.92,125.45c-7.59-2.31-30.08-7.86-39.63-11.69-16.52-6.63-17.34-2.69-17.26-1.31.04.64,17.22,7.71,38.25,12.33,14.69,3.23,14.6,4.1,15.86,3.78,1.35-.34,1.43-2.76,2.78-3.11ZM228.04,24.37c.36-1.17,2.19-1.48,2.54-2.65.3-.99-.2-2.16-.82-2.99-3.03-4.05-3.94-1.52-8.26,1-.83-.2-7.78-1.91-10.62-1.42-1.27.22-1.13.59-2.41.75-1.02.13-.93-.34-1.89-.22.14.9-1.05,1.67-.9,2.57.1.61,3.67,6.35,5.67,6.22,1.63-.11.57-5.1,7.59-3.45,5.26,1.23,5.02,1.85,5.48,1.91.32.04.27-.13,3.62-1.72ZM272.47,112.26c.47-.48,1.41-.25,1.89-.73l2.35-4.65c.86,0,9.79,0,10.75-.97.31-.31.08-.38,1.09-5.36-3.97-1.86-4.03-1.76-7.05-4.88-.59-.42-.54-.4-4.58-3.61l3.3-2.2c.08-.04,2.99.55,4.66-2.52,11.92-21.95-.88-54.62-25.89-52.64-.85.07-1.7.26-2.55.33,1.57,2.84,1.44,2.96,1.69,3.06.23.09,1.71-.05,6.43.9,22.99,4.64,20.31,36.99,17.26,43.33-.24.49-2.74,5.71-3.12,6.12-.9.98-2.54,1.06-3.44,2.04-7.79-8.25-7.66-8.3-14.57-17.25-2.5-3.57-6.83-9.38-9.85-19.74-.73.35-1.52-1.3-2.24-.94-5.07,2.48,7.81,26.07,24.11,43.2l4.85,3.43c.53,1.1-.52,1.22.02,2.33,1.09,2.24,1.94,1.43,1.9,1.63-.15.77-2.16-.34-2.31.43-7.65,2.03-7.64,1.97-15.49,2.69-17.23,3.44-17.73,2.01-18.72,3.17-.66.77.09,2.21-.57,2.98,5.55,1.73,5.63.82,11.37-.04,1.47-.22,2.94-1.17,4.39-.82,1.48.36,2.16,2.4,3.63,2.75,5.41-.88,5.38-.63,10.68-2.04ZM248.31,21.48c3.99.29,3.92.29,7.85-.26-.84-.65-.8-2.07-1.64-2.72-2-1.54-3.42-1.44-3.74-1.42-2.03.14-1.29,1.77-3.34,1.91l.86,2.49ZM107.04,26.69c-7.07,2.08-36.25,6.9-66.43,22.17-8.28,4.19-17.71,11.42-19.16,12.54-11.79,9.05-16.14,21.2-14.9,29.24,5.4,35.14,81.83,53.25,86.9,53.97,34.62,4.92,45.23,7.34,69.47,7.87,75.93,1.64,96.12-4.41,133.22-14.46,42.61-11.54,58.1-31.83,61.84-41.78,13.5-35.92-58.65-58.51-58.88-58.44-.68.19-.65,1.29-1.18,1.75-.4.34-1.43.03-1.49.55-.04.34,5.41,9.31,5.9,10.1,1.81,2.98,8.45,5.74,9.6,6.54,42.52,29.83,5.01,55.29-7.57,60.75-16.62,7.22-16.79,6.61-34.19,11.83-18.06,5.42-60.6,9.47-72.54,9.99-28.17,1.25-66.15-3.46-77.44-5.55-50.64-9.35-62.22-19.29-69.87-23.56-5.91-4.24-5.99-4.1-6.47-4.52-23.45-20.49-1.99-41.75,6.91-47,16.27-9.58,15.89-10.69,34.99-15.3,5.28-1.28,7.29-3.92,10.44-5.96,9.18-5.95,8.6-6.68,10.84-10.73ZM224.56,10.36c7.73,3.93,7.26,4.53,13.61,10.39.46-1.04,2.41-.8,2.88-1.84,1.45-3.23-13.27-12.44-14.77-11.81-1.13.48-.58,2.78-1.71,3.25ZM167.95,72.3c.08,1.59-1.63.89-1.55,2.49.01.21.1,2.02,1.76,1.88,1.14-.1,1.45-2.15,2.59-2.25,1.75-2.08,3.5-4.28,3.61-7.35.46-13.3-4.55-18.61-5.68-19.81-1.35-1.43-1.63-.92-2.99-1.68,2.19-1.07,1-2.35,3.2-3.42.14-.07.26-.13,1.69,1.04,7.86,6.38,8.04,15.47,8.39,18.24.76-1.23,2.9-1.1,3.66-2.33.21-.35-1.13-7.81-2.01-9.82-1.99-4.55-2.52-4.15-6.04-7.65-.57-.57-3.84-3.82-9.03-4.43-2.37-.28-2.58-.14-2.77-.02-2.06,1.31-.9,2.36-2.97,3.67l3.35,4.62c3.09,6.5,3.29,6.37,5.2,13.29.02,1.08.07,5.33-.42,13.53ZM143.5,85.38c1.41,2.31,2.58,1.09,3.98,3.39.08.13.07.12-.86,1.73-1.42,2.42-10.59,18.09-31.99,14.25-24.31-4.36-26.32-19.95-27.02-21.59l-3.86-2.6-1.03,2.14c.4,1.53,2.73,10.34,8.77,17.71,8.24,5.86,8.4,5.63,18.13,8.17,12.88,3.37,35.1,1.03,41.73-17.86,1.25-3.55.45-7.02.31-7.61-.18-.77-.1-1.7-.64-2.28-.52-.57-1.81-.09-2.17-.77-.29-.56,1.32-.59.19-7.92-1.06-6.95-7.84-15.33-15.77-17.82-15.45-4.84-26.05-1.52-26.55-1.65-.29-.07-2.96-2.28-7.85-2.02-2.53.13-2.47.17-2.65.06-2.17-1.2-1.24-2.21-3.41-3.41-3.27,3.84-3.27,3.78-3.54,4.13-4.7,6.26-4.7,6.39-4.68,7.07.03,1.16,1.21,2.09,1.24,3.25l2.66.53c.94-1.91,1.32-1.61,2.28-3.55.65-1.32.1-1.4.19-1.46.81-.55,1.92-.39,2.88-.62,6.09-1.43,6.53-.06,9.3.79,5.14,1.57,9.37-.85,14.4-1.21,24.36-1.71,26.55,15.93,26.87,18.52.59,4.75,2.93,5.37,3.11,5.91l-4.05,4.72ZM143.5,85.38l-1.8-2.63c-.61-3.88-.86-3.79-1.21-7.65-.94-10.42-11.81-16.22-14.18-13.27-.52.66-.31,1.72-.83,2.38.95.5,5.4,1.35,7.82,5.53,3.61,6.2,2.45,6.6,2.89,13.07.18,2.63-.05,2.57-.1,5.25-.5.47-.54,1.31-1.03,1.78-.19.18-4.07,2.85-4.49,3.08-6.03,3.29-6.19,2.96-13.03,3.34-14.95-3.22-17.6-7.83-20.61-13.48.76.07,1.37.75,2.13.82.75.07,1.49-.6,2.22-.4,1.14.3,1.88,1.61,3.05,1.79.45.06.21-.93.52-1.26.39-.43,1.23-.4,1.49-.92.33-.66-.25-1.55.07-2.2l-3.27-2.08c-6.07.87-6.02.88-6.74.93l-5.15,1.07c1.73,3.87,4.71,15.69,23.52,19.96,5.85,1.33,14.56-.48,19.27-3.58,7.99-5.25,8.24-8.89,9.46-11.52ZM207.96,114.91c-1.37,1.03-.77,1.52-2.15,2.56-1.44,1.08-1.72.21-1.72.35-.06.87,1.63,1.21,1.57,2.08,4.05-.89,4.08-.76,4.37-.96.72-.52.26-.87.98-1.39.13-.18,2.21-1.48,3.45-4.75.18-.46.04-.45.57-6.15-1.71-3.68-1.8-3.57-4.26-6.79l-2.37-2.02c-2.47-1.38-2.3-1.56-4.85-2.72-.76-.34-.57-.57-1.34-.87-.39-.15-.34.13-4.92,1.91.68.36.74,1.46,1.42,1.82l6.36,2.14c.63.67,1.67.87,2.3,1.55,1.7,1.81,1.99,4.77,2.03,5.22.37,3.82-.35,3.71-1.45,8.02ZM254.64,79.93q-6.97-11.37-11.45-23.92c-.85-5.3-1.09-5.3,0-10.57,3.26-15.67-4.92-.18-5.09.19-1.32,2.93.42,11.98.62,13,3.36,8.24,4.03,7.86,6.1,12.1.24.49.11,1.11.35,1.6-1.16-.05-.96,2.82-2.12,2.77-.27-.01-.24-.12-6.03-7.83-.57-.76-.44-1.02-10.14-5.03-3.89-2.06-3.82-2.19-4.2-2.23-.55-.05-.9.65-1.41.87-.7.3-2.09-.1-2.19.66-.13,1.1,1.02,1.99,1.77,2.8.53.58,1.45.7,1.98,1.29.99.49,10.22,5.08,12.17,6.47,7.42,5.27,4.57,8.36,12.64,13.66,8.37,5.5,7.56,6.37,14.01,14.01.09.02,5.41,1.96,7.25.82.58-.36.85-1.13,1.43-1.49-14.91-10.12-12.43-12.38-14.14-16.26-.45-1.01-1.1-1.91-1.55-2.91ZM253.34,116.15c-5.23.93-5.16.91-10.42,1.29-.15.23-1.59.32-1.67,2.6,0,.15-.06,1.75.09,1.92.83.93,8.39-.97,14.5-2.5l-2.5-3.31ZM165.67,29.24c-3.05-.3-7.34-1.83-16.22,2.52-6.44,3.16-4.92,5-5.58,5.88.51.22.69.93,1.2,1.15,3.1,1.35,8.33-5.26,15.65-5.94,1.35-.13,1.47.61,2.56-.18,1.74-1.27.63-2.15,2.38-3.42ZM197.07,82.32c.81.36,1.51,1.78,6.08,2.71,7.43,1.51,13.21,6.14,15.48,7.5l-.34-3.91c-.19-.58-3.76-3.5-4.11-3.78-.86-.71-5.32-4.34-13.43-3.77-2.99.21-3,1.01-3.69,1.25ZM154.9,45.62c.48,1.4.1,2.99.58,4.38.26.76,1.09.27,5.16,8.64.77-1.87,1.92-.91,2.68-2.76.06-.16.11-.27-.73-2-4.74-9.77-6.8-7.69-7.7-8.27ZM194.69,104.03c.05,2.02,1.75,1.32,1.8,3.36,0,.18.02.8-1.68,1.42-.87.32-1.91-.11-2.78.21l-2.16.9c-.02.76-.97,1.31-.99,2.07-.1,4.13,6.41,3.93,8.28,2.12.47-.45.34-1.34.82-1.77.51-.46,1.49-.16,1.93-.68.46-.54,0-1.53.45-2.09.93-1.17,2.85-1.49,3.46-2.86.11-.26-1.77-3.36-4.25-4.05-3.09-.85-4.84,1.36-4.87,1.37ZM256.51,101.64c-.85-1.17-9.01-12.35-13.19-12.44-.54-.01-1.5.24.51,6.7,1.87,5.98.72,6.1.89,6.6.43,1.25,10.85-.69,11.78-.86ZM259.91,48.94c-3.31,1.7-3.43,1.55-3.57,1.84-.61,1.28.58,1.41-.03,2.68.78.02,1.37.9,2.14.92,1.11.02,2.14-.64,3.24-.8,6.84-1.02,6.99-.23,7.46-.6.52-.4.01-1.48.53-1.88-4.91-.99-4.83-.97-9.77-2.15ZM126.26,21.76c-2.16,0-.92-2.42-3.05-2.41-.85,0-.52.51-2.76,2.42-.46.39-4.32,3.69-5.71,4.86-1.45,1.22-1.19,1.39-2.44,2.85.52.65-.3,1.84.22,2.49.49.62,4.99.87,6.78-.8.62-.58,2.06-4.18,6.95-9.42ZM154.51,126.18c6.89.05,6.85.36,13.61-.84-.7-1.36-1.06-1.06-1.73-2.39-1.15-2.26-.61-2.4-1.83-4.59-1.74-3.12-5.05.28-5.35.59-1.6,1.64-3.6,2.25-4.11,3.97-.31,1.06-.27,2.21-.59,3.27ZM309.66,94.67c1.09-.87,2.36.61,5.1-4.08,5.99-10.25-8.66-23.64-10.29-20.92-.77,1.28,1.65,1.76-2.92,18.42-1.15,4.18-1.61,4.02-1.51,4.37.21.76,1.45,1.09,1.6,1.13.63.17.6.08,8.02,1.07ZM186.71,45.91c-.1,1.04-2.05,1.24-2.16,2.28-.07.65,1.08.42,1.83,7.96.09.95.05,1.91.15,2.86.81-1.36,2.95-1.55,3.75-2.91.07-.12-.72-4.49-.96-5.04-.76-1.77-1.85-3.38-2.61-5.15Z"/>
  </g>
</svg>